<?xml version="1.0" encoding="utf-8" standalone="no"?>
<!DOCTYPE svg PUBLIC "-//W3C//DTD SVG 1.1//EN"
  "http://www.w3.org/Graphics/SVG/1.1/DTD/svg11.dtd">
<!-- Created with matplotlib (https://matplotlib.org/) -->
<svg height="157.677298pt" version="1.1" viewBox="0 0 558.290312 157.677298" width="558.290312pt" xmlns="http://www.w3.org/2000/svg" xmlns:xlink="http://www.w3.org/1999/xlink">
 <defs>
  <style type="text/css">
*{stroke-linecap:butt;stroke-linejoin:round;}
  </style>
 </defs>
 <g id="figure_1">
  <g id="patch_1">
   <path d="M 0 157.677298 
L 558.290312 157.677298 
L 558.290312 0 
L 0 0 
z
" style="fill:none;"/>
  </g>
  <g id="axes_1">
   <g id="patch_2">
    <path clip-path="url(#p2ebbe5818c)" d="M 55.167427 38.89015 
Q 42.312085 65.853836 36.868727 95.225879 
" style="fill:none;stroke:#008000;stroke-linecap:round;stroke-width:2;"/>
    <path clip-path="url(#p2ebbe5818c)" d="M 53.404055 40.265112 
L 55.167427 38.89015 
L 55.209373 41.125824 
L 53.404055 40.265112 
z
" style="fill:#008000;stroke:#008000;stroke-linecap:round;stroke-width:2;"/>
    <path clip-path="url(#p2ebbe5818c)" d="M 38.216428 93.441586 
L 36.868727 95.225879 
L 36.249913 93.077143 
L 38.216428 93.441586 
z
" style="fill:#008000;stroke:#008000;stroke-linecap:round;stroke-width:2;"/>
   </g>
   <g id="patch_3">
    <path clip-path="url(#p2ebbe5818c)" d="M 142.161613 93.625104 
C 146.083026 93.625104 149.844356 92.06711 152.617214 89.294252 
C 155.390072 86.521394 156.948066 82.760064 156.948066 78.838651 
C 156.948066 74.917238 155.390072 71.155908 152.617214 68.38305 
C 149.844356 65.610192 146.083026 64.052198 142.161613 64.052198 
C 138.2402 64.052198 134.47887 65.610192 131.706012 68.38305 
C 128.933154 71.155908 127.37516 74.917238 127.37516 78.838651 
C 127.37516 82.760064 128.933154 86.521394 131.706012 89.294252 
C 134.47887 92.06711 138.2402 93.625104 142.161613 93.625104 
z
" style="fill:#1f77b4;"/>
   </g>
   <g id="patch_4">
    <path clip-path="url(#p2ebbe5818c)" d="M 130.738447 58.468212 
C 134.65986 58.468212 138.42119 56.910218 141.194048 54.13736 
C 143.966905 51.364502 145.524899 47.603172 145.524899 43.681759 
C 145.524899 39.760346 143.966905 35.999016 141.194048 33.226158 
C 138.42119 30.4533 134.65986 28.895306 130.738447 28.895306 
C 126.817033 28.895306 123.055703 30.4533 120.282846 33.226158 
C 117.509988 35.999016 115.951994 39.760346 115.951994 43.681759 
C 115.951994 47.603172 117.509988 51.364502 120.282846 54.13736 
C 123.055703 56.910218 126.817033 58.468212 130.738447 58.468212 
z
" style="fill:#aec7e8;"/>
   </g>
   <g id="patch_5">
    <path clip-path="url(#p2ebbe5818c)" d="M 100.832206 36.740055 
C 104.753619 36.740055 108.514949 35.182061 111.287807 32.409204 
C 114.060665 29.636346 115.618659 25.875016 115.618659 21.953603 
C 115.618659 18.03219 114.060665 14.270859 111.287807 11.498002 
C 108.514949 8.725144 104.753619 7.16715 100.832206 7.16715 
C 96.910793 7.16715 93.149463 8.725144 90.376605 11.498002 
C 87.603747 14.270859 86.045753 18.03219 86.045753 21.953603 
C 86.045753 25.875016 87.603747 29.636346 90.376605 32.409204 
C 93.149463 35.182061 96.910793 36.740055 100.832206 36.740055 
z
" style="fill:#ff7f0e;"/>
   </g>
   <g id="patch_6">
    <path clip-path="url(#p2ebbe5818c)" d="M 63.866061 36.740059 
C 67.787474 36.740059 71.548804 35.182065 74.321662 32.409207 
C 77.09452 29.636349 78.652513 25.875019 78.652513 21.953606 
C 78.652513 18.032193 77.09452 14.270863 74.321662 11.498005 
C 71.548804 8.725147 67.787474 7.167153 63.866061 7.167153 
C 59.944648 7.167153 56.183318 8.725147 53.41046 11.498005 
C 50.637602 14.270863 49.079608 18.032193 49.079608 21.953606 
C 49.079608 25.875019 50.637602 29.636349 53.41046 32.409207 
C 56.183318 35.182065 59.944648 36.740059 63.866061 36.740059 
z
" style="fill:#ffbb78;"/>
   </g>
   <g id="patch_7">
    <path clip-path="url(#p2ebbe5818c)" d="M 33.95982 58.468215 
C 37.881233 58.468215 41.642563 56.910221 44.415421 54.137364 
C 47.188279 51.364506 48.746273 47.603176 48.746273 43.681763 
C 48.746273 39.760349 47.188279 35.999019 44.415421 33.226162 
C 41.642563 30.453304 37.881233 28.89531 33.95982 28.89531 
C 30.038407 28.89531 26.277077 30.453304 23.504219 33.226162 
C 20.731361 35.999019 19.173367 39.760349 19.173367 43.681763 
C 19.173367 47.603176 20.731361 51.364506 23.504219 54.137364 
C 26.277077 56.910221 30.038407 58.468215 33.95982 58.468215 
z
" style="fill:#2ca02c;"/>
   </g>
   <g id="patch_8">
    <path clip-path="url(#p2ebbe5818c)" d="M 22.536657 93.625109 
C 26.45807 93.625109 30.219401 92.067115 32.992258 89.294257 
C 35.765116 86.521399 37.32311 82.760069 37.32311 78.838656 
C 37.32311 74.917243 35.765116 71.155913 32.992258 68.383055 
C 30.219401 65.610197 26.45807 64.052203 22.536657 64.052203 
C 18.615244 64.052203 14.853914 65.610197 12.081056 68.383055 
C 9.308199 71.155913 7.750205 74.917243 7.750205 78.838656 
C 7.750205 82.760069 9.308199 86.521399 12.081056 89.294257 
C 14.853914 92.067115 18.615244 93.625109 22.536657 93.625109 
z
" style="fill:#98df8a;"/>
   </g>
   <g id="patch_9">
    <path clip-path="url(#p2ebbe5818c)" d="M 33.959827 128.782002 
C 37.88124 128.782002 41.64257 127.224009 44.415428 124.451151 
C 47.188286 121.678293 48.74628 117.916963 48.74628 113.99555 
C 48.74628 110.074137 47.188286 106.312807 44.415428 103.539949 
C 41.64257 100.767091 37.88124 99.209097 33.959827 99.209097 
C 30.038414 99.209097 26.277084 100.767091 23.504226 103.539949 
C 20.731368 106.312807 19.173375 110.074137 19.173375 113.99555 
C 19.173375 117.916963 20.731368 121.678293 23.504226 124.451151 
C 26.277084 127.224009 30.038414 128.782002 33.959827 128.782002 
z
" style="fill:#d62728;"/>
   </g>
   <g id="patch_10">
    <path clip-path="url(#p2ebbe5818c)" d="M 63.866057 150.510148 
C 67.78747 150.510148 71.5488 148.952154 74.321658 146.179296 
C 77.094516 143.406439 78.65251 139.645108 78.65251 135.723695 
C 78.65251 131.802282 77.094516 128.040952 74.321658 125.268094 
C 71.5488 122.495237 67.78747 120.937243 63.866057 120.937243 
C 59.944644 120.937243 56.183314 122.495237 53.410456 125.268094 
C 50.637598 128.040952 49.079604 131.802282 49.079604 135.723695 
C 49.079604 139.645108 50.637598 143.406439 53.410456 146.179296 
C 56.183314 148.952154 59.944644 150.510148 63.866057 150.510148 
z
" style="fill:#ff9896;"/>
   </g>
   <g id="patch_11">
    <path clip-path="url(#p2ebbe5818c)" d="M 100.832215 150.510148 
C 104.753628 150.510148 108.514958 148.952154 111.287816 146.179296 
C 114.060674 143.406439 115.618668 139.645108 115.618668 135.723695 
C 115.618668 131.802282 114.060674 128.040952 111.287816 125.268094 
C 108.514958 122.495237 104.753628 120.937243 100.832215 120.937243 
C 96.910802 120.937243 93.149472 122.495237 90.376614 125.268094 
C 87.603756 128.040952 86.045762 131.802282 86.045762 135.723695 
C 86.045762 139.645108 87.603756 143.406439 90.376614 146.179296 
C 93.149472 148.952154 96.910802 150.510148 100.832215 150.510148 
z
" style="fill:#9467bd;"/>
   </g>
   <g id="patch_12">
    <path clip-path="url(#p2ebbe5818c)" d="M 130.738443 128.781999 
C 134.659856 128.781999 138.421186 127.224005 141.194044 124.451147 
C 143.966902 121.678289 145.524896 117.916959 145.524896 113.995546 
C 145.524896 110.074133 143.966902 106.312803 141.194044 103.539945 
C 138.421186 100.767087 134.659856 99.209093 130.738443 99.209093 
C 126.81703 99.209093 123.0557 100.767087 120.282842 103.539945 
C 117.509984 106.312803 115.95199 110.074133 115.95199 113.995546 
C 115.95199 117.916959 117.509984 121.678289 120.282842 124.451147 
C 123.0557 127.224005 126.81703 128.781999 130.738443 128.781999 
z
" style="fill:#c5b0d5;"/>
   </g>
   <g id="text_1">
    <!-- 0 -->
    <defs>
     <path d="M 31.78125 66.40625 
Q 24.171875 66.40625 20.328125 58.90625 
Q 16.5 51.421875 16.5 36.375 
Q 16.5 21.390625 20.328125 13.890625 
Q 24.171875 6.390625 31.78125 6.390625 
Q 39.453125 6.390625 43.28125 13.890625 
Q 47.125 21.390625 47.125 36.375 
Q 47.125 51.421875 43.28125 58.90625 
Q 39.453125 66.40625 31.78125 66.40625 
z
M 31.78125 74.21875 
Q 44.046875 74.21875 50.515625 64.515625 
Q 56.984375 54.828125 56.984375 36.375 
Q 56.984375 17.96875 50.515625 8.265625 
Q 44.046875 -1.421875 31.78125 -1.421875 
Q 19.53125 -1.421875 13.0625 8.265625 
Q 6.59375 17.96875 6.59375 36.375 
Q 6.59375 54.828125 13.0625 64.515625 
Q 19.53125 74.21875 31.78125 74.21875 
z
" id="DejaVuSans-48"/>
    </defs>
    <g transform="translate(141.843488 79.114588)scale(0.01 -0.01)">
     <use xlink:href="#DejaVuSans-48"/>
    </g>
   </g>
   <g id="text_2">
    <!-- 1 -->
    <defs>
     <path d="M 12.40625 8.296875 
L 28.515625 8.296875 
L 28.515625 63.921875 
L 10.984375 60.40625 
L 10.984375 69.390625 
L 28.421875 72.90625 
L 38.28125 72.90625 
L 38.28125 8.296875 
L 54.390625 8.296875 
L 54.390625 0 
L 12.40625 0 
z
" id="DejaVuSans-49"/>
    </defs>
    <g transform="translate(130.420322 43.957696)scale(0.01 -0.01)">
     <use xlink:href="#DejaVuSans-49"/>
    </g>
   </g>
   <g id="text_3">
    <!-- 2 -->
    <defs>
     <path d="M 19.1875 8.296875 
L 53.609375 8.296875 
L 53.609375 0 
L 7.328125 0 
L 7.328125 8.296875 
Q 12.9375 14.109375 22.625 23.890625 
Q 32.328125 33.6875 34.8125 36.53125 
Q 39.546875 41.84375 41.421875 45.53125 
Q 43.3125 49.21875 43.3125 52.78125 
Q 43.3125 58.59375 39.234375 62.25 
Q 35.15625 65.921875 28.609375 65.921875 
Q 23.96875 65.921875 18.8125 64.3125 
Q 13.671875 62.703125 7.8125 59.421875 
L 7.8125 69.390625 
Q 13.765625 71.78125 18.9375 73 
Q 24.125 74.21875 28.421875 74.21875 
Q 39.75 74.21875 46.484375 68.546875 
Q 53.21875 62.890625 53.21875 53.421875 
Q 53.21875 48.921875 51.53125 44.890625 
Q 49.859375 40.875 45.40625 35.40625 
Q 44.1875 33.984375 37.640625 27.21875 
Q 31.109375 20.453125 19.1875 8.296875 
z
" id="DejaVuSans-50"/>
    </defs>
    <g transform="translate(100.514081 22.22954)scale(0.01 -0.01)">
     <use xlink:href="#DejaVuSans-50"/>
    </g>
   </g>
   <g id="text_4">
    <!-- 3 -->
    <defs>
     <path d="M 40.578125 39.3125 
Q 47.65625 37.796875 51.625 33 
Q 55.609375 28.21875 55.609375 21.1875 
Q 55.609375 10.40625 48.1875 4.484375 
Q 40.765625 -1.421875 27.09375 -1.421875 
Q 22.515625 -1.421875 17.65625 -0.515625 
Q 12.796875 0.390625 7.625 2.203125 
L 7.625 11.71875 
Q 11.71875 9.328125 16.59375 8.109375 
Q 21.484375 6.890625 26.8125 6.890625 
Q 36.078125 6.890625 40.9375 10.546875 
Q 45.796875 14.203125 45.796875 21.1875 
Q 45.796875 27.640625 41.28125 31.265625 
Q 36.765625 34.90625 28.71875 34.90625 
L 20.21875 34.90625 
L 20.21875 43.015625 
L 29.109375 43.015625 
Q 36.375 43.015625 40.234375 45.921875 
Q 44.09375 48.828125 44.09375 54.296875 
Q 44.09375 59.90625 40.109375 62.90625 
Q 36.140625 65.921875 28.71875 65.921875 
Q 24.65625 65.921875 20.015625 65.03125 
Q 15.375 64.15625 9.8125 62.3125 
L 9.8125 71.09375 
Q 15.4375 72.65625 20.34375 73.4375 
Q 25.25 74.21875 29.59375 74.21875 
Q 40.828125 74.21875 47.359375 69.109375 
Q 53.90625 64.015625 53.90625 55.328125 
Q 53.90625 49.265625 50.4375 45.09375 
Q 46.96875 40.921875 40.578125 39.3125 
z
" id="DejaVuSans-51"/>
    </defs>
    <g transform="translate(63.547936 22.229544)scale(0.01 -0.01)">
     <use xlink:href="#DejaVuSans-51"/>
    </g>
   </g>
   <g id="text_5">
    <!-- 4 -->
    <defs>
     <path d="M 37.796875 64.3125 
L 12.890625 25.390625 
L 37.796875 25.390625 
z
M 35.203125 72.90625 
L 47.609375 72.90625 
L 47.609375 25.390625 
L 58.015625 25.390625 
L 58.015625 17.1875 
L 47.609375 17.1875 
L 47.609375 0 
L 37.796875 0 
L 37.796875 17.1875 
L 4.890625 17.1875 
L 4.890625 26.703125 
z
" id="DejaVuSans-52"/>
    </defs>
    <g transform="translate(33.641695 43.9577)scale(0.01 -0.01)">
     <use xlink:href="#DejaVuSans-52"/>
    </g>
   </g>
   <g id="text_6">
    <!-- 5 -->
    <defs>
     <path d="M 10.796875 72.90625 
L 49.515625 72.90625 
L 49.515625 64.59375 
L 19.828125 64.59375 
L 19.828125 46.734375 
Q 21.96875 47.46875 24.109375 47.828125 
Q 26.265625 48.1875 28.421875 48.1875 
Q 40.625 48.1875 47.75 41.5 
Q 54.890625 34.8125 54.890625 23.390625 
Q 54.890625 11.625 47.5625 5.09375 
Q 40.234375 -1.421875 26.90625 -1.421875 
Q 22.3125 -1.421875 17.546875 -0.640625 
Q 12.796875 0.140625 7.71875 1.703125 
L 7.71875 11.625 
Q 12.109375 9.234375 16.796875 8.0625 
Q 21.484375 6.890625 26.703125 6.890625 
Q 35.15625 6.890625 40.078125 11.328125 
Q 45.015625 15.765625 45.015625 23.390625 
Q 45.015625 31 40.078125 35.4375 
Q 35.15625 39.890625 26.703125 39.890625 
Q 22.75 39.890625 18.8125 39.015625 
Q 14.890625 38.140625 10.796875 36.28125 
z
" id="DejaVuSans-53"/>
    </defs>
    <g transform="translate(22.218532 79.114594)scale(0.01 -0.01)">
     <use xlink:href="#DejaVuSans-53"/>
    </g>
   </g>
   <g id="text_7">
    <!-- 6 -->
    <defs>
     <path d="M 33.015625 40.375 
Q 26.375 40.375 22.484375 35.828125 
Q 18.609375 31.296875 18.609375 23.390625 
Q 18.609375 15.53125 22.484375 10.953125 
Q 26.375 6.390625 33.015625 6.390625 
Q 39.65625 6.390625 43.53125 10.953125 
Q 47.40625 15.53125 47.40625 23.390625 
Q 47.40625 31.296875 43.53125 35.828125 
Q 39.65625 40.375 33.015625 40.375 
z
M 52.59375 71.296875 
L 52.59375 62.3125 
Q 48.875 64.0625 45.09375 64.984375 
Q 41.3125 65.921875 37.59375 65.921875 
Q 27.828125 65.921875 22.671875 59.328125 
Q 17.53125 52.734375 16.796875 39.40625 
Q 19.671875 43.65625 24.015625 45.921875 
Q 28.375 48.1875 33.59375 48.1875 
Q 44.578125 48.1875 50.953125 41.515625 
Q 57.328125 34.859375 57.328125 23.390625 
Q 57.328125 12.15625 50.6875 5.359375 
Q 44.046875 -1.421875 33.015625 -1.421875 
Q 20.359375 -1.421875 13.671875 8.265625 
Q 6.984375 17.96875 6.984375 36.375 
Q 6.984375 53.65625 15.1875 63.9375 
Q 23.390625 74.21875 37.203125 74.21875 
Q 40.921875 74.21875 44.703125 73.484375 
Q 48.484375 72.75 52.59375 71.296875 
z
" id="DejaVuSans-54"/>
    </defs>
    <g transform="translate(33.641702 114.271487)scale(0.01 -0.01)">
     <use xlink:href="#DejaVuSans-54"/>
    </g>
   </g>
   <g id="text_8">
    <!-- 7 -->
    <defs>
     <path d="M 8.203125 72.90625 
L 55.078125 72.90625 
L 55.078125 68.703125 
L 28.609375 0 
L 18.3125 0 
L 43.21875 64.59375 
L 8.203125 64.59375 
z
" id="DejaVuSans-55"/>
    </defs>
    <g transform="translate(63.547932 135.999633)scale(0.01 -0.01)">
     <use xlink:href="#DejaVuSans-55"/>
    </g>
   </g>
   <g id="text_9">
    <!-- 8 -->
    <defs>
     <path d="M 31.78125 34.625 
Q 24.75 34.625 20.71875 30.859375 
Q 16.703125 27.09375 16.703125 20.515625 
Q 16.703125 13.921875 20.71875 10.15625 
Q 24.75 6.390625 31.78125 6.390625 
Q 38.8125 6.390625 42.859375 10.171875 
Q 46.921875 13.96875 46.921875 20.515625 
Q 46.921875 27.09375 42.890625 30.859375 
Q 38.875 34.625 31.78125 34.625 
z
M 21.921875 38.8125 
Q 15.578125 40.375 12.03125 44.71875 
Q 8.5 49.078125 8.5 55.328125 
Q 8.5 64.0625 14.71875 69.140625 
Q 20.953125 74.21875 31.78125 74.21875 
Q 42.671875 74.21875 48.875 69.140625 
Q 55.078125 64.0625 55.078125 55.328125 
Q 55.078125 49.078125 51.53125 44.71875 
Q 48 40.375 41.703125 38.8125 
Q 48.828125 37.15625 52.796875 32.3125 
Q 56.78125 27.484375 56.78125 20.515625 
Q 56.78125 9.90625 50.3125 4.234375 
Q 43.84375 -1.421875 31.78125 -1.421875 
Q 19.734375 -1.421875 13.25 4.234375 
Q 6.78125 9.90625 6.78125 20.515625 
Q 6.78125 27.484375 10.78125 32.3125 
Q 14.796875 37.15625 21.921875 38.8125 
z
M 18.3125 54.390625 
Q 18.3125 48.734375 21.84375 45.5625 
Q 25.390625 42.390625 31.78125 42.390625 
Q 38.140625 42.390625 41.71875 45.5625 
Q 45.3125 48.734375 45.3125 54.390625 
Q 45.3125 60.0625 41.71875 63.234375 
Q 38.140625 66.40625 31.78125 66.40625 
Q 25.390625 66.40625 21.84375 63.234375 
Q 18.3125 60.0625 18.3125 54.390625 
z
" id="DejaVuSans-56"/>
    </defs>
    <g transform="translate(100.51409 135.999633)scale(0.01 -0.01)">
     <use xlink:href="#DejaVuSans-56"/>
    </g>
   </g>
   <g id="text_10">
    <!-- 9 -->
    <defs>
     <path d="M 10.984375 1.515625 
L 10.984375 10.5 
Q 14.703125 8.734375 18.5 7.8125 
Q 22.3125 6.890625 25.984375 6.890625 
Q 35.75 6.890625 40.890625 13.453125 
Q 46.046875 20.015625 46.78125 33.40625 
Q 43.953125 29.203125 39.59375 26.953125 
Q 35.25 24.703125 29.984375 24.703125 
Q 19.046875 24.703125 12.671875 31.3125 
Q 6.296875 37.9375 6.296875 49.421875 
Q 6.296875 60.640625 12.9375 67.421875 
Q 19.578125 74.21875 30.609375 74.21875 
Q 43.265625 74.21875 49.921875 64.515625 
Q 56.59375 54.828125 56.59375 36.375 
Q 56.59375 19.140625 48.40625 8.859375 
Q 40.234375 -1.421875 26.421875 -1.421875 
Q 22.703125 -1.421875 18.890625 -0.6875 
Q 15.09375 0.046875 10.984375 1.515625 
z
M 30.609375 32.421875 
Q 37.25 32.421875 41.125 36.953125 
Q 45.015625 41.5 45.015625 49.421875 
Q 45.015625 57.28125 41.125 61.84375 
Q 37.25 66.40625 30.609375 66.40625 
Q 23.96875 66.40625 20.09375 61.84375 
Q 16.21875 57.28125 16.21875 49.421875 
Q 16.21875 41.5 20.09375 36.953125 
Q 23.96875 32.421875 30.609375 32.421875 
z
" id="DejaVuSans-57"/>
    </defs>
    <g transform="translate(130.420318 114.271484)scale(0.01 -0.01)">
     <use xlink:href="#DejaVuSans-57"/>
    </g>
   </g>
   <g id="patch_13">
    <path d="M 21.938532 19.026174 
Q 22.237594 19.026174 22 19.026174 
" style="fill:none;stroke:#1f77b4;stroke-linecap:round;stroke-width:0.48;"/>
    <path d="M 0 8.026174 
L 22 19.026174 
L 0 30.026174 
L 0 8.026174 
z
" style="fill:#1f77b4;stroke:#1f77b4;stroke-linecap:round;stroke-width:0.48;"/>
   </g>
  </g>
  <g id="axes_2">
   <g id="patch_14">
    <path clip-path="url(#p56053a8191)" d="M 322.212843 70.044201 
Q 287.62341 53.122903 249.692066 46.486802 
" style="fill:none;stroke:#008000;stroke-linecap:round;stroke-width:2;"/>
    <path clip-path="url(#p56053a8191)" d="M 320.855737 68.267051 
L 322.212843 70.044201 
L 319.976859 70.063596 
L 320.855737 68.267051 
z
" style="fill:#008000;stroke:#008000;stroke-linecap:round;stroke-width:2;"/>
    <path clip-path="url(#p56053a8191)" d="M 251.489811 47.816507 
L 249.692066 46.486802 
L 251.834477 45.846429 
L 251.489811 47.816507 
z
" style="fill:#008000;stroke:#008000;stroke-linecap:round;stroke-width:2;"/>
   </g>
   <g id="patch_15">
    <path clip-path="url(#p56053a8191)" d="M 320.394542 75.673974 
Q 279.291411 69.72046 238.188284 75.673675 
" style="fill:none;stroke:#008000;stroke-linecap:round;stroke-width:2;"/>
    <path clip-path="url(#p56053a8191)" d="M 318.558545 74.397607 
L 320.394542 75.673974 
L 318.27185 76.376952 
L 318.558545 74.397607 
z
" style="fill:#008000;stroke:#008000;stroke-linecap:round;stroke-width:2;"/>
    <path clip-path="url(#p56053a8191)" d="M 240.310971 76.376668 
L 238.188284 75.673675 
L 240.02429 74.397321 
L 240.310971 76.376668 
z
" style="fill:#008000;stroke:#008000;stroke-linecap:round;stroke-width:2;"/>
   </g>
   <g id="patch_16">
    <path clip-path="url(#p56053a8191)" d="M 324.912612 62.463156 
Q 323.179947 78.838924 324.912661 95.214693 
" style="fill:none;stroke:#008000;stroke-linecap:round;stroke-width:2;"/>
    <path clip-path="url(#p56053a8191)" d="M 323.707724 64.346834 
L 324.912612 62.463156 
L 325.696622 64.557273 
L 323.707724 64.346834 
z
" style="fill:#008000;stroke:#008000;stroke-linecap:round;stroke-width:2;"/>
    <path clip-path="url(#p56053a8191)" d="M 325.696665 93.120573 
L 324.912661 95.214693 
L 323.707767 93.331017 
L 325.696665 93.120573 
z
" style="fill:#008000;stroke:#008000;stroke-linecap:round;stroke-width:2;"/>
   </g>
   <g id="patch_17">
    <path clip-path="url(#p56053a8191)" d="M 294.637466 40.668749 
Q 289.217885 78.839195 294.637618 117.009642 
" style="fill:none;stroke:#008000;stroke-linecap:round;stroke-width:2;"/>
    <path clip-path="url(#p56053a8191)" d="M 293.366248 42.508316 
L 294.637466 40.668749 
L 295.346388 42.789463 
L 293.366248 42.508316 
z
" style="fill:#008000;stroke:#008000;stroke-linecap:round;stroke-width:2;"/>
    <path clip-path="url(#p56053a8191)" d="M 295.346533 114.888925 
L 294.637618 117.009642 
L 293.366393 115.17008 
L 295.346533 114.888925 
z
" style="fill:#008000;stroke:#008000;stroke-linecap:round;stroke-width:2;"/>
   </g>
   <g id="patch_18">
    <path clip-path="url(#p56053a8191)" d="M 269.285778 38.965633 
Q 287.323371 72.996597 314.11381 100.668233 
" style="fill:none;stroke:#008000;stroke-linecap:round;stroke-width:2;"/>
    <path clip-path="url(#p56053a8191)" d="M 269.338853 41.201071 
L 269.285778 38.965633 
L 271.105973 40.264436 
L 269.338853 41.201071 
z
" style="fill:#008000;stroke:#008000;stroke-linecap:round;stroke-width:2;"/>
    <path clip-path="url(#p56053a8191)" d="M 313.441115 98.53575 
L 314.11381 100.668233 
L 312.004207 99.9269 
L 313.441115 98.53575 
z
" style="fill:#008000;stroke:#008000;stroke-linecap:round;stroke-width:2;"/>
   </g>
   <g id="patch_19">
    <path clip-path="url(#p56053a8191)" d="M 232.88444 92.333135 
Q 254.556228 112.89477 280.809537 127.150511 
" style="fill:none;stroke:#008000;stroke-linecap:round;stroke-width:2;"/>
    <path clip-path="url(#p56053a8191)" d="M 233.647044 94.435142 
L 232.88444 92.333135 
L 235.023608 92.984256 
L 233.647044 94.435142 
z
" style="fill:#008000;stroke:#008000;stroke-linecap:round;stroke-width:2;"/>
    <path clip-path="url(#p56053a8191)" d="M 279.529135 125.317325 
L 280.809537 127.150511 
L 278.574747 127.074921 
L 279.529135 125.317325 
z
" style="fill:#008000;stroke:#008000;stroke-linecap:round;stroke-width:2;"/>
   </g>
   <g id="patch_20">
    <path clip-path="url(#p56053a8191)" d="M 247.938394 122.44395 
Q 262.964815 129.143329 279.060355 132.552452 
" style="fill:none;stroke:#008000;stroke-linecap:round;stroke-width:2;"/>
    <path clip-path="url(#p56053a8191)" d="M 249.357868 124.171693 
L 247.938394 122.44395 
L 250.172273 122.345017 
L 249.357868 124.171693 
z
" style="fill:#008000;stroke:#008000;stroke-linecap:round;stroke-width:2;"/>
    <path clip-path="url(#p56053a8191)" d="M 277.31097 131.159738 
L 279.060355 132.552452 
L 276.896553 133.116332 
L 277.31097 131.159738 
z
" style="fill:#008000;stroke:#008000;stroke-linecap:round;stroke-width:2;"/>
   </g>
   <g id="patch_21">
    <path clip-path="url(#p56053a8191)" d="M 339.102789 93.625104 
C 343.024202 93.625104 346.785533 92.06711 349.55839 89.294252 
C 352.331248 86.521394 353.889242 82.760064 353.889242 78.838651 
C 353.889242 74.917238 352.331248 71.155908 349.55839 68.38305 
C 346.785533 65.610192 343.024202 64.052198 339.102789 64.052198 
C 335.181376 64.052198 331.420046 65.610192 328.647188 68.38305 
C 325.874331 71.155908 324.316337 74.917238 324.316337 78.838651 
C 324.316337 82.760064 325.874331 86.521394 328.647188 89.294252 
C 331.420046 92.06711 335.181376 93.625104 339.102789 93.625104 
z
" style="fill:#1f77b4;"/>
   </g>
   <g id="patch_22">
    <path clip-path="url(#p56053a8191)" d="M 327.679623 58.468212 
C 331.601036 58.468212 335.362366 56.910218 338.135224 54.13736 
C 340.908082 51.364502 342.466076 47.603172 342.466076 43.681759 
C 342.466076 39.760346 340.908082 35.999016 338.135224 33.226158 
C 335.362366 30.4533 331.601036 28.895306 327.679623 28.895306 
C 323.75821 28.895306 319.99688 30.4533 317.224022 33.226158 
C 314.451164 35.999016 312.89317 39.760346 312.89317 43.681759 
C 312.89317 47.603172 314.451164 51.364502 317.224022 54.13736 
C 319.99688 56.910218 323.75821 58.468212 327.679623 58.468212 
z
" style="fill:#aec7e8;"/>
   </g>
   <g id="patch_23">
    <path clip-path="url(#p56053a8191)" d="M 297.773382 36.740055 
C 301.694796 36.740055 305.456126 35.182061 308.228983 32.409204 
C 311.001841 29.636346 312.559835 25.875016 312.559835 21.953603 
C 312.559835 18.03219 311.001841 14.270859 308.228983 11.498002 
C 305.456126 8.725144 301.694796 7.16715 297.773382 7.16715 
C 293.851969 7.16715 290.090639 8.725144 287.317781 11.498002 
C 284.544924 14.270859 282.98693 18.03219 282.98693 21.953603 
C 282.98693 25.875016 284.544924 29.636346 287.317781 32.409204 
C 290.090639 35.182061 293.851969 36.740055 297.773382 36.740055 
z
" style="fill:#ff7f0e;"/>
   </g>
   <g id="patch_24">
    <path clip-path="url(#p56053a8191)" d="M 260.807237 36.740059 
C 264.72865 36.740059 268.48998 35.182065 271.262838 32.409207 
C 274.035696 29.636349 275.59369 25.875019 275.59369 21.953606 
C 275.59369 18.032193 274.035696 14.270863 271.262838 11.498005 
C 268.48998 8.725147 264.72865 7.167153 260.807237 7.167153 
C 256.885824 7.167153 253.124494 8.725147 250.351636 11.498005 
C 247.578778 14.270863 246.020784 18.032193 246.020784 21.953606 
C 246.020784 25.875019 247.578778 29.636349 250.351636 32.409207 
C 253.124494 35.182065 256.885824 36.740059 260.807237 36.740059 
z
" style="fill:#ffbb78;"/>
   </g>
   <g id="patch_25">
    <path clip-path="url(#p56053a8191)" d="M 230.900997 58.468215 
C 234.82241 58.468215 238.58374 56.910221 241.356598 54.137364 
C 244.129455 51.364506 245.687449 47.603176 245.687449 43.681763 
C 245.687449 39.760349 244.129455 35.999019 241.356598 33.226162 
C 238.58374 30.453304 234.82241 28.89531 230.900997 28.89531 
C 226.979583 28.89531 223.218253 30.453304 220.445396 33.226162 
C 217.672538 35.999019 216.114544 39.760349 216.114544 43.681763 
C 216.114544 47.603176 217.672538 51.364506 220.445396 54.137364 
C 223.218253 56.910221 226.979583 58.468215 230.900997 58.468215 
z
" style="fill:#2ca02c;"/>
   </g>
   <g id="patch_26">
    <path clip-path="url(#p56053a8191)" d="M 219.477834 93.625109 
C 223.399247 93.625109 227.160577 92.067115 229.933435 89.294257 
C 232.706293 86.521399 234.264287 82.760069 234.264287 78.838656 
C 234.264287 74.917243 232.706293 71.155913 229.933435 68.383055 
C 227.160577 65.610197 223.399247 64.052203 219.477834 64.052203 
C 215.556421 64.052203 211.795091 65.610197 209.022233 68.383055 
C 206.249375 71.155913 204.691381 74.917243 204.691381 78.838656 
C 204.691381 82.760069 206.249375 86.521399 209.022233 89.294257 
C 211.795091 92.067115 215.556421 93.625109 219.477834 93.625109 
z
" style="fill:#98df8a;"/>
   </g>
   <g id="patch_27">
    <path clip-path="url(#p56053a8191)" d="M 230.901004 128.782002 
C 234.822417 128.782002 238.583747 127.224009 241.356605 124.451151 
C 244.129462 121.678293 245.687456 117.916963 245.687456 113.99555 
C 245.687456 110.074137 244.129462 106.312807 241.356605 103.539949 
C 238.583747 100.767091 234.822417 99.209097 230.901004 99.209097 
C 226.979591 99.209097 223.218261 100.767091 220.445403 103.539949 
C 217.672545 106.312807 216.114551 110.074137 216.114551 113.99555 
C 216.114551 117.916963 217.672545 121.678293 220.445403 124.451151 
C 223.218261 127.224009 226.979591 128.782002 230.901004 128.782002 
z
" style="fill:#d62728;"/>
   </g>
   <g id="patch_28">
    <path clip-path="url(#p56053a8191)" d="M 260.807234 150.510148 
C 264.728647 150.510148 268.489977 148.952154 271.262835 146.179296 
C 274.035692 143.406439 275.593686 139.645108 275.593686 135.723695 
C 275.593686 131.802282 274.035692 128.040952 271.262835 125.268094 
C 268.489977 122.495237 264.728647 120.937243 260.807234 120.937243 
C 256.885821 120.937243 253.12449 122.495237 250.351633 125.268094 
C 247.578775 128.040952 246.020781 131.802282 246.020781 135.723695 
C 246.020781 139.645108 247.578775 143.406439 250.351633 146.179296 
C 253.12449 148.952154 256.885821 150.510148 260.807234 150.510148 
z
" style="fill:#ff9896;"/>
   </g>
   <g id="patch_29">
    <path clip-path="url(#p56053a8191)" d="M 297.773391 150.510148 
C 301.694804 150.510148 305.456135 148.952154 308.228992 146.179296 
C 311.00185 143.406439 312.559844 139.645108 312.559844 135.723695 
C 312.559844 131.802282 311.00185 128.040952 308.228992 125.268094 
C 305.456135 122.495237 301.694804 120.937243 297.773391 120.937243 
C 293.851978 120.937243 290.090648 122.495237 287.31779 125.268094 
C 284.544933 128.040952 282.986939 131.802282 282.986939 135.723695 
C 282.986939 139.645108 284.544933 143.406439 287.31779 146.179296 
C 290.090648 148.952154 293.851978 150.510148 297.773391 150.510148 
z
" style="fill:#9467bd;"/>
   </g>
   <g id="patch_30">
    <path clip-path="url(#p56053a8191)" d="M 327.67962 128.781999 
C 331.601033 128.781999 335.362363 127.224005 338.135221 124.451147 
C 340.908078 121.678289 342.466072 117.916959 342.466072 113.995546 
C 342.466072 110.074133 340.908078 106.312803 338.135221 103.539945 
C 335.362363 100.767087 331.601033 99.209093 327.67962 99.209093 
C 323.758206 99.209093 319.996876 100.767087 317.224019 103.539945 
C 314.451161 106.312803 312.893167 110.074133 312.893167 113.995546 
C 312.893167 117.916959 314.451161 121.678289 317.224019 124.451147 
C 319.996876 127.224005 323.758206 128.781999 327.67962 128.781999 
z
" style="fill:#c5b0d5;"/>
   </g>
   <g id="text_11">
    <!-- 0 -->
    <g transform="translate(338.784664 79.114588)scale(0.01 -0.01)">
     <use xlink:href="#DejaVuSans-48"/>
    </g>
   </g>
   <g id="text_12">
    <!-- 1 -->
    <g transform="translate(327.361498 43.957696)scale(0.01 -0.01)">
     <use xlink:href="#DejaVuSans-49"/>
    </g>
   </g>
   <g id="text_13">
    <!-- 2 -->
    <g transform="translate(297.455257 22.22954)scale(0.01 -0.01)">
     <use xlink:href="#DejaVuSans-50"/>
    </g>
   </g>
   <g id="text_14">
    <!-- 3 -->
    <g transform="translate(260.489112 22.229544)scale(0.01 -0.01)">
     <use xlink:href="#DejaVuSans-51"/>
    </g>
   </g>
   <g id="text_15">
    <!-- 4 -->
    <g transform="translate(230.582872 43.9577)scale(0.01 -0.01)">
     <use xlink:href="#DejaVuSans-52"/>
    </g>
   </g>
   <g id="text_16">
    <!-- 5 -->
    <g transform="translate(219.159709 79.114594)scale(0.01 -0.01)">
     <use xlink:href="#DejaVuSans-53"/>
    </g>
   </g>
   <g id="text_17">
    <!-- 6 -->
    <g transform="translate(230.582879 114.271487)scale(0.01 -0.01)">
     <use xlink:href="#DejaVuSans-54"/>
    </g>
   </g>
   <g id="text_18">
    <!-- 7 -->
    <g transform="translate(260.489109 135.999633)scale(0.01 -0.01)">
     <use xlink:href="#DejaVuSans-55"/>
    </g>
   </g>
   <g id="text_19">
    <!-- 8 -->
    <g transform="translate(297.455266 135.999633)scale(0.01 -0.01)">
     <use xlink:href="#DejaVuSans-56"/>
    </g>
   </g>
   <g id="text_20">
    <!-- 9 -->
    <g transform="translate(327.361495 114.271484)scale(0.01 -0.01)">
     <use xlink:href="#DejaVuSans-57"/>
    </g>
   </g>
   <g id="patch_31">
    <path d="M 218.879708 19.026174 
Q 219.17877 19.026174 218.941176 19.026174 
" style="fill:none;stroke:#ff7f0e;stroke-linecap:round;stroke-width:0.48;"/>
    <path d="M 196.941176 8.026174 
L 218.941176 19.026174 
L 196.941176 30.026174 
L 196.941176 8.026174 
z
" style="fill:#ff7f0e;stroke:#ff7f0e;stroke-linecap:round;stroke-width:0.48;"/>
   </g>
  </g>
  <g id="axes_3">
   <g id="patch_32">
    <path clip-path="url(#pf99de7e641)" d="M 522.637361 65.344171 
Q 500.965575 44.782534 474.712267 30.526792 
" style="fill:none;stroke:#008000;stroke-linecap:round;stroke-width:2;"/>
    <path clip-path="url(#pf99de7e641)" d="M 521.874757 63.242164 
L 522.637361 65.344171 
L 520.498193 64.69305 
L 521.874757 63.242164 
z
" style="fill:#008000;stroke:#008000;stroke-linecap:round;stroke-width:2;"/>
    <path clip-path="url(#pf99de7e641)" d="M 475.992669 32.359978 
L 474.712267 30.526792 
L 476.947057 30.602382 
L 475.992669 32.359978 
z
" style="fill:#008000;stroke:#008000;stroke-linecap:round;stroke-width:2;"/>
   </g>
   <g id="patch_33">
    <path clip-path="url(#pf99de7e641)" d="M 519.15402 70.044201 
Q 484.564587 53.122903 446.633243 46.486802 
" style="fill:none;stroke:#008000;stroke-linecap:round;stroke-width:2;"/>
    <path clip-path="url(#pf99de7e641)" d="M 517.796913 68.267051 
L 519.15402 70.044201 
L 516.918036 70.063596 
L 517.796913 68.267051 
z
" style="fill:#008000;stroke:#008000;stroke-linecap:round;stroke-width:2;"/>
    <path clip-path="url(#pf99de7e641)" d="M 448.430987 47.816507 
L 446.633243 46.486802 
L 448.775653 45.846429 
L 448.430987 47.816507 
z
" style="fill:#008000;stroke:#008000;stroke-linecap:round;stroke-width:2;"/>
   </g>
   <g id="patch_34">
    <path clip-path="url(#pf99de7e641)" d="M 517.251879 81.643879 
Q 479.320951 88.280049 444.731872 105.20122 
" style="fill:none;stroke:#008000;stroke-linecap:round;stroke-width:2;"/>
    <path clip-path="url(#pf99de7e641)" d="M 515.109466 81.003513 
L 517.251879 81.643879 
L 515.454139 82.97359 
L 515.109466 81.003513 
z
" style="fill:#008000;stroke:#008000;stroke-linecap:round;stroke-width:2;"/>
    <path clip-path="url(#pf99de7e641)" d="M 446.967855 105.220613 
L 444.731872 105.20122 
L 446.088976 103.424069 
L 446.967855 105.220613 
z
" style="fill:#008000;stroke:#008000;stroke-linecap:round;stroke-width:2;"/>
   </g>
   <g id="patch_35">
    <path clip-path="url(#pf99de7e641)" d="M 519.077511 87.413279 
Q 492.824548 101.66924 471.153058 122.231039 
" style="fill:none;stroke:#008000;stroke-linecap:round;stroke-width:2;"/>
    <path clip-path="url(#pf99de7e641)" d="M 516.842722 87.488896 
L 519.077511 87.413279 
L 517.797131 89.246481 
L 516.842722 87.488896 
z
" style="fill:#008000;stroke:#008000;stroke-linecap:round;stroke-width:2;"/>
    <path clip-path="url(#pf99de7e641)" d="M 473.29222 121.579895 
L 471.153058 122.231039 
L 471.91564 120.129024 
L 473.29222 121.579895 
z
" style="fill:#008000;stroke:#008000;stroke-linecap:round;stroke-width:2;"/>
   </g>
   <g id="patch_36">
    <path clip-path="url(#pf99de7e641)" d="M 507.58341 35.233357 
Q 492.55699 28.533976 476.46145 25.124851 
" style="fill:none;stroke:#008000;stroke-linecap:round;stroke-width:2;"/>
    <path clip-path="url(#pf99de7e641)" d="M 506.163937 33.505614 
L 507.58341 35.233357 
L 505.349531 35.332289 
L 506.163937 33.505614 
z
" style="fill:#008000;stroke:#008000;stroke-linecap:round;stroke-width:2;"/>
    <path clip-path="url(#pf99de7e641)" d="M 478.210834 26.517565 
L 476.46145 25.124851 
L 478.625252 24.560972 
L 478.210834 26.517565 
z
" style="fill:#008000;stroke:#008000;stroke-linecap:round;stroke-width:2;"/>
   </g>
   <g id="patch_37">
    <path clip-path="url(#pf99de7e641)" d="M 475.79716 20.079276 
Q 476.230031 20.087714 476.662901 20.079263 
" style="fill:none;stroke:#008000;stroke-linecap:round;stroke-width:2;"/>
    <path clip-path="url(#pf99de7e641)" d="M 473.817028 19.040491 
L 475.79716 20.079276 
L 473.778052 21.040111 
L 473.817028 19.040491 
z
" style="fill:#008000;stroke:#008000;stroke-linecap:round;stroke-width:2;"/>
    <path clip-path="url(#pf99de7e641)" d="M 478.682039 21.040033 
L 476.662901 20.079263 
L 478.643 19.040414 
L 478.682039 21.040033 
z
" style="fill:#008000;stroke:#008000;stroke-linecap:round;stroke-width:2;"/>
   </g>
   <g id="patch_38">
    <path clip-path="url(#pf99de7e641)" d="M 475.998947 25.125429 
Q 459.904314 28.534611 444.878694 35.233732 
" style="fill:none;stroke:#008000;stroke-linecap:round;stroke-width:2;"/>
    <path clip-path="url(#pf99de7e641)" d="M 473.835137 24.561582 
L 475.998947 25.125429 
L 474.249583 26.518169 
L 473.835137 24.561582 
z
" style="fill:#008000;stroke:#008000;stroke-linecap:round;stroke-width:2;"/>
    <path clip-path="url(#pf99de7e641)" d="M 447.112573 35.332653 
L 444.878694 35.233732 
L 446.298158 33.505982 
L 447.112573 35.332653 
z
" style="fill:#008000;stroke:#008000;stroke-linecap:round;stroke-width:2;"/>
   </g>
   <g id="patch_39">
    <path clip-path="url(#pf99de7e641)" d="M 477.748105 30.528233 
Q 451.495144 44.784197 429.823657 65.345998 
" style="fill:none;stroke:#008000;stroke-linecap:round;stroke-width:2;"/>
    <path clip-path="url(#pf99de7e641)" d="M 475.513316 30.60385 
L 477.748105 30.528233 
L 476.467725 32.361434 
L 475.513316 30.60385 
z
" style="fill:#008000;stroke:#008000;stroke-linecap:round;stroke-width:2;"/>
    <path clip-path="url(#pf99de7e641)" d="M 431.962818 64.694854 
L 429.823657 65.345998 
L 430.586238 63.243983 
L 431.962818 64.694854 
z
" style="fill:#008000;stroke:#008000;stroke-linecap:round;stroke-width:2;"/>
   </g>
   <g id="patch_40">
    <path clip-path="url(#pf99de7e641)" d="M 481.150232 35.279363 
Q 454.35749 62.952975 436.318911 96.986872 
" style="fill:none;stroke:#008000;stroke-linecap:round;stroke-width:2;"/>
    <path clip-path="url(#pf99de7e641)" d="M 479.040624 36.02068 
L 481.150232 35.279363 
L 480.477521 37.41184 
L 479.040624 36.02068 
z
" style="fill:#008000;stroke:#008000;stroke-linecap:round;stroke-width:2;"/>
    <path clip-path="url(#pf99de7e641)" d="M 438.13909 95.688046 
L 436.318911 96.986872 
L 436.371957 94.751433 
L 438.13909 95.688046 
z
" style="fill:#008000;stroke:#008000;stroke-linecap:round;stroke-width:2;"/>
   </g>
   <g id="patch_41">
    <path clip-path="url(#pf99de7e641)" d="M 485.893045 38.831425 
Q 467.558437 76.045414 460.523762 116.931026 
" style="fill:none;stroke:#008000;stroke-linecap:round;stroke-width:2;"/>
    <path clip-path="url(#pf99de7e641)" d="M 484.1121 40.183548 
L 485.893045 38.831425 
L 485.906176 41.067454 
L 484.1121 40.183548 
z
" style="fill:#008000;stroke:#008000;stroke-linecap:round;stroke-width:2;"/>
    <path clip-path="url(#pf99de7e641)" d="M 461.848413 115.129554 
L 460.523762 116.931026 
L 459.877375 114.790422 
L 461.848413 115.129554 
z
" style="fill:#008000;stroke:#008000;stroke-linecap:round;stroke-width:2;"/>
   </g>
   <g id="patch_42">
    <path clip-path="url(#pf99de7e641)" d="M 441.347057 31.553058 
Q 441.69696 31.309147 442.037048 31.051729 
" style="fill:none;stroke:#008000;stroke-linecap:round;stroke-width:2;"/>
    <path clip-path="url(#pf99de7e641)" d="M 439.134493 31.876411 
L 441.347057 31.553058 
L 440.278201 33.517122 
L 439.134493 31.876411 
z
" style="fill:#008000;stroke:#008000;stroke-linecap:round;stroke-width:2;"/>
    <path clip-path="url(#pf99de7e641)" d="M 444.235262 30.642027 
L 442.037048 31.051729 
L 443.028214 29.047337 
L 444.235262 30.642027 
z
" style="fill:#008000;stroke:#008000;stroke-linecap:round;stroke-width:2;"/>
   </g>
   <g id="patch_43">
    <path clip-path="url(#pf99de7e641)" d="M 444.446422 35.548977 
Q 433.44693 47.753091 425.239067 61.985441 
" style="fill:none;stroke:#008000;stroke-linecap:round;stroke-width:2;"/>
    <path clip-path="url(#pf99de7e641)" d="M 442.364615 36.365114 
L 444.446422 35.548977 
L 443.850247 37.704105 
L 442.364615 36.365114 
z
" style="fill:#008000;stroke:#008000;stroke-linecap:round;stroke-width:2;"/>
    <path clip-path="url(#pf99de7e641)" d="M 427.104495 60.752486 
L 425.239067 61.985441 
L 425.37196 59.753325 
L 427.104495 60.752486 
z
" style="fill:#008000;stroke:#008000;stroke-linecap:round;stroke-width:2;"/>
   </g>
   <g id="patch_44">
    <path clip-path="url(#pf99de7e641)" d="M 454.612495 40.668752 
Q 449.192911 78.839196 454.612639 117.009642 
" style="fill:none;stroke:#008000;stroke-linecap:round;stroke-width:2;"/>
    <path clip-path="url(#pf99de7e641)" d="M 453.341277 42.508318 
L 454.612495 40.668752 
L 455.321418 42.789466 
L 453.341277 42.508318 
z
" style="fill:#008000;stroke:#008000;stroke-linecap:round;stroke-width:2;"/>
    <path clip-path="url(#pf99de7e641)" d="M 455.321554 114.888925 
L 454.612639 117.009642 
L 453.341415 115.17008 
L 455.321554 114.888925 
z
" style="fill:#008000;stroke:#008000;stroke-linecap:round;stroke-width:2;"/>
   </g>
   <g id="patch_45">
    <path clip-path="url(#pf99de7e641)" d="M 460.524368 40.749622 
Q 467.559423 81.634736 485.894223 118.848293 
" style="fill:none;stroke:#008000;stroke-linecap:round;stroke-width:2;"/>
    <path clip-path="url(#pf99de7e641)" d="M 459.878004 42.890233 
L 460.524368 40.749622 
L 461.849038 42.55108 
L 459.878004 42.890233 
z
" style="fill:#008000;stroke:#008000;stroke-linecap:round;stroke-width:2;"/>
    <path clip-path="url(#pf99de7e641)" d="M 485.907335 116.612264 
L 485.894223 118.848293 
L 484.113267 117.496186 
L 485.907335 116.612264 
z
" style="fill:#008000;stroke:#008000;stroke-linecap:round;stroke-width:2;"/>
   </g>
   <g id="patch_46">
    <path clip-path="url(#pf99de7e641)" d="M 466.226954 38.965633 
Q 484.264547 72.996597 511.054987 100.668233 
" style="fill:none;stroke:#008000;stroke-linecap:round;stroke-width:2;"/>
    <path clip-path="url(#pf99de7e641)" d="M 466.280029 41.201071 
L 466.226954 38.965633 
L 468.04715 40.264436 
L 466.280029 41.201071 
z
" style="fill:#008000;stroke:#008000;stroke-linecap:round;stroke-width:2;"/>
    <path clip-path="url(#pf99de7e641)" d="M 510.382291 98.53575 
L 511.054987 100.668233 
L 508.945384 99.9269 
L 510.382291 98.53575 
z
" style="fill:#008000;stroke:#008000;stroke-linecap:round;stroke-width:2;"/>
   </g>
   <g id="patch_47">
    <path clip-path="url(#pf99de7e641)" d="M 420.224989 61.059063 
Q 420.352631 60.691276 420.465478 60.318689 
" style="fill:none;stroke:#008000;stroke-linecap:round;stroke-width:2;"/>
    <path clip-path="url(#pf99de7e641)" d="M 418.62453 62.620643 
L 420.224989 61.059063 
L 420.513977 63.276378 
L 418.62453 62.620643 
z
" style="fill:#008000;stroke:#008000;stroke-linecap:round;stroke-width:2;"/>
    <path clip-path="url(#pf99de7e641)" d="M 422.002286 58.694429 
L 420.465478 60.318689 
L 420.088155 58.114687 
L 422.002286 58.694429 
z
" style="fill:#008000;stroke:#008000;stroke-linecap:round;stroke-width:2;"/>
   </g>
   <g id="patch_48">
    <path clip-path="url(#pf99de7e641)" d="M 425.075165 62.46316 
Q 423.342502 78.838928 425.075218 95.214697 
" style="fill:none;stroke:#008000;stroke-linecap:round;stroke-width:2;"/>
    <path clip-path="url(#pf99de7e641)" d="M 423.870277 64.346839 
L 425.075165 62.46316 
L 425.859175 64.557277 
L 423.870277 64.346839 
z
" style="fill:#008000;stroke:#008000;stroke-linecap:round;stroke-width:2;"/>
    <path clip-path="url(#pf99de7e641)" d="M 425.859222 93.120577 
L 425.075218 95.214697 
L 423.870325 93.331021 
L 425.859222 93.120577 
z
" style="fill:#008000;stroke:#008000;stroke-linecap:round;stroke-width:2;"/>
   </g>
   <g id="patch_49">
    <path clip-path="url(#pf99de7e641)" d="M 436.320716 60.693789 
Q 454.358313 94.72475 481.148757 122.396383 
" style="fill:none;stroke:#008000;stroke-linecap:round;stroke-width:2;"/>
    <path clip-path="url(#pf99de7e641)" d="M 436.373791 62.929227 
L 436.320716 60.693789 
L 438.140912 61.992591 
L 436.373791 62.929227 
z
" style="fill:#008000;stroke:#008000;stroke-linecap:round;stroke-width:2;"/>
    <path clip-path="url(#pf99de7e641)" d="M 480.476061 120.263901 
L 481.148757 122.396383 
L 479.039153 121.655051 
L 480.476061 120.263901 
z
" style="fill:#008000;stroke:#008000;stroke-linecap:round;stroke-width:2;"/>
   </g>
   <g id="patch_50">
    <path clip-path="url(#pf99de7e641)" d="M 433.308955 87.633106 
Q 467.898386 104.554404 505.829727 111.190506 
" style="fill:none;stroke:#008000;stroke-linecap:round;stroke-width:2;"/>
    <path clip-path="url(#pf99de7e641)" d="M 434.666062 89.410256 
L 433.308955 87.633106 
L 435.544939 87.613711 
L 434.666062 89.410256 
z
" style="fill:#008000;stroke:#008000;stroke-linecap:round;stroke-width:2;"/>
    <path clip-path="url(#pf99de7e641)" d="M 504.031983 109.860801 
L 505.829727 111.190506 
L 503.687317 111.830879 
L 504.031983 109.860801 
z
" style="fill:#008000;stroke:#008000;stroke-linecap:round;stroke-width:2;"/>
   </g>
   <g id="patch_51">
    <path clip-path="url(#pf99de7e641)" d="M 476.665814 137.598024 
Q 476.232944 137.589587 475.800075 137.598038 
" style="fill:none;stroke:#008000;stroke-linecap:round;stroke-width:2;"/>
    <path clip-path="url(#pf99de7e641)" d="M 478.645947 138.63681 
L 476.665814 137.598024 
L 478.684922 136.63719 
L 478.645947 138.63681 
z
" style="fill:#008000;stroke:#008000;stroke-linecap:round;stroke-width:2;"/>
    <path clip-path="url(#pf99de7e641)" d="M 473.780937 136.637267 
L 475.800075 137.598038 
L 473.819975 138.636886 
L 473.780937 136.637267 
z
" style="fill:#008000;stroke:#008000;stroke-linecap:round;stroke-width:2;"/>
   </g>
   <g id="patch_52">
    <path clip-path="url(#pf99de7e641)" d="M 476.464022 132.551872 
Q 492.558654 129.142692 507.584274 122.443573 
" style="fill:none;stroke:#008000;stroke-linecap:round;stroke-width:2;"/>
    <path clip-path="url(#pf99de7e641)" d="M 478.627832 133.11572 
L 476.464022 132.551872 
L 478.213386 131.159132 
L 478.627832 133.11572 
z
" style="fill:#008000;stroke:#008000;stroke-linecap:round;stroke-width:2;"/>
    <path clip-path="url(#pf99de7e641)" d="M 505.350395 122.344653 
L 507.584274 122.443573 
L 506.16481 124.171324 
L 505.350395 122.344653 
z
" style="fill:#008000;stroke:#008000;stroke-linecap:round;stroke-width:2;"/>
   </g>
   <g id="patch_53">
    <path clip-path="url(#pf99de7e641)" d="M 536.043966 93.625104 
C 539.965379 93.625104 543.726709 92.06711 546.499567 89.294252 
C 549.272425 86.521394 550.830419 82.760064 550.830419 78.838651 
C 550.830419 74.917238 549.272425 71.155908 546.499567 68.38305 
C 543.726709 65.610192 539.965379 64.052198 536.043966 64.052198 
C 532.122553 64.052198 528.361223 65.610192 525.588365 68.38305 
C 522.815507 71.155908 521.257513 74.917238 521.257513 78.838651 
C 521.257513 82.760064 522.815507 86.521394 525.588365 89.294252 
C 528.361223 92.06711 532.122553 93.625104 536.043966 93.625104 
z
" style="fill:#1f77b4;"/>
   </g>
   <g id="patch_54">
    <path clip-path="url(#pf99de7e641)" d="M 524.6208 58.468212 
C 528.542213 58.468212 532.303543 56.910218 535.076401 54.13736 
C 537.849258 51.364502 539.407252 47.603172 539.407252 43.681759 
C 539.407252 39.760346 537.849258 35.999016 535.076401 33.226158 
C 532.303543 30.4533 528.542213 28.895306 524.6208 28.895306 
C 520.699386 28.895306 516.938056 30.4533 514.165199 33.226158 
C 511.392341 35.999016 509.834347 39.760346 509.834347 43.681759 
C 509.834347 47.603172 511.392341 51.364502 514.165199 54.13736 
C 516.938056 56.910218 520.699386 58.468212 524.6208 58.468212 
z
" style="fill:#aec7e8;"/>
   </g>
   <g id="patch_55">
    <path clip-path="url(#pf99de7e641)" d="M 494.714559 36.740055 
C 498.635972 36.740055 502.397302 35.182061 505.17016 32.409204 
C 507.943018 29.636346 509.501012 25.875016 509.501012 21.953603 
C 509.501012 18.03219 507.943018 14.270859 505.17016 11.498002 
C 502.397302 8.725144 498.635972 7.16715 494.714559 7.16715 
C 490.793146 7.16715 487.031816 8.725144 484.258958 11.498002 
C 481.4861 14.270859 479.928106 18.03219 479.928106 21.953603 
C 479.928106 25.875016 481.4861 29.636346 484.258958 32.409204 
C 487.031816 35.182061 490.793146 36.740055 494.714559 36.740055 
z
" style="fill:#ff7f0e;"/>
   </g>
   <g id="patch_56">
    <path clip-path="url(#pf99de7e641)" d="M 457.748414 36.740059 
C 461.669827 36.740059 465.431157 35.182065 468.204015 32.409207 
C 470.976872 29.636349 472.534866 25.875019 472.534866 21.953606 
C 472.534866 18.032193 470.976872 14.270863 468.204015 11.498005 
C 465.431157 8.725147 461.669827 7.167153 457.748414 7.167153 
C 453.827001 7.167153 450.065671 8.725147 447.292813 11.498005 
C 444.519955 14.270863 442.961961 18.032193 442.961961 21.953606 
C 442.961961 25.875019 444.519955 29.636349 447.292813 32.409207 
C 450.065671 35.182065 453.827001 36.740059 457.748414 36.740059 
z
" style="fill:#ffbb78;"/>
   </g>
   <g id="patch_57">
    <path clip-path="url(#pf99de7e641)" d="M 427.842173 58.468215 
C 431.763586 58.468215 435.524916 56.910221 438.297774 54.137364 
C 441.070632 51.364506 442.628626 47.603176 442.628626 43.681763 
C 442.628626 39.760349 441.070632 35.999019 438.297774 33.226162 
C 435.524916 30.453304 431.763586 28.89531 427.842173 28.89531 
C 423.92076 28.89531 420.15943 30.453304 417.386572 33.226162 
C 414.613714 35.999019 413.05572 39.760349 413.05572 43.681763 
C 413.05572 47.603176 414.613714 51.364506 417.386572 54.137364 
C 420.15943 56.910221 423.92076 58.468215 427.842173 58.468215 
z
" style="fill:#2ca02c;"/>
   </g>
   <g id="patch_58">
    <path clip-path="url(#pf99de7e641)" d="M 416.41901 93.625109 
C 420.340423 93.625109 424.101754 92.067115 426.874611 89.294257 
C 429.647469 86.521399 431.205463 82.760069 431.205463 78.838656 
C 431.205463 74.917243 429.647469 71.155913 426.874611 68.383055 
C 424.101754 65.610197 420.340423 64.052203 416.41901 64.052203 
C 412.497597 64.052203 408.736267 65.610197 405.963409 68.383055 
C 403.190552 71.155913 401.632558 74.917243 401.632558 78.838656 
C 401.632558 82.760069 403.190552 86.521399 405.963409 89.294257 
C 408.736267 92.067115 412.497597 93.625109 416.41901 93.625109 
z
" style="fill:#98df8a;"/>
   </g>
   <g id="patch_59">
    <path clip-path="url(#pf99de7e641)" d="M 427.84218 128.782002 
C 431.763593 128.782002 435.524923 127.224009 438.297781 124.451151 
C 441.070639 121.678293 442.628633 117.916963 442.628633 113.99555 
C 442.628633 110.074137 441.070639 106.312807 438.297781 103.539949 
C 435.524923 100.767091 431.763593 99.209097 427.84218 99.209097 
C 423.920767 99.209097 420.159437 100.767091 417.386579 103.539949 
C 414.613721 106.312807 413.055727 110.074137 413.055727 113.99555 
C 413.055727 117.916963 414.613721 121.678293 417.386579 124.451151 
C 420.159437 127.224009 423.920767 128.782002 427.84218 128.782002 
z
" style="fill:#d62728;"/>
   </g>
   <g id="patch_60">
    <path clip-path="url(#pf99de7e641)" d="M 457.74841 150.510148 
C 461.669823 150.510148 465.431153 148.952154 468.204011 146.179296 
C 470.976869 143.406439 472.534863 139.645108 472.534863 135.723695 
C 472.534863 131.802282 470.976869 128.040952 468.204011 125.268094 
C 465.431153 122.495237 461.669823 120.937243 457.74841 120.937243 
C 453.826997 120.937243 450.065667 122.495237 447.292809 125.268094 
C 444.519951 128.040952 442.961957 131.802282 442.961957 135.723695 
C 442.961957 139.645108 444.519951 143.406439 447.292809 146.179296 
C 450.065667 148.952154 453.826997 150.510148 457.74841 150.510148 
z
" style="fill:#ff9896;"/>
   </g>
   <g id="patch_61">
    <path clip-path="url(#pf99de7e641)" d="M 494.714568 150.510148 
C 498.635981 150.510148 502.397311 148.952154 505.170169 146.179296 
C 507.943027 143.406439 509.501021 139.645108 509.501021 135.723695 
C 509.501021 131.802282 507.943027 128.040952 505.170169 125.268094 
C 502.397311 122.495237 498.635981 120.937243 494.714568 120.937243 
C 490.793155 120.937243 487.031825 122.495237 484.258967 125.268094 
C 481.486109 128.040952 479.928115 131.802282 479.928115 135.723695 
C 479.928115 139.645108 481.486109 143.406439 484.258967 146.179296 
C 487.031825 148.952154 490.793155 150.510148 494.714568 150.510148 
z
" style="fill:#9467bd;"/>
   </g>
   <g id="patch_62">
    <path clip-path="url(#pf99de7e641)" d="M 524.620796 128.781999 
C 528.542209 128.781999 532.303539 127.224005 535.076397 124.451147 
C 537.849255 121.678289 539.407249 117.916959 539.407249 113.995546 
C 539.407249 110.074133 537.849255 106.312803 535.076397 103.539945 
C 532.303539 100.767087 528.542209 99.209093 524.620796 99.209093 
C 520.699383 99.209093 516.938053 100.767087 514.165195 103.539945 
C 511.392337 106.312803 509.834343 110.074133 509.834343 113.995546 
C 509.834343 117.916959 511.392337 121.678289 514.165195 124.451147 
C 516.938053 127.224005 520.699383 128.781999 524.620796 128.781999 
z
" style="fill:#c5b0d5;"/>
   </g>
   <g id="text_21">
    <!-- 0 -->
    <g transform="translate(535.725841 79.114588)scale(0.01 -0.01)">
     <use xlink:href="#DejaVuSans-48"/>
    </g>
   </g>
   <g id="text_22">
    <!-- 1 -->
    <g transform="translate(524.302675 43.957696)scale(0.01 -0.01)">
     <use xlink:href="#DejaVuSans-49"/>
    </g>
   </g>
   <g id="text_23">
    <!-- 2 -->
    <g transform="translate(494.396434 22.22954)scale(0.01 -0.01)">
     <use xlink:href="#DejaVuSans-50"/>
    </g>
   </g>
   <g id="text_24">
    <!-- 3 -->
    <g transform="translate(457.430289 22.229544)scale(0.01 -0.01)">
     <use xlink:href="#DejaVuSans-51"/>
    </g>
   </g>
   <g id="text_25">
    <!-- 4 -->
    <g transform="translate(427.524048 43.9577)scale(0.01 -0.01)">
     <use xlink:href="#DejaVuSans-52"/>
    </g>
   </g>
   <g id="text_26">
    <!-- 5 -->
    <g transform="translate(416.100885 79.114594)scale(0.01 -0.01)">
     <use xlink:href="#DejaVuSans-53"/>
    </g>
   </g>
   <g id="text_27">
    <!-- 6 -->
    <g transform="translate(427.524055 114.271487)scale(0.01 -0.01)">
     <use xlink:href="#DejaVuSans-54"/>
    </g>
   </g>
   <g id="text_28">
    <!-- 7 -->
    <g transform="translate(457.430285 135.999633)scale(0.01 -0.01)">
     <use xlink:href="#DejaVuSans-55"/>
    </g>
   </g>
   <g id="text_29">
    <!-- 8 -->
    <g transform="translate(494.396443 135.999633)scale(0.01 -0.01)">
     <use xlink:href="#DejaVuSans-56"/>
    </g>
   </g>
   <g id="text_30">
    <!-- 9 -->
    <g transform="translate(524.302671 114.271484)scale(0.01 -0.01)">
     <use xlink:href="#DejaVuSans-57"/>
    </g>
   </g>
   <g id="patch_63">
    <path d="M 415.820884 19.026174 
Q 416.119947 19.026174 415.882353 19.026174 
" style="fill:none;stroke:#2ca02c;stroke-linecap:round;stroke-width:0.48;"/>
    <path d="M 393.882353 8.026174 
L 415.882353 19.026174 
L 393.882353 30.026174 
L 393.882353 8.026174 
z
" style="fill:#2ca02c;stroke:#2ca02c;stroke-linecap:round;stroke-width:0.48;"/>
   </g>
  </g>
 </g>
 <defs>
  <clipPath id="p2ebbe5818c">
   <rect height="157.677298" width="164.117647" x="0.290312" y="-0"/>
  </clipPath>
  <clipPath id="p56053a8191">
   <rect height="157.677298" width="164.117647" x="197.231488" y="0"/>
  </clipPath>
  <clipPath id="pf99de7e641">
   <rect height="157.677298" width="164.117647" x="394.172665" y="-0"/>
  </clipPath>
 </defs>
</svg>
