<?xml version="1.0" encoding="utf-8" standalone="no"?>
<!DOCTYPE svg PUBLIC "-//W3C//DTD SVG 1.1//EN"
  "http://www.w3.org/Graphics/SVG/1.1/DTD/svg11.dtd">
<!-- Created with matplotlib (https://matplotlib.org/) -->
<svg height="307.385pt" version="1.1" viewBox="0 0 324.235 307.385" width="324.235pt" xmlns="http://www.w3.org/2000/svg" xmlns:xlink="http://www.w3.org/1999/xlink">
 <defs>
  <style type="text/css">
*{stroke-linecap:butt;stroke-linejoin:round;}
  </style>
 </defs>
 <g id="figure_1">
  <g id="patch_1">
   <path d="M 0 307.385 
L 324.235 307.385 
L 324.235 0 
L 0 0 
z
" style="fill:none;"/>
  </g>
  <g id="axes_1">
   <g id="patch_2">
    <path d="M 40.145 277.2 
L 319.145 277.2 
L 319.145 0 
L 40.145 0 
z
" style="fill:none;"/>
   </g>
   <g id="PathCollection_1">
    <defs>
     <path d="M 0 4.1833 
C 1.109424 4.1833 2.173559 3.742521 2.95804 2.95804 
C 3.742521 2.173559 4.1833 1.109424 4.1833 0 
C 4.1833 -1.109424 3.742521 -2.173559 2.95804 -2.95804 
C 2.173559 -3.742521 1.109424 -4.1833 0 -4.1833 
C -1.109424 -4.1833 -2.173559 -3.742521 -2.95804 -2.95804 
C -3.742521 -2.173559 -4.1833 -1.109424 -4.1833 0 
C -4.1833 1.109424 -3.742521 2.173559 -2.95804 2.95804 
C -2.173559 3.742521 -1.109424 4.1833 0 4.1833 
z
" id="m9658b2df5f" style="stroke:#1f77b4;stroke-width:0.48;"/>
    </defs>
    <g clip-path="url(#pf442784de1)">
     <use style="fill:#1f77b4;stroke:#1f77b4;stroke-width:0.48;" x="-1" xlink:href="#m9658b2df5f" y="259.200803"/>
     <use style="fill:#1f77b4;stroke:#1f77b4;stroke-width:0.48;" x="12.245" xlink:href="#m9658b2df5f" y="259.128275"/>
     <use style="fill:#1f77b4;stroke:#1f77b4;stroke-width:0.48;" x="26.195" xlink:href="#m9658b2df5f" y="259.092944"/>
     <use style="fill:#1f77b4;stroke:#1f77b4;stroke-width:0.48;" x="40.145" xlink:href="#m9658b2df5f" y="257.899612"/>
     <use style="fill:#1f77b4;stroke:#1f77b4;stroke-width:0.48;" x="54.095" xlink:href="#m9658b2df5f" y="257.950879"/>
     <use style="fill:#1f77b4;stroke:#1f77b4;stroke-width:0.48;" x="68.045" xlink:href="#m9658b2df5f" y="258.913353"/>
     <use style="fill:#1f77b4;stroke:#1f77b4;stroke-width:0.48;" x="81.995" xlink:href="#m9658b2df5f" y="259.235655"/>
     <use style="fill:#1f77b4;stroke:#1f77b4;stroke-width:0.48;" x="95.945" xlink:href="#m9658b2df5f" y="258.558982"/>
     <use style="fill:#1f77b4;stroke:#1f77b4;stroke-width:0.48;" x="109.895" xlink:href="#m9658b2df5f" y="258.776594"/>
     <use style="fill:#1f77b4;stroke:#1f77b4;stroke-width:0.48;" x="123.845" xlink:href="#m9658b2df5f" y="258.540835"/>
     <use style="fill:#1f77b4;stroke:#1f77b4;stroke-width:0.48;" x="137.795" xlink:href="#m9658b2df5f" y="258.070083"/>
     <use style="fill:#1f77b4;stroke:#1f77b4;stroke-width:0.48;" x="151.745" xlink:href="#m9658b2df5f" y="256.082958"/>
     <use style="fill:#1f77b4;stroke:#1f77b4;stroke-width:0.48;" x="165.695" xlink:href="#m9658b2df5f" y="253.293047"/>
     <use style="fill:#1f77b4;stroke:#1f77b4;stroke-width:0.48;" x="179.645" xlink:href="#m9658b2df5f" y="248.631268"/>
     <use style="fill:#1f77b4;stroke:#1f77b4;stroke-width:0.48;" x="193.595" xlink:href="#m9658b2df5f" y="244.183105"/>
     <use style="fill:#1f77b4;stroke:#1f77b4;stroke-width:0.48;" x="207.545" xlink:href="#m9658b2df5f" y="237.553044"/>
     <use style="fill:#1f77b4;stroke:#1f77b4;stroke-width:0.48;" x="221.495" xlink:href="#m9658b2df5f" y="227.771243"/>
     <use style="fill:#1f77b4;stroke:#1f77b4;stroke-width:0.48;" x="235.445" xlink:href="#m9658b2df5f" y="214.80513"/>
     <use style="fill:#1f77b4;stroke:#1f77b4;stroke-width:0.48;" x="249.395" xlink:href="#m9658b2df5f" y="198.814082"/>
     <use style="fill:#1f77b4;stroke:#1f77b4;stroke-width:0.48;" x="263.345" xlink:href="#m9658b2df5f" y="179.761756"/>
     <use style="fill:#1f77b4;stroke:#1f77b4;stroke-width:0.48;" x="277.295" xlink:href="#m9658b2df5f" y="156.407132"/>
     <use style="fill:#1f77b4;stroke:#1f77b4;stroke-width:0.48;" x="291.245" xlink:href="#m9658b2df5f" y="123.599559"/>
     <use style="fill:#1f77b4;stroke:#1f77b4;stroke-width:0.48;" x="305.195" xlink:href="#m9658b2df5f" y="80.157343"/>
     <use style="fill:#1f77b4;stroke:#1f77b4;stroke-width:0.48;" x="319.145" xlink:href="#m9658b2df5f" y="15.610302"/>
    </g>
   </g>
   <g id="PathCollection_2">
    <defs>
     <path d="M 0 4.1833 
C 1.109424 4.1833 2.173559 3.742521 2.95804 2.95804 
C 3.742521 2.173559 4.1833 1.109424 4.1833 0 
C 4.1833 -1.109424 3.742521 -2.173559 2.95804 -2.95804 
C 2.173559 -3.742521 1.109424 -4.1833 0 -4.1833 
C -1.109424 -4.1833 -2.173559 -3.742521 -2.95804 -2.95804 
C -3.742521 -2.173559 -4.1833 -1.109424 -4.1833 0 
C -4.1833 1.109424 -3.742521 2.173559 -2.95804 2.95804 
C -2.173559 3.742521 -1.109424 4.1833 0 4.1833 
z
" id="ma2f9872d12" style="stroke:#aec7e8;stroke-width:0.48;"/>
    </defs>
    <g clip-path="url(#pf442784de1)">
     <use style="fill:#aec7e8;stroke:#aec7e8;stroke-width:0.48;" x="-1" xlink:href="#ma2f9872d12" y="259.597506"/>
     <use style="fill:#aec7e8;stroke:#aec7e8;stroke-width:0.48;" x="12.245" xlink:href="#ma2f9872d12" y="260.059453"/>
     <use style="fill:#aec7e8;stroke:#aec7e8;stroke-width:0.48;" x="26.195" xlink:href="#ma2f9872d12" y="260.084195"/>
     <use style="fill:#aec7e8;stroke:#aec7e8;stroke-width:0.48;" x="40.145" xlink:href="#ma2f9872d12" y="259.131754"/>
     <use style="fill:#aec7e8;stroke:#aec7e8;stroke-width:0.48;" x="54.095" xlink:href="#ma2f9872d12" y="258.664631"/>
     <use style="fill:#aec7e8;stroke:#aec7e8;stroke-width:0.48;" x="68.045" xlink:href="#ma2f9872d12" y="258.997398"/>
     <use style="fill:#aec7e8;stroke:#aec7e8;stroke-width:0.48;" x="81.995" xlink:href="#ma2f9872d12" y="259.731227"/>
     <use style="fill:#aec7e8;stroke:#aec7e8;stroke-width:0.48;" x="95.945" xlink:href="#ma2f9872d12" y="259.435125"/>
     <use style="fill:#aec7e8;stroke:#aec7e8;stroke-width:0.48;" x="109.895" xlink:href="#ma2f9872d12" y="259.399133"/>
     <use style="fill:#aec7e8;stroke:#aec7e8;stroke-width:0.48;" x="123.845" xlink:href="#ma2f9872d12" y="259.086441"/>
     <use style="fill:#aec7e8;stroke:#aec7e8;stroke-width:0.48;" x="137.795" xlink:href="#ma2f9872d12" y="260.252506"/>
     <use style="fill:#aec7e8;stroke:#aec7e8;stroke-width:0.48;" x="151.745" xlink:href="#ma2f9872d12" y="259.389964"/>
     <use style="fill:#aec7e8;stroke:#aec7e8;stroke-width:0.48;" x="165.695" xlink:href="#ma2f9872d12" y="258.049083"/>
     <use style="fill:#aec7e8;stroke:#aec7e8;stroke-width:0.48;" x="179.645" xlink:href="#ma2f9872d12" y="257.019725"/>
     <use style="fill:#aec7e8;stroke:#aec7e8;stroke-width:0.48;" x="193.595" xlink:href="#ma2f9872d12" y="255.167327"/>
     <use style="fill:#aec7e8;stroke:#aec7e8;stroke-width:0.48;" x="207.545" xlink:href="#ma2f9872d12" y="252.37871"/>
     <use style="fill:#aec7e8;stroke:#aec7e8;stroke-width:0.48;" x="221.495" xlink:href="#ma2f9872d12" y="249.287517"/>
     <use style="fill:#aec7e8;stroke:#aec7e8;stroke-width:0.48;" x="235.445" xlink:href="#ma2f9872d12" y="242.738859"/>
     <use style="fill:#aec7e8;stroke:#aec7e8;stroke-width:0.48;" x="249.395" xlink:href="#ma2f9872d12" y="233.735101"/>
     <use style="fill:#aec7e8;stroke:#aec7e8;stroke-width:0.48;" x="263.345" xlink:href="#ma2f9872d12" y="221.391669"/>
     <use style="fill:#aec7e8;stroke:#aec7e8;stroke-width:0.48;" x="277.295" xlink:href="#ma2f9872d12" y="203.540416"/>
     <use style="fill:#aec7e8;stroke:#aec7e8;stroke-width:0.48;" x="291.245" xlink:href="#ma2f9872d12" y="182.277202"/>
     <use style="fill:#aec7e8;stroke:#aec7e8;stroke-width:0.48;" x="305.195" xlink:href="#ma2f9872d12" y="146.273215"/>
     <use style="fill:#aec7e8;stroke:#aec7e8;stroke-width:0.48;" x="319.145" xlink:href="#ma2f9872d12" y="15.608157"/>
    </g>
   </g>
   <g id="PathCollection_3">
    <defs>
     <path d="M 0 4.1833 
C 1.109424 4.1833 2.173559 3.742521 2.95804 2.95804 
C 3.742521 2.173559 4.1833 1.109424 4.1833 0 
C 4.1833 -1.109424 3.742521 -2.173559 2.95804 -2.95804 
C 2.173559 -3.742521 1.109424 -4.1833 0 -4.1833 
C -1.109424 -4.1833 -2.173559 -3.742521 -2.95804 -2.95804 
C -3.742521 -2.173559 -4.1833 -1.109424 -4.1833 0 
C -4.1833 1.109424 -3.742521 2.173559 -2.95804 2.95804 
C -2.173559 3.742521 -1.109424 4.1833 0 4.1833 
z
" id="mf985cfce5d" style="stroke:#ff7f0e;stroke-width:0.48;"/>
    </defs>
    <g clip-path="url(#pf442784de1)">
     <use style="fill:#ff7f0e;stroke:#ff7f0e;stroke-width:0.48;" x="-1" xlink:href="#mf985cfce5d" y="259.113447"/>
     <use style="fill:#ff7f0e;stroke:#ff7f0e;stroke-width:0.48;" x="12.245" xlink:href="#mf985cfce5d" y="260.517528"/>
     <use style="fill:#ff7f0e;stroke:#ff7f0e;stroke-width:0.48;" x="26.195" xlink:href="#mf985cfce5d" y="260.951888"/>
     <use style="fill:#ff7f0e;stroke:#ff7f0e;stroke-width:0.48;" x="40.145" xlink:href="#mf985cfce5d" y="261.235091"/>
     <use style="fill:#ff7f0e;stroke:#ff7f0e;stroke-width:0.48;" x="54.095" xlink:href="#mf985cfce5d" y="260.594396"/>
     <use style="fill:#ff7f0e;stroke:#ff7f0e;stroke-width:0.48;" x="68.045" xlink:href="#mf985cfce5d" y="260.013234"/>
     <use style="fill:#ff7f0e;stroke:#ff7f0e;stroke-width:0.48;" x="81.995" xlink:href="#mf985cfce5d" y="259.861219"/>
     <use style="fill:#ff7f0e;stroke:#ff7f0e;stroke-width:0.48;" x="95.945" xlink:href="#mf985cfce5d" y="260.742799"/>
     <use style="fill:#ff7f0e;stroke:#ff7f0e;stroke-width:0.48;" x="109.895" xlink:href="#mf985cfce5d" y="260.85449"/>
     <use style="fill:#ff7f0e;stroke:#ff7f0e;stroke-width:0.48;" x="123.845" xlink:href="#mf985cfce5d" y="260.518666"/>
     <use style="fill:#ff7f0e;stroke:#ff7f0e;stroke-width:0.48;" x="137.795" xlink:href="#mf985cfce5d" y="259.563132"/>
     <use style="fill:#ff7f0e;stroke:#ff7f0e;stroke-width:0.48;" x="151.745" xlink:href="#mf985cfce5d" y="260.292728"/>
     <use style="fill:#ff7f0e;stroke:#ff7f0e;stroke-width:0.48;" x="165.695" xlink:href="#mf985cfce5d" y="259.931363"/>
     <use style="fill:#ff7f0e;stroke:#ff7f0e;stroke-width:0.48;" x="179.645" xlink:href="#mf985cfce5d" y="258.902621"/>
     <use style="fill:#ff7f0e;stroke:#ff7f0e;stroke-width:0.48;" x="193.595" xlink:href="#mf985cfce5d" y="258.481042"/>
     <use style="fill:#ff7f0e;stroke:#ff7f0e;stroke-width:0.48;" x="207.545" xlink:href="#mf985cfce5d" y="256.883236"/>
     <use style="fill:#ff7f0e;stroke:#ff7f0e;stroke-width:0.48;" x="221.495" xlink:href="#mf985cfce5d" y="254.722955"/>
     <use style="fill:#ff7f0e;stroke:#ff7f0e;stroke-width:0.48;" x="235.445" xlink:href="#mf985cfce5d" y="251.310975"/>
     <use style="fill:#ff7f0e;stroke:#ff7f0e;stroke-width:0.48;" x="249.395" xlink:href="#mf985cfce5d" y="244.473667"/>
     <use style="fill:#ff7f0e;stroke:#ff7f0e;stroke-width:0.48;" x="263.345" xlink:href="#mf985cfce5d" y="230.458899"/>
     <use style="fill:#ff7f0e;stroke:#ff7f0e;stroke-width:0.48;" x="277.295" xlink:href="#mf985cfce5d" y="217.27777"/>
     <use style="fill:#ff7f0e;stroke:#ff7f0e;stroke-width:0.48;" x="291.245" xlink:href="#mf985cfce5d" y="197.570555"/>
     <use style="fill:#ff7f0e;stroke:#ff7f0e;stroke-width:0.48;" x="305.195" xlink:href="#mf985cfce5d" y="164.878258"/>
     <use style="fill:#ff7f0e;stroke:#ff7f0e;stroke-width:0.48;" x="319.145" xlink:href="#mf985cfce5d" y="16.641019"/>
    </g>
   </g>
   <g id="PathCollection_4">
    <defs>
     <path d="M 0 4.1833 
C 1.109424 4.1833 2.173559 3.742521 2.95804 2.95804 
C 3.742521 2.173559 4.1833 1.109424 4.1833 0 
C 4.1833 -1.109424 3.742521 -2.173559 2.95804 -2.95804 
C 2.173559 -3.742521 1.109424 -4.1833 0 -4.1833 
C -1.109424 -4.1833 -2.173559 -3.742521 -2.95804 -2.95804 
C -3.742521 -2.173559 -4.1833 -1.109424 -4.1833 0 
C -4.1833 1.109424 -3.742521 2.173559 -2.95804 2.95804 
C -2.173559 3.742521 -1.109424 4.1833 0 4.1833 
z
" id="m669d5e1c89" style="stroke:#ffbb78;stroke-width:0.48;"/>
    </defs>
    <g clip-path="url(#pf442784de1)">
     <use style="fill:#ffbb78;stroke:#ffbb78;stroke-width:0.48;" x="-1" xlink:href="#m669d5e1c89" y="258.022848"/>
     <use style="fill:#ffbb78;stroke:#ffbb78;stroke-width:0.48;" x="12.245" xlink:href="#m669d5e1c89" y="260.544737"/>
     <use style="fill:#ffbb78;stroke:#ffbb78;stroke-width:0.48;" x="26.195" xlink:href="#m669d5e1c89" y="260.062798"/>
     <use style="fill:#ffbb78;stroke:#ffbb78;stroke-width:0.48;" x="40.145" xlink:href="#m669d5e1c89" y="259.890556"/>
     <use style="fill:#ffbb78;stroke:#ffbb78;stroke-width:0.48;" x="54.095" xlink:href="#m669d5e1c89" y="260.655577"/>
     <use style="fill:#ffbb78;stroke:#ffbb78;stroke-width:0.48;" x="68.045" xlink:href="#m669d5e1c89" y="260.48401"/>
     <use style="fill:#ffbb78;stroke:#ffbb78;stroke-width:0.48;" x="81.995" xlink:href="#m669d5e1c89" y="260.741582"/>
     <use style="fill:#ffbb78;stroke:#ffbb78;stroke-width:0.48;" x="95.945" xlink:href="#m669d5e1c89" y="259.556902"/>
     <use style="fill:#ffbb78;stroke:#ffbb78;stroke-width:0.48;" x="109.895" xlink:href="#m669d5e1c89" y="260.82983"/>
     <use style="fill:#ffbb78;stroke:#ffbb78;stroke-width:0.48;" x="123.845" xlink:href="#m669d5e1c89" y="260.12391"/>
     <use style="fill:#ffbb78;stroke:#ffbb78;stroke-width:0.48;" x="137.795" xlink:href="#m669d5e1c89" y="259.497896"/>
     <use style="fill:#ffbb78;stroke:#ffbb78;stroke-width:0.48;" x="151.745" xlink:href="#m669d5e1c89" y="259.175984"/>
     <use style="fill:#ffbb78;stroke:#ffbb78;stroke-width:0.48;" x="165.695" xlink:href="#m669d5e1c89" y="259.696627"/>
     <use style="fill:#ffbb78;stroke:#ffbb78;stroke-width:0.48;" x="179.645" xlink:href="#m669d5e1c89" y="257.966336"/>
     <use style="fill:#ffbb78;stroke:#ffbb78;stroke-width:0.48;" x="193.595" xlink:href="#m669d5e1c89" y="259.609644"/>
     <use style="fill:#ffbb78;stroke:#ffbb78;stroke-width:0.48;" x="207.545" xlink:href="#m669d5e1c89" y="258.807143"/>
     <use style="fill:#ffbb78;stroke:#ffbb78;stroke-width:0.48;" x="221.495" xlink:href="#m669d5e1c89" y="258.672711"/>
     <use style="fill:#ffbb78;stroke:#ffbb78;stroke-width:0.48;" x="235.445" xlink:href="#m669d5e1c89" y="257.41263"/>
     <use style="fill:#ffbb78;stroke:#ffbb78;stroke-width:0.48;" x="249.395" xlink:href="#m669d5e1c89" y="257.824056"/>
     <use style="fill:#ffbb78;stroke:#ffbb78;stroke-width:0.48;" x="263.345" xlink:href="#m669d5e1c89" y="251.786896"/>
     <use style="fill:#ffbb78;stroke:#ffbb78;stroke-width:0.48;" x="277.295" xlink:href="#m669d5e1c89" y="241.156956"/>
     <use style="fill:#ffbb78;stroke:#ffbb78;stroke-width:0.48;" x="291.245" xlink:href="#m669d5e1c89" y="222.72836"/>
     <use style="fill:#ffbb78;stroke:#ffbb78;stroke-width:0.48;" x="305.195" xlink:href="#m669d5e1c89" y="185.960697"/>
     <use style="fill:#ffbb78;stroke:#ffbb78;stroke-width:0.48;" x="319.145" xlink:href="#m669d5e1c89" y="16.317454"/>
    </g>
   </g>
   <g id="PathCollection_5">
    <defs>
     <path d="M 0 4.1833 
C 1.109424 4.1833 2.173559 3.742521 2.95804 2.95804 
C 3.742521 2.173559 4.1833 1.109424 4.1833 0 
C 4.1833 -1.109424 3.742521 -2.173559 2.95804 -2.95804 
C 2.173559 -3.742521 1.109424 -4.1833 0 -4.1833 
C -1.109424 -4.1833 -2.173559 -3.742521 -2.95804 -2.95804 
C -3.742521 -2.173559 -4.1833 -1.109424 -4.1833 0 
C -4.1833 1.109424 -3.742521 2.173559 -2.95804 2.95804 
C -2.173559 3.742521 -1.109424 4.1833 0 4.1833 
z
" id="m2cdc0b956c" style="stroke:#2ca02c;stroke-width:0.48;"/>
    </defs>
    <g clip-path="url(#pf442784de1)">
     <use style="fill:#2ca02c;stroke:#2ca02c;stroke-width:0.48;" x="-1" xlink:href="#m2cdc0b956c" y="260.271643"/>
     <use style="fill:#2ca02c;stroke:#2ca02c;stroke-width:0.48;" x="12.245" xlink:href="#m2cdc0b956c" y="259.832189"/>
     <use style="fill:#2ca02c;stroke:#2ca02c;stroke-width:0.48;" x="26.195" xlink:href="#m2cdc0b956c" y="259.804779"/>
     <use style="fill:#2ca02c;stroke:#2ca02c;stroke-width:0.48;" x="40.145" xlink:href="#m2cdc0b956c" y="259.295468"/>
     <use style="fill:#2ca02c;stroke:#2ca02c;stroke-width:0.48;" x="54.095" xlink:href="#m2cdc0b956c" y="259.297778"/>
     <use style="fill:#2ca02c;stroke:#2ca02c;stroke-width:0.48;" x="68.045" xlink:href="#m2cdc0b956c" y="259.334791"/>
     <use style="fill:#2ca02c;stroke:#2ca02c;stroke-width:0.48;" x="81.995" xlink:href="#m2cdc0b956c" y="259.300068"/>
     <use style="fill:#2ca02c;stroke:#2ca02c;stroke-width:0.48;" x="95.945" xlink:href="#m2cdc0b956c" y="260.753102"/>
     <use style="fill:#2ca02c;stroke:#2ca02c;stroke-width:0.48;" x="109.895" xlink:href="#m2cdc0b956c" y="260.336383"/>
     <use style="fill:#2ca02c;stroke:#2ca02c;stroke-width:0.48;" x="123.845" xlink:href="#m2cdc0b956c" y="259.945361"/>
     <use style="fill:#2ca02c;stroke:#2ca02c;stroke-width:0.48;" x="137.795" xlink:href="#m2cdc0b956c" y="259.783167"/>
     <use style="fill:#2ca02c;stroke:#2ca02c;stroke-width:0.48;" x="151.745" xlink:href="#m2cdc0b956c" y="259.00784"/>
     <use style="fill:#2ca02c;stroke:#2ca02c;stroke-width:0.48;" x="165.695" xlink:href="#m2cdc0b956c" y="258.574083"/>
     <use style="fill:#2ca02c;stroke:#2ca02c;stroke-width:0.48;" x="179.645" xlink:href="#m2cdc0b956c" y="255.103184"/>
     <use style="fill:#2ca02c;stroke:#2ca02c;stroke-width:0.48;" x="193.595" xlink:href="#m2cdc0b956c" y="252.840651"/>
     <use style="fill:#2ca02c;stroke:#2ca02c;stroke-width:0.48;" x="207.545" xlink:href="#m2cdc0b956c" y="250.118139"/>
     <use style="fill:#2ca02c;stroke:#2ca02c;stroke-width:0.48;" x="221.495" xlink:href="#m2cdc0b956c" y="245.013218"/>
     <use style="fill:#2ca02c;stroke:#2ca02c;stroke-width:0.48;" x="235.445" xlink:href="#m2cdc0b956c" y="236.01876"/>
     <use style="fill:#2ca02c;stroke:#2ca02c;stroke-width:0.48;" x="249.395" xlink:href="#m2cdc0b956c" y="227.202385"/>
     <use style="fill:#2ca02c;stroke:#2ca02c;stroke-width:0.48;" x="263.345" xlink:href="#m2cdc0b956c" y="216.421171"/>
     <use style="fill:#2ca02c;stroke:#2ca02c;stroke-width:0.48;" x="277.295" xlink:href="#m2cdc0b956c" y="202.874352"/>
     <use style="fill:#2ca02c;stroke:#2ca02c;stroke-width:0.48;" x="291.245" xlink:href="#m2cdc0b956c" y="180.171006"/>
     <use style="fill:#2ca02c;stroke:#2ca02c;stroke-width:0.48;" x="305.195" xlink:href="#m2cdc0b956c" y="150.598772"/>
     <use style="fill:#2ca02c;stroke:#2ca02c;stroke-width:0.48;" x="319.145" xlink:href="#m2cdc0b956c" y="15.611911"/>
    </g>
   </g>
   <g id="matplotlib.axis_1">
    <g id="xtick_1">
     <g id="line2d_1">
      <defs>
       <path d="M 0 0 
L 0 3.5 
" id="mf50740f62d" style="stroke:#000000;stroke-width:1.6;"/>
      </defs>
      <g>
       <use style="stroke:#000000;stroke-width:1.6;" x="40.145" xlink:href="#mf50740f62d" y="277.2"/>
      </g>
     </g>
     <g id="text_1">
      <!-- −20 -->
      <defs>
       <path d="M 10.59375 35.5 
L 73.1875 35.5 
L 73.1875 27.203125 
L 10.59375 27.203125 
z
" id="DejaVuSans-8722"/>
       <path d="M 19.1875 8.296875 
L 53.609375 8.296875 
L 53.609375 0 
L 7.328125 0 
L 7.328125 8.296875 
Q 12.9375 14.109375 22.625 23.890625 
Q 32.328125 33.6875 34.8125 36.53125 
Q 39.546875 41.84375 41.421875 45.53125 
Q 43.3125 49.21875 43.3125 52.78125 
Q 43.3125 58.59375 39.234375 62.25 
Q 35.15625 65.921875 28.609375 65.921875 
Q 23.96875 65.921875 18.8125 64.3125 
Q 13.671875 62.703125 7.8125 59.421875 
L 7.8125 69.390625 
Q 13.765625 71.78125 18.9375 73 
Q 24.125 74.21875 28.421875 74.21875 
Q 39.75 74.21875 46.484375 68.546875 
Q 53.21875 62.890625 53.21875 53.421875 
Q 53.21875 48.921875 51.53125 44.890625 
Q 49.859375 40.875 45.40625 35.40625 
Q 44.1875 33.984375 37.640625 27.21875 
Q 31.109375 20.453125 19.1875 8.296875 
z
" id="DejaVuSans-50"/>
       <path d="M 31.78125 66.40625 
Q 24.171875 66.40625 20.328125 58.90625 
Q 16.5 51.421875 16.5 36.375 
Q 16.5 21.390625 20.328125 13.890625 
Q 24.171875 6.390625 31.78125 6.390625 
Q 39.453125 6.390625 43.28125 13.890625 
Q 47.125 21.390625 47.125 36.375 
Q 47.125 51.421875 43.28125 58.90625 
Q 39.453125 66.40625 31.78125 66.40625 
z
M 31.78125 74.21875 
Q 44.046875 74.21875 50.515625 64.515625 
Q 56.984375 54.828125 56.984375 36.375 
Q 56.984375 17.96875 50.515625 8.265625 
Q 44.046875 -1.421875 31.78125 -1.421875 
Q 19.53125 -1.421875 13.0625 8.265625 
Q 6.59375 17.96875 6.59375 36.375 
Q 6.59375 54.828125 13.0625 64.515625 
Q 19.53125 74.21875 31.78125 74.21875 
z
" id="DejaVuSans-48"/>
      </defs>
      <g transform="translate(23.26125 304.0575)scale(0.16 -0.16)">
       <use xlink:href="#DejaVuSans-8722"/>
       <use x="83.789062" xlink:href="#DejaVuSans-50"/>
       <use x="147.412109" xlink:href="#DejaVuSans-48"/>
      </g>
     </g>
    </g>
    <g id="xtick_2">
     <g id="line2d_2">
      <g>
       <use style="stroke:#000000;stroke-width:1.6;" x="109.895" xlink:href="#mf50740f62d" y="277.2"/>
      </g>
     </g>
     <g id="text_2">
      <!-- −15 -->
      <defs>
       <path d="M 12.40625 8.296875 
L 28.515625 8.296875 
L 28.515625 63.921875 
L 10.984375 60.40625 
L 10.984375 69.390625 
L 28.421875 72.90625 
L 38.28125 72.90625 
L 38.28125 8.296875 
L 54.390625 8.296875 
L 54.390625 0 
L 12.40625 0 
z
" id="DejaVuSans-49"/>
       <path d="M 10.796875 72.90625 
L 49.515625 72.90625 
L 49.515625 64.59375 
L 19.828125 64.59375 
L 19.828125 46.734375 
Q 21.96875 47.46875 24.109375 47.828125 
Q 26.265625 48.1875 28.421875 48.1875 
Q 40.625 48.1875 47.75 41.5 
Q 54.890625 34.8125 54.890625 23.390625 
Q 54.890625 11.625 47.5625 5.09375 
Q 40.234375 -1.421875 26.90625 -1.421875 
Q 22.3125 -1.421875 17.546875 -0.640625 
Q 12.796875 0.140625 7.71875 1.703125 
L 7.71875 11.625 
Q 12.109375 9.234375 16.796875 8.0625 
Q 21.484375 6.890625 26.703125 6.890625 
Q 35.15625 6.890625 40.078125 11.328125 
Q 45.015625 15.765625 45.015625 23.390625 
Q 45.015625 31 40.078125 35.4375 
Q 35.15625 39.890625 26.703125 39.890625 
Q 22.75 39.890625 18.8125 39.015625 
Q 14.890625 38.140625 10.796875 36.28125 
z
" id="DejaVuSans-53"/>
      </defs>
      <g transform="translate(93.01125 304.0575)scale(0.16 -0.16)">
       <use xlink:href="#DejaVuSans-8722"/>
       <use x="83.789062" xlink:href="#DejaVuSans-49"/>
       <use x="147.412109" xlink:href="#DejaVuSans-53"/>
      </g>
     </g>
    </g>
    <g id="xtick_3">
     <g id="line2d_3">
      <g>
       <use style="stroke:#000000;stroke-width:1.6;" x="179.645" xlink:href="#mf50740f62d" y="277.2"/>
      </g>
     </g>
     <g id="text_3">
      <!-- −10 -->
      <g transform="translate(162.76125 304.0575)scale(0.16 -0.16)">
       <use xlink:href="#DejaVuSans-8722"/>
       <use x="83.789062" xlink:href="#DejaVuSans-49"/>
       <use x="147.412109" xlink:href="#DejaVuSans-48"/>
      </g>
     </g>
    </g>
    <g id="xtick_4">
     <g id="line2d_4">
      <g>
       <use style="stroke:#000000;stroke-width:1.6;" x="249.395" xlink:href="#mf50740f62d" y="277.2"/>
      </g>
     </g>
     <g id="text_4">
      <!-- −5 -->
      <g transform="translate(237.60125 304.0575)scale(0.16 -0.16)">
       <use xlink:href="#DejaVuSans-8722"/>
       <use x="83.789062" xlink:href="#DejaVuSans-53"/>
      </g>
     </g>
    </g>
    <g id="xtick_5">
     <g id="line2d_5">
      <g>
       <use style="stroke:#000000;stroke-width:1.6;" x="319.145" xlink:href="#mf50740f62d" y="277.2"/>
      </g>
     </g>
     <g id="text_5">
      <!-- 0 -->
      <g transform="translate(314.055 304.0575)scale(0.16 -0.16)">
       <use xlink:href="#DejaVuSans-48"/>
      </g>
     </g>
    </g>
   </g>
   <g id="matplotlib.axis_2">
    <g id="ytick_1">
     <g id="line2d_6">
      <defs>
       <path d="M 0 0 
L -3.5 0 
" id="m7a2bf40c3f" style="stroke:#000000;stroke-width:1.6;"/>
      </defs>
      <g>
       <use style="stroke:#000000;stroke-width:1.6;" x="40.145" xlink:href="#m7a2bf40c3f" y="261.597258"/>
      </g>
     </g>
     <g id="text_6">
      <!-- 0.0 -->
      <defs>
       <path d="M 10.6875 12.40625 
L 21 12.40625 
L 21 0 
L 10.6875 0 
z
" id="DejaVuSans-46"/>
      </defs>
      <g transform="translate(-0 267.676008)scale(0.16 -0.16)">
       <use xlink:href="#DejaVuSans-48"/>
       <use x="63.623047" xlink:href="#DejaVuSans-46"/>
       <use x="95.410156" xlink:href="#DejaVuSans-48"/>
      </g>
     </g>
    </g>
    <g id="ytick_2">
     <g id="line2d_7">
      <g>
       <use style="stroke:#000000;stroke-width:1.6;" x="40.145" xlink:href="#m7a2bf40c3f" y="212.399438"/>
      </g>
     </g>
     <g id="text_7">
      <!-- 0.2 -->
      <g transform="translate(-0 218.478188)scale(0.16 -0.16)">
       <use xlink:href="#DejaVuSans-48"/>
       <use x="63.623047" xlink:href="#DejaVuSans-46"/>
       <use x="95.410156" xlink:href="#DejaVuSans-50"/>
      </g>
     </g>
    </g>
    <g id="ytick_3">
     <g id="line2d_8">
      <g>
       <use style="stroke:#000000;stroke-width:1.6;" x="40.145" xlink:href="#m7a2bf40c3f" y="163.201618"/>
      </g>
     </g>
     <g id="text_8">
      <!-- 0.4 -->
      <defs>
       <path d="M 37.796875 64.3125 
L 12.890625 25.390625 
L 37.796875 25.390625 
z
M 35.203125 72.90625 
L 47.609375 72.90625 
L 47.609375 25.390625 
L 58.015625 25.390625 
L 58.015625 17.1875 
L 47.609375 17.1875 
L 47.609375 0 
L 37.796875 0 
L 37.796875 17.1875 
L 4.890625 17.1875 
L 4.890625 26.703125 
z
" id="DejaVuSans-52"/>
      </defs>
      <g transform="translate(-0 169.280368)scale(0.16 -0.16)">
       <use xlink:href="#DejaVuSans-48"/>
       <use x="63.623047" xlink:href="#DejaVuSans-46"/>
       <use x="95.410156" xlink:href="#DejaVuSans-52"/>
      </g>
     </g>
    </g>
    <g id="ytick_4">
     <g id="line2d_9">
      <g>
       <use style="stroke:#000000;stroke-width:1.6;" x="40.145" xlink:href="#m7a2bf40c3f" y="114.003798"/>
      </g>
     </g>
     <g id="text_9">
      <!-- 0.6 -->
      <defs>
       <path d="M 33.015625 40.375 
Q 26.375 40.375 22.484375 35.828125 
Q 18.609375 31.296875 18.609375 23.390625 
Q 18.609375 15.53125 22.484375 10.953125 
Q 26.375 6.390625 33.015625 6.390625 
Q 39.65625 6.390625 43.53125 10.953125 
Q 47.40625 15.53125 47.40625 23.390625 
Q 47.40625 31.296875 43.53125 35.828125 
Q 39.65625 40.375 33.015625 40.375 
z
M 52.59375 71.296875 
L 52.59375 62.3125 
Q 48.875 64.0625 45.09375 64.984375 
Q 41.3125 65.921875 37.59375 65.921875 
Q 27.828125 65.921875 22.671875 59.328125 
Q 17.53125 52.734375 16.796875 39.40625 
Q 19.671875 43.65625 24.015625 45.921875 
Q 28.375 48.1875 33.59375 48.1875 
Q 44.578125 48.1875 50.953125 41.515625 
Q 57.328125 34.859375 57.328125 23.390625 
Q 57.328125 12.15625 50.6875 5.359375 
Q 44.046875 -1.421875 33.015625 -1.421875 
Q 20.359375 -1.421875 13.671875 8.265625 
Q 6.984375 17.96875 6.984375 36.375 
Q 6.984375 53.65625 15.1875 63.9375 
Q 23.390625 74.21875 37.203125 74.21875 
Q 40.921875 74.21875 44.703125 73.484375 
Q 48.484375 72.75 52.59375 71.296875 
z
" id="DejaVuSans-54"/>
      </defs>
      <g transform="translate(-0 120.082548)scale(0.16 -0.16)">
       <use xlink:href="#DejaVuSans-48"/>
       <use x="63.623047" xlink:href="#DejaVuSans-46"/>
       <use x="95.410156" xlink:href="#DejaVuSans-54"/>
      </g>
     </g>
    </g>
    <g id="ytick_5">
     <g id="line2d_10">
      <g>
       <use style="stroke:#000000;stroke-width:1.6;" x="40.145" xlink:href="#m7a2bf40c3f" y="64.805977"/>
      </g>
     </g>
     <g id="text_10">
      <!-- 0.8 -->
      <defs>
       <path d="M 31.78125 34.625 
Q 24.75 34.625 20.71875 30.859375 
Q 16.703125 27.09375 16.703125 20.515625 
Q 16.703125 13.921875 20.71875 10.15625 
Q 24.75 6.390625 31.78125 6.390625 
Q 38.8125 6.390625 42.859375 10.171875 
Q 46.921875 13.96875 46.921875 20.515625 
Q 46.921875 27.09375 42.890625 30.859375 
Q 38.875 34.625 31.78125 34.625 
z
M 21.921875 38.8125 
Q 15.578125 40.375 12.03125 44.71875 
Q 8.5 49.078125 8.5 55.328125 
Q 8.5 64.0625 14.71875 69.140625 
Q 20.953125 74.21875 31.78125 74.21875 
Q 42.671875 74.21875 48.875 69.140625 
Q 55.078125 64.0625 55.078125 55.328125 
Q 55.078125 49.078125 51.53125 44.71875 
Q 48 40.375 41.703125 38.8125 
Q 48.828125 37.15625 52.796875 32.3125 
Q 56.78125 27.484375 56.78125 20.515625 
Q 56.78125 9.90625 50.3125 4.234375 
Q 43.84375 -1.421875 31.78125 -1.421875 
Q 19.734375 -1.421875 13.25 4.234375 
Q 6.78125 9.90625 6.78125 20.515625 
Q 6.78125 27.484375 10.78125 32.3125 
Q 14.796875 37.15625 21.921875 38.8125 
z
M 18.3125 54.390625 
Q 18.3125 48.734375 21.84375 45.5625 
Q 25.390625 42.390625 31.78125 42.390625 
Q 38.140625 42.390625 41.71875 45.5625 
Q 45.3125 48.734375 45.3125 54.390625 
Q 45.3125 60.0625 41.71875 63.234375 
Q 38.140625 66.40625 31.78125 66.40625 
Q 25.390625 66.40625 21.84375 63.234375 
Q 18.3125 60.0625 18.3125 54.390625 
z
" id="DejaVuSans-56"/>
      </defs>
      <g transform="translate(-0 70.884727)scale(0.16 -0.16)">
       <use xlink:href="#DejaVuSans-48"/>
       <use x="63.623047" xlink:href="#DejaVuSans-46"/>
       <use x="95.410156" xlink:href="#DejaVuSans-56"/>
      </g>
     </g>
    </g>
    <g id="ytick_6">
     <g id="line2d_11">
      <g>
       <use style="stroke:#000000;stroke-width:1.6;" x="40.145" xlink:href="#m7a2bf40c3f" y="15.608157"/>
      </g>
     </g>
     <g id="text_11">
      <!-- 1.0 -->
      <g transform="translate(-0 21.686907)scale(0.16 -0.16)">
       <use xlink:href="#DejaVuSans-49"/>
       <use x="63.623047" xlink:href="#DejaVuSans-46"/>
       <use x="95.410156" xlink:href="#DejaVuSans-48"/>
      </g>
     </g>
    </g>
   </g>
   <g id="line2d_12">
    <path clip-path="url(#pf442784de1)" d="M -1 259.200803 
L 12.245 259.128275 
L 26.195 259.092944 
L 40.145 257.899612 
L 54.095 257.950879 
L 68.045 258.913353 
L 81.995 259.235655 
L 95.945 258.558982 
L 109.895 258.776594 
L 123.845 258.540835 
L 137.795 258.070083 
L 151.745 256.082958 
L 165.695 253.293047 
L 179.645 248.631268 
L 193.595 244.183105 
L 207.545 237.553044 
L 221.495 227.771243 
L 235.445 214.80513 
L 249.395 198.814082 
L 263.345 179.761756 
L 277.295 156.407132 
L 291.245 123.599559 
L 305.195 80.157343 
L 319.145 15.610302 
" style="fill:none;stroke:#1f77b4;stroke-linecap:square;stroke-width:2.8;"/>
   </g>
   <g id="line2d_13">
    <path clip-path="url(#pf442784de1)" d="M -1 259.597506 
L 12.245 260.059453 
L 26.195 260.084195 
L 40.145 259.131754 
L 54.095 258.664631 
L 68.045 258.997398 
L 81.995 259.731227 
L 95.945 259.435125 
L 109.895 259.399133 
L 123.845 259.086441 
L 137.795 260.252506 
L 151.745 259.389964 
L 165.695 258.049083 
L 179.645 257.019725 
L 193.595 255.167327 
L 207.545 252.37871 
L 221.495 249.287517 
L 235.445 242.738859 
L 249.395 233.735101 
L 263.345 221.391669 
L 277.295 203.540416 
L 291.245 182.277202 
L 305.195 146.273215 
L 319.145 15.608157 
" style="fill:none;stroke:#aec7e8;stroke-linecap:square;stroke-width:2.8;"/>
   </g>
   <g id="line2d_14">
    <path clip-path="url(#pf442784de1)" d="M -1 259.113447 
L 12.245 260.517528 
L 26.195 260.951888 
L 40.145 261.235091 
L 54.095 260.594396 
L 68.045 260.013234 
L 81.995 259.861219 
L 95.945 260.742799 
L 109.895 260.85449 
L 123.845 260.518666 
L 137.795 259.563132 
L 151.745 260.292728 
L 165.695 259.931363 
L 179.645 258.902621 
L 193.595 258.481042 
L 207.545 256.883236 
L 221.495 254.722955 
L 235.445 251.310975 
L 249.395 244.473667 
L 263.345 230.458899 
L 277.295 217.27777 
L 291.245 197.570555 
L 305.195 164.878258 
L 319.145 16.641019 
" style="fill:none;stroke:#ff7f0e;stroke-linecap:square;stroke-width:2.8;"/>
   </g>
   <g id="line2d_15">
    <path clip-path="url(#pf442784de1)" d="M -1 258.022848 
L 12.245 260.544737 
L 26.195 260.062798 
L 40.145 259.890556 
L 54.095 260.655577 
L 68.045 260.48401 
L 81.995 260.741582 
L 95.945 259.556902 
L 109.895 260.82983 
L 123.845 260.12391 
L 137.795 259.497896 
L 151.745 259.175984 
L 165.695 259.696627 
L 179.645 257.966336 
L 193.595 259.609644 
L 207.545 258.807143 
L 221.495 258.672711 
L 235.445 257.41263 
L 249.395 257.824056 
L 263.345 251.786896 
L 277.295 241.156956 
L 291.245 222.72836 
L 305.195 185.960697 
L 319.145 16.317454 
" style="fill:none;stroke:#ffbb78;stroke-linecap:square;stroke-width:2.8;"/>
   </g>
   <g id="line2d_16">
    <path clip-path="url(#pf442784de1)" d="M -1 260.271643 
L 12.245 259.832189 
L 26.195 259.804779 
L 40.145 259.295468 
L 54.095 259.297778 
L 68.045 259.334791 
L 81.995 259.300068 
L 95.945 260.753102 
L 109.895 260.336383 
L 123.845 259.945361 
L 137.795 259.783167 
L 151.745 259.00784 
L 165.695 258.574083 
L 179.645 255.103184 
L 193.595 252.840651 
L 207.545 250.118139 
L 221.495 245.013218 
L 235.445 236.01876 
L 249.395 227.202385 
L 263.345 216.421171 
L 277.295 202.874352 
L 291.245 180.171006 
L 305.195 150.598772 
L 319.145 15.611911 
" style="fill:none;stroke:#2ca02c;stroke-linecap:square;stroke-width:2.8;"/>
   </g>
   <g id="patch_3">
    <path d="M 40.145 277.2 
L 40.145 0 
" style="fill:none;stroke:#000000;stroke-linecap:square;stroke-linejoin:miter;stroke-width:0.8;"/>
   </g>
   <g id="patch_4">
    <path d="M 319.145 277.2 
L 319.145 0 
" style="fill:none;stroke:#000000;stroke-linecap:square;stroke-linejoin:miter;stroke-width:0.8;"/>
   </g>
   <g id="patch_5">
    <path d="M 40.145 277.2 
L 319.145 277.2 
" style="fill:none;stroke:#000000;stroke-linecap:square;stroke-linejoin:miter;stroke-width:0.8;"/>
   </g>
   <g id="patch_6">
    <path d="M 40.145 0 
L 319.145 0 
" style="fill:none;stroke:#000000;stroke-linecap:square;stroke-linejoin:miter;stroke-width:0.8;"/>
   </g>
   <g id="axes_2">
    <g id="patch_7">
     <path clip-path="url(#p4e548ad4e3)" d="M 78.051742 57.013224 
Q 85.972847 47.398362 91.040049 38.523279 
" style="fill:none;stroke:#008000;stroke-linecap:round;stroke-width:2;"/>
     <path clip-path="url(#p4e548ad4e3)" d="M 89.179978 39.764302 
L 91.040049 38.523279 
L 90.916825 40.755949 
L 89.179978 39.764302 
z
" style="fill:#008000;stroke:#008000;stroke-linecap:round;stroke-width:2;"/>
    </g>
    <g id="patch_8">
     <path clip-path="url(#p4e548ad4e3)" d="M 78.051742 57.013224 
Q 85.972847 47.398362 91.040049 38.523279 
" style="fill:none;stroke:#008000;stroke-linecap:round;stroke-width:2;"/>
     <path clip-path="url(#p4e548ad4e3)" d="M 89.179978 39.764302 
L 91.040049 38.523279 
L 90.916825 40.755949 
L 89.179978 39.764302 
z
" style="fill:#008000;stroke:#008000;stroke-linecap:round;stroke-width:2;"/>
    </g>
    <g id="patch_9">
     <path clip-path="url(#p4e548ad4e3)" d="M 74.264162 84.471284 
Q 80.439422 95.287677 86.937917 103.17628 
" style="fill:none;stroke:#008000;stroke-linecap:round;stroke-width:2;"/>
     <path clip-path="url(#p4e548ad4e3)" d="M 86.438104 100.996787 
L 86.937917 103.17628 
L 84.894435 102.268435 
L 86.438104 100.996787 
z
" style="fill:#008000;stroke:#008000;stroke-linecap:round;stroke-width:2;"/>
    </g>
    <g id="patch_10">
     <path clip-path="url(#p4e548ad4e3)" d="M 114.362598 28.882114 
Q 125.382976 33.730716 134.895582 36.106924 
" style="fill:none;stroke:#008000;stroke-linecap:round;stroke-width:2;"/>
     <path clip-path="url(#p4e548ad4e3)" d="M 133.197552 34.652037 
L 134.895582 36.106924 
L 132.712854 36.592415 
L 133.197552 34.652037 
z
" style="fill:#008000;stroke:#008000;stroke-linecap:round;stroke-width:2;"/>
    </g>
    <g id="patch_11">
     <path clip-path="url(#p4e548ad4e3)" d="M 150.662989 56.583898 
Q 149.570254 69.301732 150.471814 79.791711 
" style="fill:none;stroke:#008000;stroke-linecap:round;stroke-width:2;"/>
     <path clip-path="url(#p4e548ad4e3)" d="M 151.296882 77.713428 
L 150.471814 79.791711 
L 149.304228 77.884686 
L 151.296882 77.713428 
z
" style="fill:#008000;stroke:#008000;stroke-linecap:round;stroke-width:2;"/>
    </g>
    <g id="patch_12">
     <path clip-path="url(#p4e548ad4e3)" d="M 66.713368 84.407231 
C 62.915095 84.407231 59.271877 82.815438 56.586092 79.982426 
C 53.900307 77.149413 52.391237 73.306485 52.391237 69.3 
C 52.391237 65.293515 53.900307 61.450587 56.586092 58.617574 
C 59.271877 55.784562 62.915095 54.192769 66.713368 54.192769 
C 70.511642 54.192769 74.15486 55.784562 76.840645 58.617574 
C 79.52643 61.450587 81.0355 65.293515 81.0355 69.3 
C 81.0355 73.306485 79.52643 77.149413 76.840645 79.982426 
C 74.15486 82.815438 70.511642 84.407231 66.713368 84.407231 
z
" style="fill:#1f77b4;"/>
    </g>
    <g id="patch_13">
     <path clip-path="url(#p4e548ad4e3)" d="M 99.7012 36.514462 
C 95.902926 36.514462 92.259708 34.922669 89.573923 32.089657 
C 86.888138 29.256644 85.379068 25.413716 85.379068 21.407231 
C 85.379068 17.400747 86.888138 13.557818 89.573923 10.724806 
C 92.259708 7.891793 95.902926 6.3 99.7012 6.3 
C 103.499473 6.3 107.142691 7.891793 109.828476 10.724806 
C 112.514261 13.557818 114.023331 17.400747 114.023331 21.407231 
C 114.023331 25.413716 112.514261 29.256644 109.828476 32.089657 
C 107.142691 34.922669 103.499473 36.514462 99.7012 36.514462 
z
" style="fill:#aec7e8;"/>
    </g>
    <g id="patch_14">
     <path clip-path="url(#p4e548ad4e3)" d="M 153.076632 54.807872 
C 149.278358 54.807872 145.63514 53.216079 142.949355 50.383067 
C 140.26357 47.550054 138.7545 43.707126 138.7545 39.700641 
C 138.7545 35.694157 140.26357 31.851228 142.949355 29.018215 
C 145.63514 26.185203 149.278358 24.59341 153.076632 24.59341 
C 156.874905 24.59341 160.518123 26.185203 163.203908 29.018215 
C 165.889693 31.851228 167.398763 35.694157 167.398763 39.700641 
C 167.398763 43.707126 165.889693 47.550054 163.203908 50.383067 
C 160.518123 53.216079 156.874905 54.807872 153.076632 54.807872 
z
" style="fill:#ff7f0e;"/>
    </g>
    <g id="patch_15">
     <path clip-path="url(#p4e548ad4e3)" d="M 153.076632 114.00659 
C 149.278358 114.00659 145.63514 112.414797 142.949355 109.581785 
C 140.26357 106.748772 138.7545 102.905843 138.7545 98.899359 
C 138.7545 94.892874 140.26357 91.049946 142.949355 88.216933 
C 145.63514 85.383921 149.278358 83.792128 153.076632 83.792128 
C 156.874905 83.792128 160.518123 85.383921 163.203908 88.216933 
C 165.889693 91.049946 167.398763 94.892874 167.398763 98.899359 
C 167.398763 102.905843 165.889693 106.748772 163.203908 109.581785 
C 160.518123 112.414797 156.874905 114.00659 153.076632 114.00659 
z
" style="fill:#ffbb78;"/>
    </g>
    <g id="patch_16">
     <path clip-path="url(#p4e548ad4e3)" d="M 99.7012 132.3 
C 95.902926 132.3 92.259708 130.708207 89.573923 127.875194 
C 86.888138 125.042182 85.379068 121.199253 85.379068 117.192769 
C 85.379068 113.186284 86.888138 109.343356 89.573923 106.510343 
C 92.259708 103.677331 95.902926 102.085538 99.7012 102.085538 
C 103.499473 102.085538 107.142691 103.677331 109.828476 106.510343 
C 112.514261 109.343356 114.023331 113.186284 114.023331 117.192769 
C 114.023331 121.199253 112.514261 125.042182 109.828476 127.875194 
C 107.142691 130.708207 103.499473 132.3 99.7012 132.3 
z
" style="fill:#2ca02c;"/>
    </g>
    <g id="text_12">
     <!-- 0 -->
     <g transform="translate(60.987118 74.266875)scale(0.18 -0.18)">
      <use xlink:href="#DejaVuSans-48"/>
     </g>
    </g>
    <g id="text_13">
     <!-- 1 -->
     <g transform="translate(93.97495 26.374106)scale(0.18 -0.18)">
      <use xlink:href="#DejaVuSans-49"/>
     </g>
    </g>
    <g id="text_14">
     <!-- 2 -->
     <g transform="translate(147.350382 44.667516)scale(0.18 -0.18)">
      <use xlink:href="#DejaVuSans-50"/>
     </g>
    </g>
    <g id="text_15">
     <!-- 3 -->
     <defs>
      <path d="M 40.578125 39.3125 
Q 47.65625 37.796875 51.625 33 
Q 55.609375 28.21875 55.609375 21.1875 
Q 55.609375 10.40625 48.1875 4.484375 
Q 40.765625 -1.421875 27.09375 -1.421875 
Q 22.515625 -1.421875 17.65625 -0.515625 
Q 12.796875 0.390625 7.625 2.203125 
L 7.625 11.71875 
Q 11.71875 9.328125 16.59375 8.109375 
Q 21.484375 6.890625 26.8125 6.890625 
Q 36.078125 6.890625 40.9375 10.546875 
Q 45.796875 14.203125 45.796875 21.1875 
Q 45.796875 27.640625 41.28125 31.265625 
Q 36.765625 34.90625 28.71875 34.90625 
L 20.21875 34.90625 
L 20.21875 43.015625 
L 29.109375 43.015625 
Q 36.375 43.015625 40.234375 45.921875 
Q 44.09375 48.828125 44.09375 54.296875 
Q 44.09375 59.90625 40.109375 62.90625 
Q 36.140625 65.921875 28.71875 65.921875 
Q 24.65625 65.921875 20.015625 65.03125 
Q 15.375 64.15625 9.8125 62.3125 
L 9.8125 71.09375 
Q 15.4375 72.65625 20.34375 73.4375 
Q 25.25 74.21875 29.59375 74.21875 
Q 40.828125 74.21875 47.359375 69.109375 
Q 53.90625 64.015625 53.90625 55.328125 
Q 53.90625 49.265625 50.4375 45.09375 
Q 46.96875 40.921875 40.578125 39.3125 
z
" id="DejaVuSans-51"/>
     </defs>
     <g transform="translate(147.350382 103.866234)scale(0.18 -0.18)">
      <use xlink:href="#DejaVuSans-51"/>
     </g>
    </g>
    <g id="text_16">
     <!-- 5 -->
     <g transform="translate(93.97495 122.159644)scale(0.18 -0.18)">
      <use xlink:href="#DejaVuSans-53"/>
     </g>
    </g>
    <g id="text_17">
     <!-- * -->
     <defs>
      <path d="M 47.015625 60.890625 
L 29.5 51.421875 
L 47.015625 41.890625 
L 44.1875 37.109375 
L 27.78125 47.015625 
L 27.78125 28.609375 
L 22.21875 28.609375 
L 22.21875 47.015625 
L 5.8125 37.109375 
L 2.984375 41.890625 
L 20.515625 51.421875 
L 2.984375 60.890625 
L 5.8125 65.71875 
L 22.21875 55.8125 
L 22.21875 74.21875 
L 27.78125 74.21875 
L 27.78125 55.8125 
L 44.1875 65.71875 
z
" id="DejaVuSans-42"/>
     </defs>
     <g transform="translate(51.67513 69.3)scale(0.3 -0.3)">
      <use xlink:href="#DejaVuSans-42"/>
     </g>
    </g>
   </g>
  </g>
 </g>
 <defs>
  <clipPath id="pf442784de1">
   <rect height="277.2" width="279" x="40.145" y="0"/>
  </clipPath>
  <clipPath id="p4e548ad4e3">
   <rect height="138.6" width="126.508279" x="46.640861" y="0"/>
  </clipPath>
 </defs>
</svg>
