<?xml version="1.0" encoding="utf-8" standalone="no"?>
<!DOCTYPE svg PUBLIC "-//W3C//DTD SVG 1.1//EN"
  "http://www.w3.org/Graphics/SVG/1.1/DTD/svg11.dtd">
<!-- Created with matplotlib (https://matplotlib.org/) -->
<svg height="301.985pt" version="1.1" viewBox="0 0 319.145 301.985" width="319.145pt" xmlns="http://www.w3.org/2000/svg" xmlns:xlink="http://www.w3.org/1999/xlink">
 <defs>
  <style type="text/css">
*{stroke-linecap:butt;stroke-linejoin:round;}
  </style>
 </defs>
 <g id="figure_1">
  <g id="patch_1">
   <path d="M 0 301.985 
L 319.145 301.985 
L 319.145 0 
L 0 0 
z
" style="fill:none;"/>
  </g>
  <g id="axes_1">
   <g id="patch_2">
    <path d="M 40.145 271.8 
L 319.145 271.8 
L 319.145 0 
L 40.145 0 
z
" style="fill:none;"/>
   </g>
   <g id="PathCollection_1">
    <defs>
     <path d="M 0 4.1833 
C 1.109424 4.1833 2.173559 3.742521 2.95804 2.95804 
C 3.742521 2.173559 4.1833 1.109424 4.1833 0 
C 4.1833 -1.109424 3.742521 -2.173559 2.95804 -2.95804 
C 2.173559 -3.742521 1.109424 -4.1833 0 -4.1833 
C -1.109424 -4.1833 -2.173559 -3.742521 -2.95804 -2.95804 
C -3.742521 -2.173559 -4.1833 -1.109424 -4.1833 0 
C -4.1833 1.109424 -3.742521 2.173559 -2.95804 2.95804 
C -2.173559 3.742521 -1.109424 4.1833 0 4.1833 
z
" id="m3eab827611" style="stroke:#1f77b4;stroke-width:0.48;"/>
    </defs>
    <g clip-path="url(#p014882d448)">
     <use style="fill:#1f77b4;stroke:#1f77b4;stroke-width:0.48;" x="57.010118" xlink:href="#m3eab827611" y="252.309145"/>
     <use style="fill:#1f77b4;stroke:#1f77b4;stroke-width:0.48;" x="84.262314" xlink:href="#m3eab827611" y="249.677822"/>
     <use style="fill:#1f77b4;stroke:#1f77b4;stroke-width:0.48;" x="111.51451" xlink:href="#m3eab827611" y="248.713622"/>
     <use style="fill:#1f77b4;stroke:#1f77b4;stroke-width:0.48;" x="138.766706" xlink:href="#m3eab827611" y="245.493171"/>
     <use style="fill:#1f77b4;stroke:#1f77b4;stroke-width:0.48;" x="166.018902" xlink:href="#m3eab827611" y="242.255382"/>
     <use style="fill:#1f77b4;stroke:#1f77b4;stroke-width:0.48;" x="193.271098" xlink:href="#m3eab827611" y="239.047074"/>
     <use style="fill:#1f77b4;stroke:#1f77b4;stroke-width:0.48;" x="220.523294" xlink:href="#m3eab827611" y="233.472467"/>
     <use style="fill:#1f77b4;stroke:#1f77b4;stroke-width:0.48;" x="247.77549" xlink:href="#m3eab827611" y="230.532392"/>
     <use style="fill:#1f77b4;stroke:#1f77b4;stroke-width:0.48;" x="275.027686" xlink:href="#m3eab827611" y="229.664074"/>
     <use style="fill:#1f77b4;stroke:#1f77b4;stroke-width:0.48;" x="302.279882" xlink:href="#m3eab827611" y="217.621151"/>
    </g>
   </g>
   <g id="PathCollection_2">
    <defs>
     <path d="M 0 4.1833 
C 1.109424 4.1833 2.173559 3.742521 2.95804 2.95804 
C 3.742521 2.173559 4.1833 1.109424 4.1833 0 
C 4.1833 -1.109424 3.742521 -2.173559 2.95804 -2.95804 
C 2.173559 -3.742521 1.109424 -4.1833 0 -4.1833 
C -1.109424 -4.1833 -2.173559 -3.742521 -2.95804 -2.95804 
C -3.742521 -2.173559 -4.1833 -1.109424 -4.1833 0 
C -4.1833 1.109424 -3.742521 2.173559 -2.95804 2.95804 
C -2.173559 3.742521 -1.109424 4.1833 0 4.1833 
z
" id="mba972045ac" style="stroke:#aec7e8;stroke-width:0.48;"/>
    </defs>
    <g clip-path="url(#p014882d448)">
     <use style="fill:#aec7e8;stroke:#aec7e8;stroke-width:0.48;" x="57.010118" xlink:href="#mba972045ac" y="246.938066"/>
     <use style="fill:#aec7e8;stroke:#aec7e8;stroke-width:0.48;" x="84.262314" xlink:href="#mba972045ac" y="248.007257"/>
     <use style="fill:#aec7e8;stroke:#aec7e8;stroke-width:0.48;" x="111.51451" xlink:href="#mba972045ac" y="246.816968"/>
     <use style="fill:#aec7e8;stroke:#aec7e8;stroke-width:0.48;" x="138.766706" xlink:href="#mba972045ac" y="245.991441"/>
     <use style="fill:#aec7e8;stroke:#aec7e8;stroke-width:0.48;" x="166.018902" xlink:href="#mba972045ac" y="248.901064"/>
     <use style="fill:#aec7e8;stroke:#aec7e8;stroke-width:0.48;" x="193.271098" xlink:href="#mba972045ac" y="248.344874"/>
     <use style="fill:#aec7e8;stroke:#aec7e8;stroke-width:0.48;" x="220.523294" xlink:href="#mba972045ac" y="247.441561"/>
     <use style="fill:#aec7e8;stroke:#aec7e8;stroke-width:0.48;" x="247.77549" xlink:href="#mba972045ac" y="245.197349"/>
     <use style="fill:#aec7e8;stroke:#aec7e8;stroke-width:0.48;" x="275.027686" xlink:href="#mba972045ac" y="241.986375"/>
     <use style="fill:#aec7e8;stroke:#aec7e8;stroke-width:0.48;" x="302.279882" xlink:href="#mba972045ac" y="217.621151"/>
    </g>
   </g>
   <g id="PathCollection_3">
    <defs>
     <path d="M 0 4.1833 
C 1.109424 4.1833 2.173559 3.742521 2.95804 2.95804 
C 3.742521 2.173559 4.1833 1.109424 4.1833 0 
C 4.1833 -1.109424 3.742521 -2.173559 2.95804 -2.95804 
C 2.173559 -3.742521 1.109424 -4.1833 0 -4.1833 
C -1.109424 -4.1833 -2.173559 -3.742521 -2.95804 -2.95804 
C -3.742521 -2.173559 -4.1833 -1.109424 -4.1833 0 
C -4.1833 1.109424 -3.742521 2.173559 -2.95804 2.95804 
C -2.173559 3.742521 -1.109424 4.1833 0 4.1833 
z
" id="m586b5f671a" style="stroke:#ff7f0e;stroke-width:0.48;"/>
    </defs>
    <g clip-path="url(#p014882d448)">
     <use style="fill:#ff7f0e;stroke:#ff7f0e;stroke-width:0.48;" x="57.010118" xlink:href="#m586b5f671a" y="247.848349"/>
     <use style="fill:#ff7f0e;stroke:#ff7f0e;stroke-width:0.48;" x="84.262314" xlink:href="#m586b5f671a" y="246.935627"/>
     <use style="fill:#ff7f0e;stroke:#ff7f0e;stroke-width:0.48;" x="111.51451" xlink:href="#m586b5f671a" y="245.60226"/>
     <use style="fill:#ff7f0e;stroke:#ff7f0e;stroke-width:0.48;" x="138.766706" xlink:href="#m586b5f671a" y="244.847244"/>
     <use style="fill:#ff7f0e;stroke:#ff7f0e;stroke-width:0.48;" x="166.018902" xlink:href="#m586b5f671a" y="244.395513"/>
     <use style="fill:#ff7f0e;stroke:#ff7f0e;stroke-width:0.48;" x="193.271098" xlink:href="#m586b5f671a" y="241.01471"/>
     <use style="fill:#ff7f0e;stroke:#ff7f0e;stroke-width:0.48;" x="220.523294" xlink:href="#m586b5f671a" y="237.217993"/>
     <use style="fill:#ff7f0e;stroke:#ff7f0e;stroke-width:0.48;" x="247.77549" xlink:href="#m586b5f671a" y="222.942564"/>
     <use style="fill:#ff7f0e;stroke:#ff7f0e;stroke-width:0.48;" x="275.027686" xlink:href="#m586b5f671a" y="198.259473"/>
     <use style="fill:#ff7f0e;stroke:#ff7f0e;stroke-width:0.48;" x="302.279882" xlink:href="#m586b5f671a" y="16.35917"/>
    </g>
   </g>
   <g id="PathCollection_4">
    <defs>
     <path d="M 0 4.1833 
C 1.109424 4.1833 2.173559 3.742521 2.95804 2.95804 
C 3.742521 2.173559 4.1833 1.109424 4.1833 0 
C 4.1833 -1.109424 3.742521 -2.173559 2.95804 -2.95804 
C 2.173559 -3.742521 1.109424 -4.1833 0 -4.1833 
C -1.109424 -4.1833 -2.173559 -3.742521 -2.95804 -2.95804 
C -3.742521 -2.173559 -4.1833 -1.109424 -4.1833 0 
C -4.1833 1.109424 -3.742521 2.173559 -2.95804 2.95804 
C -2.173559 3.742521 -1.109424 4.1833 0 4.1833 
z
" id="m810ede78e7" style="stroke:#ffbb78;stroke-width:0.48;"/>
    </defs>
    <g clip-path="url(#p014882d448)">
     <use style="fill:#ffbb78;stroke:#ffbb78;stroke-width:0.48;" x="57.010118" xlink:href="#m810ede78e7" y="252.526655"/>
     <use style="fill:#ffbb78;stroke:#ffbb78;stroke-width:0.48;" x="84.262314" xlink:href="#m810ede78e7" y="251.569129"/>
     <use style="fill:#ffbb78;stroke:#ffbb78;stroke-width:0.48;" x="111.51451" xlink:href="#m810ede78e7" y="253.13508"/>
     <use style="fill:#ffbb78;stroke:#ffbb78;stroke-width:0.48;" x="138.766706" xlink:href="#m810ede78e7" y="251.764104"/>
     <use style="fill:#ffbb78;stroke:#ffbb78;stroke-width:0.48;" x="166.018902" xlink:href="#m810ede78e7" y="248.827031"/>
     <use style="fill:#ffbb78;stroke:#ffbb78;stroke-width:0.48;" x="193.271098" xlink:href="#m810ede78e7" y="247.150849"/>
     <use style="fill:#ffbb78;stroke:#ffbb78;stroke-width:0.48;" x="220.523294" xlink:href="#m810ede78e7" y="244.902331"/>
     <use style="fill:#ffbb78;stroke:#ffbb78;stroke-width:0.48;" x="247.77549" xlink:href="#m810ede78e7" y="241.240229"/>
     <use style="fill:#ffbb78;stroke:#ffbb78;stroke-width:0.48;" x="275.027686" xlink:href="#m810ede78e7" y="235.81736"/>
     <use style="fill:#ffbb78;stroke:#ffbb78;stroke-width:0.48;" x="302.279882" xlink:href="#m810ede78e7" y="223.09659"/>
    </g>
   </g>
   <g id="PathCollection_5">
    <defs>
     <path d="M 0 4.1833 
C 1.109424 4.1833 2.173559 3.742521 2.95804 2.95804 
C 3.742521 2.173559 4.1833 1.109424 4.1833 0 
C 4.1833 -1.109424 3.742521 -2.173559 2.95804 -2.95804 
C 2.173559 -3.742521 1.109424 -4.1833 0 -4.1833 
C -1.109424 -4.1833 -2.173559 -3.742521 -2.95804 -2.95804 
C -3.742521 -2.173559 -4.1833 -1.109424 -4.1833 0 
C -4.1833 1.109424 -3.742521 2.173559 -2.95804 2.95804 
C -2.173559 3.742521 -1.109424 4.1833 0 4.1833 
z
" id="m4c4e6ce142" style="stroke:#2ca02c;stroke-width:0.48;"/>
    </defs>
    <g clip-path="url(#p014882d448)">
     <use style="fill:#2ca02c;stroke:#2ca02c;stroke-width:0.48;" x="57.010118" xlink:href="#m4c4e6ce142" y="254.738254"/>
     <use style="fill:#2ca02c;stroke:#2ca02c;stroke-width:0.48;" x="84.262314" xlink:href="#m4c4e6ce142" y="254.947672"/>
     <use style="fill:#2ca02c;stroke:#2ca02c;stroke-width:0.48;" x="111.51451" xlink:href="#m4c4e6ce142" y="253.790963"/>
     <use style="fill:#2ca02c;stroke:#2ca02c;stroke-width:0.48;" x="138.766706" xlink:href="#m4c4e6ce142" y="253.331651"/>
     <use style="fill:#2ca02c;stroke:#2ca02c;stroke-width:0.48;" x="166.018902" xlink:href="#m4c4e6ce142" y="249.682843"/>
     <use style="fill:#2ca02c;stroke:#2ca02c;stroke-width:0.48;" x="193.271098" xlink:href="#m4c4e6ce142" y="249.800928"/>
     <use style="fill:#2ca02c;stroke:#2ca02c;stroke-width:0.48;" x="220.523294" xlink:href="#m4c4e6ce142" y="250.410193"/>
     <use style="fill:#2ca02c;stroke:#2ca02c;stroke-width:0.48;" x="247.77549" xlink:href="#m4c4e6ce142" y="250.155947"/>
     <use style="fill:#2ca02c;stroke:#2ca02c;stroke-width:0.48;" x="275.027686" xlink:href="#m4c4e6ce142" y="245.160417"/>
     <use style="fill:#2ca02c;stroke:#2ca02c;stroke-width:0.48;" x="302.279882" xlink:href="#m4c4e6ce142" y="237.140524"/>
    </g>
   </g>
   <g id="PathCollection_6">
    <defs>
     <path d="M 0 4.1833 
C 1.109424 4.1833 2.173559 3.742521 2.95804 2.95804 
C 3.742521 2.173559 4.1833 1.109424 4.1833 0 
C 4.1833 -1.109424 3.742521 -2.173559 2.95804 -2.95804 
C 2.173559 -3.742521 1.109424 -4.1833 0 -4.1833 
C -1.109424 -4.1833 -2.173559 -3.742521 -2.95804 -2.95804 
C -3.742521 -2.173559 -4.1833 -1.109424 -4.1833 0 
C -4.1833 1.109424 -3.742521 2.173559 -2.95804 2.95804 
C -2.173559 3.742521 -1.109424 4.1833 0 4.1833 
z
" id="mb54da766e2" style="stroke:#98df8a;stroke-width:0.48;"/>
    </defs>
    <g clip-path="url(#p014882d448)">
     <use style="fill:#98df8a;stroke:#98df8a;stroke-width:0.48;" x="57.010118" xlink:href="#mb54da766e2" y="255.153024"/>
     <use style="fill:#98df8a;stroke:#98df8a;stroke-width:0.48;" x="84.262314" xlink:href="#mb54da766e2" y="254.426301"/>
     <use style="fill:#98df8a;stroke:#98df8a;stroke-width:0.48;" x="111.51451" xlink:href="#mb54da766e2" y="254.426301"/>
     <use style="fill:#98df8a;stroke:#98df8a;stroke-width:0.48;" x="138.766706" xlink:href="#mb54da766e2" y="254.843761"/>
     <use style="fill:#98df8a;stroke:#98df8a;stroke-width:0.48;" x="166.018902" xlink:href="#mb54da766e2" y="254.843761"/>
     <use style="fill:#98df8a;stroke:#98df8a;stroke-width:0.48;" x="193.271098" xlink:href="#mb54da766e2" y="254.843761"/>
     <use style="fill:#98df8a;stroke:#98df8a;stroke-width:0.48;" x="220.523294" xlink:href="#mb54da766e2" y="255.153024"/>
     <use style="fill:#98df8a;stroke:#98df8a;stroke-width:0.48;" x="247.77549" xlink:href="#mb54da766e2" y="255.153024"/>
     <use style="fill:#98df8a;stroke:#98df8a;stroke-width:0.48;" x="275.027686" xlink:href="#mb54da766e2" y="252.418044"/>
     <use style="fill:#98df8a;stroke:#98df8a;stroke-width:0.48;" x="302.279882" xlink:href="#mb54da766e2" y="246.495294"/>
    </g>
   </g>
   <g id="PathCollection_7">
    <defs>
     <path d="M 0 4.1833 
C 1.109424 4.1833 2.173559 3.742521 2.95804 2.95804 
C 3.742521 2.173559 4.1833 1.109424 4.1833 0 
C 4.1833 -1.109424 3.742521 -2.173559 2.95804 -2.95804 
C 2.173559 -3.742521 1.109424 -4.1833 0 -4.1833 
C -1.109424 -4.1833 -2.173559 -3.742521 -2.95804 -2.95804 
C -3.742521 -2.173559 -4.1833 -1.109424 -4.1833 0 
C -4.1833 1.109424 -3.742521 2.173559 -2.95804 2.95804 
C -2.173559 3.742521 -1.109424 4.1833 0 4.1833 
z
" id="mfa72cd4418" style="stroke:#d62728;stroke-width:0.48;"/>
    </defs>
    <g clip-path="url(#p014882d448)">
     <use style="fill:#d62728;stroke:#d62728;stroke-width:0.48;" x="57.010118" xlink:href="#mfa72cd4418" y="254.738254"/>
     <use style="fill:#d62728;stroke:#d62728;stroke-width:0.48;" x="84.262314" xlink:href="#mfa72cd4418" y="254.220949"/>
     <use style="fill:#d62728;stroke:#d62728;stroke-width:0.48;" x="111.51451" xlink:href="#mfa72cd4418" y="254.011531"/>
     <use style="fill:#d62728;stroke:#d62728;stroke-width:0.48;" x="138.766706" xlink:href="#mfa72cd4418" y="254.738254"/>
     <use style="fill:#d62728;stroke:#d62728;stroke-width:0.48;" x="166.018902" xlink:href="#mfa72cd4418" y="251.936827"/>
     <use style="fill:#d62728;stroke:#d62728;stroke-width:0.48;" x="193.271098" xlink:href="#mfa72cd4418" y="249.772916"/>
     <use style="fill:#d62728;stroke:#d62728;stroke-width:0.48;" x="220.523294" xlink:href="#mfa72cd4418" y="250.841493"/>
     <use style="fill:#d62728;stroke:#d62728;stroke-width:0.48;" x="247.77549" xlink:href="#mfa72cd4418" y="249.92857"/>
     <use style="fill:#d62728;stroke:#d62728;stroke-width:0.48;" x="275.027686" xlink:href="#mfa72cd4418" y="245.151454"/>
     <use style="fill:#d62728;stroke:#d62728;stroke-width:0.48;" x="302.279882" xlink:href="#mfa72cd4418" y="237.140524"/>
    </g>
   </g>
   <g id="PathCollection_8">
    <defs>
     <path d="M 0 4.1833 
C 1.109424 4.1833 2.173559 3.742521 2.95804 2.95804 
C 3.742521 2.173559 4.1833 1.109424 4.1833 0 
C 4.1833 -1.109424 3.742521 -2.173559 2.95804 -2.95804 
C 2.173559 -3.742521 1.109424 -4.1833 0 -4.1833 
C -1.109424 -4.1833 -2.173559 -3.742521 -2.95804 -2.95804 
C -3.742521 -2.173559 -4.1833 -1.109424 -4.1833 0 
C -4.1833 1.109424 -3.742521 2.173559 -2.95804 2.95804 
C -2.173559 3.742521 -1.109424 4.1833 0 4.1833 
z
" id="m31f4969dfc" style="stroke:#ff9896;stroke-width:0.48;"/>
    </defs>
    <g clip-path="url(#p014882d448)">
     <use style="fill:#ff9896;stroke:#ff9896;stroke-width:0.48;" x="57.010118" xlink:href="#m31f4969dfc" y="255.262187"/>
     <use style="fill:#ff9896;stroke:#ff9896;stroke-width:0.48;" x="84.262314" xlink:href="#m31f4969dfc" y="254.004082"/>
     <use style="fill:#ff9896;stroke:#ff9896;stroke-width:0.48;" x="111.51451" xlink:href="#m31f4969dfc" y="255.262187"/>
     <use style="fill:#ff9896;stroke:#ff9896;stroke-width:0.48;" x="138.766706" xlink:href="#m31f4969dfc" y="255.262187"/>
     <use style="fill:#ff9896;stroke:#ff9896;stroke-width:0.48;" x="166.018902" xlink:href="#m31f4969dfc" y="255.262187"/>
     <use style="fill:#ff9896;stroke:#ff9896;stroke-width:0.48;" x="193.271098" xlink:href="#m31f4969dfc" y="255.262187"/>
     <use style="fill:#ff9896;stroke:#ff9896;stroke-width:0.48;" x="220.523294" xlink:href="#m31f4969dfc" y="255.262187"/>
     <use style="fill:#ff9896;stroke:#ff9896;stroke-width:0.48;" x="247.77549" xlink:href="#m31f4969dfc" y="255.262187"/>
     <use style="fill:#ff9896;stroke:#ff9896;stroke-width:0.48;" x="275.027686" xlink:href="#m31f4969dfc" y="251.995825"/>
     <use style="fill:#ff9896;stroke:#ff9896;stroke-width:0.48;" x="302.279882" xlink:href="#m31f4969dfc" y="251.995825"/>
    </g>
   </g>
   <g id="PathCollection_9">
    <defs>
     <path d="M 0 4.1833 
C 1.109424 4.1833 2.173559 3.742521 2.95804 2.95804 
C 3.742521 2.173559 4.1833 1.109424 4.1833 0 
C 4.1833 -1.109424 3.742521 -2.173559 2.95804 -2.95804 
C 2.173559 -3.742521 1.109424 -4.1833 0 -4.1833 
C -1.109424 -4.1833 -2.173559 -3.742521 -2.95804 -2.95804 
C -3.742521 -2.173559 -4.1833 -1.109424 -4.1833 0 
C -4.1833 1.109424 -3.742521 2.173559 -2.95804 2.95804 
C -2.173559 3.742521 -1.109424 4.1833 0 4.1833 
z
" id="m027feffed9" style="stroke:#9467bd;stroke-width:0.48;"/>
    </defs>
    <g clip-path="url(#p014882d448)">
     <use style="fill:#9467bd;stroke:#9467bd;stroke-width:0.48;" x="57.010118" xlink:href="#m027feffed9" y="253.338361"/>
     <use style="fill:#9467bd;stroke:#9467bd;stroke-width:0.48;" x="84.262314" xlink:href="#m027feffed9" y="252.580262"/>
     <use style="fill:#9467bd;stroke:#9467bd;stroke-width:0.48;" x="111.51451" xlink:href="#m027feffed9" y="250.456922"/>
     <use style="fill:#9467bd;stroke:#9467bd;stroke-width:0.48;" x="138.766706" xlink:href="#m027feffed9" y="248.331207"/>
     <use style="fill:#9467bd;stroke:#9467bd;stroke-width:0.48;" x="166.018902" xlink:href="#m027feffed9" y="245.054146"/>
     <use style="fill:#9467bd;stroke:#9467bd;stroke-width:0.48;" x="193.271098" xlink:href="#m027feffed9" y="241.810497"/>
     <use style="fill:#9467bd;stroke:#9467bd;stroke-width:0.48;" x="220.523294" xlink:href="#m027feffed9" y="239.520178"/>
     <use style="fill:#9467bd;stroke:#9467bd;stroke-width:0.48;" x="247.77549" xlink:href="#m027feffed9" y="235.717112"/>
     <use style="fill:#9467bd;stroke:#9467bd;stroke-width:0.48;" x="275.027686" xlink:href="#m027feffed9" y="236.55634"/>
     <use style="fill:#9467bd;stroke:#9467bd;stroke-width:0.48;" x="302.279882" xlink:href="#m027feffed9" y="230.858793"/>
    </g>
   </g>
   <g id="PathCollection_10">
    <defs>
     <path d="M 0 4.1833 
C 1.109424 4.1833 2.173559 3.742521 2.95804 2.95804 
C 3.742521 2.173559 4.1833 1.109424 4.1833 0 
C 4.1833 -1.109424 3.742521 -2.173559 2.95804 -2.95804 
C 2.173559 -3.742521 1.109424 -4.1833 0 -4.1833 
C -1.109424 -4.1833 -2.173559 -3.742521 -2.95804 -2.95804 
C -3.742521 -2.173559 -4.1833 -1.109424 -4.1833 0 
C -4.1833 1.109424 -3.742521 2.173559 -2.95804 2.95804 
C -2.173559 3.742521 -1.109424 4.1833 0 4.1833 
z
" id="m7d8ec65a45" style="stroke:#c5b0d5;stroke-width:0.48;"/>
    </defs>
    <g clip-path="url(#p014882d448)">
     <use style="fill:#c5b0d5;stroke:#c5b0d5;stroke-width:0.48;" x="57.010118" xlink:href="#m7d8ec65a45" y="255.262187"/>
     <use style="fill:#c5b0d5;stroke:#c5b0d5;stroke-width:0.48;" x="84.262314" xlink:href="#m7d8ec65a45" y="254.004082"/>
     <use style="fill:#c5b0d5;stroke:#c5b0d5;stroke-width:0.48;" x="111.51451" xlink:href="#m7d8ec65a45" y="255.262187"/>
     <use style="fill:#c5b0d5;stroke:#c5b0d5;stroke-width:0.48;" x="138.766706" xlink:href="#m7d8ec65a45" y="255.262187"/>
     <use style="fill:#c5b0d5;stroke:#c5b0d5;stroke-width:0.48;" x="166.018902" xlink:href="#m7d8ec65a45" y="255.262187"/>
     <use style="fill:#c5b0d5;stroke:#c5b0d5;stroke-width:0.48;" x="193.271098" xlink:href="#m7d8ec65a45" y="255.262187"/>
     <use style="fill:#c5b0d5;stroke:#c5b0d5;stroke-width:0.48;" x="220.523294" xlink:href="#m7d8ec65a45" y="255.262187"/>
     <use style="fill:#c5b0d5;stroke:#c5b0d5;stroke-width:0.48;" x="247.77549" xlink:href="#m7d8ec65a45" y="255.262187"/>
     <use style="fill:#c5b0d5;stroke:#c5b0d5;stroke-width:0.48;" x="275.027686" xlink:href="#m7d8ec65a45" y="251.995825"/>
     <use style="fill:#c5b0d5;stroke:#c5b0d5;stroke-width:0.48;" x="302.279882" xlink:href="#m7d8ec65a45" y="251.995825"/>
    </g>
   </g>
   <g id="PathCollection_11">
    <defs>
     <path d="M 0 4.1833 
C 1.109424 4.1833 2.173559 3.742521 2.95804 2.95804 
C 3.742521 2.173559 4.1833 1.109424 4.1833 0 
C 4.1833 -1.109424 3.742521 -2.173559 2.95804 -2.95804 
C 2.173559 -3.742521 1.109424 -4.1833 0 -4.1833 
C -1.109424 -4.1833 -2.173559 -3.742521 -2.95804 -2.95804 
C -3.742521 -2.173559 -4.1833 -1.109424 -4.1833 0 
C -4.1833 1.109424 -3.742521 2.173559 -2.95804 2.95804 
C -2.173559 3.742521 -1.109424 4.1833 0 4.1833 
z
" id="m38ce05c517" style="stroke:#8c564b;stroke-width:0.48;"/>
    </defs>
    <g clip-path="url(#p014882d448)">
     <use style="fill:#8c564b;stroke:#8c564b;stroke-width:0.48;" x="57.010118" xlink:href="#m38ce05c517" y="249.760247"/>
     <use style="fill:#8c564b;stroke:#8c564b;stroke-width:0.48;" x="84.262314" xlink:href="#m38ce05c517" y="247.356794"/>
     <use style="fill:#8c564b;stroke:#8c564b;stroke-width:0.48;" x="111.51451" xlink:href="#m38ce05c517" y="246.896477"/>
     <use style="fill:#8c564b;stroke:#8c564b;stroke-width:0.48;" x="138.766706" xlink:href="#m38ce05c517" y="247.935212"/>
     <use style="fill:#8c564b;stroke:#8c564b;stroke-width:0.48;" x="166.018902" xlink:href="#m38ce05c517" y="239.944386"/>
     <use style="fill:#8c564b;stroke:#8c564b;stroke-width:0.48;" x="193.271098" xlink:href="#m38ce05c517" y="241.909525"/>
     <use style="fill:#8c564b;stroke:#8c564b;stroke-width:0.48;" x="220.523294" xlink:href="#m38ce05c517" y="240.913527"/>
     <use style="fill:#8c564b;stroke:#8c564b;stroke-width:0.48;" x="247.77549" xlink:href="#m38ce05c517" y="232.471325"/>
     <use style="fill:#8c564b;stroke:#8c564b;stroke-width:0.48;" x="275.027686" xlink:href="#m38ce05c517" y="219.764333"/>
     <use style="fill:#8c564b;stroke:#8c564b;stroke-width:0.48;" x="302.279882" xlink:href="#m38ce05c517" y="142.86534"/>
    </g>
   </g>
   <g id="PathCollection_12">
    <defs>
     <path d="M 0 4.1833 
C 1.109424 4.1833 2.173559 3.742521 2.95804 2.95804 
C 3.742521 2.173559 4.1833 1.109424 4.1833 0 
C 4.1833 -1.109424 3.742521 -2.173559 2.95804 -2.95804 
C 2.173559 -3.742521 1.109424 -4.1833 0 -4.1833 
C -1.109424 -4.1833 -2.173559 -3.742521 -2.95804 -2.95804 
C -3.742521 -2.173559 -4.1833 -1.109424 -4.1833 0 
C -4.1833 1.109424 -3.742521 2.173559 -2.95804 2.95804 
C -2.173559 3.742521 -1.109424 4.1833 0 4.1833 
z
" id="m222c63f7e3" style="stroke:#c49c94;stroke-width:0.48;"/>
    </defs>
    <g clip-path="url(#p014882d448)">
     <use style="fill:#c49c94;stroke:#c49c94;stroke-width:0.48;" x="57.010118" xlink:href="#m222c63f7e3" y="247.875755"/>
     <use style="fill:#c49c94;stroke:#c49c94;stroke-width:0.48;" x="84.262314" xlink:href="#m222c63f7e3" y="249.563661"/>
     <use style="fill:#c49c94;stroke:#c49c94;stroke-width:0.48;" x="111.51451" xlink:href="#m222c63f7e3" y="249.892627"/>
     <use style="fill:#c49c94;stroke:#c49c94;stroke-width:0.48;" x="138.766706" xlink:href="#m222c63f7e3" y="246.937758"/>
     <use style="fill:#c49c94;stroke:#c49c94;stroke-width:0.48;" x="166.018902" xlink:href="#m222c63f7e3" y="245.075071"/>
     <use style="fill:#c49c94;stroke:#c49c94;stroke-width:0.48;" x="193.271098" xlink:href="#m222c63f7e3" y="242.99232"/>
     <use style="fill:#c49c94;stroke:#c49c94;stroke-width:0.48;" x="220.523294" xlink:href="#m222c63f7e3" y="236.991053"/>
     <use style="fill:#c49c94;stroke:#c49c94;stroke-width:0.48;" x="247.77549" xlink:href="#m222c63f7e3" y="229.217527"/>
     <use style="fill:#c49c94;stroke:#c49c94;stroke-width:0.48;" x="275.027686" xlink:href="#m222c63f7e3" y="215.741863"/>
     <use style="fill:#c49c94;stroke:#c49c94;stroke-width:0.48;" x="302.279882" xlink:href="#m222c63f7e3" y="115.518915"/>
    </g>
   </g>
   <g id="matplotlib.axis_1">
    <g id="xtick_1">
     <g id="line2d_1">
      <defs>
       <path d="M 0 0 
L 0 3.5 
" id="mceb49c5efe" style="stroke:#000000;stroke-width:1.6;"/>
      </defs>
      <g>
       <use style="stroke:#000000;stroke-width:1.6;" x="97.888412" xlink:href="#mceb49c5efe" y="271.8"/>
      </g>
     </g>
     <g id="text_1">
      <!-- −7.5 -->
      <defs>
       <path d="M 10.59375 35.5 
L 73.1875 35.5 
L 73.1875 27.203125 
L 10.59375 27.203125 
z
" id="DejaVuSans-8722"/>
       <path d="M 8.203125 72.90625 
L 55.078125 72.90625 
L 55.078125 68.703125 
L 28.609375 0 
L 18.3125 0 
L 43.21875 64.59375 
L 8.203125 64.59375 
z
" id="DejaVuSans-55"/>
       <path d="M 10.6875 12.40625 
L 21 12.40625 
L 21 0 
L 10.6875 0 
z
" id="DejaVuSans-46"/>
       <path d="M 10.796875 72.90625 
L 49.515625 72.90625 
L 49.515625 64.59375 
L 19.828125 64.59375 
L 19.828125 46.734375 
Q 21.96875 47.46875 24.109375 47.828125 
Q 26.265625 48.1875 28.421875 48.1875 
Q 40.625 48.1875 47.75 41.5 
Q 54.890625 34.8125 54.890625 23.390625 
Q 54.890625 11.625 47.5625 5.09375 
Q 40.234375 -1.421875 26.90625 -1.421875 
Q 22.3125 -1.421875 17.546875 -0.640625 
Q 12.796875 0.140625 7.71875 1.703125 
L 7.71875 11.625 
Q 12.109375 9.234375 16.796875 8.0625 
Q 21.484375 6.890625 26.703125 6.890625 
Q 35.15625 6.890625 40.078125 11.328125 
Q 45.015625 15.765625 45.015625 23.390625 
Q 45.015625 31 40.078125 35.4375 
Q 35.15625 39.890625 26.703125 39.890625 
Q 22.75 39.890625 18.8125 39.015625 
Q 14.890625 38.140625 10.796875 36.28125 
z
" id="DejaVuSans-53"/>
      </defs>
      <g transform="translate(78.462162 298.6575)scale(0.16 -0.16)">
       <use xlink:href="#DejaVuSans-8722"/>
       <use x="83.789062" xlink:href="#DejaVuSans-55"/>
       <use x="147.412109" xlink:href="#DejaVuSans-46"/>
       <use x="179.199219" xlink:href="#DejaVuSans-53"/>
      </g>
     </g>
    </g>
    <g id="xtick_2">
     <g id="line2d_2">
      <g>
       <use style="stroke:#000000;stroke-width:1.6;" x="166.018902" xlink:href="#mceb49c5efe" y="271.8"/>
      </g>
     </g>
     <g id="text_2">
      <!-- −5.0 -->
      <defs>
       <path d="M 31.78125 66.40625 
Q 24.171875 66.40625 20.328125 58.90625 
Q 16.5 51.421875 16.5 36.375 
Q 16.5 21.390625 20.328125 13.890625 
Q 24.171875 6.390625 31.78125 6.390625 
Q 39.453125 6.390625 43.28125 13.890625 
Q 47.125 21.390625 47.125 36.375 
Q 47.125 51.421875 43.28125 58.90625 
Q 39.453125 66.40625 31.78125 66.40625 
z
M 31.78125 74.21875 
Q 44.046875 74.21875 50.515625 64.515625 
Q 56.984375 54.828125 56.984375 36.375 
Q 56.984375 17.96875 50.515625 8.265625 
Q 44.046875 -1.421875 31.78125 -1.421875 
Q 19.53125 -1.421875 13.0625 8.265625 
Q 6.59375 17.96875 6.59375 36.375 
Q 6.59375 54.828125 13.0625 64.515625 
Q 19.53125 74.21875 31.78125 74.21875 
z
" id="DejaVuSans-48"/>
      </defs>
      <g transform="translate(146.592652 298.6575)scale(0.16 -0.16)">
       <use xlink:href="#DejaVuSans-8722"/>
       <use x="83.789062" xlink:href="#DejaVuSans-53"/>
       <use x="147.412109" xlink:href="#DejaVuSans-46"/>
       <use x="179.199219" xlink:href="#DejaVuSans-48"/>
      </g>
     </g>
    </g>
    <g id="xtick_3">
     <g id="line2d_3">
      <g>
       <use style="stroke:#000000;stroke-width:1.6;" x="234.149392" xlink:href="#mceb49c5efe" y="271.8"/>
      </g>
     </g>
     <g id="text_3">
      <!-- −2.5 -->
      <defs>
       <path d="M 19.1875 8.296875 
L 53.609375 8.296875 
L 53.609375 0 
L 7.328125 0 
L 7.328125 8.296875 
Q 12.9375 14.109375 22.625 23.890625 
Q 32.328125 33.6875 34.8125 36.53125 
Q 39.546875 41.84375 41.421875 45.53125 
Q 43.3125 49.21875 43.3125 52.78125 
Q 43.3125 58.59375 39.234375 62.25 
Q 35.15625 65.921875 28.609375 65.921875 
Q 23.96875 65.921875 18.8125 64.3125 
Q 13.671875 62.703125 7.8125 59.421875 
L 7.8125 69.390625 
Q 13.765625 71.78125 18.9375 73 
Q 24.125 74.21875 28.421875 74.21875 
Q 39.75 74.21875 46.484375 68.546875 
Q 53.21875 62.890625 53.21875 53.421875 
Q 53.21875 48.921875 51.53125 44.890625 
Q 49.859375 40.875 45.40625 35.40625 
Q 44.1875 33.984375 37.640625 27.21875 
Q 31.109375 20.453125 19.1875 8.296875 
z
" id="DejaVuSans-50"/>
      </defs>
      <g transform="translate(214.723142 298.6575)scale(0.16 -0.16)">
       <use xlink:href="#DejaVuSans-8722"/>
       <use x="83.789062" xlink:href="#DejaVuSans-50"/>
       <use x="147.412109" xlink:href="#DejaVuSans-46"/>
       <use x="179.199219" xlink:href="#DejaVuSans-53"/>
      </g>
     </g>
    </g>
    <g id="xtick_4">
     <g id="line2d_4">
      <g>
       <use style="stroke:#000000;stroke-width:1.6;" x="302.279882" xlink:href="#mceb49c5efe" y="271.8"/>
      </g>
     </g>
     <g id="text_4">
      <!-- 0.0 -->
      <g transform="translate(289.557382 298.6575)scale(0.16 -0.16)">
       <use xlink:href="#DejaVuSans-48"/>
       <use x="63.623047" xlink:href="#DejaVuSans-46"/>
       <use x="95.410156" xlink:href="#DejaVuSans-48"/>
      </g>
     </g>
    </g>
   </g>
   <g id="matplotlib.axis_2">
    <g id="ytick_1">
     <g id="line2d_5">
      <defs>
       <path d="M 0 0 
L -3.5 0 
" id="m1379a33173" style="stroke:#000000;stroke-width:1.6;"/>
      </defs>
      <g>
       <use style="stroke:#000000;stroke-width:1.6;" x="40.145" xlink:href="#m1379a33173" y="255.470998"/>
      </g>
     </g>
     <g id="text_5">
      <!-- 0.0 -->
      <g transform="translate(-0 261.549748)scale(0.16 -0.16)">
       <use xlink:href="#DejaVuSans-48"/>
       <use x="63.623047" xlink:href="#DejaVuSans-46"/>
       <use x="95.410156" xlink:href="#DejaVuSans-48"/>
      </g>
     </g>
    </g>
    <g id="ytick_2">
     <g id="line2d_6">
      <g>
       <use style="stroke:#000000;stroke-width:1.6;" x="40.145" xlink:href="#m1379a33173" y="194.544523"/>
      </g>
     </g>
     <g id="text_6">
      <!-- 0.2 -->
      <g transform="translate(-0 200.623273)scale(0.16 -0.16)">
       <use xlink:href="#DejaVuSans-48"/>
       <use x="63.623047" xlink:href="#DejaVuSans-46"/>
       <use x="95.410156" xlink:href="#DejaVuSans-50"/>
      </g>
     </g>
    </g>
    <g id="ytick_3">
     <g id="line2d_7">
      <g>
       <use style="stroke:#000000;stroke-width:1.6;" x="40.145" xlink:href="#m1379a33173" y="133.618048"/>
      </g>
     </g>
     <g id="text_7">
      <!-- 0.4 -->
      <defs>
       <path d="M 37.796875 64.3125 
L 12.890625 25.390625 
L 37.796875 25.390625 
z
M 35.203125 72.90625 
L 47.609375 72.90625 
L 47.609375 25.390625 
L 58.015625 25.390625 
L 58.015625 17.1875 
L 47.609375 17.1875 
L 47.609375 0 
L 37.796875 0 
L 37.796875 17.1875 
L 4.890625 17.1875 
L 4.890625 26.703125 
z
" id="DejaVuSans-52"/>
      </defs>
      <g transform="translate(-0 139.696798)scale(0.16 -0.16)">
       <use xlink:href="#DejaVuSans-48"/>
       <use x="63.623047" xlink:href="#DejaVuSans-46"/>
       <use x="95.410156" xlink:href="#DejaVuSans-52"/>
      </g>
     </g>
    </g>
    <g id="ytick_4">
     <g id="line2d_8">
      <g>
       <use style="stroke:#000000;stroke-width:1.6;" x="40.145" xlink:href="#m1379a33173" y="72.691574"/>
      </g>
     </g>
     <g id="text_8">
      <!-- 0.6 -->
      <defs>
       <path d="M 33.015625 40.375 
Q 26.375 40.375 22.484375 35.828125 
Q 18.609375 31.296875 18.609375 23.390625 
Q 18.609375 15.53125 22.484375 10.953125 
Q 26.375 6.390625 33.015625 6.390625 
Q 39.65625 6.390625 43.53125 10.953125 
Q 47.40625 15.53125 47.40625 23.390625 
Q 47.40625 31.296875 43.53125 35.828125 
Q 39.65625 40.375 33.015625 40.375 
z
M 52.59375 71.296875 
L 52.59375 62.3125 
Q 48.875 64.0625 45.09375 64.984375 
Q 41.3125 65.921875 37.59375 65.921875 
Q 27.828125 65.921875 22.671875 59.328125 
Q 17.53125 52.734375 16.796875 39.40625 
Q 19.671875 43.65625 24.015625 45.921875 
Q 28.375 48.1875 33.59375 48.1875 
Q 44.578125 48.1875 50.953125 41.515625 
Q 57.328125 34.859375 57.328125 23.390625 
Q 57.328125 12.15625 50.6875 5.359375 
Q 44.046875 -1.421875 33.015625 -1.421875 
Q 20.359375 -1.421875 13.671875 8.265625 
Q 6.984375 17.96875 6.984375 36.375 
Q 6.984375 53.65625 15.1875 63.9375 
Q 23.390625 74.21875 37.203125 74.21875 
Q 40.921875 74.21875 44.703125 73.484375 
Q 48.484375 72.75 52.59375 71.296875 
z
" id="DejaVuSans-54"/>
      </defs>
      <g transform="translate(-0 78.770324)scale(0.16 -0.16)">
       <use xlink:href="#DejaVuSans-48"/>
       <use x="63.623047" xlink:href="#DejaVuSans-46"/>
       <use x="95.410156" xlink:href="#DejaVuSans-54"/>
      </g>
     </g>
    </g>
    <g id="ytick_5">
     <g id="line2d_9">
      <g>
       <use style="stroke:#000000;stroke-width:1.6;" x="40.145" xlink:href="#m1379a33173" y="11.765099"/>
      </g>
     </g>
     <g id="text_9">
      <!-- 0.8 -->
      <defs>
       <path d="M 31.78125 34.625 
Q 24.75 34.625 20.71875 30.859375 
Q 16.703125 27.09375 16.703125 20.515625 
Q 16.703125 13.921875 20.71875 10.15625 
Q 24.75 6.390625 31.78125 6.390625 
Q 38.8125 6.390625 42.859375 10.171875 
Q 46.921875 13.96875 46.921875 20.515625 
Q 46.921875 27.09375 42.890625 30.859375 
Q 38.875 34.625 31.78125 34.625 
z
M 21.921875 38.8125 
Q 15.578125 40.375 12.03125 44.71875 
Q 8.5 49.078125 8.5 55.328125 
Q 8.5 64.0625 14.71875 69.140625 
Q 20.953125 74.21875 31.78125 74.21875 
Q 42.671875 74.21875 48.875 69.140625 
Q 55.078125 64.0625 55.078125 55.328125 
Q 55.078125 49.078125 51.53125 44.71875 
Q 48 40.375 41.703125 38.8125 
Q 48.828125 37.15625 52.796875 32.3125 
Q 56.78125 27.484375 56.78125 20.515625 
Q 56.78125 9.90625 50.3125 4.234375 
Q 43.84375 -1.421875 31.78125 -1.421875 
Q 19.734375 -1.421875 13.25 4.234375 
Q 6.78125 9.90625 6.78125 20.515625 
Q 6.78125 27.484375 10.78125 32.3125 
Q 14.796875 37.15625 21.921875 38.8125 
z
M 18.3125 54.390625 
Q 18.3125 48.734375 21.84375 45.5625 
Q 25.390625 42.390625 31.78125 42.390625 
Q 38.140625 42.390625 41.71875 45.5625 
Q 45.3125 48.734375 45.3125 54.390625 
Q 45.3125 60.0625 41.71875 63.234375 
Q 38.140625 66.40625 31.78125 66.40625 
Q 25.390625 66.40625 21.84375 63.234375 
Q 18.3125 60.0625 18.3125 54.390625 
z
" id="DejaVuSans-56"/>
      </defs>
      <g transform="translate(-0 17.843849)scale(0.16 -0.16)">
       <use xlink:href="#DejaVuSans-48"/>
       <use x="63.623047" xlink:href="#DejaVuSans-46"/>
       <use x="95.410156" xlink:href="#DejaVuSans-56"/>
      </g>
     </g>
    </g>
   </g>
   <g id="line2d_10">
    <path clip-path="url(#p014882d448)" d="M 57.010118 252.309145 
L 84.262314 249.677822 
L 111.51451 248.713622 
L 138.766706 245.493171 
L 166.018902 242.255382 
L 193.271098 239.047074 
L 220.523294 233.472467 
L 247.77549 230.532392 
L 275.027686 229.664074 
L 302.279882 217.621151 
" style="fill:none;stroke:#1f77b4;stroke-linecap:square;stroke-width:2.8;"/>
   </g>
   <g id="line2d_11">
    <path clip-path="url(#p014882d448)" d="M 57.010118 246.938066 
L 84.262314 248.007257 
L 111.51451 246.816968 
L 138.766706 245.991441 
L 166.018902 248.901064 
L 193.271098 248.344874 
L 220.523294 247.441561 
L 247.77549 245.197349 
L 275.027686 241.986375 
L 302.279882 217.621151 
" style="fill:none;stroke:#aec7e8;stroke-linecap:square;stroke-width:2.8;"/>
   </g>
   <g id="line2d_12">
    <path clip-path="url(#p014882d448)" d="M 57.010118 247.848349 
L 84.262314 246.935627 
L 111.51451 245.60226 
L 138.766706 244.847244 
L 166.018902 244.395513 
L 193.271098 241.01471 
L 220.523294 237.217993 
L 247.77549 222.942564 
L 275.027686 198.259473 
L 302.279882 16.35917 
" style="fill:none;stroke:#ff7f0e;stroke-linecap:square;stroke-width:2.8;"/>
   </g>
   <g id="line2d_13">
    <path clip-path="url(#p014882d448)" d="M 57.010118 252.526655 
L 84.262314 251.569129 
L 111.51451 253.13508 
L 138.766706 251.764104 
L 166.018902 248.827031 
L 193.271098 247.150849 
L 220.523294 244.902331 
L 247.77549 241.240229 
L 275.027686 235.81736 
L 302.279882 223.09659 
" style="fill:none;stroke:#ffbb78;stroke-linecap:square;stroke-width:2.8;"/>
   </g>
   <g id="line2d_14">
    <path clip-path="url(#p014882d448)" d="M 57.010118 254.738254 
L 84.262314 254.947672 
L 111.51451 253.790963 
L 138.766706 253.331651 
L 166.018902 249.682843 
L 193.271098 249.800928 
L 220.523294 250.410193 
L 247.77549 250.155947 
L 275.027686 245.160417 
L 302.279882 237.140524 
" style="fill:none;stroke:#2ca02c;stroke-linecap:square;stroke-width:2.8;"/>
   </g>
   <g id="line2d_15">
    <path clip-path="url(#p014882d448)" d="M 57.010118 255.153024 
L 84.262314 254.426301 
L 111.51451 254.426301 
L 138.766706 254.843761 
L 166.018902 254.843761 
L 193.271098 254.843761 
L 220.523294 255.153024 
L 247.77549 255.153024 
L 275.027686 252.418044 
L 302.279882 246.495294 
" style="fill:none;stroke:#98df8a;stroke-linecap:square;stroke-width:2.8;"/>
   </g>
   <g id="line2d_16">
    <path clip-path="url(#p014882d448)" d="M 57.010118 254.738254 
L 84.262314 254.220949 
L 111.51451 254.011531 
L 138.766706 254.738254 
L 166.018902 251.936827 
L 193.271098 249.772916 
L 220.523294 250.841493 
L 247.77549 249.92857 
L 275.027686 245.151454 
L 302.279882 237.140524 
" style="fill:none;stroke:#d62728;stroke-linecap:square;stroke-width:2.8;"/>
   </g>
   <g id="line2d_17">
    <path clip-path="url(#p014882d448)" d="M 57.010118 255.262187 
L 84.262314 254.004082 
L 111.51451 255.262187 
L 138.766706 255.262187 
L 166.018902 255.262187 
L 193.271098 255.262187 
L 220.523294 255.262187 
L 247.77549 255.262187 
L 275.027686 251.995825 
L 302.279882 251.995825 
" style="fill:none;stroke:#ff9896;stroke-linecap:square;stroke-width:2.8;"/>
   </g>
   <g id="line2d_18">
    <path clip-path="url(#p014882d448)" d="M 57.010118 253.338361 
L 84.262314 252.580262 
L 111.51451 250.456922 
L 138.766706 248.331207 
L 166.018902 245.054146 
L 193.271098 241.810497 
L 220.523294 239.520178 
L 247.77549 235.717112 
L 275.027686 236.55634 
L 302.279882 230.858793 
" style="fill:none;stroke:#9467bd;stroke-linecap:square;stroke-width:2.8;"/>
   </g>
   <g id="line2d_19">
    <path clip-path="url(#p014882d448)" d="M 57.010118 255.262187 
L 84.262314 254.004082 
L 111.51451 255.262187 
L 138.766706 255.262187 
L 166.018902 255.262187 
L 193.271098 255.262187 
L 220.523294 255.262187 
L 247.77549 255.262187 
L 275.027686 251.995825 
L 302.279882 251.995825 
" style="fill:none;stroke:#c5b0d5;stroke-linecap:square;stroke-width:2.8;"/>
   </g>
   <g id="line2d_20">
    <path clip-path="url(#p014882d448)" d="M 57.010118 249.760247 
L 84.262314 247.356794 
L 111.51451 246.896477 
L 138.766706 247.935212 
L 166.018902 239.944386 
L 193.271098 241.909525 
L 220.523294 240.913527 
L 247.77549 232.471325 
L 275.027686 219.764333 
L 302.279882 142.86534 
" style="fill:none;stroke:#8c564b;stroke-linecap:square;stroke-width:2.8;"/>
   </g>
   <g id="line2d_21">
    <path clip-path="url(#p014882d448)" d="M 57.010118 247.875755 
L 84.262314 249.563661 
L 111.51451 249.892627 
L 138.766706 246.937758 
L 166.018902 245.075071 
L 193.271098 242.99232 
L 220.523294 236.991053 
L 247.77549 229.217527 
L 275.027686 215.741863 
L 302.279882 115.518915 
" style="fill:none;stroke:#c49c94;stroke-linecap:square;stroke-width:2.8;"/>
   </g>
   <g id="patch_3">
    <path d="M 40.145 271.8 
L 40.145 0 
" style="fill:none;stroke:#000000;stroke-linecap:square;stroke-linejoin:miter;stroke-width:0.8;"/>
   </g>
   <g id="patch_4">
    <path d="M 319.145 271.8 
L 319.145 0 
" style="fill:none;stroke:#000000;stroke-linecap:square;stroke-linejoin:miter;stroke-width:0.8;"/>
   </g>
   <g id="patch_5">
    <path d="M 40.145 271.8 
L 319.145 271.8 
" style="fill:none;stroke:#000000;stroke-linecap:square;stroke-linejoin:miter;stroke-width:0.8;"/>
   </g>
   <g id="patch_6">
    <path d="M 40.145 0 
L 319.145 0 
" style="fill:none;stroke:#000000;stroke-linecap:square;stroke-linejoin:miter;stroke-width:0.8;"/>
   </g>
   <g id="axes_2">
    <g id="patch_7">
     <path clip-path="url(#p4bf415ee21)" d="M 70.27397 50.948013 
Q 70.555759 49.450067 70.683643 47.8921 
" style="fill:none;stroke:#008000;stroke-linecap:round;stroke-width:1.533843;"/>
     <path clip-path="url(#p4bf415ee21)" d="M 71.626481 49.167363 
L 70.27397 50.948013 
L 69.660957 48.797614 
L 71.626481 49.167363 
z
" style="fill:#008000;stroke:#008000;stroke-linecap:round;stroke-width:1.533843;"/>
     <path clip-path="url(#p4bf415ee21)" d="M 69.523378 49.803588 
L 70.683643 47.8921 
L 71.516674 49.967205 
L 69.523378 49.803588 
z
" style="fill:#008000;stroke:#008000;stroke-linecap:round;stroke-width:1.533843;"/>
    </g>
    <g id="patch_8">
     <path clip-path="url(#p4bf415ee21)" d="M 75.242214 53.675279 
Q 78.409787 48.678459 80.909378 43.316865 
" style="fill:none;stroke:#008000;stroke-linecap:round;stroke-width:1.481408;"/>
     <path clip-path="url(#p4bf415ee21)" d="M 77.157619 52.521491 
L 75.242214 53.675279 
L 75.468427 51.450683 
L 77.157619 52.521491 
z
" style="fill:#008000;stroke:#008000;stroke-linecap:round;stroke-width:1.481408;"/>
     <path clip-path="url(#p4bf415ee21)" d="M 79.157953 44.707013 
L 80.909378 43.316865 
L 80.970642 45.552093 
L 79.157953 44.707013 
z
" style="fill:#008000;stroke:#008000;stroke-linecap:round;stroke-width:1.481408;"/>
    </g>
    <g id="patch_9">
     <path clip-path="url(#p4bf415ee21)" d="M 79.457075 56.47243 
Q 90.353151 47.136821 99.087788 35.756566 
" style="fill:none;stroke:#ff0000;stroke-linecap:round;stroke-width:2.5;"/>
     <path clip-path="url(#p4bf415ee21)" d="M 81.626491 55.93055 
L 79.457075 56.47243 
L 80.32522 54.411769 
L 81.626491 55.93055 
z
" style="fill:#ff0000;stroke:#ff0000;stroke-linecap:round;stroke-width:2.5;"/>
     <path clip-path="url(#p4bf415ee21)" d="M 97.076789 36.734259 
L 99.087788 35.756566 
L 98.663344 37.951981 
L 97.076789 36.734259 
z
" style="fill:#ff0000;stroke:#ff0000;stroke-linecap:round;stroke-width:2.5;"/>
    </g>
    <g id="patch_10">
     <path clip-path="url(#p4bf415ee21)" d="M 80.704544 61.439671 
Q 101.362356 52.060357 119.167288 38.005851 
" style="fill:none;stroke:#008000;stroke-linecap:round;stroke-width:1.350716;"/>
     <path clip-path="url(#p4bf415ee21)" d="M 82.939044 61.523382 
L 80.704544 61.439671 
L 82.112213 59.702297 
L 82.939044 61.523382 
z
" style="fill:#008000;stroke:#008000;stroke-linecap:round;stroke-width:1.350716;"/>
     <path clip-path="url(#p4bf415ee21)" d="M 116.977847 38.460104 
L 119.167288 38.005851 
L 118.217026 40.029956 
L 116.977847 38.460104 
z
" style="fill:#008000;stroke:#008000;stroke-linecap:round;stroke-width:1.350716;"/>
    </g>
    <g id="patch_11">
     <path clip-path="url(#p4bf415ee21)" d="M 82.766126 70.824017 
Q 109.898618 74.407711 137.031121 70.823142 
" style="fill:none;stroke:#ff0000;stroke-linecap:round;stroke-width:2.313825;"/>
     <path clip-path="url(#p4bf415ee21)" d="M 84.617961 72.077295 
L 82.766126 70.824017 
L 84.879849 70.094515 
L 84.617961 72.077295 
z
" style="fill:#ff0000;stroke:#ff0000;stroke-linecap:round;stroke-width:2.313825;"/>
     <path clip-path="url(#p4bf415ee21)" d="M 134.917375 70.093707 
L 137.031121 70.823142 
L 135.179325 72.076479 
L 134.917375 70.093707 
z
" style="fill:#ff0000;stroke:#ff0000;stroke-linecap:round;stroke-width:2.313825;"/>
    </g>
    <g id="patch_12">
     <path clip-path="url(#p4bf415ee21)" d="M 80.671762 75.276904 
Q 105.23141 85.796964 131.662921 89.707036 
" style="fill:none;stroke:#008000;stroke-linecap:round;stroke-width:1.591038;"/>
     <path clip-path="url(#p4bf415ee21)" d="M 82.116456 76.983614 
L 80.671762 75.276904 
L 82.903947 75.145175 
L 82.116456 76.983614 
z
" style="fill:#008000;stroke:#008000;stroke-linecap:round;stroke-width:1.591038;"/>
     <path clip-path="url(#p4bf415ee21)" d="M 129.830791 88.425122 
L 131.662921 89.707036 
L 129.538112 90.403591 
L 129.830791 88.425122 
z
" style="fill:#008000;stroke:#008000;stroke-linecap:round;stroke-width:1.591038;"/>
    </g>
    <g id="patch_13">
     <path clip-path="url(#p4bf415ee21)" d="M 77.175968 78.395084 
Q 95.948732 93.213214 117.729308 103.101862 
" style="fill:none;stroke:#008000;stroke-linecap:round;stroke-width:0.248516;"/>
     <path clip-path="url(#p4bf415ee21)" d="M 78.126253 80.419178 
L 77.175968 78.395084 
L 79.365415 78.849312 
L 78.126253 80.419178 
z
" style="fill:#008000;stroke:#008000;stroke-linecap:round;stroke-width:0.248516;"/>
     <path clip-path="url(#p4bf415ee21)" d="M 116.32161 101.364512 
L 117.729308 103.101862 
L 115.494809 103.185611 
L 116.32161 101.364512 
z
" style="fill:#008000;stroke:#008000;stroke-linecap:round;stroke-width:0.248516;"/>
    </g>
    <g id="patch_14">
     <path clip-path="url(#p4bf415ee21)" d="M 75.061949 82.391155 
Q 84.469593 94.649329 96.205182 104.705056 
" style="fill:none;stroke:#008000;stroke-linecap:round;stroke-width:1.51072;"/>
     <path clip-path="url(#p4bf415ee21)" d="M 75.486301 84.586588 
L 75.061949 82.391155 
L 77.072907 83.368934 
L 75.486301 84.586588 
z
" style="fill:#008000;stroke:#008000;stroke-linecap:round;stroke-width:1.51072;"/>
     <path clip-path="url(#p4bf415ee21)" d="M 95.337121 102.64436 
L 96.205182 104.705056 
L 94.035789 104.163087 
L 95.337121 102.64436 
z
" style="fill:#008000;stroke:#008000;stroke-linecap:round;stroke-width:1.51072;"/>
    </g>
    <g id="patch_15">
     <path clip-path="url(#p4bf415ee21)" d="M 71.532416 84.673306 
Q 73.935348 89.827731 76.98038 94.631536 
" style="fill:none;stroke:#008000;stroke-linecap:round;stroke-width:1.685083;"/>
     <path clip-path="url(#p4bf415ee21)" d="M 71.471125 86.908534 
L 71.532416 84.673306 
L 73.283824 86.063476 
L 71.471125 86.908534 
z
" style="fill:#008000;stroke:#008000;stroke-linecap:round;stroke-width:1.685083;"/>
     <path clip-path="url(#p4bf415ee21)" d="M 76.754228 92.406934 
L 76.98038 94.631536 
L 75.065007 93.477696 
L 76.754228 92.406934 
z
" style="fill:#008000;stroke:#008000;stroke-linecap:round;stroke-width:1.685083;"/>
    </g>
    <g id="patch_16">
     <path clip-path="url(#p4bf415ee21)" d="M 83.804101 32.003121 
Q 84.569777 31.083508 85.258202 30.060103 
" style="fill:none;stroke:#008000;stroke-linecap:round;stroke-width:1.708772;"/>
     <path clip-path="url(#p4bf415ee21)" d="M 85.852306 31.105984 
L 83.804101 32.003121 
L 84.315315 29.826275 
L 85.852306 31.105984 
z
" style="fill:#008000;stroke:#008000;stroke-linecap:round;stroke-width:1.708772;"/>
     <path clip-path="url(#p4bf415ee21)" d="M 83.312162 31.161432 
L 85.258202 30.060103 
L 84.971641 32.277733 
L 83.312162 31.161432 
z
" style="fill:#008000;stroke:#008000;stroke-linecap:round;stroke-width:1.708772;"/>
    </g>
    <g id="patch_17">
     <path clip-path="url(#p4bf415ee21)" d="M 87.424222 36.726256 
Q 91.647006 34.510587 95.553087 31.776421 
" style="fill:none;stroke:#ff0000;stroke-linecap:round;stroke-width:2.259669;"/>
     <path clip-path="url(#p4bf415ee21)" d="M 89.659863 36.682523 
L 87.424222 36.726256 
L 88.73062 34.911504 
L 89.659863 36.682523 
z
" style="fill:#ff0000;stroke:#ff0000;stroke-linecap:round;stroke-width:2.259669;"/>
     <path clip-path="url(#p4bf415ee21)" d="M 93.341156 32.10408 
L 95.553087 31.776421 
L 94.488055 33.742561 
L 93.341156 32.10408 
z
" style="fill:#ff0000;stroke:#ff0000;stroke-linecap:round;stroke-width:2.259669;"/>
    </g>
    <g id="patch_18">
     <path clip-path="url(#p4bf415ee21)" d="M 84.185598 55.540423 
Q 106.595822 73.613407 132.935691 85.24648 
" style="fill:none;stroke:#008000;stroke-linecap:round;stroke-width:1.439972;"/>
     <path clip-path="url(#p4bf415ee21)" d="M 85.11466 57.574346 
L 84.185598 55.540423 
L 86.370174 56.017528 
L 85.11466 57.574346 
z
" style="fill:#008000;stroke:#008000;stroke-linecap:round;stroke-width:1.439972;"/>
     <path clip-path="url(#p4bf415ee21)" d="M 131.510182 83.523714 
L 132.935691 85.24648 
L 130.702172 85.353228 
L 131.510182 83.523714 
z
" style="fill:#008000;stroke:#008000;stroke-linecap:round;stroke-width:1.439972;"/>
    </g>
    <g id="patch_19">
     <path clip-path="url(#p4bf415ee21)" d="M 80.854237 58.73109 
Q 97.132303 81.10399 118.594215 98.572082 
" style="fill:none;stroke:#008000;stroke-linecap:round;stroke-width:1.455174;"/>
     <path clip-path="url(#p4bf415ee21)" d="M 81.222287 60.93666 
L 80.854237 58.73109 
L 82.839523 59.759992 
L 81.222287 60.93666 
z
" style="fill:#008000;stroke:#008000;stroke-linecap:round;stroke-width:1.455174;"/>
     <path clip-path="url(#p4bf415ee21)" d="M 117.674311 96.534001 
L 118.594215 98.572082 
L 116.411807 98.085157 
L 117.674311 96.534001 
z
" style="fill:#008000;stroke:#008000;stroke-linecap:round;stroke-width:1.455174;"/>
    </g>
    <g id="patch_20">
     <path clip-path="url(#p4bf415ee21)" d="M 76.784744 60.500496 
Q 85.576314 82.573543 99.417225 101.888232 
" style="fill:none;stroke:#008000;stroke-linecap:round;stroke-width:1.06349;"/>
     <path clip-path="url(#p4bf415ee21)" d="M 76.595771 62.728564 
L 76.784744 60.500496 
L 78.453815 61.988516 
L 76.595771 62.728564 
z
" style="fill:#008000;stroke:#008000;stroke-linecap:round;stroke-width:1.06349;"/>
     <path clip-path="url(#p4bf415ee21)" d="M 99.065101 99.680063 
L 99.417225 101.888232 
L 97.439415 100.84503 
L 99.065101 99.680063 
z
" style="fill:#008000;stroke:#008000;stroke-linecap:round;stroke-width:1.06349;"/>
    </g>
    <g id="patch_21">
     <path clip-path="url(#p4bf415ee21)" d="M 72.630471 61.003101 
Q 75.076905 77.781862 80.938155 93.694897 
" style="fill:none;stroke:#008000;stroke-linecap:round;stroke-width:0.556507;"/>
     <path clip-path="url(#p4bf415ee21)" d="M 71.929493 63.126455 
L 72.630471 61.003101 
L 73.908567 62.837895 
L 71.929493 63.126455 
z
" style="fill:#008000;stroke:#008000;stroke-linecap:round;stroke-width:0.556507;"/>
     <path clip-path="url(#p4bf415ee21)" d="M 81.185265 91.472525 
L 80.938155 93.694897 
L 79.308523 92.163785 
L 81.185265 91.472525 
z
" style="fill:#008000;stroke:#008000;stroke-linecap:round;stroke-width:0.556507;"/>
    </g>
    <g id="patch_22">
     <path clip-path="url(#p4bf415ee21)" d="M 68.673813 62.661562 
Q 68.331488 67.947733 68.673611 73.233898 
" style="fill:none;stroke:#ff0000;stroke-linecap:round;stroke-width:2.155123;"/>
     <path clip-path="url(#p4bf415ee21)" d="M 67.546657 64.592758 
L 68.673813 62.661562 
L 69.542476 64.722004 
L 67.546657 64.592758 
z
" style="fill:#ff0000;stroke:#ff0000;stroke-linecap:round;stroke-width:2.155123;"/>
     <path clip-path="url(#p4bf415ee21)" d="M 69.542352 71.173488 
L 68.673611 73.233898 
L 67.546528 71.302659 
L 69.542352 71.173488 
z
" style="fill:#ff0000;stroke:#ff0000;stroke-linecap:round;stroke-width:2.155123;"/>
    </g>
    <g id="patch_23">
     <path clip-path="url(#p4bf415ee21)" d="M 93.338638 43.622101 
Q 104.015777 71.261009 121.523627 95.168439 
" style="fill:none;stroke:#008000;stroke-linecap:round;stroke-width:1.523438;"/>
     <path clip-path="url(#p4bf415ee21)" d="M 93.126531 45.848086 
L 93.338638 43.622101 
L 94.992162 45.127377 
L 93.126531 45.848086 
z
" style="fill:#008000;stroke:#008000;stroke-linecap:round;stroke-width:1.523438;"/>
     <path clip-path="url(#p4bf415ee21)" d="M 121.148761 92.964017 
L 121.523627 95.168439 
L 119.53517 94.145679 
L 121.148761 92.964017 
z
" style="fill:#008000;stroke:#008000;stroke-linecap:round;stroke-width:1.523438;"/>
    </g>
    <g id="patch_24">
     <path clip-path="url(#p4bf415ee21)" d="M 84.650659 44.312435 
Q 81.759506 67.948102 84.650223 91.583766 
" style="fill:none;stroke:#008000;stroke-linecap:round;stroke-width:1.379515;"/>
     <path clip-path="url(#p4bf415ee21)" d="M 83.415224 46.176222 
L 84.650659 44.312435 
L 85.400428 46.419055 
L 83.415224 46.176222 
z
" style="fill:#008000;stroke:#008000;stroke-linecap:round;stroke-width:1.379515;"/>
     <path clip-path="url(#p4bf415ee21)" d="M 85.40003 89.47716 
L 84.650223 91.583766 
L 83.414822 89.719957 
L 85.40003 89.47716 
z
" style="fill:#008000;stroke:#008000;stroke-linecap:round;stroke-width:1.379515;"/>
    </g>
    <g id="patch_25">
     <path clip-path="url(#p4bf415ee21)" d="M 127.207224 26.233362 
Q 127.41478 26.27774 127.659668 26.305077 
" style="fill:none;stroke:#ff0000;stroke-linecap:round;stroke-width:2.451088;"/>
     <path clip-path="url(#p4bf415ee21)" d="M 128.953936 27.629427 
L 127.207224 26.233362 
L 129.372103 25.673632 
L 128.953936 27.629427 
z
" style="fill:#ff0000;stroke:#ff0000;stroke-linecap:round;stroke-width:2.451088;"/>
     <path clip-path="url(#p4bf415ee21)" d="M 125.782958 25.089363 
L 127.659668 26.305077 
L 125.561071 27.077017 
L 125.782958 25.089363 
z
" style="fill:#ff0000;stroke:#ff0000;stroke-linecap:round;stroke-width:2.451088;"/>
    </g>
    <g id="patch_26">
     <path clip-path="url(#p4bf415ee21)" d="M 119.064218 33.622449 
Q 129.432124 47.131847 142.365407 58.213827 
" style="fill:none;stroke:#008000;stroke-linecap:round;stroke-width:0.1;"/>
     <path clip-path="url(#p4bf415ee21)" d="M 119.488569 35.817882 
L 119.064218 33.622449 
L 121.075175 34.600228 
L 119.488569 35.817882 
z
" style="fill:#008000;stroke:#008000;stroke-linecap:round;stroke-width:0.1;"/>
     <path clip-path="url(#p4bf415ee21)" d="M 141.497346 56.15313 
L 142.365407 58.213827 
L 140.196013 57.671857 
L 141.497346 56.15313 
z
" style="fill:#008000;stroke:#008000;stroke-linecap:round;stroke-width:0.1;"/>
    </g>
    <g id="patch_27">
     <path clip-path="url(#p4bf415ee21)" d="M 98.763803 34.923615 
Q 85.575938 53.327103 77.19927 74.358726 
" style="fill:none;stroke:#ff0000;stroke-linecap:round;stroke-width:2.066324;"/>
     <path clip-path="url(#p4bf415ee21)" d="M 96.785997 35.966823 
L 98.763803 34.923615 
L 98.411686 37.131784 
L 96.785997 35.966823 
z
" style="fill:#ff0000;stroke:#ff0000;stroke-linecap:round;stroke-width:2.066324;"/>
     <path clip-path="url(#p4bf415ee21)" d="M 78.868334 72.870699 
L 77.19927 74.358726 
L 77.010286 72.130658 
L 78.868334 72.870699 
z
" style="fill:#ff0000;stroke:#ff0000;stroke-linecap:round;stroke-width:2.066324;"/>
    </g>
    <g id="patch_28">
     <path clip-path="url(#p4bf415ee21)" d="M 139.164911 43.926729 
Q 141.379144 48.676384 144.185078 53.102992 
" style="fill:none;stroke:#ff0000;stroke-linecap:round;stroke-width:2.084529;"/>
     <path clip-path="url(#p4bf415ee21)" d="M 139.10362 46.161957 
L 139.164911 43.926729 
L 140.916319 45.316898 
L 139.10362 46.161957 
z
" style="fill:#ff0000;stroke:#ff0000;stroke-linecap:round;stroke-width:2.084529;"/>
     <path clip-path="url(#p4bf415ee21)" d="M 143.958927 50.878389 
L 144.185078 53.102992 
L 142.269706 51.949152 
L 143.958927 50.878389 
z
" style="fill:#ff0000;stroke:#ff0000;stroke-linecap:round;stroke-width:2.084529;"/>
    </g>
    <g id="patch_29">
     <path clip-path="url(#p4bf415ee21)" d="M 134.213176 44.726678 
Q 136.496864 60.389257 141.968248 75.243823 
" style="fill:none;stroke:#008000;stroke-linecap:round;stroke-width:1.565408;"/>
     <path clip-path="url(#p4bf415ee21)" d="M 133.512198 46.850032 
L 134.213176 44.726678 
L 135.491272 46.561472 
L 133.512198 46.850032 
z
" style="fill:#008000;stroke:#008000;stroke-linecap:round;stroke-width:1.565408;"/>
     <path clip-path="url(#p4bf415ee21)" d="M 142.215359 73.021451 
L 141.968248 75.243823 
L 140.338617 73.712712 
L 142.215359 73.021451 
z
" style="fill:#008000;stroke:#008000;stroke-linecap:round;stroke-width:1.565408;"/>
    </g>
    <g id="patch_30">
     <path clip-path="url(#p4bf415ee21)" d="M 129.759823 43.113689 
Q 126.722037 67.948102 129.759365 92.782515 
" style="fill:none;stroke:#008000;stroke-linecap:round;stroke-width:0.299332;"/>
     <path clip-path="url(#p4bf415ee21)" d="M 128.524388 44.977476 
L 129.759823 43.113689 
L 130.509591 45.220309 
L 128.524388 44.977476 
z
" style="fill:#008000;stroke:#008000;stroke-linecap:round;stroke-width:0.299332;"/>
     <path clip-path="url(#p4bf415ee21)" d="M 130.509171 90.675908 
L 129.759365 92.782515 
L 128.523964 90.918706 
L 130.509171 90.675908 
z
" style="fill:#008000;stroke:#008000;stroke-linecap:round;stroke-width:0.299332;"/>
    </g>
    <g id="patch_31">
     <path clip-path="url(#p4bf415ee21)" d="M 121.430266 40.859004 
Q 104.01732 64.636126 93.397955 92.124417 
" style="fill:none;stroke:#008000;stroke-linecap:round;stroke-width:1.667821;"/>
     <path clip-path="url(#p4bf415ee21)" d="M 119.441794 41.881735 
L 121.430266 40.859004 
L 121.055367 43.06342 
L 119.441794 41.881735 
z
" style="fill:#008000;stroke:#008000;stroke-linecap:round;stroke-width:1.667821;"/>
     <path clip-path="url(#p4bf415ee21)" d="M 95.051499 90.619162 
L 93.397955 92.124417 
L 93.185877 89.898429 
L 95.051499 90.619162 
z
" style="fill:#008000;stroke:#008000;stroke-linecap:round;stroke-width:1.667821;"/>
    </g>
    <g id="patch_32">
     <path clip-path="url(#p4bf415ee21)" d="M 119.726683 36.406183 
Q 97.136611 54.791256 80.002787 78.339167 
" style="fill:none;stroke:#008000;stroke-linecap:round;stroke-width:0.155933;"/>
     <path clip-path="url(#p4bf415ee21)" d="M 117.544259 36.893036 
L 119.726683 36.406183 
L 118.806711 38.444234 
L 117.544259 36.893036 
z
" style="fill:#008000;stroke:#008000;stroke-linecap:round;stroke-width:0.155933;"/>
     <path clip-path="url(#p4bf415ee21)" d="M 81.988097 77.310312 
L 80.002787 78.339167 
L 80.370888 76.133606 
L 81.988097 77.310312 
z
" style="fill:#008000;stroke:#008000;stroke-linecap:round;stroke-width:0.155933;"/>
    </g>
    <g id="patch_33">
     <path clip-path="url(#p4bf415ee21)" d="M 138.983033 56.895385 
Q 124.514632 77.085845 115.324505 100.159849 
" style="fill:none;stroke:#008000;stroke-linecap:round;stroke-width:0.1;"/>
     <path clip-path="url(#p4bf415ee21)" d="M 137.005227 57.938593 
L 138.983033 56.895385 
L 138.630916 59.103555 
L 137.005227 57.938593 
z
" style="fill:#008000;stroke:#008000;stroke-linecap:round;stroke-width:0.1;"/>
     <path clip-path="url(#p4bf415ee21)" d="M 116.993569 98.671821 
L 115.324505 100.159849 
L 115.135522 97.931781 
L 116.993569 98.671821 
z
" style="fill:#008000;stroke:#008000;stroke-linecap:round;stroke-width:0.1;"/>
    </g>
    <g id="patch_34">
     <path clip-path="url(#p4bf415ee21)" d="M 149.382553 85.661531 
Q 149.234241 86.449933 149.165422 87.28833 
" style="fill:none;stroke:#ff0000;stroke-linecap:round;stroke-width:2.17961;"/>
     <path clip-path="url(#p4bf415ee21)" d="M 148.030042 87.442181 
L 149.382553 85.661531 
L 149.995566 87.81193 
L 148.030042 87.442181 
z
" style="fill:#ff0000;stroke:#ff0000;stroke-linecap:round;stroke-width:2.17961;"/>
     <path clip-path="url(#p4bf415ee21)" d="M 150.325687 85.376843 
L 149.165422 87.28833 
L 148.332391 85.213225 
L 150.325687 85.376843 
z
" style="fill:#ff0000;stroke:#ff0000;stroke-linecap:round;stroke-width:2.17961;"/>
    </g>
    <g id="patch_35">
     <path clip-path="url(#p4bf415ee21)" d="M 143.959826 83.152222 
Q 141.380213 87.221541 139.344639 91.587825 
" style="fill:none;stroke:#ff0000;stroke-linecap:round;stroke-width:2.463632;"/>
     <path clip-path="url(#p4bf415ee21)" d="M 142.044422 84.30601 
L 143.959826 83.152222 
L 143.733614 85.376818 
L 142.044422 84.30601 
z
" style="fill:#ff0000;stroke:#ff0000;stroke-linecap:round;stroke-width:2.463632;"/>
     <path clip-path="url(#p4bf415ee21)" d="M 141.096063 90.197677 
L 139.344639 91.587825 
L 139.283375 89.352596 
L 141.096063 90.197677 
z
" style="fill:#ff0000;stroke:#ff0000;stroke-linecap:round;stroke-width:2.463632;"/>
    </g>
    <g id="patch_36">
     <path clip-path="url(#p4bf415ee21)" d="M 136.203988 103.634944 
Q 135.220223 104.816492 134.341557 106.122707 
" style="fill:none;stroke:#008000;stroke-linecap:round;stroke-width:1.403915;"/>
     <path clip-path="url(#p4bf415ee21)" d="M 134.155783 104.53208 
L 136.203988 103.634944 
L 135.692774 105.81179 
L 134.155783 104.53208 
z
" style="fill:#008000;stroke:#008000;stroke-linecap:round;stroke-width:1.403915;"/>
     <path clip-path="url(#p4bf415ee21)" d="M 136.287598 105.021377 
L 134.341557 106.122707 
L 134.628118 103.905077 
L 136.287598 105.021377 
z
" style="fill:#008000;stroke:#008000;stroke-linecap:round;stroke-width:1.403915;"/>
    </g>
    <g id="patch_37">
     <path clip-path="url(#p4bf415ee21)" d="M 133.368298 98.647727 
Q 128.142994 101.389413 123.309418 104.772804 
" style="fill:none;stroke:#008000;stroke-linecap:round;stroke-width:1.247052;"/>
     <path clip-path="url(#p4bf415ee21)" d="M 131.132658 98.691461 
L 133.368298 98.647727 
L 132.061901 100.462479 
L 131.132658 98.691461 
z
" style="fill:#008000;stroke:#008000;stroke-linecap:round;stroke-width:1.247052;"/>
     <path clip-path="url(#p4bf415ee21)" d="M 125.521349 104.445146 
L 123.309418 104.772804 
L 124.37445 102.806664 
L 125.521349 104.445146 
z
" style="fill:#008000;stroke:#008000;stroke-linecap:round;stroke-width:1.247052;"/>
    </g>
    <g id="patch_38">
     <path clip-path="url(#p4bf415ee21)" d="M 132.014849 93.893654 
Q 117.053834 96.497964 102.946883 102.118061 
" style="fill:none;stroke:#008000;stroke-linecap:round;stroke-width:1.307245;"/>
     <path clip-path="url(#p4bf415ee21)" d="M 129.872985 93.251457 
L 132.014849 93.893654 
L 130.215973 95.221827 
L 129.872985 93.251457 
z
" style="fill:#008000;stroke:#008000;stroke-linecap:round;stroke-width:1.307245;"/>
     <path clip-path="url(#p4bf415ee21)" d="M 105.174968 102.306847 
L 102.946883 102.118061 
L 104.434763 100.448865 
L 105.174968 102.306847 
z
" style="fill:#008000;stroke:#008000;stroke-linecap:round;stroke-width:1.307245;"/>
    </g>
    <g id="patch_39">
     <path clip-path="url(#p4bf415ee21)" d="M 115.182156 106.962412 
Q 109.895771 106.62696 104.609387 106.962339 
" style="fill:none;stroke:#008000;stroke-linecap:round;stroke-width:1.654133;"/>
     <path clip-path="url(#p4bf415ee21)" d="M 113.249499 105.837762 
L 115.182156 106.962412 
L 113.122842 107.833748 
L 113.249499 105.837762 
z
" style="fill:#008000;stroke:#008000;stroke-linecap:round;stroke-width:1.654133;"/>
     <path clip-path="url(#p4bf415ee21)" d="M 106.668689 107.833703 
L 104.609387 106.962339 
L 106.542059 105.837716 
L 106.668689 107.833703 
z
" style="fill:#008000;stroke:#008000;stroke-linecap:round;stroke-width:1.654133;"/>
    </g>
    <g id="patch_40">
     <path clip-path="url(#p4bf415ee21)" d="M 64.932469 82.205245 
C 61.355208 82.205245 57.923981 80.703222 55.394476 78.02998 
C 52.86497 75.356738 51.44371 71.730535 51.44371 67.95 
C 51.44371 64.169465 52.86497 60.543262 55.394476 57.87002 
C 57.923981 55.196778 61.355208 53.694755 64.932469 53.694755 
C 68.50973 53.694755 71.940957 55.196778 74.470462 57.87002 
C 76.999968 60.543262 78.421228 64.169465 78.421228 67.95 
C 78.421228 71.730535 76.999968 75.356738 74.470462 78.02998 
C 71.940957 80.703222 68.50973 82.205245 64.932469 82.205245 
z
" style="fill:#1f77b4;"/>
    </g>
    <g id="patch_41">
     <path clip-path="url(#p4bf415ee21)" d="M 70.956306 58.446503 
C 67.379045 58.446503 63.947818 56.944481 61.418313 54.271239 
C 58.888807 51.597997 57.467547 47.971794 57.467547 44.191259 
C 57.467547 40.410724 58.888807 36.784521 61.418313 34.111279 
C 63.947818 31.438037 67.379045 29.936014 70.956306 29.936014 
C 74.533567 29.936014 77.964794 31.438037 80.494299 34.111279 
C 83.023804 36.784521 84.445065 40.410724 84.445065 44.191259 
C 84.445065 47.971794 83.023804 51.597997 80.494299 54.271239 
C 77.964794 56.944481 74.533567 58.446503 70.956306 58.446503 
z
" style="fill:#aec7e8;"/>
    </g>
    <g id="patch_42">
     <path clip-path="url(#p4bf415ee21)" d="M 87.413734 41.053898 
C 83.836474 41.053898 80.405247 39.551875 77.875741 36.878633 
C 75.346236 34.205391 73.924975 30.579188 73.924975 26.798653 
C 73.924975 23.018118 75.346236 19.391915 77.875741 16.718673 
C 80.405247 14.045431 83.836474 12.543408 87.413734 12.543408 
C 90.990995 12.543408 94.422222 14.045431 96.951728 16.718673 
C 99.481233 19.391915 100.902494 23.018118 100.902494 26.798653 
C 100.902494 30.579188 99.481233 34.205391 96.951728 36.878633 
C 94.422222 39.551875 90.990995 41.053898 87.413734 41.053898 
z
" style="fill:#ff7f0e;"/>
    </g>
    <g id="patch_43">
     <path clip-path="url(#p4bf415ee21)" d="M 109.895 34.687762 
C 106.317739 34.687762 102.886512 33.18574 100.357007 30.512498 
C 97.827501 27.839256 96.406241 24.213053 96.406241 20.432517 
C 96.406241 16.651982 97.827501 13.025779 100.357007 10.352537 
C 102.886512 7.679295 106.317739 6.177273 109.895 6.177273 
C 113.472261 6.177273 116.903488 7.679295 119.432993 10.352537 
C 121.962499 13.025779 123.383759 16.651982 123.383759 20.432517 
C 123.383759 24.213053 121.962499 27.839256 119.432993 30.512498 
C 116.903488 33.18574 113.472261 34.687762 109.895 34.687762 
z
" style="fill:#ffbb78;"/>
    </g>
    <g id="patch_44">
     <path clip-path="url(#p4bf415ee21)" d="M 132.376266 41.053898 
C 128.799005 41.053898 125.367778 39.551875 122.838272 36.878633 
C 120.308767 34.205391 118.887506 30.579188 118.887506 26.798653 
C 118.887506 23.018118 120.308767 19.391915 122.838272 16.718673 
C 125.367778 14.045431 128.799005 12.543408 132.376266 12.543408 
C 135.953526 12.543408 139.384753 14.045431 141.914259 16.718673 
C 144.443764 19.391915 145.865025 23.018118 145.865025 26.798653 
C 145.865025 30.579188 144.443764 34.205391 141.914259 36.878633 
C 139.384753 39.551875 135.953526 41.053898 132.376266 41.053898 
z
" style="fill:#2ca02c;"/>
    </g>
    <g id="patch_45">
     <path clip-path="url(#p4bf415ee21)" d="M 148.833694 58.446503 
C 145.256433 58.446503 141.825206 56.944481 139.295701 54.271239 
C 136.766196 51.597997 135.344935 47.971794 135.344935 44.191259 
C 135.344935 40.410724 136.766196 36.784521 139.295701 34.111279 
C 141.825206 31.438037 145.256433 29.936014 148.833694 29.936014 
C 152.410955 29.936014 155.842182 31.438037 158.371687 34.111279 
C 160.901193 36.784521 162.322453 40.410724 162.322453 44.191259 
C 162.322453 47.971794 160.901193 51.597997 158.371687 54.271239 
C 155.842182 56.944481 152.410955 58.446503 148.833694 58.446503 
z
" style="fill:#98df8a;"/>
    </g>
    <g id="patch_46">
     <path clip-path="url(#p4bf415ee21)" d="M 154.857531 82.205245 
C 151.28027 82.205245 147.849043 80.703222 145.319538 78.02998 
C 142.790032 75.356738 141.368772 71.730535 141.368772 67.95 
C 141.368772 64.169465 142.790032 60.543262 145.319538 57.87002 
C 147.849043 55.196778 151.28027 53.694755 154.857531 53.694755 
C 158.434792 53.694755 161.866019 55.196778 164.395524 57.87002 
C 166.92503 60.543262 168.34629 64.169465 168.34629 67.95 
C 168.34629 71.730535 166.92503 75.356738 164.395524 78.02998 
C 161.866019 80.703222 158.434792 82.205245 154.857531 82.205245 
z
" style="fill:#d62728;"/>
    </g>
    <g id="patch_47">
     <path clip-path="url(#p4bf415ee21)" d="M 148.833694 105.963986 
C 145.256433 105.963986 141.825206 104.461963 139.295701 101.788721 
C 136.766196 99.115479 135.344935 95.489276 135.344935 91.708741 
C 135.344935 87.928206 136.766196 84.302003 139.295701 81.628761 
C 141.825206 78.955519 145.256433 77.453497 148.833694 77.453497 
C 152.410955 77.453497 155.842182 78.955519 158.371687 81.628761 
C 160.901193 84.302003 162.322453 87.928206 162.322453 91.708741 
C 162.322453 95.489276 160.901193 99.115479 158.371687 101.788721 
C 155.842182 104.461963 152.410955 105.963986 148.833694 105.963986 
z
" style="fill:#ff9896;"/>
    </g>
    <g id="patch_48">
     <path clip-path="url(#p4bf415ee21)" d="M 132.376266 123.356592 
C 128.799005 123.356592 125.367778 121.854569 122.838272 119.181327 
C 120.308767 116.508085 118.887506 112.881882 118.887506 109.101347 
C 118.887506 105.320812 120.308767 101.694609 122.838272 99.021367 
C 125.367778 96.348125 128.799005 94.846102 132.376266 94.846102 
C 135.953526 94.846102 139.384753 96.348125 141.914259 99.021367 
C 144.443764 101.694609 145.865025 105.320812 145.865025 109.101347 
C 145.865025 112.881882 144.443764 116.508085 141.914259 119.181327 
C 139.384753 121.854569 135.953526 123.356592 132.376266 123.356592 
z
" style="fill:#9467bd;"/>
    </g>
    <g id="patch_49">
     <path clip-path="url(#p4bf415ee21)" d="M 109.895 129.722727 
C 106.317739 129.722727 102.886512 128.220705 100.357007 125.547463 
C 97.827501 122.874221 96.406241 119.248018 96.406241 115.467483 
C 96.406241 111.686947 97.827501 108.060744 100.357007 105.387502 
C 102.886512 102.71426 106.317739 101.212238 109.895 101.212238 
C 113.472261 101.212238 116.903488 102.71426 119.432993 105.387502 
C 121.962499 108.060744 123.383759 111.686947 123.383759 115.467483 
C 123.383759 119.248018 121.962499 122.874221 119.432993 125.547463 
C 116.903488 128.220705 113.472261 129.722727 109.895 129.722727 
z
" style="fill:#c5b0d5;"/>
    </g>
    <g id="patch_50">
     <path clip-path="url(#p4bf415ee21)" d="M 87.413734 123.356592 
C 83.836474 123.356592 80.405247 121.854569 77.875741 119.181327 
C 75.346236 116.508085 73.924975 112.881882 73.924975 109.101347 
C 73.924975 105.320812 75.346236 101.694609 77.875741 99.021367 
C 80.405247 96.348125 83.836474 94.846102 87.413734 94.846102 
C 90.990995 94.846102 94.422222 96.348125 96.951728 99.021367 
C 99.481233 101.694609 100.902494 105.320812 100.902494 109.101347 
C 100.902494 112.881882 99.481233 116.508085 96.951728 119.181327 
C 94.422222 121.854569 90.990995 123.356592 87.413734 123.356592 
z
" style="fill:#8c564b;"/>
    </g>
    <g id="patch_51">
     <path clip-path="url(#p4bf415ee21)" d="M 70.956306 105.963986 
C 67.379045 105.963986 63.947818 104.461963 61.418313 101.788721 
C 58.888807 99.115479 57.467547 95.489276 57.467547 91.708741 
C 57.467547 87.928206 58.888807 84.302003 61.418313 81.628761 
C 63.947818 78.955519 67.379045 77.453497 70.956306 77.453497 
C 74.533567 77.453497 77.964794 78.955519 80.494299 81.628761 
C 83.023804 84.302003 84.445065 87.928206 84.445065 91.708741 
C 84.445065 95.489276 83.023804 99.115479 80.494299 101.788721 
C 77.964794 104.461963 74.533567 105.963986 70.956306 105.963986 
z
" style="fill:#c49c94;"/>
    </g>
    <g id="text_10">
     <!-- depr -->
     <defs>
      <path d="M 45.40625 46.390625 
L 45.40625 75.984375 
L 54.390625 75.984375 
L 54.390625 0 
L 45.40625 0 
L 45.40625 8.203125 
Q 42.578125 3.328125 38.25 0.953125 
Q 33.9375 -1.421875 27.875 -1.421875 
Q 17.96875 -1.421875 11.734375 6.484375 
Q 5.515625 14.40625 5.515625 27.296875 
Q 5.515625 40.1875 11.734375 48.09375 
Q 17.96875 56 27.875 56 
Q 33.9375 56 38.25 53.625 
Q 42.578125 51.265625 45.40625 46.390625 
z
M 14.796875 27.296875 
Q 14.796875 17.390625 18.875 11.75 
Q 22.953125 6.109375 30.078125 6.109375 
Q 37.203125 6.109375 41.296875 11.75 
Q 45.40625 17.390625 45.40625 27.296875 
Q 45.40625 37.203125 41.296875 42.84375 
Q 37.203125 48.484375 30.078125 48.484375 
Q 22.953125 48.484375 18.875 42.84375 
Q 14.796875 37.203125 14.796875 27.296875 
z
" id="DejaVuSans-100"/>
      <path d="M 56.203125 29.59375 
L 56.203125 25.203125 
L 14.890625 25.203125 
Q 15.484375 15.921875 20.484375 11.0625 
Q 25.484375 6.203125 34.421875 6.203125 
Q 39.59375 6.203125 44.453125 7.46875 
Q 49.3125 8.734375 54.109375 11.28125 
L 54.109375 2.78125 
Q 49.265625 0.734375 44.1875 -0.34375 
Q 39.109375 -1.421875 33.890625 -1.421875 
Q 20.796875 -1.421875 13.15625 6.1875 
Q 5.515625 13.8125 5.515625 26.8125 
Q 5.515625 40.234375 12.765625 48.109375 
Q 20.015625 56 32.328125 56 
Q 43.359375 56 49.78125 48.890625 
Q 56.203125 41.796875 56.203125 29.59375 
z
M 47.21875 32.234375 
Q 47.125 39.59375 43.09375 43.984375 
Q 39.0625 48.390625 32.421875 48.390625 
Q 24.90625 48.390625 20.390625 44.140625 
Q 15.875 39.890625 15.1875 32.171875 
z
" id="DejaVuSans-101"/>
      <path d="M 18.109375 8.203125 
L 18.109375 -20.796875 
L 9.078125 -20.796875 
L 9.078125 54.6875 
L 18.109375 54.6875 
L 18.109375 46.390625 
Q 20.953125 51.265625 25.265625 53.625 
Q 29.59375 56 35.59375 56 
Q 45.5625 56 51.78125 48.09375 
Q 58.015625 40.1875 58.015625 27.296875 
Q 58.015625 14.40625 51.78125 6.484375 
Q 45.5625 -1.421875 35.59375 -1.421875 
Q 29.59375 -1.421875 25.265625 0.953125 
Q 20.953125 3.328125 18.109375 8.203125 
z
M 48.6875 27.296875 
Q 48.6875 37.203125 44.609375 42.84375 
Q 40.53125 48.484375 33.40625 48.484375 
Q 26.265625 48.484375 22.1875 42.84375 
Q 18.109375 37.203125 18.109375 27.296875 
Q 18.109375 17.390625 22.1875 11.75 
Q 26.265625 6.109375 33.40625 6.109375 
Q 40.53125 6.109375 44.609375 11.75 
Q 48.6875 17.390625 48.6875 27.296875 
z
" id="DejaVuSans-112"/>
      <path d="M 41.109375 46.296875 
Q 39.59375 47.171875 37.8125 47.578125 
Q 36.03125 48 33.890625 48 
Q 26.265625 48 22.1875 43.046875 
Q 18.109375 38.09375 18.109375 28.8125 
L 18.109375 0 
L 9.078125 0 
L 9.078125 54.6875 
L 18.109375 54.6875 
L 18.109375 46.1875 
Q 20.953125 51.171875 25.484375 53.578125 
Q 30.03125 56 36.53125 56 
Q 37.453125 56 38.578125 55.875 
Q 39.703125 55.765625 41.0625 55.515625 
z
" id="DejaVuSans-114"/>
     </defs>
     <g transform="translate(61.488328 68.777812)scale(0.03 -0.03)">
      <use xlink:href="#DejaVuSans-100"/>
      <use x="63.476562" xlink:href="#DejaVuSans-101"/>
      <use x="125" xlink:href="#DejaVuSans-112"/>
      <use x="188.476562" xlink:href="#DejaVuSans-114"/>
     </g>
    </g>
    <g id="text_11">
     <!-- effort -->
     <defs>
      <path d="M 37.109375 75.984375 
L 37.109375 68.5 
L 28.515625 68.5 
Q 23.6875 68.5 21.796875 66.546875 
Q 19.921875 64.59375 19.921875 59.515625 
L 19.921875 54.6875 
L 34.71875 54.6875 
L 34.71875 47.703125 
L 19.921875 47.703125 
L 19.921875 0 
L 10.890625 0 
L 10.890625 47.703125 
L 2.296875 47.703125 
L 2.296875 54.6875 
L 10.890625 54.6875 
L 10.890625 58.5 
Q 10.890625 67.625 15.140625 71.796875 
Q 19.390625 75.984375 28.609375 75.984375 
z
" id="DejaVuSans-102"/>
      <path d="M 30.609375 48.390625 
Q 23.390625 48.390625 19.1875 42.75 
Q 14.984375 37.109375 14.984375 27.296875 
Q 14.984375 17.484375 19.15625 11.84375 
Q 23.34375 6.203125 30.609375 6.203125 
Q 37.796875 6.203125 41.984375 11.859375 
Q 46.1875 17.53125 46.1875 27.296875 
Q 46.1875 37.015625 41.984375 42.703125 
Q 37.796875 48.390625 30.609375 48.390625 
z
M 30.609375 56 
Q 42.328125 56 49.015625 48.375 
Q 55.71875 40.765625 55.71875 27.296875 
Q 55.71875 13.875 49.015625 6.21875 
Q 42.328125 -1.421875 30.609375 -1.421875 
Q 18.84375 -1.421875 12.171875 6.21875 
Q 5.515625 13.875 5.515625 27.296875 
Q 5.515625 40.765625 12.171875 48.375 
Q 18.84375 56 30.609375 56 
z
" id="DejaVuSans-111"/>
      <path d="M 18.3125 70.21875 
L 18.3125 54.6875 
L 36.8125 54.6875 
L 36.8125 47.703125 
L 18.3125 47.703125 
L 18.3125 18.015625 
Q 18.3125 11.328125 20.140625 9.421875 
Q 21.96875 7.515625 27.59375 7.515625 
L 36.8125 7.515625 
L 36.8125 0 
L 27.59375 0 
Q 17.1875 0 13.234375 3.875 
Q 9.28125 7.765625 9.28125 18.015625 
L 9.28125 47.703125 
L 2.6875 47.703125 
L 2.6875 54.6875 
L 9.28125 54.6875 
L 9.28125 70.21875 
z
" id="DejaVuSans-116"/>
     </defs>
     <g transform="translate(66.854743 45.019071)scale(0.03 -0.03)">
      <use xlink:href="#DejaVuSans-101"/>
      <use x="61.523438" xlink:href="#DejaVuSans-102"/>
      <use x="96.728516" xlink:href="#DejaVuSans-102"/>
      <use x="131.933594" xlink:href="#DejaVuSans-111"/>
      <use x="193.115234" xlink:href="#DejaVuSans-114"/>
      <use x="234.228516" xlink:href="#DejaVuSans-116"/>
     </g>
    </g>
    <g id="text_12">
     <!-- sleep -->
     <defs>
      <path d="M 44.28125 53.078125 
L 44.28125 44.578125 
Q 40.484375 46.53125 36.375 47.5 
Q 32.28125 48.484375 27.875 48.484375 
Q 21.1875 48.484375 17.84375 46.4375 
Q 14.5 44.390625 14.5 40.28125 
Q 14.5 37.15625 16.890625 35.375 
Q 19.28125 33.59375 26.515625 31.984375 
L 29.59375 31.296875 
Q 39.15625 29.25 43.1875 25.515625 
Q 47.21875 21.78125 47.21875 15.09375 
Q 47.21875 7.46875 41.1875 3.015625 
Q 35.15625 -1.421875 24.609375 -1.421875 
Q 20.21875 -1.421875 15.453125 -0.5625 
Q 10.6875 0.296875 5.421875 2 
L 5.421875 11.28125 
Q 10.40625 8.6875 15.234375 7.390625 
Q 20.0625 6.109375 24.8125 6.109375 
Q 31.15625 6.109375 34.5625 8.28125 
Q 37.984375 10.453125 37.984375 14.40625 
Q 37.984375 18.0625 35.515625 20.015625 
Q 33.0625 21.96875 24.703125 23.78125 
L 21.578125 24.515625 
Q 13.234375 26.265625 9.515625 29.90625 
Q 5.8125 33.546875 5.8125 39.890625 
Q 5.8125 47.609375 11.28125 51.796875 
Q 16.75 56 26.8125 56 
Q 31.78125 56 36.171875 55.265625 
Q 40.578125 54.546875 44.28125 53.078125 
z
" id="DejaVuSans-115"/>
      <path d="M 9.421875 75.984375 
L 18.40625 75.984375 
L 18.40625 0 
L 9.421875 0 
z
" id="DejaVuSans-108"/>
     </defs>
     <g transform="translate(83.417406 27.626466)scale(0.03 -0.03)">
      <use xlink:href="#DejaVuSans-115"/>
      <use x="52.099609" xlink:href="#DejaVuSans-108"/>
      <use x="79.882812" xlink:href="#DejaVuSans-101"/>
      <use x="141.40625" xlink:href="#DejaVuSans-101"/>
      <use x="202.929688" xlink:href="#DejaVuSans-112"/>
     </g>
    </g>
    <g id="text_13">
     <!-- happy -->
     <defs>
      <path d="M 54.890625 33.015625 
L 54.890625 0 
L 45.90625 0 
L 45.90625 32.71875 
Q 45.90625 40.484375 42.875 44.328125 
Q 39.84375 48.1875 33.796875 48.1875 
Q 26.515625 48.1875 22.3125 43.546875 
Q 18.109375 38.921875 18.109375 30.90625 
L 18.109375 0 
L 9.078125 0 
L 9.078125 75.984375 
L 18.109375 75.984375 
L 18.109375 46.1875 
Q 21.34375 51.125 25.703125 53.5625 
Q 30.078125 56 35.796875 56 
Q 45.21875 56 50.046875 50.171875 
Q 54.890625 44.34375 54.890625 33.015625 
z
" id="DejaVuSans-104"/>
      <path d="M 34.28125 27.484375 
Q 23.390625 27.484375 19.1875 25 
Q 14.984375 22.515625 14.984375 16.5 
Q 14.984375 11.71875 18.140625 8.90625 
Q 21.296875 6.109375 26.703125 6.109375 
Q 34.1875 6.109375 38.703125 11.40625 
Q 43.21875 16.703125 43.21875 25.484375 
L 43.21875 27.484375 
z
M 52.203125 31.203125 
L 52.203125 0 
L 43.21875 0 
L 43.21875 8.296875 
Q 40.140625 3.328125 35.546875 0.953125 
Q 30.953125 -1.421875 24.3125 -1.421875 
Q 15.921875 -1.421875 10.953125 3.296875 
Q 6 8.015625 6 15.921875 
Q 6 25.140625 12.171875 29.828125 
Q 18.359375 34.515625 30.609375 34.515625 
L 43.21875 34.515625 
L 43.21875 35.40625 
Q 43.21875 41.609375 39.140625 45 
Q 35.0625 48.390625 27.6875 48.390625 
Q 23 48.390625 18.546875 47.265625 
Q 14.109375 46.140625 10.015625 43.890625 
L 10.015625 52.203125 
Q 14.9375 54.109375 19.578125 55.046875 
Q 24.21875 56 28.609375 56 
Q 40.484375 56 46.34375 49.84375 
Q 52.203125 43.703125 52.203125 31.203125 
z
" id="DejaVuSans-97"/>
      <path d="M 32.171875 -5.078125 
Q 28.375 -14.84375 24.75 -17.8125 
Q 21.140625 -20.796875 15.09375 -20.796875 
L 7.90625 -20.796875 
L 7.90625 -13.28125 
L 13.1875 -13.28125 
Q 16.890625 -13.28125 18.9375 -11.515625 
Q 21 -9.765625 23.484375 -3.21875 
L 25.09375 0.875 
L 2.984375 54.6875 
L 12.5 54.6875 
L 29.59375 11.921875 
L 46.6875 54.6875 
L 56.203125 54.6875 
z
" id="DejaVuSans-121"/>
     </defs>
     <g transform="translate(105.232812 21.26033)scale(0.03 -0.03)">
      <use xlink:href="#DejaVuSans-104"/>
      <use x="63.378906" xlink:href="#DejaVuSans-97"/>
      <use x="124.658203" xlink:href="#DejaVuSans-112"/>
      <use x="188.134766" xlink:href="#DejaVuSans-112"/>
      <use x="251.611328" xlink:href="#DejaVuSans-121"/>
     </g>
    </g>
    <g id="text_14">
     <!-- lonely -->
     <defs>
      <path d="M 54.890625 33.015625 
L 54.890625 0 
L 45.90625 0 
L 45.90625 32.71875 
Q 45.90625 40.484375 42.875 44.328125 
Q 39.84375 48.1875 33.796875 48.1875 
Q 26.515625 48.1875 22.3125 43.546875 
Q 18.109375 38.921875 18.109375 30.90625 
L 18.109375 0 
L 9.078125 0 
L 9.078125 54.6875 
L 18.109375 54.6875 
L 18.109375 46.1875 
Q 21.34375 51.125 25.703125 53.5625 
Q 30.078125 56 35.796875 56 
Q 45.21875 56 50.046875 50.171875 
Q 54.890625 44.34375 54.890625 33.015625 
z
" id="DejaVuSans-110"/>
     </defs>
     <g transform="translate(127.863609 27.626466)scale(0.03 -0.03)">
      <use xlink:href="#DejaVuSans-108"/>
      <use x="27.783203" xlink:href="#DejaVuSans-111"/>
      <use x="88.964844" xlink:href="#DejaVuSans-110"/>
      <use x="152.34375" xlink:href="#DejaVuSans-101"/>
      <use x="213.867188" xlink:href="#DejaVuSans-108"/>
      <use x="241.650391" xlink:href="#DejaVuSans-121"/>
     </g>
    </g>
    <g id="text_15">
     <!-- unfr -->
     <defs>
      <path d="M 8.5 21.578125 
L 8.5 54.6875 
L 17.484375 54.6875 
L 17.484375 21.921875 
Q 17.484375 14.15625 20.5 10.265625 
Q 23.53125 6.390625 29.59375 6.390625 
Q 36.859375 6.390625 41.078125 11.03125 
Q 45.3125 15.671875 45.3125 23.6875 
L 45.3125 54.6875 
L 54.296875 54.6875 
L 54.296875 0 
L 45.3125 0 
L 45.3125 8.40625 
Q 42.046875 3.421875 37.71875 1 
Q 33.40625 -1.421875 27.6875 -1.421875 
Q 18.265625 -1.421875 13.375 4.4375 
Q 8.5 10.296875 8.5 21.578125 
z
M 31.109375 56 
z
" id="DejaVuSans-117"/>
     </defs>
     <g transform="translate(145.787757 45.019071)scale(0.03 -0.03)">
      <use xlink:href="#DejaVuSans-117"/>
      <use x="63.378906" xlink:href="#DejaVuSans-110"/>
      <use x="126.757812" xlink:href="#DejaVuSans-102"/>
      <use x="161.962891" xlink:href="#DejaVuSans-114"/>
     </g>
    </g>
    <g id="text_16">
     <!-- enjoy -->
     <defs>
      <path d="M 9.421875 54.6875 
L 18.40625 54.6875 
L 18.40625 -0.984375 
Q 18.40625 -11.421875 14.421875 -16.109375 
Q 10.453125 -20.796875 1.609375 -20.796875 
L -1.8125 -20.796875 
L -1.8125 -13.1875 
L 0.59375 -13.1875 
Q 5.71875 -13.1875 7.5625 -10.8125 
Q 9.421875 -8.453125 9.421875 -0.984375 
z
M 9.421875 75.984375 
L 18.40625 75.984375 
L 18.40625 64.59375 
L 9.421875 64.59375 
z
" id="DejaVuSans-106"/>
     </defs>
     <g transform="translate(150.761594 68.777812)scale(0.03 -0.03)">
      <use xlink:href="#DejaVuSans-101"/>
      <use x="61.523438" xlink:href="#DejaVuSans-110"/>
      <use x="124.902344" xlink:href="#DejaVuSans-106"/>
      <use x="152.685547" xlink:href="#DejaVuSans-111"/>
      <use x="213.867188" xlink:href="#DejaVuSans-121"/>
     </g>
    </g>
    <g id="text_17">
     <!-- appet -->
     <g transform="translate(144.498928 92.536554)scale(0.03 -0.03)">
      <use xlink:href="#DejaVuSans-97"/>
      <use x="61.279297" xlink:href="#DejaVuSans-112"/>
      <use x="124.755859" xlink:href="#DejaVuSans-112"/>
      <use x="188.232422" xlink:href="#DejaVuSans-101"/>
      <use x="249.755859" xlink:href="#DejaVuSans-116"/>
     </g>
    </g>
    <g id="text_18">
     <!-- sad -->
     <g transform="translate(129.723375 109.929159)scale(0.03 -0.03)">
      <use xlink:href="#DejaVuSans-115"/>
      <use x="52.099609" xlink:href="#DejaVuSans-97"/>
      <use x="113.378906" xlink:href="#DejaVuSans-100"/>
     </g>
    </g>
    <g id="text_19">
     <!-- dislike -->
     <defs>
      <path d="M 9.421875 54.6875 
L 18.40625 54.6875 
L 18.40625 0 
L 9.421875 0 
z
M 9.421875 75.984375 
L 18.40625 75.984375 
L 18.40625 64.59375 
L 9.421875 64.59375 
z
" id="DejaVuSans-105"/>
      <path d="M 9.078125 75.984375 
L 18.109375 75.984375 
L 18.109375 31.109375 
L 44.921875 54.6875 
L 56.390625 54.6875 
L 27.390625 29.109375 
L 57.625 0 
L 45.90625 0 
L 18.109375 26.703125 
L 18.109375 0 
L 9.078125 0 
z
" id="DejaVuSans-107"/>
     </defs>
     <g transform="translate(105.120313 116.295295)scale(0.03 -0.03)">
      <use xlink:href="#DejaVuSans-100"/>
      <use x="63.476562" xlink:href="#DejaVuSans-105"/>
      <use x="91.259766" xlink:href="#DejaVuSans-115"/>
      <use x="143.359375" xlink:href="#DejaVuSans-108"/>
      <use x="171.142578" xlink:href="#DejaVuSans-105"/>
      <use x="198.925781" xlink:href="#DejaVuSans-107"/>
      <use x="256.789062" xlink:href="#DejaVuSans-101"/>
     </g>
    </g>
    <g id="text_20">
     <!-- getgo -->
     <defs>
      <path d="M 45.40625 27.984375 
Q 45.40625 37.75 41.375 43.109375 
Q 37.359375 48.484375 30.078125 48.484375 
Q 22.859375 48.484375 18.828125 43.109375 
Q 14.796875 37.75 14.796875 27.984375 
Q 14.796875 18.265625 18.828125 12.890625 
Q 22.859375 7.515625 30.078125 7.515625 
Q 37.359375 7.515625 41.375 12.890625 
Q 45.40625 18.265625 45.40625 27.984375 
z
M 54.390625 6.78125 
Q 54.390625 -7.171875 48.1875 -13.984375 
Q 42 -20.796875 29.203125 -20.796875 
Q 24.46875 -20.796875 20.265625 -20.09375 
Q 16.0625 -19.390625 12.109375 -17.921875 
L 12.109375 -9.1875 
Q 16.0625 -11.328125 19.921875 -12.34375 
Q 23.78125 -13.375 27.78125 -13.375 
Q 36.625 -13.375 41.015625 -8.765625 
Q 45.40625 -4.15625 45.40625 5.171875 
L 45.40625 9.625 
Q 42.625 4.78125 38.28125 2.390625 
Q 33.9375 0 27.875 0 
Q 17.828125 0 11.671875 7.65625 
Q 5.515625 15.328125 5.515625 27.984375 
Q 5.515625 40.671875 11.671875 48.328125 
Q 17.828125 56 27.875 56 
Q 33.9375 56 38.28125 53.609375 
Q 42.625 51.21875 45.40625 46.390625 
L 45.40625 54.6875 
L 54.390625 54.6875 
z
" id="DejaVuSans-103"/>
     </defs>
     <g transform="translate(83.080375 109.929159)scale(0.03 -0.03)">
      <use xlink:href="#DejaVuSans-103"/>
      <use x="63.476562" xlink:href="#DejaVuSans-101"/>
      <use x="125" xlink:href="#DejaVuSans-116"/>
      <use x="164.208984" xlink:href="#DejaVuSans-103"/>
      <use x="227.685547" xlink:href="#DejaVuSans-111"/>
     </g>
    </g>
    <g id="text_21">
     <!-- loss -->
     <g transform="translate(68.058962 92.536554)scale(0.03 -0.03)">
      <use xlink:href="#DejaVuSans-108"/>
      <use x="27.783203" xlink:href="#DejaVuSans-111"/>
      <use x="88.964844" xlink:href="#DejaVuSans-115"/>
      <use x="141.064453" xlink:href="#DejaVuSans-115"/>
     </g>
    </g>
   </g>
  </g>
 </g>
 <defs>
  <clipPath id="p014882d448">
   <rect height="271.8" width="279" x="40.145" y="0"/>
  </clipPath>
  <clipPath id="p4bf415ee21">
   <rect height="135.9" width="128.592839" x="45.598581" y="-0"/>
  </clipPath>
 </defs>
</svg>
