<?xml version="1.0" encoding="utf-8" standalone="no"?>
<!DOCTYPE svg PUBLIC "-//W3C//DTD SVG 1.1//EN"
  "http://www.w3.org/Graphics/SVG/1.1/DTD/svg11.dtd">
<!-- Created with matplotlib (https://matplotlib.org/) -->
<svg height="154.292269pt" version="1.1" viewBox="0 0 279 154.292269" width="279pt" xmlns="http://www.w3.org/2000/svg" xmlns:xlink="http://www.w3.org/1999/xlink">
 <defs>
  <style type="text/css">
*{stroke-linecap:butt;stroke-linejoin:round;}
  </style>
 </defs>
 <g id="figure_1">
  <g id="patch_1">
   <path d="M 0 154.292269 
L 279 154.292269 
L 279 0 
L 0 0 
z
" style="fill:none;"/>
  </g>
  <g id="axes_1">
   <g id="patch_2">
    <path clip-path="url(#p73e7310325)" d="M 26.645726 51.699937 
Q 29.389915 49.065639 31.750804 46.083392 
" style="fill:none;stroke:#008000;stroke-linecap:round;stroke-width:2;"/>
    <path clip-path="url(#p73e7310325)" d="M 28.781048 51.036311 
L 26.645726 51.699937 
L 27.396018 49.593504 
L 28.781048 51.036311 
z
" style="fill:#008000;stroke:#008000;stroke-linecap:round;stroke-width:2;"/>
    <path clip-path="url(#p73e7310325)" d="M 29.725363 47.030804 
L 31.750804 46.083392 
L 31.293469 48.272192 
L 29.725363 47.030804 
z
" style="fill:#008000;stroke:#008000;stroke-linecap:round;stroke-width:2;"/>
   </g>
   <g id="patch_3">
    <path clip-path="url(#p73e7310325)" d="M 15.042626 74.694274 
Q 15.043192 74.106461 15.014642 73.519324 
" style="fill:none;stroke:#008000;stroke-linecap:round;stroke-width:2;"/>
    <path clip-path="url(#p73e7310325)" d="M 14.040698 76.693309 
L 15.042626 74.694274 
L 16.040698 76.695237 
L 14.040698 76.693309 
z
" style="fill:#008000;stroke:#008000;stroke-linecap:round;stroke-width:2;"/>
    <path clip-path="url(#p73e7310325)" d="M 15.916323 71.473115 
L 15.014642 73.519324 
L 13.918684 71.570253 
L 15.916323 71.473115 
z
" style="fill:#008000;stroke:#008000;stroke-linecap:round;stroke-width:2;"/>
   </g>
   <g id="patch_4">
    <path clip-path="url(#p73e7310325)" d="M 30.008689 60.986477 
Q 28.306058 61.098882 26.605628 61.240807 
" style="fill:none;stroke:#008000;stroke-linecap:round;stroke-width:2;"/>
    <path clip-path="url(#p73e7310325)" d="M 32.07022 61.852556 
L 30.008689 60.986477 
L 31.938471 59.8569 
L 32.07022 61.852556 
z
" style="fill:#008000;stroke:#008000;stroke-linecap:round;stroke-width:2;"/>
    <path clip-path="url(#p73e7310325)" d="M 24.529383 60.410622 
L 26.605628 61.240807 
L 24.695733 62.403692 
L 24.529383 60.410622 
z
" style="fill:#008000;stroke:#008000;stroke-linecap:round;stroke-width:2;"/>
   </g>
   <g id="patch_5">
    <path clip-path="url(#p73e7310325)" d="M 25.281168 71.260236 
Q 29.326724 75.428813 33.994692 78.885607 
" style="fill:none;stroke:#008000;stroke-linecap:round;stroke-width:2;"/>
    <path clip-path="url(#p73e7310325)" d="M 25.956429 73.391907 
L 25.281168 71.260236 
L 27.391662 71.99903 
L 25.956429 73.391907 
z
" style="fill:#008000;stroke:#008000;stroke-linecap:round;stroke-width:2;"/>
    <path clip-path="url(#p73e7310325)" d="M 32.982541 76.891729 
L 33.994692 78.885607 
L 31.792299 78.499002 
L 32.982541 76.891729 
z
" style="fill:#008000;stroke:#008000;stroke-linecap:round;stroke-width:2;"/>
   </g>
   <g id="patch_6">
    <path clip-path="url(#p73e7310325)" d="M 38.940731 48.543278 
Q 38.913039 46.815008 38.856513 45.08744 
" style="fill:none;stroke:#008000;stroke-linecap:round;stroke-width:2;"/>
    <path clip-path="url(#p73e7310325)" d="M 37.972901 50.559042 
L 38.940731 48.543278 
L 39.972645 50.527 
L 37.972901 50.559042 
z
" style="fill:#008000;stroke:#008000;stroke-linecap:round;stroke-width:2;"/>
    <path clip-path="url(#p73e7310325)" d="M 39.790572 43.055807 
L 38.856513 45.08744 
L 37.791642 43.121213 
L 39.790572 43.055807 
z
" style="fill:#008000;stroke:#008000;stroke-linecap:round;stroke-width:2;"/>
   </g>
   <g id="patch_7">
    <path clip-path="url(#p73e7310325)" d="M 53.76785 34.95273 
Q 53.181914 34.982056 52.598099 35.04034 
" style="fill:none;stroke:#008000;stroke-linecap:round;stroke-width:2;"/>
    <path clip-path="url(#p73e7310325)" d="M 55.815337 35.851505 
L 53.76785 34.95273 
L 55.715363 33.854006 
L 55.815337 35.851505 
z
" style="fill:#008000;stroke:#008000;stroke-linecap:round;stroke-width:2;"/>
    <path clip-path="url(#p73e7310325)" d="M 50.508652 34.243967 
L 52.598099 35.04034 
L 50.707333 36.234074 
L 50.508652 34.243967 
z
" style="fill:#008000;stroke:#008000;stroke-linecap:round;stroke-width:2;"/>
   </g>
   <g id="patch_8">
    <path clip-path="url(#p73e7310325)" d="M 48.708664 45.400574 
Q 52.623252 49.702248 57.183337 53.311852 
" style="fill:none;stroke:#008000;stroke-linecap:round;stroke-width:2;"/>
    <path clip-path="url(#p73e7310325)" d="M 49.315158 47.55282 
L 48.708664 45.400574 
L 50.794358 46.206727 
L 49.315158 47.55282 
z
" style="fill:#008000;stroke:#008000;stroke-linecap:round;stroke-width:2;"/>
    <path clip-path="url(#p73e7310325)" d="M 56.235822 51.286459 
L 57.183337 53.311852 
L 54.994514 52.854628 
L 56.235822 51.286459 
z
" style="fill:#008000;stroke:#008000;stroke-linecap:round;stroke-width:2;"/>
   </g>
   <g id="patch_9">
    <path clip-path="url(#p73e7310325)" d="M 26.922144 77.893345 
Q 30.184212 74.528697 32.910964 70.71743 
" style="fill:none;stroke:#008000;stroke-linecap:round;stroke-width:2;"/>
    <path clip-path="url(#p73e7310325)" d="M 29.032266 77.153489 
L 26.922144 77.893345 
L 27.596332 75.761334 
L 29.032266 77.153489 
z
" style="fill:#008000;stroke:#008000;stroke-linecap:round;stroke-width:2;"/>
    <path clip-path="url(#p73e7310325)" d="M 30.933952 71.762142 
L 32.910964 70.71743 
L 32.560527 72.925867 
L 30.933952 71.762142 
z
" style="fill:#008000;stroke:#008000;stroke-linecap:round;stroke-width:2;"/>
   </g>
   <g id="patch_10">
    <path clip-path="url(#p73e7310325)" d="M 30.611692 88.510158 
Q 31.198757 88.518305 31.78463 88.480708 
" style="fill:none;stroke:#008000;stroke-linecap:round;stroke-width:2;"/>
    <path clip-path="url(#p73e7310325)" d="M 32.597625 89.537812 
L 30.611692 88.510158 
L 32.625375 87.538005 
L 32.597625 89.537812 
z
" style="fill:#008000;stroke:#008000;stroke-linecap:round;stroke-width:2;"/>
    <path clip-path="url(#p73e7310325)" d="M 29.724695 87.610842 
L 31.78463 88.480708 
L 29.852776 89.606736 
L 29.724695 87.610842 
z
" style="fill:#008000;stroke:#008000;stroke-linecap:round;stroke-width:2;"/>
   </g>
   <g id="patch_11">
    <path clip-path="url(#p73e7310325)" d="M 51.411637 50.331228 
Q 54.911267 47.273615 57.920993 43.732779 
" style="fill:none;stroke:#008000;stroke-linecap:round;stroke-width:2;"/>
    <path clip-path="url(#p73e7310325)" d="M 53.575712 49.768394 
L 51.411637 50.331228 
L 52.259815 48.262268 
L 53.575712 49.768394 
z
" style="fill:#008000;stroke:#008000;stroke-linecap:round;stroke-width:2;"/>
    <path clip-path="url(#p73e7310325)" d="M 55.863755 44.609004 
L 57.920993 43.732779 
L 57.38763 45.904305 
L 55.863755 44.609004 
z
" style="fill:#008000;stroke:#008000;stroke-linecap:round;stroke-width:2;"/>
   </g>
   <g id="patch_12">
    <path clip-path="url(#p73e7310325)" d="M 41.572676 72.847887 
Q 41.612605 73.110423 41.671066 73.369561 
" style="fill:none;stroke:#008000;stroke-linecap:round;stroke-width:2;"/>
    <path clip-path="url(#p73e7310325)" d="M 40.884764 74.975509 
L 41.572676 72.847887 
L 42.862027 74.67479 
L 40.884764 74.975509 
z
" style="fill:#008000;stroke:#008000;stroke-linecap:round;stroke-width:2;"/>
    <path clip-path="url(#p73e7310325)" d="M 42.206418 71.198525 
L 41.671066 73.369561 
L 40.255448 71.638658 
L 42.206418 71.198525 
z
" style="fill:#008000;stroke:#008000;stroke-linecap:round;stroke-width:2;"/>
   </g>
   <g id="patch_13">
    <path clip-path="url(#p73e7310325)" d="M 54.155614 61.631443 
Q 54.403793 61.662225 54.65358 61.675505 
" style="fill:none;stroke:#008000;stroke-linecap:round;stroke-width:2;"/>
    <path clip-path="url(#p73e7310325)" d="M 56.017317 62.870015 
L 54.155614 61.631443 
L 56.263494 60.885223 
L 56.017317 62.870015 
z
" style="fill:#008000;stroke:#008000;stroke-linecap:round;stroke-width:2;"/>
    <path clip-path="url(#p73e7310325)" d="M 52.709491 60.570734 
L 54.65358 61.675505 
L 52.60331 62.567913 
L 52.709491 60.570734 
z
" style="fill:#008000;stroke:#008000;stroke-linecap:round;stroke-width:2;"/>
   </g>
   <g id="patch_14">
    <path clip-path="url(#p73e7310325)" d="M 65.976139 46.55201 
Q 65.997001 47.12485 66.062213 47.69425 
" style="fill:none;stroke:#008000;stroke-linecap:round;stroke-width:2;"/>
    <path clip-path="url(#p73e7310325)" d="M 65.049589 48.587079 
L 65.976139 46.55201 
L 67.048264 48.514291 
L 65.049589 48.587079 
z
" style="fill:#008000;stroke:#008000;stroke-linecap:round;stroke-width:2;"/>
    <path clip-path="url(#p73e7310325)" d="M 66.828151 45.593455 
L 66.062213 47.69425 
L 64.84114 45.821022 
L 66.828151 45.593455 
z
" style="fill:#008000;stroke:#008000;stroke-linecap:round;stroke-width:2;"/>
   </g>
   <g id="patch_15">
    <path clip-path="url(#p73e7310325)" d="M 56.19542 77.54624 
Q 58.474939 75.34356 60.458222 72.871151 
" style="fill:none;stroke:#008000;stroke-linecap:round;stroke-width:2;"/>
    <path clip-path="url(#p73e7310325)" d="M 58.328549 76.875598 
L 56.19542 77.54624 
L 56.938784 75.437352 
L 58.328549 76.875598 
z
" style="fill:#008000;stroke:#008000;stroke-linecap:round;stroke-width:2;"/>
    <path clip-path="url(#p73e7310325)" d="M 58.426729 73.805514 
L 60.458222 72.871151 
L 59.986816 75.056963 
L 58.426729 73.805514 
z
" style="fill:#008000;stroke:#008000;stroke-linecap:round;stroke-width:2;"/>
   </g>
   <g id="patch_16">
    <path clip-path="url(#p73e7310325)" d="M 58.852759 90.815222 
Q 61.365584 91.44836 63.935009 91.782575 
" style="fill:none;stroke:#008000;stroke-linecap:round;stroke-width:2;"/>
    <path clip-path="url(#p73e7310325)" d="M 60.547819 92.273567 
L 58.852759 90.815222 
L 61.036471 90.334181 
L 60.547819 92.273567 
z
" style="fill:#008000;stroke:#008000;stroke-linecap:round;stroke-width:2;"/>
    <path clip-path="url(#p73e7310325)" d="M 62.080704 90.532954 
L 63.935009 91.782575 
L 61.822729 92.516246 
L 62.080704 90.532954 
z
" style="fill:#008000;stroke:#008000;stroke-linecap:round;stroke-width:2;"/>
   </g>
   <g id="patch_17">
    <path clip-path="url(#p73e7310325)" d="M 70.962227 75.227582 
Q 71.535999 77.676463 72.389788 80.042795 
" style="fill:none;stroke:#008000;stroke-linecap:round;stroke-width:2;"/>
    <path clip-path="url(#p73e7310325)" d="M 70.444838 77.402969 
L 70.962227 75.227582 
L 72.392103 76.946726 
L 70.444838 77.402969 
z
" style="fill:#008000;stroke:#008000;stroke-linecap:round;stroke-width:2;"/>
    <path clip-path="url(#p73e7310325)" d="M 72.65165 77.822113 
L 72.389788 80.042795 
L 70.77036 78.500896 
L 72.65165 77.822113 
z
" style="fill:#008000;stroke:#008000;stroke-linecap:round;stroke-width:2;"/>
   </g>
   <g id="patch_18">
    <path clip-path="url(#p73e7310325)" d="M 86.500594 103.718041 
Q 88.12262 105.53665 89.94154 107.158322 
" style="fill:none;stroke:#008000;stroke-linecap:round;stroke-width:2;"/>
    <path clip-path="url(#p73e7310325)" d="M 87.085544 105.876242 
L 86.500594 103.718041 
L 88.578125 104.545002 
L 87.085544 105.876242 
z
" style="fill:#008000;stroke:#008000;stroke-linecap:round;stroke-width:2;"/>
    <path clip-path="url(#p73e7310325)" d="M 89.114178 105.080951 
L 89.94154 107.158322 
L 87.783226 106.57379 
L 89.114178 105.080951 
z
" style="fill:#008000;stroke:#008000;stroke-linecap:round;stroke-width:2;"/>
   </g>
   <g id="patch_19">
    <path clip-path="url(#p73e7310325)" d="M 109.585151 126.74214 
Q 110.954179 128.264064 112.478436 129.630457 
" style="fill:none;stroke:#008000;stroke-linecap:round;stroke-width:2;"/>
    <path clip-path="url(#p73e7310325)" d="M 110.179236 128.897845 
L 109.585151 126.74214 
L 111.666166 127.560295 
L 110.179236 128.897845 
z
" style="fill:#008000;stroke:#008000;stroke-linecap:round;stroke-width:2;"/>
    <path clip-path="url(#p73e7310325)" d="M 111.656705 127.550852 
L 112.478436 129.630457 
L 110.321713 129.040079 
L 111.656705 127.550852 
z
" style="fill:#008000;stroke:#008000;stroke-linecap:round;stroke-width:2;"/>
   </g>
   <g id="patch_20">
    <path clip-path="url(#p73e7310325)" d="M 16.073924 66.633508 
C 17.622659 66.633508 19.108171 66.018189 20.203292 64.923068 
C 21.298413 63.827946 21.913733 62.342435 21.913733 60.793699 
C 21.913733 59.244964 21.298413 57.759452 20.203292 56.664331 
C 19.108171 55.569209 17.622659 54.95389 16.073924 54.95389 
C 14.525188 54.95389 13.039677 55.569209 11.944555 56.664331 
C 10.849434 57.759452 10.234115 59.244964 10.234115 60.793699 
C 10.234115 62.342435 10.849434 63.827946 11.944555 64.923068 
C 13.039677 66.018189 14.525188 66.633508 16.073924 66.633508 
z
" style="fill:#1f77b4;"/>
   </g>
   <g id="patch_21">
    <path clip-path="url(#p73e7310325)" d="M 39.833179 40.47276 
C 41.381915 40.47276 42.867426 39.857441 43.962548 38.76232 
C 45.057669 37.667199 45.672988 36.181687 45.672988 34.632952 
C 45.672988 33.084216 45.057669 31.598705 43.962548 30.503583 
C 42.867426 29.408462 41.381915 28.793143 39.833179 28.793143 
C 38.284444 28.793143 36.798932 29.408462 35.703811 30.503583 
C 34.60869 31.598705 33.99337 33.084216 33.99337 34.632952 
C 33.99337 36.181687 34.60869 37.667199 35.703811 38.76232 
C 36.798932 39.857441 38.284444 40.47276 39.833179 40.47276 
z
" style="fill:#aec7e8;"/>
   </g>
   <g id="patch_22">
    <path clip-path="url(#p73e7310325)" d="M 16.712865 91.275944 
C 17.745355 91.275944 18.735696 90.865731 19.465777 90.13565 
C 20.195858 89.40557 20.606071 88.415228 20.606071 87.382738 
C 20.606071 86.350248 20.195858 85.359907 19.465777 84.629826 
C 18.735696 83.899745 17.745355 83.489532 16.712865 83.489532 
C 15.680375 83.489532 14.690033 83.899745 13.959953 84.629826 
C 13.229872 85.359907 12.819659 86.350248 12.819659 87.382738 
C 12.819659 88.415228 13.229872 89.40557 13.959953 90.13565 
C 14.690033 90.865731 15.680375 91.275944 16.712865 91.275944 
z
" style="fill:#ff7f0e;"/>
   </g>
   <g id="patch_23">
    <path clip-path="url(#p73e7310325)" d="M 40.430165 68.691179 
C 43.011391 68.691179 45.487244 67.665647 47.312446 65.840445 
C 49.137648 64.015242 50.16318 61.53939 50.16318 58.958164 
C 50.16318 56.376938 49.137648 53.901085 47.312446 52.075883 
C 45.487244 50.250681 43.011391 49.225149 40.430165 49.225149 
C 37.84894 49.225149 35.373087 50.250681 33.547885 52.075883 
C 31.722682 53.901085 30.697151 56.376938 30.697151 58.958164 
C 30.697151 61.53939 31.722682 64.015242 33.547885 65.840445 
C 35.373087 67.665647 37.84894 68.691179 40.430165 68.691179 
z
" style="fill:#ffbb78;"/>
   </g>
   <g id="patch_24">
    <path clip-path="url(#p73e7310325)" d="M 66.402552 36.521054 
C 67.435042 36.521054 68.425383 36.110841 69.155464 35.38076 
C 69.885545 34.650679 70.295758 33.660338 70.295758 32.627848 
C 70.295758 31.595358 69.885545 30.605017 69.155464 29.874936 
C 68.425383 29.144855 67.435042 28.734642 66.402552 28.734642 
C 65.370062 28.734642 64.37972 29.144855 63.64964 29.874936 
C 62.919559 30.605017 62.509346 31.595358 62.509346 32.627848 
C 62.509346 33.660338 62.919559 34.650679 63.64964 35.38076 
C 64.37972 36.110841 65.370062 36.521054 66.402552 36.521054 
z
" style="fill:#2ca02c;"/>
   </g>
   <g id="patch_25">
    <path clip-path="url(#p73e7310325)" d="M 45.637404 94.437121 
C 47.702384 94.437121 49.683067 93.616696 51.143228 92.156534 
C 52.60339 90.696372 53.423816 88.71569 53.423816 86.650709 
C 53.423816 84.585729 52.60339 82.605046 51.143228 81.144885 
C 49.683067 79.684723 47.702384 78.864297 45.637404 78.864297 
C 43.572423 78.864297 41.591741 79.684723 40.131579 81.144885 
C 38.671418 82.605046 37.850992 84.585729 37.850992 86.650709 
C 37.850992 88.71569 38.671418 90.696372 40.131579 92.156534 
C 41.591741 93.616696 43.572423 94.437121 45.637404 94.437121 
z
" style="fill:#98df8a;"/>
   </g>
   <g id="patch_26">
    <path clip-path="url(#p73e7310325)" d="M 68.58815 69.245711 
C 70.65313 69.245711 72.633813 68.425285 74.093974 66.965124 
C 75.554136 65.504962 76.374562 63.52428 76.374562 61.459299 
C 76.374562 59.394319 75.554136 57.413636 74.093974 55.953475 
C 72.633813 54.493313 70.65313 53.672887 68.58815 53.672887 
C 66.523169 53.672887 64.542487 54.493313 63.082325 55.953475 
C 61.622164 57.413636 60.801738 59.394319 60.801738 61.459299 
C 60.801738 63.52428 61.622164 65.504962 63.082325 66.965124 
C 64.542487 68.425285 66.523169 69.245711 68.58815 69.245711 
z
" style="fill:#d62728;"/>
   </g>
   <g id="patch_27">
    <path clip-path="url(#p73e7310325)" d="M 77.840996 96.656247 
C 78.873486 96.656247 79.863827 96.246035 80.593908 95.515954 
C 81.323989 94.785873 81.734201 93.795532 81.734201 92.763042 
C 81.734201 91.730551 81.323989 90.74021 80.593908 90.010129 
C 79.863827 89.280048 78.873486 88.869836 77.840996 88.869836 
C 76.808505 88.869836 75.818164 89.280048 75.088083 90.010129 
C 74.358002 90.74021 73.94779 91.730551 73.94779 92.763042 
C 73.94779 93.795532 74.358002 94.785873 75.088083 95.515954 
C 75.818164 96.246035 76.808505 96.656247 77.840996 96.656247 
z
" style="fill:#ff9896;"/>
   </g>
   <g id="patch_28">
    <path clip-path="url(#p73e7310325)" d="M 100.899252 117.763093 
C 101.415497 117.763093 101.910667 117.557987 102.275708 117.192946 
C 102.640748 116.827906 102.845854 116.332735 102.845854 115.81649 
C 102.845854 115.300245 102.640748 114.805074 102.275708 114.440034 
C 101.910667 114.074994 101.415497 113.869887 100.899252 113.869887 
C 100.383006 113.869887 99.887836 114.074994 99.522795 114.440034 
C 99.157755 114.805074 98.952649 115.300245 98.952649 115.81649 
C 98.952649 116.332735 99.157755 116.827906 99.522795 117.192946 
C 99.887836 117.557987 100.383006 117.763093 100.899252 117.763093 
z
" style="fill:#9467bd;"/>
   </g>
   <g id="patch_29">
    <path clip-path="url(#p73e7310325)" d="M 123.426076 138.302234 
C 123.426076 138.302234 123.426076 138.302234 123.426076 138.302234 
C 123.426076 138.302234 123.426076 138.302234 123.426076 138.302234 
C 123.426076 138.302234 123.426076 138.302234 123.426076 138.302234 
C 123.426076 138.302234 123.426076 138.302234 123.426076 138.302234 
C 123.426076 138.302234 123.426076 138.302234 123.426076 138.302234 
C 123.426076 138.302234 123.426076 138.302234 123.426076 138.302234 
C 123.426076 138.302234 123.426076 138.302234 123.426076 138.302234 
C 123.426076 138.302234 123.426076 138.302234 123.426076 138.302234 
z
" style="fill:#c5b0d5;"/>
   </g>
   <g id="patch_30">
    <path clip-path="url(#p73e7310325)" d="M 16.073924 70.526714 
C 18.655149 70.526714 21.131002 69.501182 22.956204 67.67598 
C 24.781407 65.850778 25.806938 63.374925 25.806938 60.793699 
C 25.806938 58.212473 24.781407 55.736621 22.956204 53.911418 
C 21.131002 52.086216 18.655149 51.060684 16.073924 51.060684 
C 13.492698 51.060684 11.016845 52.086216 9.191643 53.911418 
C 7.366441 55.736621 6.340909 58.212473 6.340909 60.793699 
C 6.340909 63.374925 7.366441 65.850778 9.191643 67.67598 
C 11.016845 69.501182 13.492698 70.526714 16.073924 70.526714 
z
" style="fill:none;"/>
   </g>
   <g id="patch_31">
    <path clip-path="url(#p73e7310325)" d="M 39.833179 44.365966 
C 42.414405 44.365966 44.890258 43.340435 46.71546 41.515232 
C 48.540662 39.69003 49.566194 37.214177 49.566194 34.632952 
C 49.566194 32.051726 48.540662 29.575873 46.71546 27.750671 
C 44.890258 25.925469 42.414405 24.899937 39.833179 24.899937 
C 37.251954 24.899937 34.776101 25.925469 32.950899 27.750671 
C 31.125696 29.575873 30.100165 32.051726 30.100165 34.632952 
C 30.100165 37.214177 31.125696 39.69003 32.950899 41.515232 
C 34.776101 43.340435 37.251954 44.365966 39.833179 44.365966 
z
" style="fill:none;"/>
   </g>
   <g id="patch_32">
    <path clip-path="url(#p73e7310325)" d="M 16.712865 97.115753 
C 19.294091 97.115753 21.769943 96.090221 23.595146 94.265019 
C 25.420348 92.439817 26.44588 89.963964 26.44588 87.382738 
C 26.44588 84.801512 25.420348 82.32566 23.595146 80.500457 
C 21.769943 78.675255 19.294091 77.649723 16.712865 77.649723 
C 14.131639 77.649723 11.655786 78.675255 9.830584 80.500457 
C 8.005382 82.32566 6.97985 84.801512 6.97985 87.382738 
C 6.97985 89.963964 8.005382 92.439817 9.830584 94.265019 
C 11.655786 96.090221 14.131639 97.115753 16.712865 97.115753 
z
" style="fill:none;"/>
   </g>
   <g id="patch_33">
    <path clip-path="url(#p73e7310325)" d="M 40.430165 68.691179 
C 43.011391 68.691179 45.487244 67.665647 47.312446 65.840445 
C 49.137648 64.015242 50.16318 61.53939 50.16318 58.958164 
C 50.16318 56.376938 49.137648 53.901085 47.312446 52.075883 
C 45.487244 50.250681 43.011391 49.225149 40.430165 49.225149 
C 37.84894 49.225149 35.373087 50.250681 33.547885 52.075883 
C 31.722682 53.901085 30.697151 56.376938 30.697151 58.958164 
C 30.697151 61.53939 31.722682 64.015242 33.547885 65.840445 
C 35.373087 67.665647 37.84894 68.691179 40.430165 68.691179 
z
" style="fill:none;"/>
   </g>
   <g id="patch_34">
    <path clip-path="url(#p73e7310325)" d="M 66.402552 42.360863 
C 68.983778 42.360863 71.45963 41.335331 73.284833 39.510129 
C 75.110035 37.684926 76.135567 35.209074 76.135567 32.627848 
C 76.135567 30.046622 75.110035 27.570769 73.284833 25.745567 
C 71.45963 23.920365 68.983778 22.894833 66.402552 22.894833 
C 63.821326 22.894833 61.345473 23.920365 59.520271 25.745567 
C 57.695069 27.570769 56.669537 30.046622 56.669537 32.627848 
C 56.669537 35.209074 57.695069 37.684926 59.520271 39.510129 
C 61.345473 41.335331 63.821326 42.360863 66.402552 42.360863 
z
" style="fill:none;"/>
   </g>
   <g id="patch_35">
    <path clip-path="url(#p73e7310325)" d="M 45.637404 96.383724 
C 48.21863 96.383724 50.694482 95.358192 52.519685 93.53299 
C 54.344887 91.707788 55.370419 89.231935 55.370419 86.650709 
C 55.370419 84.069484 54.344887 81.593631 52.519685 79.768429 
C 50.694482 77.943226 48.21863 76.917695 45.637404 76.917695 
C 43.056178 76.917695 40.580325 77.943226 38.755123 79.768429 
C 36.929921 81.593631 35.904389 84.069484 35.904389 86.650709 
C 35.904389 89.231935 36.929921 91.707788 38.755123 93.53299 
C 40.580325 95.358192 43.056178 96.383724 45.637404 96.383724 
z
" style="fill:none;"/>
   </g>
   <g id="patch_36">
    <path clip-path="url(#p73e7310325)" d="M 68.58815 71.192314 
C 71.169376 71.192314 73.645228 70.166782 75.470431 68.34158 
C 77.295633 66.516378 78.321165 64.040525 78.321165 61.459299 
C 78.321165 58.878074 77.295633 56.402221 75.470431 54.577018 
C 73.645228 52.751816 71.169376 51.726284 68.58815 51.726284 
C 66.006924 51.726284 63.531071 52.751816 61.705869 54.577018 
C 59.880667 56.402221 58.855135 58.878074 58.855135 61.459299 
C 58.855135 64.040525 59.880667 66.516378 61.705869 68.34158 
C 63.531071 70.166782 66.006924 71.192314 68.58815 71.192314 
z
" style="fill:none;"/>
   </g>
   <g id="patch_37">
    <path clip-path="url(#p73e7310325)" d="M 77.840996 102.496056 
C 80.422221 102.496056 82.898074 101.470524 84.723276 99.645322 
C 86.548478 97.82012 87.57401 95.344267 87.57401 92.763042 
C 87.57401 90.181816 86.548478 87.705963 84.723276 85.880761 
C 82.898074 84.055559 80.422221 83.030027 77.840996 83.030027 
C 75.25977 83.030027 72.783917 84.055559 70.958715 85.880761 
C 69.133513 87.705963 68.107981 90.181816 68.107981 92.763042 
C 68.107981 95.344267 69.133513 97.82012 70.958715 99.645322 
C 72.783917 101.470524 75.25977 102.496056 77.840996 102.496056 
z
" style="fill:none;"/>
   </g>
   <g id="patch_38">
    <path clip-path="url(#p73e7310325)" d="M 100.899252 125.549505 
C 103.480477 125.549505 105.95633 124.523973 107.781532 122.698771 
C 109.606734 120.873569 110.632266 118.397716 110.632266 115.81649 
C 110.632266 113.235264 109.606734 110.759412 107.781532 108.934209 
C 105.95633 107.109007 103.480477 106.083475 100.899252 106.083475 
C 98.318026 106.083475 95.842173 107.109007 94.016971 108.934209 
C 92.191769 110.759412 91.166237 113.235264 91.166237 115.81649 
C 91.166237 118.397716 92.191769 120.873569 94.016971 122.698771 
C 95.842173 124.523973 98.318026 125.549505 100.899252 125.549505 
z
" style="fill:none;"/>
   </g>
   <g id="patch_39">
    <path clip-path="url(#p73e7310325)" d="M 123.426076 148.035248 
C 126.007302 148.035248 128.483155 147.009717 130.308357 145.184514 
C 132.133559 143.359312 133.159091 140.883459 133.159091 138.302234 
C 133.159091 135.721008 132.133559 133.245155 130.308357 131.419953 
C 128.483155 129.594751 126.007302 128.569219 123.426076 128.569219 
C 120.844851 128.569219 118.368998 129.594751 116.543796 131.419953 
C 114.718593 133.245155 113.693062 135.721008 113.693062 138.302234 
C 113.693062 140.883459 114.718593 143.359312 116.543796 145.184514 
C 118.368998 147.009717 120.844851 148.035248 123.426076 148.035248 
z
" style="fill:none;"/>
   </g>
   <g id="text_1">
    <!-- Degree -->
    <defs>
     <path d="M 19.671875 64.796875 
L 19.671875 8.109375 
L 31.59375 8.109375 
Q 46.6875 8.109375 53.6875 14.9375 
Q 60.6875 21.78125 60.6875 36.53125 
Q 60.6875 51.171875 53.6875 57.984375 
Q 46.6875 64.796875 31.59375 64.796875 
z
M 9.8125 72.90625 
L 30.078125 72.90625 
Q 51.265625 72.90625 61.171875 64.09375 
Q 71.09375 55.28125 71.09375 36.53125 
Q 71.09375 17.671875 61.125 8.828125 
Q 51.171875 0 30.078125 0 
L 9.8125 0 
z
" id="DejaVuSans-68"/>
     <path d="M 56.203125 29.59375 
L 56.203125 25.203125 
L 14.890625 25.203125 
Q 15.484375 15.921875 20.484375 11.0625 
Q 25.484375 6.203125 34.421875 6.203125 
Q 39.59375 6.203125 44.453125 7.46875 
Q 49.3125 8.734375 54.109375 11.28125 
L 54.109375 2.78125 
Q 49.265625 0.734375 44.1875 -0.34375 
Q 39.109375 -1.421875 33.890625 -1.421875 
Q 20.796875 -1.421875 13.15625 6.1875 
Q 5.515625 13.8125 5.515625 26.8125 
Q 5.515625 40.234375 12.765625 48.109375 
Q 20.015625 56 32.328125 56 
Q 43.359375 56 49.78125 48.890625 
Q 56.203125 41.796875 56.203125 29.59375 
z
M 47.21875 32.234375 
Q 47.125 39.59375 43.09375 43.984375 
Q 39.0625 48.390625 32.421875 48.390625 
Q 24.90625 48.390625 20.390625 44.140625 
Q 15.875 39.890625 15.1875 32.171875 
z
" id="DejaVuSans-101"/>
     <path d="M 45.40625 27.984375 
Q 45.40625 37.75 41.375 43.109375 
Q 37.359375 48.484375 30.078125 48.484375 
Q 22.859375 48.484375 18.828125 43.109375 
Q 14.796875 37.75 14.796875 27.984375 
Q 14.796875 18.265625 18.828125 12.890625 
Q 22.859375 7.515625 30.078125 7.515625 
Q 37.359375 7.515625 41.375 12.890625 
Q 45.40625 18.265625 45.40625 27.984375 
z
M 54.390625 6.78125 
Q 54.390625 -7.171875 48.1875 -13.984375 
Q 42 -20.796875 29.203125 -20.796875 
Q 24.46875 -20.796875 20.265625 -20.09375 
Q 16.0625 -19.390625 12.109375 -17.921875 
L 12.109375 -9.1875 
Q 16.0625 -11.328125 19.921875 -12.34375 
Q 23.78125 -13.375 27.78125 -13.375 
Q 36.625 -13.375 41.015625 -8.765625 
Q 45.40625 -4.15625 45.40625 5.171875 
L 45.40625 9.625 
Q 42.625 4.78125 38.28125 2.390625 
Q 33.9375 0 27.875 0 
Q 17.828125 0 11.671875 7.65625 
Q 5.515625 15.328125 5.515625 27.984375 
Q 5.515625 40.671875 11.671875 48.328125 
Q 17.828125 56 27.875 56 
Q 33.9375 56 38.28125 53.609375 
Q 42.625 51.21875 45.40625 46.390625 
L 45.40625 54.6875 
L 54.390625 54.6875 
z
" id="DejaVuSans-103"/>
     <path d="M 41.109375 46.296875 
Q 39.59375 47.171875 37.8125 47.578125 
Q 36.03125 48 33.890625 48 
Q 26.265625 48 22.1875 43.046875 
Q 18.109375 38.09375 18.109375 28.8125 
L 18.109375 0 
L 9.078125 0 
L 9.078125 54.6875 
L 18.109375 54.6875 
L 18.109375 46.1875 
Q 20.953125 51.171875 25.484375 53.578125 
Q 30.03125 56 36.53125 56 
Q 37.453125 56 38.578125 55.875 
Q 39.703125 55.765625 41.0625 55.515625 
z
" id="DejaVuSans-114"/>
    </defs>
    <g transform="translate(44.119062 10.637813)scale(0.14 -0.14)">
     <use xlink:href="#DejaVuSans-68"/>
     <use x="77.001953" xlink:href="#DejaVuSans-101"/>
     <use x="138.525391" xlink:href="#DejaVuSans-103"/>
     <use x="202.001953" xlink:href="#DejaVuSans-114"/>
     <use x="243.083984" xlink:href="#DejaVuSans-101"/>
     <use x="304.607422" xlink:href="#DejaVuSans-101"/>
    </g>
   </g>
  </g>
  <g id="axes_2">
   <g id="patch_40">
    <path clip-path="url(#pe76d71dd1e)" d="M 166.145726 51.699937 
Q 168.889915 49.065639 171.250804 46.083392 
" style="fill:none;stroke:#008000;stroke-linecap:round;stroke-width:2;"/>
    <path clip-path="url(#pe76d71dd1e)" d="M 168.281048 51.036311 
L 166.145726 51.699937 
L 166.896018 49.593504 
L 168.281048 51.036311 
z
" style="fill:#008000;stroke:#008000;stroke-linecap:round;stroke-width:2;"/>
    <path clip-path="url(#pe76d71dd1e)" d="M 169.225363 47.030804 
L 171.250804 46.083392 
L 170.793469 48.272192 
L 169.225363 47.030804 
z
" style="fill:#008000;stroke:#008000;stroke-linecap:round;stroke-width:2;"/>
   </g>
   <g id="patch_41">
    <path clip-path="url(#pe76d71dd1e)" d="M 154.542626 74.694274 
Q 154.543192 74.106461 154.514642 73.519324 
" style="fill:none;stroke:#008000;stroke-linecap:round;stroke-width:2;"/>
    <path clip-path="url(#pe76d71dd1e)" d="M 153.540698 76.693309 
L 154.542626 74.694274 
L 155.540698 76.695237 
L 153.540698 76.693309 
z
" style="fill:#008000;stroke:#008000;stroke-linecap:round;stroke-width:2;"/>
    <path clip-path="url(#pe76d71dd1e)" d="M 155.416323 71.473115 
L 154.514642 73.519324 
L 153.418684 71.570253 
L 155.416323 71.473115 
z
" style="fill:#008000;stroke:#008000;stroke-linecap:round;stroke-width:2;"/>
   </g>
   <g id="patch_42">
    <path clip-path="url(#pe76d71dd1e)" d="M 169.508689 60.986477 
Q 167.806058 61.098882 166.105628 61.240807 
" style="fill:none;stroke:#008000;stroke-linecap:round;stroke-width:2;"/>
    <path clip-path="url(#pe76d71dd1e)" d="M 171.57022 61.852556 
L 169.508689 60.986477 
L 171.438471 59.8569 
L 171.57022 61.852556 
z
" style="fill:#008000;stroke:#008000;stroke-linecap:round;stroke-width:2;"/>
    <path clip-path="url(#pe76d71dd1e)" d="M 164.029383 60.410622 
L 166.105628 61.240807 
L 164.195733 62.403692 
L 164.029383 60.410622 
z
" style="fill:#008000;stroke:#008000;stroke-linecap:round;stroke-width:2;"/>
   </g>
   <g id="patch_43">
    <path clip-path="url(#pe76d71dd1e)" d="M 164.781168 71.260236 
Q 168.826724 75.428813 173.494692 78.885607 
" style="fill:none;stroke:#008000;stroke-linecap:round;stroke-width:2;"/>
    <path clip-path="url(#pe76d71dd1e)" d="M 165.456429 73.391907 
L 164.781168 71.260236 
L 166.891662 71.99903 
L 165.456429 73.391907 
z
" style="fill:#008000;stroke:#008000;stroke-linecap:round;stroke-width:2;"/>
    <path clip-path="url(#pe76d71dd1e)" d="M 172.482541 76.891729 
L 173.494692 78.885607 
L 171.292299 78.499002 
L 172.482541 76.891729 
z
" style="fill:#008000;stroke:#008000;stroke-linecap:round;stroke-width:2;"/>
   </g>
   <g id="patch_44">
    <path clip-path="url(#pe76d71dd1e)" d="M 178.440731 48.543278 
Q 178.413039 46.815008 178.356513 45.08744 
" style="fill:none;stroke:#008000;stroke-linecap:round;stroke-width:2;"/>
    <path clip-path="url(#pe76d71dd1e)" d="M 177.472901 50.559042 
L 178.440731 48.543278 
L 179.472645 50.527 
L 177.472901 50.559042 
z
" style="fill:#008000;stroke:#008000;stroke-linecap:round;stroke-width:2;"/>
    <path clip-path="url(#pe76d71dd1e)" d="M 179.290572 43.055807 
L 178.356513 45.08744 
L 177.291642 43.121213 
L 179.290572 43.055807 
z
" style="fill:#008000;stroke:#008000;stroke-linecap:round;stroke-width:2;"/>
   </g>
   <g id="patch_45">
    <path clip-path="url(#pe76d71dd1e)" d="M 193.26785 34.95273 
Q 192.681914 34.982056 192.098099 35.04034 
" style="fill:none;stroke:#008000;stroke-linecap:round;stroke-width:2;"/>
    <path clip-path="url(#pe76d71dd1e)" d="M 195.315337 35.851505 
L 193.26785 34.95273 
L 195.215363 33.854006 
L 195.315337 35.851505 
z
" style="fill:#008000;stroke:#008000;stroke-linecap:round;stroke-width:2;"/>
    <path clip-path="url(#pe76d71dd1e)" d="M 190.008652 34.243967 
L 192.098099 35.04034 
L 190.207333 36.234074 
L 190.008652 34.243967 
z
" style="fill:#008000;stroke:#008000;stroke-linecap:round;stroke-width:2;"/>
   </g>
   <g id="patch_46">
    <path clip-path="url(#pe76d71dd1e)" d="M 188.208664 45.400574 
Q 192.123252 49.702248 196.683337 53.311852 
" style="fill:none;stroke:#008000;stroke-linecap:round;stroke-width:2;"/>
    <path clip-path="url(#pe76d71dd1e)" d="M 188.815158 47.55282 
L 188.208664 45.400574 
L 190.294358 46.206727 
L 188.815158 47.55282 
z
" style="fill:#008000;stroke:#008000;stroke-linecap:round;stroke-width:2;"/>
    <path clip-path="url(#pe76d71dd1e)" d="M 195.735822 51.286459 
L 196.683337 53.311852 
L 194.494514 52.854628 
L 195.735822 51.286459 
z
" style="fill:#008000;stroke:#008000;stroke-linecap:round;stroke-width:2;"/>
   </g>
   <g id="patch_47">
    <path clip-path="url(#pe76d71dd1e)" d="M 166.422144 77.893345 
Q 169.684212 74.528697 172.410964 70.71743 
" style="fill:none;stroke:#008000;stroke-linecap:round;stroke-width:2;"/>
    <path clip-path="url(#pe76d71dd1e)" d="M 168.532266 77.153489 
L 166.422144 77.893345 
L 167.096332 75.761334 
L 168.532266 77.153489 
z
" style="fill:#008000;stroke:#008000;stroke-linecap:round;stroke-width:2;"/>
    <path clip-path="url(#pe76d71dd1e)" d="M 170.433952 71.762142 
L 172.410964 70.71743 
L 172.060527 72.925867 
L 170.433952 71.762142 
z
" style="fill:#008000;stroke:#008000;stroke-linecap:round;stroke-width:2;"/>
   </g>
   <g id="patch_48">
    <path clip-path="url(#pe76d71dd1e)" d="M 170.111692 88.510158 
Q 170.698757 88.518305 171.28463 88.480708 
" style="fill:none;stroke:#008000;stroke-linecap:round;stroke-width:2;"/>
    <path clip-path="url(#pe76d71dd1e)" d="M 172.097625 89.537812 
L 170.111692 88.510158 
L 172.125375 87.538005 
L 172.097625 89.537812 
z
" style="fill:#008000;stroke:#008000;stroke-linecap:round;stroke-width:2;"/>
    <path clip-path="url(#pe76d71dd1e)" d="M 169.224695 87.610842 
L 171.28463 88.480708 
L 169.352776 89.606736 
L 169.224695 87.610842 
z
" style="fill:#008000;stroke:#008000;stroke-linecap:round;stroke-width:2;"/>
   </g>
   <g id="patch_49">
    <path clip-path="url(#pe76d71dd1e)" d="M 190.911637 50.331228 
Q 194.411267 47.273615 197.420993 43.732779 
" style="fill:none;stroke:#008000;stroke-linecap:round;stroke-width:2;"/>
    <path clip-path="url(#pe76d71dd1e)" d="M 193.075712 49.768394 
L 190.911637 50.331228 
L 191.759815 48.262268 
L 193.075712 49.768394 
z
" style="fill:#008000;stroke:#008000;stroke-linecap:round;stroke-width:2;"/>
    <path clip-path="url(#pe76d71dd1e)" d="M 195.363755 44.609004 
L 197.420993 43.732779 
L 196.88763 45.904305 
L 195.363755 44.609004 
z
" style="fill:#008000;stroke:#008000;stroke-linecap:round;stroke-width:2;"/>
   </g>
   <g id="patch_50">
    <path clip-path="url(#pe76d71dd1e)" d="M 181.072676 72.847887 
Q 181.112605 73.110423 181.171066 73.369561 
" style="fill:none;stroke:#008000;stroke-linecap:round;stroke-width:2;"/>
    <path clip-path="url(#pe76d71dd1e)" d="M 180.384764 74.975509 
L 181.072676 72.847887 
L 182.362027 74.67479 
L 180.384764 74.975509 
z
" style="fill:#008000;stroke:#008000;stroke-linecap:round;stroke-width:2;"/>
    <path clip-path="url(#pe76d71dd1e)" d="M 181.706418 71.198525 
L 181.171066 73.369561 
L 179.755448 71.638658 
L 181.706418 71.198525 
z
" style="fill:#008000;stroke:#008000;stroke-linecap:round;stroke-width:2;"/>
   </g>
   <g id="patch_51">
    <path clip-path="url(#pe76d71dd1e)" d="M 193.655614 61.631443 
Q 193.903793 61.662225 194.15358 61.675505 
" style="fill:none;stroke:#008000;stroke-linecap:round;stroke-width:2;"/>
    <path clip-path="url(#pe76d71dd1e)" d="M 195.517317 62.870015 
L 193.655614 61.631443 
L 195.763494 60.885223 
L 195.517317 62.870015 
z
" style="fill:#008000;stroke:#008000;stroke-linecap:round;stroke-width:2;"/>
    <path clip-path="url(#pe76d71dd1e)" d="M 192.209491 60.570734 
L 194.15358 61.675505 
L 192.10331 62.567913 
L 192.209491 60.570734 
z
" style="fill:#008000;stroke:#008000;stroke-linecap:round;stroke-width:2;"/>
   </g>
   <g id="patch_52">
    <path clip-path="url(#pe76d71dd1e)" d="M 205.476139 46.55201 
Q 205.497001 47.12485 205.562213 47.69425 
" style="fill:none;stroke:#008000;stroke-linecap:round;stroke-width:2;"/>
    <path clip-path="url(#pe76d71dd1e)" d="M 204.549589 48.587079 
L 205.476139 46.55201 
L 206.548264 48.514291 
L 204.549589 48.587079 
z
" style="fill:#008000;stroke:#008000;stroke-linecap:round;stroke-width:2;"/>
    <path clip-path="url(#pe76d71dd1e)" d="M 206.328151 45.593455 
L 205.562213 47.69425 
L 204.34114 45.821022 
L 206.328151 45.593455 
z
" style="fill:#008000;stroke:#008000;stroke-linecap:round;stroke-width:2;"/>
   </g>
   <g id="patch_53">
    <path clip-path="url(#pe76d71dd1e)" d="M 195.69542 77.54624 
Q 197.974939 75.34356 199.958222 72.871151 
" style="fill:none;stroke:#008000;stroke-linecap:round;stroke-width:2;"/>
    <path clip-path="url(#pe76d71dd1e)" d="M 197.828549 76.875598 
L 195.69542 77.54624 
L 196.438784 75.437352 
L 197.828549 76.875598 
z
" style="fill:#008000;stroke:#008000;stroke-linecap:round;stroke-width:2;"/>
    <path clip-path="url(#pe76d71dd1e)" d="M 197.926729 73.805514 
L 199.958222 72.871151 
L 199.486816 75.056963 
L 197.926729 73.805514 
z
" style="fill:#008000;stroke:#008000;stroke-linecap:round;stroke-width:2;"/>
   </g>
   <g id="patch_54">
    <path clip-path="url(#pe76d71dd1e)" d="M 198.352759 90.815222 
Q 200.865584 91.44836 203.435009 91.782575 
" style="fill:none;stroke:#008000;stroke-linecap:round;stroke-width:2;"/>
    <path clip-path="url(#pe76d71dd1e)" d="M 200.047819 92.273567 
L 198.352759 90.815222 
L 200.536471 90.334181 
L 200.047819 92.273567 
z
" style="fill:#008000;stroke:#008000;stroke-linecap:round;stroke-width:2;"/>
    <path clip-path="url(#pe76d71dd1e)" d="M 201.580704 90.532954 
L 203.435009 91.782575 
L 201.322729 92.516246 
L 201.580704 90.532954 
z
" style="fill:#008000;stroke:#008000;stroke-linecap:round;stroke-width:2;"/>
   </g>
   <g id="patch_55">
    <path clip-path="url(#pe76d71dd1e)" d="M 210.462227 75.227582 
Q 211.035999 77.676463 211.889788 80.042795 
" style="fill:none;stroke:#008000;stroke-linecap:round;stroke-width:2;"/>
    <path clip-path="url(#pe76d71dd1e)" d="M 209.944838 77.402969 
L 210.462227 75.227582 
L 211.892103 76.946726 
L 209.944838 77.402969 
z
" style="fill:#008000;stroke:#008000;stroke-linecap:round;stroke-width:2;"/>
    <path clip-path="url(#pe76d71dd1e)" d="M 212.15165 77.822113 
L 211.889788 80.042795 
L 210.27036 78.500896 
L 212.15165 77.822113 
z
" style="fill:#008000;stroke:#008000;stroke-linecap:round;stroke-width:2;"/>
   </g>
   <g id="patch_56">
    <path clip-path="url(#pe76d71dd1e)" d="M 226.000594 103.718041 
Q 227.62262 105.53665 229.44154 107.158322 
" style="fill:none;stroke:#008000;stroke-linecap:round;stroke-width:2;"/>
    <path clip-path="url(#pe76d71dd1e)" d="M 226.585544 105.876242 
L 226.000594 103.718041 
L 228.078125 104.545002 
L 226.585544 105.876242 
z
" style="fill:#008000;stroke:#008000;stroke-linecap:round;stroke-width:2;"/>
    <path clip-path="url(#pe76d71dd1e)" d="M 228.614178 105.080951 
L 229.44154 107.158322 
L 227.283226 106.57379 
L 228.614178 105.080951 
z
" style="fill:#008000;stroke:#008000;stroke-linecap:round;stroke-width:2;"/>
   </g>
   <g id="patch_57">
    <path clip-path="url(#pe76d71dd1e)" d="M 249.085151 126.74214 
Q 250.454179 128.264064 251.978436 129.630457 
" style="fill:none;stroke:#008000;stroke-linecap:round;stroke-width:2;"/>
    <path clip-path="url(#pe76d71dd1e)" d="M 249.679236 128.897845 
L 249.085151 126.74214 
L 251.166166 127.560295 
L 249.679236 128.897845 
z
" style="fill:#008000;stroke:#008000;stroke-linecap:round;stroke-width:2;"/>
    <path clip-path="url(#pe76d71dd1e)" d="M 251.156705 127.550852 
L 251.978436 129.630457 
L 249.821713 129.040079 
L 251.156705 127.550852 
z
" style="fill:#008000;stroke:#008000;stroke-linecap:round;stroke-width:2;"/>
   </g>
   <g id="patch_58">
    <path clip-path="url(#pe76d71dd1e)" d="M 155.573924 61.373045 
C 155.727568 61.373045 155.87494 61.312002 155.983583 61.203359 
C 156.092226 61.094716 156.15327 60.947344 156.15327 60.793699 
C 156.15327 60.640055 156.092226 60.492683 155.983583 60.38404 
C 155.87494 60.275397 155.727568 60.214353 155.573924 60.214353 
C 155.420279 60.214353 155.272907 60.275397 155.164264 60.38404 
C 155.055621 60.492683 154.994578 60.640055 154.994578 60.793699 
C 154.994578 60.947344 155.055621 61.094716 155.164264 61.203359 
C 155.272907 61.312002 155.420279 61.373045 155.573924 61.373045 
z
" style="fill:#1f77b4;"/>
   </g>
   <g id="patch_59">
    <path clip-path="url(#pe76d71dd1e)" d="M 179.333179 35.212298 
C 179.486824 35.212298 179.634196 35.151254 179.742839 35.042611 
C 179.851482 34.933968 179.912525 34.786596 179.912525 34.632952 
C 179.912525 34.479307 179.851482 34.331935 179.742839 34.223292 
C 179.634196 34.114649 179.486824 34.053606 179.333179 34.053606 
C 179.179535 34.053606 179.032163 34.114649 178.92352 34.223292 
C 178.814877 34.331935 178.753833 34.479307 178.753833 34.632952 
C 178.753833 34.786596 178.814877 34.933968 178.92352 35.042611 
C 179.032163 35.151254 179.179535 35.212298 179.333179 35.212298 
z
" style="fill:#aec7e8;"/>
   </g>
   <g id="patch_60">
    <path clip-path="url(#pe76d71dd1e)" d="M 156.212865 87.382738 
C 156.212865 87.382738 156.212865 87.382738 156.212865 87.382738 
C 156.212865 87.382738 156.212865 87.382738 156.212865 87.382738 
C 156.212865 87.382738 156.212865 87.382738 156.212865 87.382738 
C 156.212865 87.382738 156.212865 87.382738 156.212865 87.382738 
C 156.212865 87.382738 156.212865 87.382738 156.212865 87.382738 
C 156.212865 87.382738 156.212865 87.382738 156.212865 87.382738 
C 156.212865 87.382738 156.212865 87.382738 156.212865 87.382738 
C 156.212865 87.382738 156.212865 87.382738 156.212865 87.382738 
z
" style="fill:#ff7f0e;"/>
   </g>
   <g id="patch_61">
    <path clip-path="url(#pe76d71dd1e)" d="M 179.930165 61.507287 
C 180.606201 61.507287 181.254638 61.238695 181.732667 60.760666 
C 182.210697 60.282637 182.479288 59.634199 182.479288 58.958164 
C 182.479288 58.282129 182.210697 57.633691 181.732667 57.155662 
C 181.254638 56.677633 180.606201 56.409041 179.930165 56.409041 
C 179.25413 56.409041 178.605692 56.677633 178.127663 57.155662 
C 177.649634 57.633691 177.381042 58.282129 177.381042 58.958164 
C 177.381042 59.634199 177.649634 60.282637 178.127663 60.760666 
C 178.605692 61.238695 179.25413 61.507287 179.930165 61.507287 
z
" style="fill:#ffbb78;"/>
   </g>
   <g id="patch_62">
    <path clip-path="url(#pe76d71dd1e)" d="M 205.902552 32.627848 
C 205.902552 32.627848 205.902552 32.627848 205.902552 32.627848 
C 205.902552 32.627848 205.902552 32.627848 205.902552 32.627848 
C 205.902552 32.627848 205.902552 32.627848 205.902552 32.627848 
C 205.902552 32.627848 205.902552 32.627848 205.902552 32.627848 
C 205.902552 32.627848 205.902552 32.627848 205.902552 32.627848 
C 205.902552 32.627848 205.902552 32.627848 205.902552 32.627848 
C 205.902552 32.627848 205.902552 32.627848 205.902552 32.627848 
C 205.902552 32.627848 205.902552 32.627848 205.902552 32.627848 
z
" style="fill:#2ca02c;"/>
   </g>
   <g id="patch_63">
    <path clip-path="url(#pe76d71dd1e)" d="M 185.137404 92.44417 
C 186.673848 92.44417 188.14757 91.833735 189.234 90.747305 
C 190.320429 89.660875 190.930865 88.187153 190.930865 86.650709 
C 190.930865 85.114265 190.320429 83.640543 189.234 82.554114 
C 188.14757 81.467684 186.673848 80.857248 185.137404 80.857248 
C 183.60096 80.857248 182.127238 81.467684 181.040808 82.554114 
C 179.954378 83.640543 179.343943 85.114265 179.343943 86.650709 
C 179.343943 88.187153 179.954378 89.660875 181.040808 90.747305 
C 182.127238 91.833735 183.60096 92.44417 185.137404 92.44417 
z
" style="fill:#98df8a;"/>
   </g>
   <g id="patch_64">
    <path clip-path="url(#pe76d71dd1e)" d="M 208.08815 67.25276 
C 209.624594 67.25276 211.098316 66.642325 212.184746 65.555895 
C 213.271175 64.469465 213.881611 62.995743 213.881611 61.459299 
C 213.881611 59.922855 213.271175 58.449133 212.184746 57.362704 
C 211.098316 56.276274 209.624594 55.665838 208.08815 55.665838 
C 206.551706 55.665838 205.077984 56.276274 203.991554 57.362704 
C 202.905124 58.449133 202.294689 59.922855 202.294689 61.459299 
C 202.294689 62.995743 202.905124 64.469465 203.991554 65.555895 
C 205.077984 66.642325 206.551706 67.25276 208.08815 67.25276 
z
" style="fill:#d62728;"/>
   </g>
   <g id="patch_65">
    <path clip-path="url(#pe76d71dd1e)" d="M 217.340996 102.496056 
C 219.922221 102.496056 222.398074 101.470524 224.223276 99.645322 
C 226.048478 97.82012 227.07401 95.344267 227.07401 92.763042 
C 227.07401 90.181816 226.048478 87.705963 224.223276 85.880761 
C 222.398074 84.055559 219.922221 83.030027 217.340996 83.030027 
C 214.75977 83.030027 212.283917 84.055559 210.458715 85.880761 
C 208.633513 87.705963 207.607981 90.181816 207.607981 92.763042 
C 207.607981 95.344267 208.633513 97.82012 210.458715 99.645322 
C 212.283917 101.470524 214.75977 102.496056 217.340996 102.496056 
z
" style="fill:#ff9896;"/>
   </g>
   <g id="patch_66">
    <path clip-path="url(#pe76d71dd1e)" d="M 240.399252 121.378213 
C 241.874238 121.378213 243.289011 120.792195 244.331983 119.749222 
C 245.374956 118.706249 245.960974 117.291476 245.960974 115.81649 
C 245.960974 114.341504 245.374956 112.926731 244.331983 111.883758 
C 243.289011 110.840786 241.874238 110.254767 240.399252 110.254767 
C 238.924265 110.254767 237.509492 110.840786 236.46652 111.883758 
C 235.423547 112.926731 234.837529 114.341504 234.837529 115.81649 
C 234.837529 117.291476 235.423547 118.706249 236.46652 119.749222 
C 237.509492 120.792195 238.924265 121.378213 240.399252 121.378213 
z
" style="fill:#9467bd;"/>
   </g>
   <g id="patch_67">
    <path clip-path="url(#pe76d71dd1e)" d="M 262.926076 138.302234 
C 262.926076 138.302234 262.926076 138.302234 262.926076 138.302234 
C 262.926076 138.302234 262.926076 138.302234 262.926076 138.302234 
C 262.926076 138.302234 262.926076 138.302234 262.926076 138.302234 
C 262.926076 138.302234 262.926076 138.302234 262.926076 138.302234 
C 262.926076 138.302234 262.926076 138.302234 262.926076 138.302234 
C 262.926076 138.302234 262.926076 138.302234 262.926076 138.302234 
C 262.926076 138.302234 262.926076 138.302234 262.926076 138.302234 
C 262.926076 138.302234 262.926076 138.302234 262.926076 138.302234 
z
" style="fill:#c5b0d5;"/>
   </g>
   <g id="patch_68">
    <path clip-path="url(#pe76d71dd1e)" d="M 155.573924 70.526714 
C 158.155149 70.526714 160.631002 69.501182 162.456204 67.67598 
C 164.281407 65.850778 165.306938 63.374925 165.306938 60.793699 
C 165.306938 58.212473 164.281407 55.736621 162.456204 53.911418 
C 160.631002 52.086216 158.155149 51.060684 155.573924 51.060684 
C 152.992698 51.060684 150.516845 52.086216 148.691643 53.911418 
C 146.866441 55.736621 145.840909 58.212473 145.840909 60.793699 
C 145.840909 63.374925 146.866441 65.850778 148.691643 67.67598 
C 150.516845 69.501182 152.992698 70.526714 155.573924 70.526714 
z
" style="fill:none;"/>
   </g>
   <g id="patch_69">
    <path clip-path="url(#pe76d71dd1e)" d="M 179.333179 44.365966 
C 181.914405 44.365966 184.390258 43.340435 186.21546 41.515232 
C 188.040662 39.69003 189.066194 37.214177 189.066194 34.632952 
C 189.066194 32.051726 188.040662 29.575873 186.21546 27.750671 
C 184.390258 25.925469 181.914405 24.899937 179.333179 24.899937 
C 176.751954 24.899937 174.276101 25.925469 172.450899 27.750671 
C 170.625696 29.575873 169.600165 32.051726 169.600165 34.632952 
C 169.600165 37.214177 170.625696 39.69003 172.450899 41.515232 
C 174.276101 43.340435 176.751954 44.365966 179.333179 44.365966 
z
" style="fill:none;"/>
   </g>
   <g id="patch_70">
    <path clip-path="url(#pe76d71dd1e)" d="M 156.212865 97.115753 
C 158.794091 97.115753 161.269943 96.090221 163.095146 94.265019 
C 164.920348 92.439817 165.94588 89.963964 165.94588 87.382738 
C 165.94588 84.801512 164.920348 82.32566 163.095146 80.500457 
C 161.269943 78.675255 158.794091 77.649723 156.212865 77.649723 
C 153.631639 77.649723 151.155786 78.675255 149.330584 80.500457 
C 147.505382 82.32566 146.47985 84.801512 146.47985 87.382738 
C 146.47985 89.963964 147.505382 92.439817 149.330584 94.265019 
C 151.155786 96.090221 153.631639 97.115753 156.212865 97.115753 
z
" style="fill:none;"/>
   </g>
   <g id="patch_71">
    <path clip-path="url(#pe76d71dd1e)" d="M 179.930165 68.691179 
C 182.511391 68.691179 184.987244 67.665647 186.812446 65.840445 
C 188.637648 64.015242 189.66318 61.53939 189.66318 58.958164 
C 189.66318 56.376938 188.637648 53.901085 186.812446 52.075883 
C 184.987244 50.250681 182.511391 49.225149 179.930165 49.225149 
C 177.34894 49.225149 174.873087 50.250681 173.047885 52.075883 
C 171.222682 53.901085 170.197151 56.376938 170.197151 58.958164 
C 170.197151 61.53939 171.222682 64.015242 173.047885 65.840445 
C 174.873087 67.665647 177.34894 68.691179 179.930165 68.691179 
z
" style="fill:none;"/>
   </g>
   <g id="patch_72">
    <path clip-path="url(#pe76d71dd1e)" d="M 205.902552 42.360863 
C 208.483778 42.360863 210.95963 41.335331 212.784833 39.510129 
C 214.610035 37.684926 215.635567 35.209074 215.635567 32.627848 
C 215.635567 30.046622 214.610035 27.570769 212.784833 25.745567 
C 210.95963 23.920365 208.483778 22.894833 205.902552 22.894833 
C 203.321326 22.894833 200.845473 23.920365 199.020271 25.745567 
C 197.195069 27.570769 196.169537 30.046622 196.169537 32.627848 
C 196.169537 35.209074 197.195069 37.684926 199.020271 39.510129 
C 200.845473 41.335331 203.321326 42.360863 205.902552 42.360863 
z
" style="fill:none;"/>
   </g>
   <g id="patch_73">
    <path clip-path="url(#pe76d71dd1e)" d="M 185.137404 96.383724 
C 187.71863 96.383724 190.194482 95.358192 192.019685 93.53299 
C 193.844887 91.707788 194.870419 89.231935 194.870419 86.650709 
C 194.870419 84.069484 193.844887 81.593631 192.019685 79.768429 
C 190.194482 77.943226 187.71863 76.917695 185.137404 76.917695 
C 182.556178 76.917695 180.080325 77.943226 178.255123 79.768429 
C 176.429921 81.593631 175.404389 84.069484 175.404389 86.650709 
C 175.404389 89.231935 176.429921 91.707788 178.255123 93.53299 
C 180.080325 95.358192 182.556178 96.383724 185.137404 96.383724 
z
" style="fill:none;"/>
   </g>
   <g id="patch_74">
    <path clip-path="url(#pe76d71dd1e)" d="M 208.08815 71.192314 
C 210.669376 71.192314 213.145228 70.166782 214.970431 68.34158 
C 216.795633 66.516378 217.821165 64.040525 217.821165 61.459299 
C 217.821165 58.878074 216.795633 56.402221 214.970431 54.577018 
C 213.145228 52.751816 210.669376 51.726284 208.08815 51.726284 
C 205.506924 51.726284 203.031071 52.751816 201.205869 54.577018 
C 199.380667 56.402221 198.355135 58.878074 198.355135 61.459299 
C 198.355135 64.040525 199.380667 66.516378 201.205869 68.34158 
C 203.031071 70.166782 205.506924 71.192314 208.08815 71.192314 
z
" style="fill:none;"/>
   </g>
   <g id="patch_75">
    <path clip-path="url(#pe76d71dd1e)" d="M 217.340996 102.496056 
C 219.922221 102.496056 222.398074 101.470524 224.223276 99.645322 
C 226.048478 97.82012 227.07401 95.344267 227.07401 92.763042 
C 227.07401 90.181816 226.048478 87.705963 224.223276 85.880761 
C 222.398074 84.055559 219.922221 83.030027 217.340996 83.030027 
C 214.75977 83.030027 212.283917 84.055559 210.458715 85.880761 
C 208.633513 87.705963 207.607981 90.181816 207.607981 92.763042 
C 207.607981 95.344267 208.633513 97.82012 210.458715 99.645322 
C 212.283917 101.470524 214.75977 102.496056 217.340996 102.496056 
z
" style="fill:none;"/>
   </g>
   <g id="patch_76">
    <path clip-path="url(#pe76d71dd1e)" d="M 240.399252 125.549505 
C 242.980477 125.549505 245.45633 124.523973 247.281532 122.698771 
C 249.106734 120.873569 250.132266 118.397716 250.132266 115.81649 
C 250.132266 113.235264 249.106734 110.759412 247.281532 108.934209 
C 245.45633 107.109007 242.980477 106.083475 240.399252 106.083475 
C 237.818026 106.083475 235.342173 107.109007 233.516971 108.934209 
C 231.691769 110.759412 230.666237 113.235264 230.666237 115.81649 
C 230.666237 118.397716 231.691769 120.873569 233.516971 122.698771 
C 235.342173 124.523973 237.818026 125.549505 240.399252 125.549505 
z
" style="fill:none;"/>
   </g>
   <g id="patch_77">
    <path clip-path="url(#pe76d71dd1e)" d="M 262.926076 148.035248 
C 265.507302 148.035248 267.983155 147.009717 269.808357 145.184514 
C 271.633559 143.359312 272.659091 140.883459 272.659091 138.302234 
C 272.659091 135.721008 271.633559 133.245155 269.808357 131.419953 
C 267.983155 129.594751 265.507302 128.569219 262.926076 128.569219 
C 260.344851 128.569219 257.868998 129.594751 256.043796 131.419953 
C 254.218593 133.245155 253.193062 135.721008 253.193062 138.302234 
C 253.193062 140.883459 254.218593 143.359312 256.043796 145.184514 
C 257.868998 147.009717 260.344851 148.035248 262.926076 148.035248 
z
" style="fill:none;"/>
   </g>
   <g id="text_2">
    <!-- Betweenness -->
    <defs>
     <path d="M 19.671875 34.8125 
L 19.671875 8.109375 
L 35.5 8.109375 
Q 43.453125 8.109375 47.28125 11.40625 
Q 51.125 14.703125 51.125 21.484375 
Q 51.125 28.328125 47.28125 31.5625 
Q 43.453125 34.8125 35.5 34.8125 
z
M 19.671875 64.796875 
L 19.671875 42.828125 
L 34.28125 42.828125 
Q 41.5 42.828125 45.03125 45.53125 
Q 48.578125 48.25 48.578125 53.8125 
Q 48.578125 59.328125 45.03125 62.0625 
Q 41.5 64.796875 34.28125 64.796875 
z
M 9.8125 72.90625 
L 35.015625 72.90625 
Q 46.296875 72.90625 52.390625 68.21875 
Q 58.5 63.53125 58.5 54.890625 
Q 58.5 48.1875 55.375 44.234375 
Q 52.25 40.28125 46.1875 39.3125 
Q 53.46875 37.75 57.5 32.78125 
Q 61.53125 27.828125 61.53125 20.40625 
Q 61.53125 10.640625 54.890625 5.3125 
Q 48.25 0 35.984375 0 
L 9.8125 0 
z
" id="DejaVuSans-66"/>
     <path d="M 18.3125 70.21875 
L 18.3125 54.6875 
L 36.8125 54.6875 
L 36.8125 47.703125 
L 18.3125 47.703125 
L 18.3125 18.015625 
Q 18.3125 11.328125 20.140625 9.421875 
Q 21.96875 7.515625 27.59375 7.515625 
L 36.8125 7.515625 
L 36.8125 0 
L 27.59375 0 
Q 17.1875 0 13.234375 3.875 
Q 9.28125 7.765625 9.28125 18.015625 
L 9.28125 47.703125 
L 2.6875 47.703125 
L 2.6875 54.6875 
L 9.28125 54.6875 
L 9.28125 70.21875 
z
" id="DejaVuSans-116"/>
     <path d="M 4.203125 54.6875 
L 13.1875 54.6875 
L 24.421875 12.015625 
L 35.59375 54.6875 
L 46.1875 54.6875 
L 57.421875 12.015625 
L 68.609375 54.6875 
L 77.59375 54.6875 
L 63.28125 0 
L 52.6875 0 
L 40.921875 44.828125 
L 29.109375 0 
L 18.5 0 
z
" id="DejaVuSans-119"/>
     <path d="M 54.890625 33.015625 
L 54.890625 0 
L 45.90625 0 
L 45.90625 32.71875 
Q 45.90625 40.484375 42.875 44.328125 
Q 39.84375 48.1875 33.796875 48.1875 
Q 26.515625 48.1875 22.3125 43.546875 
Q 18.109375 38.921875 18.109375 30.90625 
L 18.109375 0 
L 9.078125 0 
L 9.078125 54.6875 
L 18.109375 54.6875 
L 18.109375 46.1875 
Q 21.34375 51.125 25.703125 53.5625 
Q 30.078125 56 35.796875 56 
Q 45.21875 56 50.046875 50.171875 
Q 54.890625 44.34375 54.890625 33.015625 
z
" id="DejaVuSans-110"/>
     <path d="M 44.28125 53.078125 
L 44.28125 44.578125 
Q 40.484375 46.53125 36.375 47.5 
Q 32.28125 48.484375 27.875 48.484375 
Q 21.1875 48.484375 17.84375 46.4375 
Q 14.5 44.390625 14.5 40.28125 
Q 14.5 37.15625 16.890625 35.375 
Q 19.28125 33.59375 26.515625 31.984375 
L 29.59375 31.296875 
Q 39.15625 29.25 43.1875 25.515625 
Q 47.21875 21.78125 47.21875 15.09375 
Q 47.21875 7.46875 41.1875 3.015625 
Q 35.15625 -1.421875 24.609375 -1.421875 
Q 20.21875 -1.421875 15.453125 -0.5625 
Q 10.6875 0.296875 5.421875 2 
L 5.421875 11.28125 
Q 10.40625 8.6875 15.234375 7.390625 
Q 20.0625 6.109375 24.8125 6.109375 
Q 31.15625 6.109375 34.5625 8.28125 
Q 37.984375 10.453125 37.984375 14.40625 
Q 37.984375 18.0625 35.515625 20.015625 
Q 33.0625 21.96875 24.703125 23.78125 
L 21.578125 24.515625 
Q 13.234375 26.265625 9.515625 29.90625 
Q 5.8125 33.546875 5.8125 39.890625 
Q 5.8125 47.609375 11.28125 51.796875 
Q 16.75 56 26.8125 56 
Q 31.78125 56 36.171875 55.265625 
Q 40.578125 54.546875 44.28125 53.078125 
z
" id="DejaVuSans-115"/>
    </defs>
    <g transform="translate(162.584062 10.637812)scale(0.14 -0.14)">
     <use xlink:href="#DejaVuSans-66"/>
     <use x="68.603516" xlink:href="#DejaVuSans-101"/>
     <use x="130.126953" xlink:href="#DejaVuSans-116"/>
     <use x="169.335938" xlink:href="#DejaVuSans-119"/>
     <use x="251.123047" xlink:href="#DejaVuSans-101"/>
     <use x="312.646484" xlink:href="#DejaVuSans-101"/>
     <use x="374.169922" xlink:href="#DejaVuSans-110"/>
     <use x="437.548828" xlink:href="#DejaVuSans-110"/>
     <use x="500.927734" xlink:href="#DejaVuSans-101"/>
     <use x="562.451172" xlink:href="#DejaVuSans-115"/>
     <use x="614.550781" xlink:href="#DejaVuSans-115"/>
    </g>
   </g>
  </g>
 </g>
 <defs>
  <clipPath id="p73e7310325">
   <rect height="137.654457" width="139.5" x="0" y="16.637813"/>
  </clipPath>
  <clipPath id="pe76d71dd1e">
   <rect height="137.654457" width="139.5" x="139.5" y="16.637812"/>
  </clipPath>
 </defs>
</svg>
