<?xml version="1.0" encoding="utf-8" standalone="no"?>
<!DOCTYPE svg PUBLIC "-//W3C//DTD SVG 1.1//EN"
  "http://www.w3.org/Graphics/SVG/1.1/DTD/svg11.dtd">
<!-- Created with matplotlib (https://matplotlib.org/) -->
<svg height="271.8pt" version="1.1" viewBox="0 0 279 271.8" width="279pt" xmlns="http://www.w3.org/2000/svg" xmlns:xlink="http://www.w3.org/1999/xlink">
 <defs>
  <style type="text/css">
*{stroke-linecap:butt;stroke-linejoin:round;}
  </style>
 </defs>
 <g id="figure_1">
  <g id="patch_1">
   <path d="M 0 271.8 
L 279 271.8 
L 279 0 
L 0 0 
z
" style="fill:none;"/>
  </g>
  <g id="axes_1">
   <g id="patch_2">
    <path clip-path="url(#p96c9c0664d)" d="M 170.239776 132.86296 
Q 166.95135 132.208342 163.611694 131.910048 
" style="fill:none;stroke:#008000;stroke-linecap:round;stroke-width:1.533843;"/>
    <path clip-path="url(#p96c9c0664d)" d="M 168.4735 131.491731 
L 170.239776 132.86296 
L 168.083027 133.453244 
L 168.4735 131.491731 
z
" style="fill:#008000;stroke:#008000;stroke-linecap:round;stroke-width:1.533843;"/>
    <path clip-path="url(#p96c9c0664d)" d="M 165.514799 133.084012 
L 163.611694 131.910048 
L 165.692728 131.091943 
L 165.514799 133.084012 
z
" style="fill:#008000;stroke:#008000;stroke-linecap:round;stroke-width:1.533843;"/>
   </g>
   <g id="patch_3">
    <path clip-path="url(#p96c9c0664d)" d="M 181.640844 151.96042 
Q 176.440927 176.550377 177.799111 201.646852 
" style="fill:none;stroke:#008000;stroke-linecap:round;stroke-width:1.481408;"/>
    <path clip-path="url(#p96c9c0664d)" d="M 180.2487 153.710259 
L 181.640844 151.96042 
L 182.205429 154.124039 
L 180.2487 153.710259 
z
" style="fill:#008000;stroke:#008000;stroke-linecap:round;stroke-width:1.481408;"/>
    <path clip-path="url(#p96c9c0664d)" d="M 178.689571 199.595735 
L 177.799111 201.646852 
L 176.692493 199.703814 
L 178.689571 199.595735 
z
" style="fill:#008000;stroke:#008000;stroke-linecap:round;stroke-width:1.481408;"/>
   </g>
   <g id="patch_4">
    <path clip-path="url(#p96c9c0664d)" d="M 189.273879 120.713234 
Q 194.520718 96.551717 193.261174 71.859696 
" style="fill:none;stroke:#ff0000;stroke-linecap:round;stroke-width:2.5;"/>
    <path clip-path="url(#p96c9c0664d)" d="M 190.675525 118.970997 
L 189.273879 120.713234 
L 188.721077 118.546575 
L 190.675525 118.970997 
z
" style="fill:#ff0000;stroke:#ff0000;stroke-linecap:round;stroke-width:2.5;"/>
    <path clip-path="url(#p96c9c0664d)" d="M 192.36436 73.908043 
L 193.261174 71.859696 
L 194.361763 73.806155 
L 192.36436 73.908043 
z
" style="fill:#ff0000;stroke:#ff0000;stroke-linecap:round;stroke-width:2.5;"/>
   </g>
   <g id="patch_5">
    <path clip-path="url(#p96c9c0664d)" d="M 195.526606 125.399402 
Q 199.988103 119.799931 203.536685 113.581598 
" style="fill:none;stroke:#008000;stroke-linecap:round;stroke-width:1.350716;"/>
    <path clip-path="url(#p96c9c0664d)" d="M 197.555013 124.458358 
L 195.526606 125.399402 
L 195.990815 123.21205 
L 197.555013 124.458358 
z
" style="fill:#008000;stroke:#008000;stroke-linecap:round;stroke-width:1.350716;"/>
    <path clip-path="url(#p96c9c0664d)" d="M 201.676879 114.823017 
L 203.536685 113.581598 
L 203.413937 115.814294 
L 201.676879 114.823017 
z
" style="fill:#008000;stroke:#008000;stroke-linecap:round;stroke-width:1.350716;"/>
   </g>
   <g id="patch_6">
    <path clip-path="url(#p96c9c0664d)" d="M 200.988184 131.845928 
Q 222.369177 124.282466 241.122651 111.527379 
" style="fill:none;stroke:#ff0000;stroke-linecap:round;stroke-width:2.313825;"/>
    <path clip-path="url(#p96c9c0664d)" d="M 203.207183 132.121688 
L 200.988184 131.845928 
L 202.540192 130.236185 
L 203.207183 132.121688 
z
" style="fill:#ff0000;stroke:#ff0000;stroke-linecap:round;stroke-width:2.313825;"/>
    <path clip-path="url(#p96c9c0664d)" d="M 238.906517 111.825293 
L 241.122651 111.527379 
L 240.031302 113.479034 
L 238.906517 111.825293 
z
" style="fill:#ff0000;stroke:#ff0000;stroke-linecap:round;stroke-width:2.313825;"/>
   </g>
   <g id="patch_7">
    <path clip-path="url(#p96c9c0664d)" d="M 179.396431 151.345121 
Q 178.478479 154.096545 177.843818 156.926732 
" style="fill:none;stroke:#008000;stroke-linecap:round;stroke-width:1.591038;"/>
    <path clip-path="url(#p96c9c0664d)" d="M 177.814873 152.925841 
L 179.396431 151.345121 
L 179.712072 153.5588 
L 177.814873 152.925841 
z
" style="fill:#008000;stroke:#008000;stroke-linecap:round;stroke-width:1.591038;"/>
    <path clip-path="url(#p96c9c0664d)" d="M 179.25721 155.194011 
L 177.843818 156.926732 
L 177.305677 154.756385 
L 179.25721 155.194011 
z
" style="fill:#008000;stroke:#008000;stroke-linecap:round;stroke-width:1.591038;"/>
   </g>
   <g id="patch_8">
    <path clip-path="url(#p96c9c0664d)" d="M 197.56245 143.919213 
Q 211.253583 150.971237 226.123001 154.981903 
" style="fill:none;stroke:#008000;stroke-linecap:round;stroke-width:0.248516;"/>
    <path clip-path="url(#p96c9c0664d)" d="M 198.882545 145.724026 
L 197.56245 143.919213 
L 199.798357 143.946025 
L 198.882545 145.724026 
z
" style="fill:#008000;stroke:#008000;stroke-linecap:round;stroke-width:0.248516;"/>
    <path clip-path="url(#p96c9c0664d)" d="M 224.452429 153.495569 
L 226.123001 154.981903 
L 223.931591 155.42656 
L 224.452429 153.495569 
z
" style="fill:#008000;stroke:#008000;stroke-linecap:round;stroke-width:0.248516;"/>
   </g>
   <g id="patch_9">
    <path clip-path="url(#p96c9c0664d)" d="M 169.898555 139.050931 
Q 139.679112 144.105166 112.013289 157.271011 
" style="fill:none;stroke:#008000;stroke-linecap:round;stroke-width:1.51072;"/>
    <path clip-path="url(#p96c9c0664d)" d="M 167.760995 138.39455 
L 169.898555 139.050931 
L 168.090914 140.367151 
L 167.760995 138.39455 
z
" style="fill:#008000;stroke:#008000;stroke-linecap:round;stroke-width:1.51072;"/>
    <path clip-path="url(#p96c9c0664d)" d="M 114.248933 157.314555 
L 112.013289 157.271011 
L 113.38951 155.508622 
L 114.248933 157.314555 
z
" style="fill:#008000;stroke:#008000;stroke-linecap:round;stroke-width:1.51072;"/>
   </g>
   <g id="patch_10">
    <path clip-path="url(#p96c9c0664d)" d="M 192.08677 151.083105 
Q 200.531866 167.263643 212.530546 181.016914 
" style="fill:none;stroke:#008000;stroke-linecap:round;stroke-width:1.685083;"/>
    <path clip-path="url(#p96c9c0664d)" d="M 192.125651 153.318834 
L 192.08677 151.083105 
L 193.898683 152.393437 
L 192.125651 153.318834 
z
" style="fill:#008000;stroke:#008000;stroke-linecap:round;stroke-width:1.685083;"/>
    <path clip-path="url(#p96c9c0664d)" d="M 211.969275 178.852433 
L 212.530546 181.016914 
L 210.462199 180.167242 
L 211.969275 178.852433 
z
" style="fill:#008000;stroke:#008000;stroke-linecap:round;stroke-width:1.685083;"/>
   </g>
   <g id="patch_11">
    <path clip-path="url(#p96c9c0664d)" d="M 150.901126 147.018989 
Q 157.183303 176.636245 171.357161 203.38925 
" style="fill:none;stroke:#008000;stroke-linecap:round;stroke-width:1.708772;"/>
    <path clip-path="url(#p96c9c0664d)" d="M 150.337882 149.182956 
L 150.901126 147.018989 
L 152.294354 148.767965 
L 150.337882 149.182956 
z
" style="fill:#008000;stroke:#008000;stroke-linecap:round;stroke-width:1.708772;"/>
    <path clip-path="url(#p96c9c0664d)" d="M 171.304488 201.153803 
L 171.357161 203.38925 
L 169.5372 202.09012 
L 171.304488 201.153803 
z
" style="fill:#008000;stroke:#008000;stroke-linecap:round;stroke-width:1.708772;"/>
   </g>
   <g id="patch_12">
    <path clip-path="url(#p96c9c0664d)" d="M 158.413977 118.816668 
Q 175.630961 96.600995 186.194433 70.554621 
" style="fill:none;stroke:#ff0000;stroke-linecap:round;stroke-width:2.259669;"/>
    <path clip-path="url(#p96c9c0664d)" d="M 160.429531 117.8484 
L 158.413977 118.816668 
L 158.848696 116.623264 
L 160.429531 117.8484 
z
" style="fill:#ff0000;stroke:#ff0000;stroke-linecap:round;stroke-width:2.259669;"/>
    <path clip-path="url(#p96c9c0664d)" d="M 184.516082 72.032165 
L 186.194433 70.554621 
L 186.369458 72.783828 
L 184.516082 72.032165 
z
" style="fill:#ff0000;stroke:#ff0000;stroke-linecap:round;stroke-width:2.259669;"/>
   </g>
   <g id="patch_13">
    <path clip-path="url(#p96c9c0664d)" d="M 154.800989 145.425383 
Q 159.283632 153.579342 165.127416 160.8201 
" style="fill:none;stroke:#008000;stroke-linecap:round;stroke-width:1.439972;"/>
    <path clip-path="url(#p96c9c0664d)" d="M 154.888183 147.65975 
L 154.800989 145.425383 
L 156.640799 146.696249 
L 154.888183 147.65975 
z
" style="fill:#008000;stroke:#008000;stroke-linecap:round;stroke-width:1.439972;"/>
    <path clip-path="url(#p96c9c0664d)" d="M 164.649508 158.6357 
L 165.127416 160.8201 
L 163.093151 159.891786 
L 164.649508 158.6357 
z
" style="fill:#008000;stroke:#008000;stroke-linecap:round;stroke-width:1.439972;"/>
   </g>
   <g id="patch_14">
    <path clip-path="url(#p96c9c0664d)" d="M 161.994564 138.235198 
Q 191.956764 151.716986 224.494424 156.274181 
" style="fill:none;stroke:#008000;stroke-linecap:round;stroke-width:1.455174;"/>
    <path clip-path="url(#p96c9c0664d)" d="M 163.4081 139.967801 
L 161.994564 138.235198 
L 164.228769 138.143931 
L 163.4081 139.967801 
z
" style="fill:#008000;stroke:#008000;stroke-linecap:round;stroke-width:1.455174;"/>
    <path clip-path="url(#p96c9c0664d)" d="M 222.652462 155.006436 
L 224.494424 156.274181 
L 222.375052 156.987104 
L 222.652462 155.006436 
z
" style="fill:#008000;stroke:#008000;stroke-linecap:round;stroke-width:1.455174;"/>
   </g>
   <g id="patch_15">
    <path clip-path="url(#p96c9c0664d)" d="M 134.377318 137.823445 
Q 120.973223 144.693152 109.349573 154.271397 
" style="fill:none;stroke:#008000;stroke-linecap:round;stroke-width:1.06349;"/>
    <path clip-path="url(#p96c9c0664d)" d="M 132.141361 137.845708 
L 134.377318 137.823445 
L 133.053554 139.625568 
L 132.141361 137.845708 
z
" style="fill:#008000;stroke:#008000;stroke-linecap:round;stroke-width:1.06349;"/>
    <path clip-path="url(#p96c9c0664d)" d="M 111.528992 153.771261 
L 109.349573 154.271397 
L 110.257116 152.227781 
L 111.528992 153.771261 
z
" style="fill:#008000;stroke:#008000;stroke-linecap:round;stroke-width:1.06349;"/>
   </g>
   <g id="patch_16">
    <path clip-path="url(#p96c9c0664d)" d="M 157.603163 142.423291 
Q 181.046061 167.725443 210.658944 185.413131 
" style="fill:none;stroke:#008000;stroke-linecap:round;stroke-width:0.556507;"/>
    <path clip-path="url(#p96c9c0664d)" d="M 158.228903 144.570021 
L 157.603163 142.423291 
L 159.695991 143.210737 
L 158.228903 144.570021 
z
" style="fill:#008000;stroke:#008000;stroke-linecap:round;stroke-width:0.556507;"/>
    <path clip-path="url(#p96c9c0664d)" d="M 209.454702 183.529039 
L 210.658944 185.413131 
L 208.429125 185.246069 
L 209.454702 183.529039 
z
" style="fill:#008000;stroke:#008000;stroke-linecap:round;stroke-width:0.556507;"/>
   </g>
   <g id="patch_17">
    <path clip-path="url(#p96c9c0664d)" d="M 147.998757 115.245341 
Q 147.279718 92.209139 140.707831 70.118398 
" style="fill:none;stroke:#ff0000;stroke-linecap:round;stroke-width:2.155123;"/>
    <path clip-path="url(#p96c9c0664d)" d="M 148.935874 113.215116 
L 147.998757 115.245341 
L 146.936847 113.277512 
L 148.935874 113.215116 
z
" style="fill:#ff0000;stroke:#ff0000;stroke-linecap:round;stroke-width:2.155123;"/>
    <path clip-path="url(#p96c9c0664d)" d="M 140.319635 72.320512 
L 140.707831 70.118398 
L 142.236604 71.750223 
L 140.319635 72.320512 
z
" style="fill:#ff0000;stroke:#ff0000;stroke-linecap:round;stroke-width:2.155123;"/>
   </g>
   <g id="patch_18">
    <path clip-path="url(#p96c9c0664d)" d="M 191.860493 208.249379 
Q 213.815065 192.026041 230.657562 170.542796 
" style="fill:none;stroke:#008000;stroke-linecap:round;stroke-width:1.523438;"/>
    <path clip-path="url(#p96c9c0664d)" d="M 194.063282 207.865029 
L 191.860493 208.249379 
L 192.874687 206.256539 
L 194.063282 207.865029 
z
" style="fill:#008000;stroke:#008000;stroke-linecap:round;stroke-width:1.523438;"/>
    <path clip-path="url(#p96c9c0664d)" d="M 228.636625 171.499777 
L 230.657562 170.542796 
L 230.210585 172.733735 
L 228.636625 171.499777 
z
" style="fill:#008000;stroke:#008000;stroke-linecap:round;stroke-width:1.523438;"/>
   </g>
   <g id="patch_19">
    <path clip-path="url(#p96c9c0664d)" d="M 193.454725 211.5891 
Q 202.676607 207.505839 211.003568 201.816067 
" style="fill:none;stroke:#008000;stroke-linecap:round;stroke-width:1.379515;"/>
    <path clip-path="url(#p96c9c0664d)" d="M 195.688343 211.693742 
L 193.454725 211.5891 
L 194.878609 209.86499 
L 195.688343 211.693742 
z
" style="fill:#008000;stroke:#008000;stroke-linecap:round;stroke-width:1.379515;"/>
    <path clip-path="url(#p96c9c0664d)" d="M 208.78808 202.118746 
L 211.003568 201.816067 
L 209.916418 203.770064 
L 208.78808 202.118746 
z
" style="fill:#008000;stroke:#008000;stroke-linecap:round;stroke-width:1.379515;"/>
   </g>
   <g id="patch_20">
    <path clip-path="url(#p96c9c0664d)" d="M 196.210309 71.259949 
Q 198.537319 78.624412 202.092615 85.480749 
" style="fill:none;stroke:#ff0000;stroke-linecap:round;stroke-width:2.451088;"/>
    <path clip-path="url(#p96c9c0664d)" d="M 195.859368 73.468306 
L 196.210309 71.259949 
L 197.76643 72.865716 
L 195.859368 73.468306 
z
" style="fill:#ff0000;stroke:#ff0000;stroke-linecap:round;stroke-width:2.451088;"/>
    <path clip-path="url(#p96c9c0664d)" d="M 202.059695 83.244924 
L 202.092615 85.480749 
L 200.284203 84.165591 
L 202.059695 83.244924 
z
" style="fill:#ff0000;stroke:#ff0000;stroke-linecap:round;stroke-width:2.451088;"/>
   </g>
   <g id="patch_21">
    <path clip-path="url(#p96c9c0664d)" d="M 201.652724 65.302702 
Q 219.879816 82.997724 242.019999 95.453567 
" style="fill:none;stroke:#008000;stroke-linecap:round;stroke-width:0.1;"/>
    <path clip-path="url(#p96c9c0664d)" d="M 202.39117 67.413318 
L 201.652724 65.302702 
L 203.784284 65.978315 
L 202.39117 67.413318 
z
" style="fill:#008000;stroke:#008000;stroke-linecap:round;stroke-width:0.1;"/>
    <path clip-path="url(#p96c9c0664d)" d="M 240.767235 93.601384 
L 242.019999 95.453567 
L 239.786594 95.344468 
L 240.767235 93.601384 
z
" style="fill:#008000;stroke:#008000;stroke-linecap:round;stroke-width:0.1;"/>
   </g>
   <g id="patch_22">
    <path clip-path="url(#p96c9c0664d)" d="M 175.989929 52.757793 
Q 163.823822 51.384177 151.632698 52.513779 
" style="fill:none;stroke:#ff0000;stroke-linecap:round;stroke-width:2.066324;"/>
    <path clip-path="url(#p96c9c0664d)" d="M 174.114748 51.539722 
L 175.989929 52.757793 
L 173.890363 53.527095 
L 174.114748 51.539722 
z
" style="fill:#ff0000;stroke:#ff0000;stroke-linecap:round;stroke-width:2.066324;"/>
    <path clip-path="url(#p96c9c0664d)" d="M 153.71643 53.324989 
L 151.632698 52.513779 
L 153.531905 51.333519 
L 153.71643 53.324989 
z
" style="fill:#ff0000;stroke:#ff0000;stroke-linecap:round;stroke-width:2.066324;"/>
   </g>
   <g id="patch_23">
    <path clip-path="url(#p96c9c0664d)" d="M 226.330467 102.648084 
Q 232.278166 103.377787 238.267725 103.208342 
" style="fill:none;stroke:#ff0000;stroke-linecap:round;stroke-width:2.084529;"/>
    <path clip-path="url(#p96c9c0664d)" d="M 228.193809 103.884189 
L 226.330467 102.648084 
L 228.437356 101.899073 
L 228.193809 103.884189 
z
" style="fill:#ff0000;stroke:#ff0000;stroke-linecap:round;stroke-width:2.084529;"/>
    <path clip-path="url(#p96c9c0664d)" d="M 236.240246 102.265299 
L 238.267725 103.208342 
L 236.296803 104.2645 
L 236.240246 102.265299 
z
" style="fill:#ff0000;stroke:#ff0000;stroke-linecap:round;stroke-width:2.084529;"/>
   </g>
   <g id="patch_24">
    <path clip-path="url(#p96c9c0664d)" d="M 201.471118 112.626239 
Q 187.720052 133.581611 179.879775 157.387635 
" style="fill:none;stroke:#008000;stroke-linecap:round;stroke-width:1.565408;"/>
    <path clip-path="url(#p96c9c0664d)" d="M 199.537791 113.749736 
L 201.471118 112.626239 
L 201.209919 114.846999 
L 199.537791 113.749736 
z
" style="fill:#008000;stroke:#008000;stroke-linecap:round;stroke-width:1.565408;"/>
    <path clip-path="url(#p96c9c0664d)" d="M 181.455214 155.800817 
L 179.879775 157.387635 
L 179.555584 155.175193 
L 181.455214 155.800817 
z
" style="fill:#008000;stroke:#008000;stroke-linecap:round;stroke-width:1.565408;"/>
   </g>
   <g id="patch_25">
    <path clip-path="url(#p96c9c0664d)" d="M 214.794011 113.362592 
Q 221.274966 130.921722 231.60419 146.530869 
" style="fill:none;stroke:#008000;stroke-linecap:round;stroke-width:0.299332;"/>
    <path clip-path="url(#p96c9c0664d)" d="M 214.548393 115.58513 
L 214.794011 113.362592 
L 216.42467 114.892609 
L 214.548393 115.58513 
z
" style="fill:#008000;stroke:#008000;stroke-linecap:round;stroke-width:0.299332;"/>
    <path clip-path="url(#p96c9c0664d)" d="M 231.334424 144.311133 
L 231.60419 146.530869 
L 229.666542 145.41484 
L 231.334424 144.311133 
z
" style="fill:#008000;stroke:#008000;stroke-linecap:round;stroke-width:0.299332;"/>
   </g>
   <g id="patch_26">
    <path clip-path="url(#p96c9c0664d)" d="M 209.978062 115.570875 
Q 209.900444 147.14119 218.586095 177.493155 
" style="fill:none;stroke:#008000;stroke-linecap:round;stroke-width:1.667821;"/>
    <path clip-path="url(#p96c9c0664d)" d="M 208.973148 117.568411 
L 209.978062 115.570875 
L 210.973142 117.573328 
L 208.973148 117.568411 
z
" style="fill:#008000;stroke:#008000;stroke-linecap:round;stroke-width:1.667821;"/>
    <path clip-path="url(#p96c9c0664d)" d="M 218.997262 175.295214 
L 218.586095 177.493155 
L 217.074443 175.845457 
L 218.997262 175.295214 
z
" style="fill:#008000;stroke:#008000;stroke-linecap:round;stroke-width:1.667821;"/>
   </g>
   <g id="patch_27">
    <path clip-path="url(#p96c9c0664d)" d="M 199.752021 90.67497 
Q 176.321234 71.735387 148.64941 59.818028 
" style="fill:none;stroke:#008000;stroke-linecap:round;stroke-width:0.155933;"/>
    <path clip-path="url(#p96c9c0664d)" d="M 198.825249 88.640002 
L 199.752021 90.67497 
L 197.567984 90.195407 
L 198.825249 88.640002 
z
" style="fill:#008000;stroke:#008000;stroke-linecap:round;stroke-width:0.155933;"/>
    <path clip-path="url(#p96c9c0664d)" d="M 150.090758 61.527565 
L 148.64941 59.818028 
L 150.881848 59.690671 
L 150.090758 61.527565 
z
" style="fill:#008000;stroke:#008000;stroke-linecap:round;stroke-width:0.155933;"/>
   </g>
   <g id="patch_28">
    <path clip-path="url(#p96c9c0664d)" d="M 38.527753 179.367192 
Q 62.467374 177.352165 85.13905 169.403206 
" style="fill:none;stroke:#008000;stroke-linecap:round;stroke-width:0.1;"/>
    <path clip-path="url(#p96c9c0664d)" d="M 40.60458 180.195919 
L 38.527753 179.367192 
L 40.436831 178.202966 
L 40.60458 180.195919 
z
" style="fill:#008000;stroke:#008000;stroke-linecap:round;stroke-width:0.1;"/>
    <path clip-path="url(#p96c9c0664d)" d="M 82.920829 169.121257 
L 85.13905 169.403206 
L 83.582558 171.008613 
L 82.920829 169.121257 
z
" style="fill:#008000;stroke:#008000;stroke-linecap:round;stroke-width:0.1;"/>
   </g>
   <g id="patch_29">
    <path clip-path="url(#p96c9c0664d)" d="M 240.637127 110.539031 
Q 209.481678 130.997072 185.610223 159.620473 
" style="fill:none;stroke:#ff0000;stroke-linecap:round;stroke-width:2.17961;"/>
    <path clip-path="url(#p96c9c0664d)" d="M 238.416447 110.800908 
L 240.637127 110.539031 
L 239.51422 112.472701 
L 238.416447 110.800908 
z
" style="fill:#ff0000;stroke:#ff0000;stroke-linecap:round;stroke-width:2.17961;"/>
    <path clip-path="url(#p96c9c0664d)" d="M 187.659157 158.725001 
L 185.610223 159.620473 
L 186.123206 157.444043 
L 187.659157 158.725001 
z
" style="fill:#ff0000;stroke:#ff0000;stroke-linecap:round;stroke-width:2.17961;"/>
   </g>
   <g id="patch_30">
    <path clip-path="url(#p96c9c0664d)" d="M 248.017623 117.19755 
Q 243.589137 129.016574 241.723512 141.498872 
" style="fill:none;stroke:#ff0000;stroke-linecap:round;stroke-width:2.463632;"/>
    <path clip-path="url(#p96c9c0664d)" d="M 246.379459 118.719529 
L 248.017623 117.19755 
L 248.252307 119.421269 
L 246.379459 118.719529 
z
" style="fill:#ff0000;stroke:#ff0000;stroke-linecap:round;stroke-width:2.463632;"/>
    <path clip-path="url(#p96c9c0664d)" d="M 243.008165 139.668663 
L 241.723512 141.498872 
L 241.030137 139.373023 
L 243.008165 139.668663 
z
" style="fill:#ff0000;stroke:#ff0000;stroke-linecap:round;stroke-width:2.463632;"/>
   </g>
   <g id="patch_31">
    <path clip-path="url(#p96c9c0664d)" d="M 190.84181 171.358055 
Q 208.647566 169.531256 225.5499 163.639686 
" style="fill:none;stroke:#008000;stroke-linecap:round;stroke-width:1.403915;"/>
    <path clip-path="url(#p96c9c0664d)" d="M 192.933427 172.148713 
L 190.84181 171.358055 
L 192.729306 170.159156 
L 192.933427 172.148713 
z
" style="fill:#008000;stroke:#008000;stroke-linecap:round;stroke-width:1.403915;"/>
    <path clip-path="url(#p96c9c0664d)" d="M 223.332196 163.353692 
L 225.5499 163.639686 
L 223.990483 165.242252 
L 223.332196 163.353692 
z
" style="fill:#008000;stroke:#008000;stroke-linecap:round;stroke-width:1.403915;"/>
   </g>
   <g id="patch_32">
    <path clip-path="url(#p96c9c0664d)" d="M 160.685043 168.387856 
Q 137.351224 162.86311 113.379787 163.46496 
" style="fill:none;stroke:#008000;stroke-linecap:round;stroke-width:1.247052;"/>
    <path clip-path="url(#p96c9c0664d)" d="M 158.96925 166.95396 
L 160.685043 168.387856 
L 158.508451 168.900153 
L 158.96925 166.95396 
z
" style="fill:#008000;stroke:#008000;stroke-linecap:round;stroke-width:1.247052;"/>
    <path clip-path="url(#p96c9c0664d)" d="M 115.404256 164.414447 
L 113.379787 163.46496 
L 115.354058 162.415077 
L 115.404256 164.414447 
z
" style="fill:#008000;stroke:#008000;stroke-linecap:round;stroke-width:1.247052;"/>
   </g>
   <g id="patch_33">
    <path clip-path="url(#p96c9c0664d)" d="M 188.562577 180.23555 
Q 198.127186 185.368918 208.483647 188.620801 
" style="fill:none;stroke:#008000;stroke-linecap:round;stroke-width:1.307245;"/>
    <path clip-path="url(#p96c9c0664d)" d="M 189.851911 182.062465 
L 188.562577 180.23555 
L 190.797709 180.300232 
L 189.851911 182.062465 
z
" style="fill:#008000;stroke:#008000;stroke-linecap:round;stroke-width:1.307245;"/>
    <path clip-path="url(#p96c9c0664d)" d="M 206.875076 187.067579 
L 208.483647 188.620801 
L 206.275926 188.975725 
L 206.875076 187.067579 
z
" style="fill:#008000;stroke:#008000;stroke-linecap:round;stroke-width:1.307245;"/>
   </g>
   <g id="patch_34">
    <path clip-path="url(#p96c9c0664d)" d="M 231.467694 171.259049 
Q 229.748859 174.365385 228.389928 177.645045 
" style="fill:none;stroke:#008000;stroke-linecap:round;stroke-width:1.654133;"/>
    <path clip-path="url(#p96c9c0664d)" d="M 229.624401 172.524857 
L 231.467694 171.259049 
L 231.374365 173.493168 
L 229.624401 172.524857 
z
" style="fill:#008000;stroke:#008000;stroke-linecap:round;stroke-width:1.654133;"/>
    <path clip-path="url(#p96c9c0664d)" d="M 230.079347 176.180168 
L 228.389928 177.645045 
L 228.231677 175.414584 
L 230.079347 176.180168 
z
" style="fill:#008000;stroke:#008000;stroke-linecap:round;stroke-width:1.654133;"/>
   </g>
   <g id="patch_35">
    <path clip-path="url(#p96c9c0664d)" d="M 185.299126 148.765712 
C 188.449755 148.765712 191.471767 147.513953 193.699599 145.286122 
C 195.92743 143.058291 197.179188 140.036279 197.179188 136.885649 
C 197.179188 133.73502 195.92743 130.713008 193.699599 128.485176 
C 191.471767 126.257345 188.449755 125.005587 185.299126 125.005587 
C 182.148496 125.005587 179.126484 126.257345 176.898653 128.485176 
C 174.670822 130.713008 173.419063 133.73502 173.419063 136.885649 
C 173.419063 140.036279 174.670822 143.058291 176.898653 145.286122 
C 179.126484 147.513953 182.148496 148.765712 185.299126 148.765712 
z
" style="fill:#1f77b4;"/>
   </g>
   <g id="patch_36">
    <path clip-path="url(#p96c9c0664d)" d="M 148.02939 143.407407 
C 151.180019 143.407407 154.202031 142.155649 156.429863 139.927818 
C 158.657694 137.699986 159.909452 134.677974 159.909452 131.527345 
C 159.909452 128.376716 158.657694 125.354704 156.429863 123.126872 
C 154.202031 120.899041 151.180019 119.647283 148.02939 119.647283 
C 144.87876 119.647283 141.856749 120.899041 139.628917 123.126872 
C 137.401086 125.354704 136.149327 128.376716 136.149327 131.527345 
C 136.149327 134.677974 137.401086 137.699986 139.628917 139.927818 
C 141.856749 142.155649 144.87876 143.407407 148.02939 143.407407 
z
" style="fill:#aec7e8;"/>
   </g>
   <g id="patch_37">
    <path clip-path="url(#p96c9c0664d)" d="M 179.100505 229.016425 
C 182.251135 229.016425 185.273147 227.764666 187.500978 225.536835 
C 189.728809 223.309003 190.980568 220.286992 190.980568 217.136362 
C 190.980568 213.985733 189.728809 210.963721 187.500978 208.735889 
C 185.273147 206.508058 182.251135 205.2563 179.100505 205.2563 
C 175.949876 205.2563 172.927864 206.508058 170.700032 208.735889 
C 168.472201 210.963721 167.220443 213.985733 167.220443 217.136362 
C 167.220443 220.286992 168.472201 223.309003 170.700032 225.536835 
C 172.927864 227.764666 175.949876 229.016425 179.100505 229.016425 
z
" style="fill:#ff7f0e;"/>
   </g>
   <g id="patch_38">
    <path clip-path="url(#p96c9c0664d)" d="M 191.957901 67.107013 
C 195.10853 67.107013 198.130542 65.855255 200.358374 63.627424 
C 202.586205 61.399592 203.837963 58.37758 203.837963 55.226951 
C 203.837963 52.076321 202.586205 49.054309 200.358374 46.826478 
C 198.130542 44.598647 195.10853 43.346888 191.957901 43.346888 
C 188.807271 43.346888 185.78526 44.598647 183.557428 46.826478 
C 181.329597 49.054309 180.077838 52.076321 180.077838 55.226951 
C 180.077838 58.37758 181.329597 61.399592 183.557428 63.627424 
C 185.78526 65.855255 188.807271 67.107013 191.957901 67.107013 
z
" style="fill:#ffbb78;"/>
   </g>
   <g id="patch_39">
    <path clip-path="url(#p96c9c0664d)" d="M 210.412588 111.718628 
C 213.563217 111.718628 216.585229 110.46687 218.813061 108.239038 
C 221.040892 106.011207 222.29265 102.989195 222.29265 99.838565 
C 222.29265 96.687936 221.040892 93.665924 218.813061 91.438093 
C 216.585229 89.210261 213.563217 87.958503 210.412588 87.958503 
C 207.261958 87.958503 204.239947 89.210261 202.012115 91.438093 
C 199.784284 93.665924 198.532525 96.687936 198.532525 99.838565 
C 198.532525 102.989195 199.784284 106.011207 202.012115 108.239038 
C 204.239947 110.46687 207.261958 111.718628 210.412588 111.718628 
z
" style="fill:#2ca02c;"/>
   </g>
   <g id="patch_40">
    <path clip-path="url(#p96c9c0664d)" d="M 24.561881 191.92687 
C 27.71251 191.92687 30.734522 190.675111 32.962353 188.44728 
C 35.190185 186.219448 36.441943 183.197437 36.441943 180.046807 
C 36.441943 176.896178 35.190185 173.874166 32.962353 171.646334 
C 30.734522 169.418503 27.71251 168.166745 24.561881 168.166745 
C 21.411251 168.166745 18.389239 169.418503 16.161408 171.646334 
C 13.933577 173.874166 12.681818 176.896178 12.681818 180.046807 
C 12.681818 183.197437 13.933577 186.219448 16.161408 188.44728 
C 18.389239 190.675111 21.411251 191.92687 24.561881 191.92687 
z
" style="fill:#c49c94;"/>
   </g>
   <g id="patch_41">
    <path clip-path="url(#p96c9c0664d)" d="M 254.438119 113.772889 
C 257.588749 113.772889 260.610761 112.52113 262.838592 110.293299 
C 265.066423 108.065468 266.318182 105.043456 266.318182 101.892826 
C 266.318182 98.742197 265.066423 95.720185 262.838592 93.492353 
C 260.610761 91.264522 257.588749 90.012764 254.438119 90.012764 
C 251.28749 90.012764 248.265478 91.264522 246.037647 93.492353 
C 243.809815 95.720185 242.558057 98.742197 242.558057 101.892826 
C 242.558057 105.043456 243.809815 108.065468 246.037647 110.293299 
C 248.265478 112.52113 251.28749 113.772889 254.438119 113.772889 
z
" style="fill:#98df8a;"/>
   </g>
   <g id="patch_42">
    <path clip-path="url(#p96c9c0664d)" d="M 175.43115 184.251359 
C 178.581779 184.251359 181.603791 182.999601 183.831623 180.771769 
C 186.059454 178.543938 187.311212 175.521926 187.311212 172.371297 
C 187.311212 169.220667 186.059454 166.198655 183.831623 163.970824 
C 181.603791 161.742993 178.581779 160.491234 175.43115 160.491234 
C 172.280521 160.491234 169.258509 161.742993 167.030677 163.970824 
C 164.802846 166.198655 163.551087 169.220667 163.551087 172.371297 
C 163.551087 175.521926 164.802846 178.543938 167.030677 180.771769 
C 169.258509 182.999601 172.280521 184.251359 175.43115 184.251359 
z
" style="fill:#d62728;"/>
   </g>
   <g id="patch_43">
    <path clip-path="url(#p96c9c0664d)" d="M 239.904843 169.921034 
C 243.055472 169.921034 246.077484 168.669276 248.305316 166.441444 
C 250.533147 164.213613 251.784905 161.191601 251.784905 158.040971 
C 251.784905 154.890342 250.533147 151.86833 248.305316 149.640499 
C 246.077484 147.412667 243.055472 146.160909 239.904843 146.160909 
C 236.754214 146.160909 233.732202 147.412667 231.50437 149.640499 
C 229.276539 151.86833 228.02478 154.890342 228.02478 158.040971 
C 228.02478 161.191601 229.276539 164.213613 231.50437 166.441444 
C 233.732202 168.669276 236.754214 169.921034 239.904843 169.921034 
z
" style="fill:#ff9896;"/>
   </g>
   <g id="patch_44">
    <path clip-path="url(#p96c9c0664d)" d="M 98.132137 176.206577 
C 101.282767 176.206577 104.304779 174.954819 106.53261 172.726987 
C 108.760442 170.499156 110.0122 167.477144 110.0122 164.326514 
C 110.0122 161.175885 108.760442 158.153873 106.53261 155.926042 
C 104.304779 153.69821 101.282767 152.446452 98.132137 152.446452 
C 94.981508 152.446452 91.959496 153.69821 89.731665 155.926042 
C 87.503833 158.153873 86.252075 161.175885 86.252075 164.326514 
C 86.252075 167.477144 87.503833 170.499156 89.731665 172.726987 
C 91.959496 174.954819 94.981508 176.206577 98.132137 176.206577 
z
" style="fill:#9467bd;"/>
   </g>
   <g id="patch_45">
    <path clip-path="url(#p96c9c0664d)" d="M 223.297506 204.396975 
C 226.448135 204.396975 229.470147 203.145217 231.697978 200.917385 
C 233.92581 198.689554 235.177568 195.667542 235.177568 192.516913 
C 235.177568 189.366283 233.92581 186.344271 231.697978 184.11644 
C 229.470147 181.888609 226.448135 180.63685 223.297506 180.63685 
C 220.146876 180.63685 217.124864 181.888609 214.897033 184.11644 
C 212.669201 186.344271 211.417443 189.366283 211.417443 192.516913 
C 211.417443 195.667542 212.669201 198.689554 214.897033 200.917385 
C 217.124864 203.145217 220.146876 204.396975 223.297506 204.396975 
z
" style="fill:#c5b0d5;"/>
   </g>
   <g id="patch_46">
    <path clip-path="url(#p96c9c0664d)" d="M 135.612745 66.5437 
C 138.763374 66.5437 141.785386 65.291942 144.013217 63.064111 
C 146.241049 60.836279 147.492807 57.814267 147.492807 54.663638 
C 147.492807 51.513008 146.241049 48.490997 144.013217 46.263165 
C 141.785386 44.035334 138.763374 42.783575 135.612745 42.783575 
C 132.462115 42.783575 129.440103 44.035334 127.212272 46.263165 
C 124.98444 48.490997 123.732682 51.513008 123.732682 54.663638 
C 123.732682 57.814267 124.98444 60.836279 127.212272 63.064111 
C 129.440103 65.291942 132.462115 66.5437 135.612745 66.5437 
z
" style="fill:#8c564b;"/>
   </g>
   <g id="text_1">
    <!-- depr -->
    <defs>
     <path d="M 45.40625 46.390625 
L 45.40625 75.984375 
L 54.390625 75.984375 
L 54.390625 0 
L 45.40625 0 
L 45.40625 8.203125 
Q 42.578125 3.328125 38.25 0.953125 
Q 33.9375 -1.421875 27.875 -1.421875 
Q 17.96875 -1.421875 11.734375 6.484375 
Q 5.515625 14.40625 5.515625 27.296875 
Q 5.515625 40.1875 11.734375 48.09375 
Q 17.96875 56 27.875 56 
Q 33.9375 56 38.25 53.625 
Q 42.578125 51.265625 45.40625 46.390625 
z
M 14.796875 27.296875 
Q 14.796875 17.390625 18.875 11.75 
Q 22.953125 6.109375 30.078125 6.109375 
Q 37.203125 6.109375 41.296875 11.75 
Q 45.40625 17.390625 45.40625 27.296875 
Q 45.40625 37.203125 41.296875 42.84375 
Q 37.203125 48.484375 30.078125 48.484375 
Q 22.953125 48.484375 18.875 42.84375 
Q 14.796875 37.203125 14.796875 27.296875 
z
" id="DejaVuSans-100"/>
     <path d="M 56.203125 29.59375 
L 56.203125 25.203125 
L 14.890625 25.203125 
Q 15.484375 15.921875 20.484375 11.0625 
Q 25.484375 6.203125 34.421875 6.203125 
Q 39.59375 6.203125 44.453125 7.46875 
Q 49.3125 8.734375 54.109375 11.28125 
L 54.109375 2.78125 
Q 49.265625 0.734375 44.1875 -0.34375 
Q 39.109375 -1.421875 33.890625 -1.421875 
Q 20.796875 -1.421875 13.15625 6.1875 
Q 5.515625 13.8125 5.515625 26.8125 
Q 5.515625 40.234375 12.765625 48.109375 
Q 20.015625 56 32.328125 56 
Q 43.359375 56 49.78125 48.890625 
Q 56.203125 41.796875 56.203125 29.59375 
z
M 47.21875 32.234375 
Q 47.125 39.59375 43.09375 43.984375 
Q 39.0625 48.390625 32.421875 48.390625 
Q 24.90625 48.390625 20.390625 44.140625 
Q 15.875 39.890625 15.1875 32.171875 
z
" id="DejaVuSans-101"/>
     <path d="M 18.109375 8.203125 
L 18.109375 -20.796875 
L 9.078125 -20.796875 
L 9.078125 54.6875 
L 18.109375 54.6875 
L 18.109375 46.390625 
Q 20.953125 51.265625 25.265625 53.625 
Q 29.59375 56 35.59375 56 
Q 45.5625 56 51.78125 48.09375 
Q 58.015625 40.1875 58.015625 27.296875 
Q 58.015625 14.40625 51.78125 6.484375 
Q 45.5625 -1.421875 35.59375 -1.421875 
Q 29.59375 -1.421875 25.265625 0.953125 
Q 20.953125 3.328125 18.109375 8.203125 
z
M 48.6875 27.296875 
Q 48.6875 37.203125 44.609375 42.84375 
Q 40.53125 48.484375 33.40625 48.484375 
Q 26.265625 48.484375 22.1875 42.84375 
Q 18.109375 37.203125 18.109375 27.296875 
Q 18.109375 17.390625 22.1875 11.75 
Q 26.265625 6.109375 33.40625 6.109375 
Q 40.53125 6.109375 44.609375 11.75 
Q 48.6875 17.390625 48.6875 27.296875 
z
" id="DejaVuSans-112"/>
     <path d="M 41.109375 46.296875 
Q 39.59375 47.171875 37.8125 47.578125 
Q 36.03125 48 33.890625 48 
Q 26.265625 48 22.1875 43.046875 
Q 18.109375 38.09375 18.109375 28.8125 
L 18.109375 0 
L 9.078125 0 
L 9.078125 54.6875 
L 18.109375 54.6875 
L 18.109375 46.1875 
Q 20.953125 51.171875 25.484375 53.578125 
Q 30.03125 56 36.53125 56 
Q 37.453125 56 38.578125 55.875 
Q 39.703125 55.765625 41.0625 55.515625 
z
" id="DejaVuSans-114"/>
    </defs>
    <g transform="translate(177.033188 138.872399)scale(0.072 -0.072)">
     <use xlink:href="#DejaVuSans-100"/>
     <use x="63.476562" xlink:href="#DejaVuSans-101"/>
     <use x="125" xlink:href="#DejaVuSans-112"/>
     <use x="188.476562" xlink:href="#DejaVuSans-114"/>
    </g>
   </g>
   <g id="text_2">
    <!-- effort -->
    <defs>
     <path d="M 37.109375 75.984375 
L 37.109375 68.5 
L 28.515625 68.5 
Q 23.6875 68.5 21.796875 66.546875 
Q 19.921875 64.59375 19.921875 59.515625 
L 19.921875 54.6875 
L 34.71875 54.6875 
L 34.71875 47.703125 
L 19.921875 47.703125 
L 19.921875 0 
L 10.890625 0 
L 10.890625 47.703125 
L 2.296875 47.703125 
L 2.296875 54.6875 
L 10.890625 54.6875 
L 10.890625 58.5 
Q 10.890625 67.625 15.140625 71.796875 
Q 19.390625 75.984375 28.609375 75.984375 
z
" id="DejaVuSans-102"/>
     <path d="M 30.609375 48.390625 
Q 23.390625 48.390625 19.1875 42.75 
Q 14.984375 37.109375 14.984375 27.296875 
Q 14.984375 17.484375 19.15625 11.84375 
Q 23.34375 6.203125 30.609375 6.203125 
Q 37.796875 6.203125 41.984375 11.859375 
Q 46.1875 17.53125 46.1875 27.296875 
Q 46.1875 37.015625 41.984375 42.703125 
Q 37.796875 48.390625 30.609375 48.390625 
z
M 30.609375 56 
Q 42.328125 56 49.015625 48.375 
Q 55.71875 40.765625 55.71875 27.296875 
Q 55.71875 13.875 49.015625 6.21875 
Q 42.328125 -1.421875 30.609375 -1.421875 
Q 18.84375 -1.421875 12.171875 6.21875 
Q 5.515625 13.875 5.515625 27.296875 
Q 5.515625 40.765625 12.171875 48.375 
Q 18.84375 56 30.609375 56 
z
" id="DejaVuSans-111"/>
     <path d="M 18.3125 70.21875 
L 18.3125 54.6875 
L 36.8125 54.6875 
L 36.8125 47.703125 
L 18.3125 47.703125 
L 18.3125 18.015625 
Q 18.3125 11.328125 20.140625 9.421875 
Q 21.96875 7.515625 27.59375 7.515625 
L 36.8125 7.515625 
L 36.8125 0 
L 27.59375 0 
Q 17.1875 0 13.234375 3.875 
Q 9.28125 7.765625 9.28125 18.015625 
L 9.28125 47.703125 
L 2.6875 47.703125 
L 2.6875 54.6875 
L 9.28125 54.6875 
L 9.28125 70.21875 
z
" id="DejaVuSans-116"/>
    </defs>
    <g transform="translate(138.18564 133.514095)scale(0.072 -0.072)">
     <use xlink:href="#DejaVuSans-101"/>
     <use x="61.523438" xlink:href="#DejaVuSans-102"/>
     <use x="96.728516" xlink:href="#DejaVuSans-102"/>
     <use x="131.933594" xlink:href="#DejaVuSans-111"/>
     <use x="193.115234" xlink:href="#DejaVuSans-114"/>
     <use x="234.228516" xlink:href="#DejaVuSans-116"/>
    </g>
   </g>
   <g id="text_3">
    <!-- sleep -->
    <defs>
     <path d="M 44.28125 53.078125 
L 44.28125 44.578125 
Q 40.484375 46.53125 36.375 47.5 
Q 32.28125 48.484375 27.875 48.484375 
Q 21.1875 48.484375 17.84375 46.4375 
Q 14.5 44.390625 14.5 40.28125 
Q 14.5 37.15625 16.890625 35.375 
Q 19.28125 33.59375 26.515625 31.984375 
L 29.59375 31.296875 
Q 39.15625 29.25 43.1875 25.515625 
Q 47.21875 21.78125 47.21875 15.09375 
Q 47.21875 7.46875 41.1875 3.015625 
Q 35.15625 -1.421875 24.609375 -1.421875 
Q 20.21875 -1.421875 15.453125 -0.5625 
Q 10.6875 0.296875 5.421875 2 
L 5.421875 11.28125 
Q 10.40625 8.6875 15.234375 7.390625 
Q 20.0625 6.109375 24.8125 6.109375 
Q 31.15625 6.109375 34.5625 8.28125 
Q 37.984375 10.453125 37.984375 14.40625 
Q 37.984375 18.0625 35.515625 20.015625 
Q 33.0625 21.96875 24.703125 23.78125 
L 21.578125 24.515625 
Q 13.234375 26.265625 9.515625 29.90625 
Q 5.8125 33.546875 5.8125 39.890625 
Q 5.8125 47.609375 11.28125 51.796875 
Q 16.75 56 26.8125 56 
Q 31.78125 56 36.171875 55.265625 
Q 40.578125 54.546875 44.28125 53.078125 
z
" id="DejaVuSans-115"/>
     <path d="M 9.421875 75.984375 
L 18.40625 75.984375 
L 18.40625 0 
L 9.421875 0 
z
" id="DejaVuSans-108"/>
    </defs>
    <g transform="translate(169.509318 219.123112)scale(0.072 -0.072)">
     <use xlink:href="#DejaVuSans-115"/>
     <use x="52.099609" xlink:href="#DejaVuSans-108"/>
     <use x="79.882812" xlink:href="#DejaVuSans-101"/>
     <use x="141.40625" xlink:href="#DejaVuSans-101"/>
     <use x="202.929688" xlink:href="#DejaVuSans-112"/>
    </g>
   </g>
   <g id="text_4">
    <!-- happy -->
    <defs>
     <path d="M 54.890625 33.015625 
L 54.890625 0 
L 45.90625 0 
L 45.90625 32.71875 
Q 45.90625 40.484375 42.875 44.328125 
Q 39.84375 48.1875 33.796875 48.1875 
Q 26.515625 48.1875 22.3125 43.546875 
Q 18.109375 38.921875 18.109375 30.90625 
L 18.109375 0 
L 9.078125 0 
L 9.078125 75.984375 
L 18.109375 75.984375 
L 18.109375 46.1875 
Q 21.34375 51.125 25.703125 53.5625 
Q 30.078125 56 35.796875 56 
Q 45.21875 56 50.046875 50.171875 
Q 54.890625 44.34375 54.890625 33.015625 
z
" id="DejaVuSans-104"/>
     <path d="M 34.28125 27.484375 
Q 23.390625 27.484375 19.1875 25 
Q 14.984375 22.515625 14.984375 16.5 
Q 14.984375 11.71875 18.140625 8.90625 
Q 21.296875 6.109375 26.703125 6.109375 
Q 34.1875 6.109375 38.703125 11.40625 
Q 43.21875 16.703125 43.21875 25.484375 
L 43.21875 27.484375 
z
M 52.203125 31.203125 
L 52.203125 0 
L 43.21875 0 
L 43.21875 8.296875 
Q 40.140625 3.328125 35.546875 0.953125 
Q 30.953125 -1.421875 24.3125 -1.421875 
Q 15.921875 -1.421875 10.953125 3.296875 
Q 6 8.015625 6 15.921875 
Q 6 25.140625 12.171875 29.828125 
Q 18.359375 34.515625 30.609375 34.515625 
L 43.21875 34.515625 
L 43.21875 35.40625 
Q 43.21875 41.609375 39.140625 45 
Q 35.0625 48.390625 27.6875 48.390625 
Q 23 48.390625 18.546875 47.265625 
Q 14.109375 46.140625 10.015625 43.890625 
L 10.015625 52.203125 
Q 14.9375 54.109375 19.578125 55.046875 
Q 24.21875 56 28.609375 56 
Q 40.484375 56 46.34375 49.84375 
Q 52.203125 43.703125 52.203125 31.203125 
z
" id="DejaVuSans-97"/>
     <path d="M 32.171875 -5.078125 
Q 28.375 -14.84375 24.75 -17.8125 
Q 21.140625 -20.796875 15.09375 -20.796875 
L 7.90625 -20.796875 
L 7.90625 -13.28125 
L 13.1875 -13.28125 
Q 16.890625 -13.28125 18.9375 -11.515625 
Q 21 -9.765625 23.484375 -3.21875 
L 25.09375 0.875 
L 2.984375 54.6875 
L 12.5 54.6875 
L 29.59375 11.921875 
L 46.6875 54.6875 
L 56.203125 54.6875 
z
" id="DejaVuSans-121"/>
    </defs>
    <g transform="translate(180.768651 57.213701)scale(0.072 -0.072)">
     <use xlink:href="#DejaVuSans-104"/>
     <use x="63.378906" xlink:href="#DejaVuSans-97"/>
     <use x="124.658203" xlink:href="#DejaVuSans-112"/>
     <use x="188.134766" xlink:href="#DejaVuSans-112"/>
     <use x="251.611328" xlink:href="#DejaVuSans-121"/>
    </g>
   </g>
   <g id="text_5">
    <!-- lonely -->
    <defs>
     <path d="M 54.890625 33.015625 
L 54.890625 0 
L 45.90625 0 
L 45.90625 32.71875 
Q 45.90625 40.484375 42.875 44.328125 
Q 39.84375 48.1875 33.796875 48.1875 
Q 26.515625 48.1875 22.3125 43.546875 
Q 18.109375 38.921875 18.109375 30.90625 
L 18.109375 0 
L 9.078125 0 
L 9.078125 54.6875 
L 18.109375 54.6875 
L 18.109375 46.1875 
Q 21.34375 51.125 25.703125 53.5625 
Q 30.078125 56 35.796875 56 
Q 45.21875 56 50.046875 50.171875 
Q 54.890625 44.34375 54.890625 33.015625 
z
" id="DejaVuSans-110"/>
    </defs>
    <g transform="translate(199.582213 101.825315)scale(0.072 -0.072)">
     <use xlink:href="#DejaVuSans-108"/>
     <use x="27.783203" xlink:href="#DejaVuSans-111"/>
     <use x="88.964844" xlink:href="#DejaVuSans-110"/>
     <use x="152.34375" xlink:href="#DejaVuSans-101"/>
     <use x="213.867188" xlink:href="#DejaVuSans-108"/>
     <use x="241.650391" xlink:href="#DejaVuSans-121"/>
    </g>
   </g>
   <g id="text_6">
    <!-- unfr -->
    <defs>
     <path d="M 8.5 21.578125 
L 8.5 54.6875 
L 17.484375 54.6875 
L 17.484375 21.921875 
Q 17.484375 14.15625 20.5 10.265625 
Q 23.53125 6.390625 29.59375 6.390625 
Q 36.859375 6.390625 41.078125 11.03125 
Q 45.3125 15.671875 45.3125 23.6875 
L 45.3125 54.6875 
L 54.296875 54.6875 
L 54.296875 0 
L 45.3125 0 
L 45.3125 8.40625 
Q 42.046875 3.421875 37.71875 1 
Q 33.40625 -1.421875 27.6875 -1.421875 
Q 18.265625 -1.421875 13.375 4.4375 
Q 8.5 10.296875 8.5 21.578125 
z
M 31.109375 56 
z
" id="DejaVuSans-117"/>
    </defs>
    <g transform="translate(17.251631 182.033557)scale(0.072 -0.072)">
     <use xlink:href="#DejaVuSans-117"/>
     <use x="63.378906" xlink:href="#DejaVuSans-110"/>
     <use x="126.757812" xlink:href="#DejaVuSans-102"/>
     <use x="161.962891" xlink:href="#DejaVuSans-114"/>
    </g>
   </g>
   <g id="text_7">
    <!-- enjoy -->
    <defs>
     <path d="M 9.421875 54.6875 
L 18.40625 54.6875 
L 18.40625 -0.984375 
Q 18.40625 -11.421875 14.421875 -16.109375 
Q 10.453125 -20.796875 1.609375 -20.796875 
L -1.8125 -20.796875 
L -1.8125 -13.1875 
L 0.59375 -13.1875 
Q 5.71875 -13.1875 7.5625 -10.8125 
Q 9.421875 -8.453125 9.421875 -0.984375 
z
M 9.421875 75.984375 
L 18.40625 75.984375 
L 18.40625 64.59375 
L 9.421875 64.59375 
z
" id="DejaVuSans-106"/>
    </defs>
    <g transform="translate(244.607869 103.879576)scale(0.072 -0.072)">
     <use xlink:href="#DejaVuSans-101"/>
     <use x="61.523438" xlink:href="#DejaVuSans-110"/>
     <use x="124.902344" xlink:href="#DejaVuSans-106"/>
     <use x="152.685547" xlink:href="#DejaVuSans-111"/>
     <use x="213.867188" xlink:href="#DejaVuSans-121"/>
    </g>
   </g>
   <g id="text_8">
    <!-- appet -->
    <g transform="translate(165.027712 174.358047)scale(0.072 -0.072)">
     <use xlink:href="#DejaVuSans-97"/>
     <use x="61.279297" xlink:href="#DejaVuSans-112"/>
     <use x="124.755859" xlink:href="#DejaVuSans-112"/>
     <use x="188.232422" xlink:href="#DejaVuSans-101"/>
     <use x="249.755859" xlink:href="#DejaVuSans-116"/>
    </g>
   </g>
   <g id="text_9">
    <!-- sad -->
    <g transform="translate(233.537905 160.027721)scale(0.072 -0.072)">
     <use xlink:href="#DejaVuSans-115"/>
     <use x="52.099609" xlink:href="#DejaVuSans-97"/>
     <use x="113.378906" xlink:href="#DejaVuSans-100"/>
    </g>
   </g>
   <g id="text_10">
    <!-- dislike -->
    <defs>
     <path d="M 9.421875 54.6875 
L 18.40625 54.6875 
L 18.40625 0 
L 9.421875 0 
z
M 9.421875 75.984375 
L 18.40625 75.984375 
L 18.40625 64.59375 
L 9.421875 64.59375 
z
" id="DejaVuSans-105"/>
     <path d="M 9.078125 75.984375 
L 18.109375 75.984375 
L 18.109375 31.109375 
L 44.921875 54.6875 
L 56.390625 54.6875 
L 27.390625 29.109375 
L 57.625 0 
L 45.90625 0 
L 18.109375 26.703125 
L 18.109375 0 
L 9.078125 0 
z
" id="DejaVuSans-107"/>
    </defs>
    <g transform="translate(86.672887 166.313264)scale(0.072 -0.072)">
     <use xlink:href="#DejaVuSans-100"/>
     <use x="63.476562" xlink:href="#DejaVuSans-105"/>
     <use x="91.259766" xlink:href="#DejaVuSans-115"/>
     <use x="143.359375" xlink:href="#DejaVuSans-108"/>
     <use x="171.142578" xlink:href="#DejaVuSans-105"/>
     <use x="198.925781" xlink:href="#DejaVuSans-107"/>
     <use x="256.789062" xlink:href="#DejaVuSans-101"/>
    </g>
   </g>
   <g id="text_11">
    <!-- getgo -->
    <defs>
     <path d="M 45.40625 27.984375 
Q 45.40625 37.75 41.375 43.109375 
Q 37.359375 48.484375 30.078125 48.484375 
Q 22.859375 48.484375 18.828125 43.109375 
Q 14.796875 37.75 14.796875 27.984375 
Q 14.796875 18.265625 18.828125 12.890625 
Q 22.859375 7.515625 30.078125 7.515625 
Q 37.359375 7.515625 41.375 12.890625 
Q 45.40625 18.265625 45.40625 27.984375 
z
M 54.390625 6.78125 
Q 54.390625 -7.171875 48.1875 -13.984375 
Q 42 -20.796875 29.203125 -20.796875 
Q 24.46875 -20.796875 20.265625 -20.09375 
Q 16.0625 -19.390625 12.109375 -17.921875 
L 12.109375 -9.1875 
Q 16.0625 -11.328125 19.921875 -12.34375 
Q 23.78125 -13.375 27.78125 -13.375 
Q 36.625 -13.375 41.015625 -8.765625 
Q 45.40625 -4.15625 45.40625 5.171875 
L 45.40625 9.625 
Q 42.625 4.78125 38.28125 2.390625 
Q 33.9375 0 27.875 0 
Q 17.828125 0 11.671875 7.65625 
Q 5.515625 15.328125 5.515625 27.984375 
Q 5.515625 40.671875 11.671875 48.328125 
Q 17.828125 56 27.875 56 
Q 33.9375 56 38.28125 53.609375 
Q 42.625 51.21875 45.40625 46.390625 
L 45.40625 54.6875 
L 54.390625 54.6875 
z
" id="DejaVuSans-103"/>
    </defs>
    <g transform="translate(212.897443 194.503663)scale(0.072 -0.072)">
     <use xlink:href="#DejaVuSans-103"/>
     <use x="63.476562" xlink:href="#DejaVuSans-101"/>
     <use x="125" xlink:href="#DejaVuSans-116"/>
     <use x="164.208984" xlink:href="#DejaVuSans-103"/>
     <use x="227.685547" xlink:href="#DejaVuSans-111"/>
    </g>
   </g>
   <g id="text_12">
    <!-- loss -->
    <g transform="translate(128.65912 56.650388)scale(0.072 -0.072)">
     <use xlink:href="#DejaVuSans-108"/>
     <use x="27.783203" xlink:href="#DejaVuSans-111"/>
     <use x="88.964844" xlink:href="#DejaVuSans-115"/>
     <use x="141.064453" xlink:href="#DejaVuSans-115"/>
    </g>
   </g>
  </g>
 </g>
 <defs>
  <clipPath id="p96c9c0664d">
   <rect height="271.8" width="279" x="0" y="0"/>
  </clipPath>
 </defs>
</svg>
