<?xml version="1.0" encoding="utf-8" standalone="no"?>
<!DOCTYPE svg PUBLIC "-//W3C//DTD SVG 1.1//EN"
  "http://www.w3.org/Graphics/SVG/1.1/DTD/svg11.dtd">
<!-- Created with matplotlib (https://matplotlib.org/) -->
<svg height="271.8pt" version="1.1" viewBox="0 0 279 271.8" width="279pt" xmlns="http://www.w3.org/2000/svg" xmlns:xlink="http://www.w3.org/1999/xlink">
 <defs>
  <style type="text/css">
*{stroke-linecap:butt;stroke-linejoin:round;}
  </style>
 </defs>
 <g id="figure_1">
  <g id="patch_1">
   <path d="M 0 271.8 
L 279 271.8 
L 279 0 
L 0 0 
z
" style="fill:none;"/>
  </g>
  <g id="axes_1">
   <g id="patch_2">
    <path clip-path="url(#pf7022e4eea)" d="M 166.734993 132.464472 
Q 166.336014 132.397689 165.934388 132.349333 
" style="fill:none;stroke:#008000;stroke-linecap:round;stroke-width:1.533843;"/>
    <path clip-path="url(#pf7022e4eea)" d="M 164.927523 131.148018 
L 166.734993 132.464472 
L 164.597348 133.120576 
L 164.927523 131.148018 
z
" style="fill:#008000;stroke:#008000;stroke-linecap:round;stroke-width:1.533843;"/>
    <path clip-path="url(#pf7022e4eea)" d="M 167.800511 133.581237 
L 165.934388 132.349333 
L 168.039585 131.595577 
L 167.800511 133.581237 
z
" style="fill:#008000;stroke:#008000;stroke-linecap:round;stroke-width:1.533843;"/>
   </g>
   <g id="patch_3">
    <path clip-path="url(#pf7022e4eea)" d="M 180.163455 154.417484 
Q 175.978407 175.678239 176.844481 197.329108 
" style="fill:none;stroke:#008000;stroke-linecap:round;stroke-width:1.481408;"/>
    <path clip-path="url(#pf7022e4eea)" d="M 178.796008 156.186689 
L 180.163455 154.417484 
L 180.758351 156.572965 
L 178.796008 156.186689 
z
" style="fill:#008000;stroke:#008000;stroke-linecap:round;stroke-width:1.481408;"/>
    <path clip-path="url(#pf7022e4eea)" d="M 177.763743 195.290736 
L 176.844481 197.329108 
L 175.765341 195.370676 
L 177.763743 195.290736 
z
" style="fill:#008000;stroke:#008000;stroke-linecap:round;stroke-width:1.481408;"/>
   </g>
   <g id="patch_4">
    <path clip-path="url(#pf7022e4eea)" d="M 188.734619 118.215086 
Q 192.957103 97.392116 192.167742 76.16052 
" style="fill:none;stroke:#ff0000;stroke-linecap:round;stroke-width:2.5;"/>
    <path clip-path="url(#pf7022e4eea)" d="M 190.112142 116.453715 
L 188.734619 118.215086 
L 188.152036 116.056245 
L 190.112142 116.453715 
z
" style="fill:#ff0000;stroke:#ff0000;stroke-linecap:round;stroke-width:2.5;"/>
    <path clip-path="url(#pf7022e4eea)" d="M 191.242739 78.196292 
L 192.167742 76.16052 
L 193.241358 78.121986 
L 191.242739 78.196292 
z
" style="fill:#ff0000;stroke:#ff0000;stroke-linecap:round;stroke-width:2.5;"/>
   </g>
   <g id="patch_5">
    <path clip-path="url(#pf7022e4eea)" d="M 196.023982 123.338066 
Q 198.503321 120.056214 200.633679 116.537793 
" style="fill:none;stroke:#008000;stroke-linecap:round;stroke-width:1.350716;"/>
    <path clip-path="url(#pf7022e4eea)" d="M 198.027461 122.345054 
L 196.023982 123.338066 
L 196.431661 121.139476 
L 198.027461 122.345054 
z
" style="fill:#008000;stroke:#008000;stroke-linecap:round;stroke-width:1.350716;"/>
    <path clip-path="url(#pf7022e4eea)" d="M 198.742378 117.730681 
L 200.633679 116.537793 
L 200.453209 118.766566 
L 198.742378 117.730681 
z
" style="fill:#008000;stroke:#008000;stroke-linecap:round;stroke-width:1.350716;"/>
   </g>
   <g id="patch_6">
    <path clip-path="url(#pf7022e4eea)" d="M 202.339761 130.916389 
Q 220.391934 124.231887 236.466208 113.639297 
" style="fill:none;stroke:#ff0000;stroke-linecap:round;stroke-width:2.313825;"/>
    <path clip-path="url(#pf7022e4eea)" d="M 204.562555 131.15967 
L 202.339761 130.916389 
L 203.868063 129.284122 
L 204.562555 131.15967 
z
" style="fill:#ff0000;stroke:#ff0000;stroke-linecap:round;stroke-width:2.313825;"/>
    <path clip-path="url(#pf7022e4eea)" d="M 234.245958 113.904791 
L 236.466208 113.639297 
L 235.346452 115.574794 
L 234.245958 113.904791 
z
" style="fill:#ff0000;stroke:#ff0000;stroke-linecap:round;stroke-width:2.313825;"/>
   </g>
   <g id="patch_7">
    <path clip-path="url(#pf7022e4eea)" d="M 177.706478 153.755985 
Q 177.715806 153.724803 177.723919 153.69328 
" style="fill:none;stroke:#008000;stroke-linecap:round;stroke-width:1.591038;"/>
    <path clip-path="url(#pf7022e4eea)" d="M 176.17524 155.385497 
L 177.706478 153.755985 
L 178.091345 155.958683 
L 176.17524 155.385497 
z
" style="fill:#008000;stroke:#008000;stroke-linecap:round;stroke-width:1.591038;"/>
    <path clip-path="url(#pf7022e4eea)" d="M 179.190845 152.00564 
L 177.723919 153.69328 
L 177.253963 151.507155 
L 179.190845 152.00564 
z
" style="fill:#008000;stroke:#008000;stroke-linecap:round;stroke-width:1.591038;"/>
   </g>
   <g id="patch_8">
    <path clip-path="url(#pf7022e4eea)" d="M 198.830835 145.016724 
Q 209.778348 150.387227 221.487556 153.79167 
" style="fill:none;stroke:#008000;stroke-linecap:round;stroke-width:0.248516;"/>
    <path clip-path="url(#pf7022e4eea)" d="M 200.185986 146.795366 
L 198.830835 145.016724 
L 201.066839 144.999789 
L 200.185986 146.795366 
z
" style="fill:#008000;stroke:#008000;stroke-linecap:round;stroke-width:0.248516;"/>
    <path clip-path="url(#pf7022e4eea)" d="M 219.846271 152.273058 
L 221.487556 153.79167 
L 219.287895 154.19353 
L 219.846271 152.273058 
z
" style="fill:#008000;stroke:#008000;stroke-linecap:round;stroke-width:0.248516;"/>
   </g>
   <g id="patch_9">
    <path clip-path="url(#pf7022e4eea)" d="M 166.410782 139.491838 
Q 139.792051 144.281734 115.228814 155.600902 
" style="fill:none;stroke:#008000;stroke-linecap:round;stroke-width:1.51072;"/>
    <path clip-path="url(#pf7022e4eea)" d="M 164.265296 138.861846 
L 166.410782 139.491838 
L 164.619496 140.830231 
L 164.265296 138.861846 
z
" style="fill:#008000;stroke:#008000;stroke-linecap:round;stroke-width:1.51072;"/>
    <path clip-path="url(#pf7022e4eea)" d="M 117.463749 155.672073 
L 115.228814 155.600902 
L 116.626713 153.855657 
L 117.463749 155.672073 
z
" style="fill:#008000;stroke:#008000;stroke-linecap:round;stroke-width:1.51072;"/>
   </g>
   <g id="patch_10">
    <path clip-path="url(#pf7022e4eea)" d="M 192.309245 153.271513 
Q 199.444671 166.397371 209.074379 177.819506 
" style="fill:none;stroke:#008000;stroke-linecap:round;stroke-width:1.685083;"/>
    <path clip-path="url(#pf7022e4eea)" d="M 192.385885 155.506267 
L 192.309245 153.271513 
L 194.143032 154.551054 
L 192.385885 155.506267 
z
" style="fill:#008000;stroke:#008000;stroke-linecap:round;stroke-width:1.685083;"/>
    <path clip-path="url(#pf7022e4eea)" d="M 208.549787 175.645845 
L 209.074379 177.819506 
L 207.020695 176.934983 
L 208.549787 175.645845 
z
" style="fill:#008000;stroke:#008000;stroke-linecap:round;stroke-width:1.685083;"/>
   </g>
   <g id="patch_11">
    <path clip-path="url(#pf7022e4eea)" d="M 151.284578 149.567223 
Q 157.143797 175.603399 169.343525 199.338292 
" style="fill:none;stroke:#008000;stroke-linecap:round;stroke-width:1.708772;"/>
    <path clip-path="url(#pf7022e4eea)" d="M 150.748078 151.737976 
L 151.284578 149.567223 
L 152.69928 151.298874 
L 150.748078 151.737976 
z
" style="fill:#008000;stroke:#008000;stroke-linecap:round;stroke-width:1.708772;"/>
    <path clip-path="url(#pf7022e4eea)" d="M 169.318622 197.102363 
L 169.343525 199.338292 
L 167.53984 198.016656 
L 169.318622 197.102363 
z
" style="fill:#008000;stroke:#008000;stroke-linecap:round;stroke-width:1.708772;"/>
   </g>
   <g id="patch_12">
    <path clip-path="url(#pf7022e4eea)" d="M 159.736354 116.86612 
Q 174.522082 97.270739 184.038382 74.641484 
" style="fill:none;stroke:#ff0000;stroke-linecap:round;stroke-width:2.259669;"/>
    <path clip-path="url(#pf7022e4eea)" d="M 161.739252 115.871937 
L 159.736354 116.86612 
L 160.142747 114.667292 
L 161.739252 115.871937 
z
" style="fill:#ff0000;stroke:#ff0000;stroke-linecap:round;stroke-width:2.259669;"/>
    <path clip-path="url(#pf7022e4eea)" d="M 182.341278 76.09745 
L 184.038382 74.641484 
L 184.184893 76.872747 
L 182.341278 76.09745 
z
" style="fill:#ff0000;stroke:#ff0000;stroke-linecap:round;stroke-width:2.259669;"/>
   </g>
   <g id="patch_13">
    <path clip-path="url(#pf7022e4eea)" d="M 155.912622 147.702882 
Q 159.029216 153.070188 162.813008 157.98986 
" style="fill:none;stroke:#008000;stroke-linecap:round;stroke-width:1.439972;"/>
    <path clip-path="url(#pf7022e4eea)" d="M 156.052133 149.934593 
L 155.912622 147.702882 
L 157.781698 148.9303 
L 156.052133 149.934593 
z
" style="fill:#008000;stroke:#008000;stroke-linecap:round;stroke-width:1.439972;"/>
    <path clip-path="url(#pf7022e4eea)" d="M 162.386371 155.794871 
L 162.813008 157.98986 
L 160.801034 157.014177 
L 162.386371 155.794871 
z
" style="fill:#008000;stroke:#008000;stroke-linecap:round;stroke-width:1.439972;"/>
   </g>
   <g id="patch_14">
    <path clip-path="url(#pf7022e4eea)" d="M 164.123082 139.325098 
Q 190.902353 150.998264 219.782434 155.391563 
" style="fill:none;stroke:#008000;stroke-linecap:round;stroke-width:1.455174;"/>
    <path clip-path="url(#pf7022e4eea)" d="M 165.55688 141.040972 
L 164.123082 139.325098 
L 166.35606 139.207584 
L 165.55688 141.040972 
z
" style="fill:#008000;stroke:#008000;stroke-linecap:round;stroke-width:1.455174;"/>
    <path clip-path="url(#pf7022e4eea)" d="M 217.955573 154.102153 
L 219.782434 155.391563 
L 217.65479 156.079406 
L 217.955573 154.102153 
z
" style="fill:#008000;stroke:#008000;stroke-linecap:round;stroke-width:1.455174;"/>
   </g>
   <g id="patch_15">
    <path clip-path="url(#pf7022e4eea)" d="M 131.968074 139.129624 
Q 121.533125 144.732174 112.250574 152.087825 
" style="fill:none;stroke:#008000;stroke-linecap:round;stroke-width:1.06349;"/>
    <path clip-path="url(#pf7022e4eea)" d="M 129.732952 139.194649 
L 131.968074 139.129624 
L 130.679021 140.956737 
L 129.732952 139.194649 
z
" style="fill:#008000;stroke:#008000;stroke-linecap:round;stroke-width:1.06349;"/>
    <path clip-path="url(#pf7022e4eea)" d="M 114.439157 151.629456 
L 112.250574 152.087825 
L 113.197029 150.061937 
L 114.439157 151.629456 
z
" style="fill:#008000;stroke:#008000;stroke-linecap:round;stroke-width:1.06349;"/>
   </g>
   <g id="patch_16">
    <path clip-path="url(#pf7022e4eea)" d="M 159.155294 144.350056 
Q 180.372863 166.723272 206.658564 182.841832 
" style="fill:none;stroke:#008000;stroke-linecap:round;stroke-width:0.556507;"/>
    <path clip-path="url(#pf7022e4eea)" d="M 159.805934 146.489371 
L 159.155294 144.350056 
L 161.25713 145.113134 
L 159.805934 146.489371 
z
" style="fill:#008000;stroke:#008000;stroke-linecap:round;stroke-width:0.556507;"/>
    <path clip-path="url(#pf7022e4eea)" d="M 205.476342 180.943846 
L 206.658564 182.841832 
L 204.430842 182.648818 
L 205.476342 180.943846 
z
" style="fill:#008000;stroke:#008000;stroke-linecap:round;stroke-width:0.556507;"/>
   </g>
   <g id="patch_17">
    <path clip-path="url(#pf7022e4eea)" d="M 147.666089 112.816718 
Q 146.769174 93.229814 141.453263 74.356759 
" style="fill:none;stroke:#ff0000;stroke-linecap:round;stroke-width:2.155123;"/>
    <path clip-path="url(#pf7022e4eea)" d="M 148.573555 110.773068 
L 147.666089 112.816718 
L 146.575649 110.864555 
L 148.573555 110.773068 
z
" style="fill:#ff0000;stroke:#ff0000;stroke-linecap:round;stroke-width:2.155123;"/>
    <path clip-path="url(#pf7022e4eea)" d="M 141.032951 76.552969 
L 141.453263 74.356759 
L 142.958044 76.010735 
L 141.032951 76.552969 
z
" style="fill:#ff0000;stroke:#ff0000;stroke-linecap:round;stroke-width:2.155123;"/>
   </g>
   <g id="patch_18">
    <path clip-path="url(#pf7022e4eea)" d="M 192.980413 204.927574 
Q 211.919559 190.54031 226.842665 172.020902 
" style="fill:none;stroke:#008000;stroke-linecap:round;stroke-width:1.523438;"/>
    <path clip-path="url(#pf7022e4eea)" d="M 195.177911 204.514047 
L 192.980413 204.927574 
L 193.96809 202.921459 
L 195.177911 204.514047 
z
" style="fill:#008000;stroke:#008000;stroke-linecap:round;stroke-width:1.523438;"/>
    <path clip-path="url(#pf7022e4eea)" d="M 224.809109 172.950768 
L 226.842665 172.020902 
L 226.366424 174.205666 
L 224.809109 172.950768 
z
" style="fill:#008000;stroke:#008000;stroke-linecap:round;stroke-width:1.523438;"/>
   </g>
   <g id="patch_19">
    <path clip-path="url(#pf7022e4eea)" d="M 194.855221 208.705119 
Q 201.17924 205.732065 207.036434 201.920999 
" style="fill:none;stroke:#008000;stroke-linecap:round;stroke-width:1.379515;"/>
    <path clip-path="url(#pf7022e4eea)" d="M 197.090635 208.759199 
L 194.855221 208.705119 
L 196.239734 206.949236 
L 197.090635 208.759199 
z
" style="fill:#008000;stroke:#008000;stroke-linecap:round;stroke-width:1.379515;"/>
    <path clip-path="url(#pf7022e4eea)" d="M 204.814676 202.173569 
L 207.036434 201.920999 
L 205.905435 203.849947 
L 204.814676 202.173569 
z
" style="fill:#008000;stroke:#008000;stroke-linecap:round;stroke-width:1.379515;"/>
   </g>
   <g id="patch_20">
    <path clip-path="url(#pf7022e4eea)" d="M 195.931122 75.417523 
Q 197.433284 79.804257 199.468927 83.970294 
" style="fill:none;stroke:#ff0000;stroke-linecap:round;stroke-width:2.451088;"/>
    <path clip-path="url(#pf7022e4eea)" d="M 195.632984 77.633626 
L 195.931122 75.417523 
L 197.525122 76.985696 
L 195.632984 77.633626 
z
" style="fill:#ff0000;stroke:#ff0000;stroke-linecap:round;stroke-width:2.451088;"/>
    <path clip-path="url(#pf7022e4eea)" d="M 199.489362 81.73432 
L 199.468927 83.970294 
L 197.692408 82.612362 
L 199.489362 81.73432 
z
" style="fill:#ff0000;stroke:#ff0000;stroke-linecap:round;stroke-width:2.451088;"/>
   </g>
   <g id="patch_21">
    <path clip-path="url(#pf7022e4eea)" d="M 202.337301 68.816938 
Q 218.314585 83.882673 237.294549 94.928164 
" style="fill:none;stroke:#008000;stroke-linecap:round;stroke-width:0.1;"/>
    <path clip-path="url(#pf7022e4eea)" d="M 203.106367 70.916589 
L 202.337301 68.816938 
L 204.478462 69.461476 
L 203.106367 70.916589 
z
" style="fill:#008000;stroke:#008000;stroke-linecap:round;stroke-width:0.1;"/>
    <path clip-path="url(#pf7022e4eea)" d="M 236.068938 93.057903 
L 237.294549 94.928164 
L 235.062974 94.786497 
L 236.068938 93.057903 
z
" style="fill:#008000;stroke:#008000;stroke-linecap:round;stroke-width:0.1;"/>
   </g>
   <g id="patch_22">
    <path clip-path="url(#pf7022e4eea)" d="M 172.314641 54.338697 
Q 163.28869 53.504729 154.247891 54.157359 
" style="fill:none;stroke:#ff0000;stroke-linecap:round;stroke-width:2.066324;"/>
    <path clip-path="url(#pf7022e4eea)" d="M 170.415128 53.158929 
L 172.314641 54.338697 
L 170.231119 55.150446 
L 170.415128 53.158929 
z
" style="fill:#ff0000;stroke:#ff0000;stroke-linecap:round;stroke-width:2.066324;"/>
    <path clip-path="url(#pf7022e4eea)" d="M 156.3147 55.010764 
L 154.247891 54.157359 
L 156.170701 53.015955 
L 156.3147 55.010764 
z
" style="fill:#ff0000;stroke:#ff0000;stroke-linecap:round;stroke-width:2.066324;"/>
   </g>
   <g id="patch_23">
    <path clip-path="url(#pf7022e4eea)" d="M 227.291649 103.633408 
Q 230.242413 103.917441 233.206656 103.911175 
" style="fill:none;stroke:#ff0000;stroke-linecap:round;stroke-width:2.084529;"/>
    <path clip-path="url(#pf7022e4eea)" d="M 229.186633 104.820436 
L 227.291649 103.633408 
L 229.378262 102.829638 
L 229.186633 104.820436 
z
" style="fill:#ff0000;stroke:#ff0000;stroke-linecap:round;stroke-width:2.084529;"/>
    <path clip-path="url(#pf7022e4eea)" d="M 231.204546 102.915405 
L 233.206656 103.911175 
L 231.208774 104.9154 
L 231.204546 102.915405 
z
" style="fill:#ff0000;stroke:#ff0000;stroke-linecap:round;stroke-width:2.084529;"/>
   </g>
   <g id="patch_24">
    <path clip-path="url(#pf7022e4eea)" d="M 198.580387 115.546076 
Q 186.983303 133.768458 179.937475 154.185771 
" style="fill:none;stroke:#008000;stroke-linecap:round;stroke-width:1.565408;"/>
    <path clip-path="url(#pf7022e4eea)" d="M 196.662929 116.696447 
L 198.580387 115.546076 
L 198.350209 117.770265 
L 196.662929 116.696447 
z
" style="fill:#008000;stroke:#008000;stroke-linecap:round;stroke-width:1.565408;"/>
    <path clip-path="url(#pf7022e4eea)" d="M 181.535198 152.621391 
L 179.937475 154.185771 
L 179.644605 151.968965 
L 181.535198 152.621391 
z
" style="fill:#008000;stroke:#008000;stroke-linecap:round;stroke-width:1.565408;"/>
   </g>
   <g id="patch_25">
    <path clip-path="url(#pf7022e4eea)" d="M 214.149427 116.511844 
Q 219.746692 130.89868 228.040698 143.919034 
" style="fill:none;stroke:#008000;stroke-linecap:round;stroke-width:0.299332;"/>
    <path clip-path="url(#pf7022e4eea)" d="M 213.942635 118.738329 
L 214.149427 116.511844 
L 215.80654 118.013168 
L 213.942635 118.738329 
z
" style="fill:#008000;stroke:#008000;stroke-linecap:round;stroke-width:0.299332;"/>
    <path clip-path="url(#pf7022e4eea)" d="M 227.809597 141.694941 
L 228.040698 143.919034 
L 226.122762 142.769459 
L 227.809597 141.694941 
z
" style="fill:#008000;stroke:#008000;stroke-linecap:round;stroke-width:0.299332;"/>
   </g>
   <g id="patch_26">
    <path clip-path="url(#pf7022e4eea)" d="M 208.460004 118.893326 
Q 208.728198 146.837947 216.09137 173.79615 
" style="fill:none;stroke:#008000;stroke-linecap:round;stroke-width:1.667821;"/>
    <path clip-path="url(#pf7022e4eea)" d="M 207.479243 120.902831 
L 208.460004 118.893326 
L 209.479151 120.883637 
L 207.479243 120.902831 
z
" style="fill:#008000;stroke:#008000;stroke-linecap:round;stroke-width:1.667821;"/>
    <path clip-path="url(#pf7022e4eea)" d="M 216.529071 171.60334 
L 216.09137 173.79615 
L 214.599742 172.130303 
L 216.529071 171.60334 
z
" style="fill:#008000;stroke:#008000;stroke-linecap:round;stroke-width:1.667821;"/>
   </g>
   <g id="patch_27">
    <path clip-path="url(#pf7022e4eea)" d="M 196.206935 89.902281 
Q 175.317621 73.458985 151.037909 62.629442 
" style="fill:none;stroke:#008000;stroke-linecap:round;stroke-width:0.155933;"/>
    <path clip-path="url(#pf7022e4eea)" d="M 195.25393 87.879466 
L 196.206935 89.902281 
L 194.01688 89.450996 
L 195.25393 87.879466 
z
" style="fill:#008000;stroke:#008000;stroke-linecap:round;stroke-width:0.155933;"/>
    <path clip-path="url(#pf7022e4eea)" d="M 152.457105 64.357413 
L 151.037909 62.629442 
L 153.271803 62.530869 
L 152.457105 64.357413 
z
" style="fill:#008000;stroke:#008000;stroke-linecap:round;stroke-width:0.155933;"/>
   </g>
   <g id="patch_28">
    <path clip-path="url(#pf7022e4eea)" d="M 43.582077 178.149197 
Q 64.09692 176.109474 83.652866 169.58214 
" style="fill:none;stroke:#008000;stroke-linecap:round;stroke-width:0.1;"/>
    <path clip-path="url(#pf7022e4eea)" d="M 45.671203 178.946413 
L 43.582077 178.149197 
L 45.473325 176.956226 
L 45.671203 178.946413 
z
" style="fill:#008000;stroke:#008000;stroke-linecap:round;stroke-width:0.1;"/>
    <path clip-path="url(#pf7022e4eea)" d="M 81.439146 169.266797 
L 83.652866 169.58214 
L 82.072359 171.163911 
L 81.439146 169.266797 
z
" style="fill:#008000;stroke:#008000;stroke-linecap:round;stroke-width:0.1;"/>
   </g>
   <g id="patch_29">
    <path clip-path="url(#pf7022e4eea)" d="M 236.030783 112.709312 
Q 208.215023 131.398328 186.479804 156.903595 
" style="fill:none;stroke:#ff0000;stroke-linecap:round;stroke-width:2.17961;"/>
    <path clip-path="url(#pf7022e4eea)" d="M 233.812996 112.994658 
L 236.030783 112.709312 
L 234.928388 114.654749 
L 233.812996 112.994658 
z
" style="fill:#ff0000;stroke:#ff0000;stroke-linecap:round;stroke-width:2.17961;"/>
    <path clip-path="url(#pf7022e4eea)" d="M 188.538149 156.029973 
L 186.479804 156.903595 
L 187.015914 154.732746 
L 188.538149 156.029973 
z
" style="fill:#ff0000;stroke:#ff0000;stroke-linecap:round;stroke-width:2.17961;"/>
   </g>
   <g id="patch_30">
    <path clip-path="url(#pf7022e4eea)" d="M 244.695347 120.337034 
Q 241.561965 129.227031 239.984782 138.519729 
" style="fill:none;stroke:#ff0000;stroke-linecap:round;stroke-width:2.463632;"/>
    <path clip-path="url(#pf7022e4eea)" d="M 243.087379 121.89088 
L 244.695347 120.337034 
L 244.973643 122.555716 
L 243.087379 121.89088 
z
" style="fill:#ff0000;stroke:#ff0000;stroke-linecap:round;stroke-width:2.463632;"/>
    <path clip-path="url(#pf7022e4eea)" d="M 241.305343 136.715257 
L 239.984782 138.519729 
L 239.333541 136.380597 
L 241.305343 136.715257 
z
" style="fill:#ff0000;stroke:#ff0000;stroke-linecap:round;stroke-width:2.463632;"/>
   </g>
   <g id="patch_31">
    <path clip-path="url(#pf7022e4eea)" d="M 192.566952 170.233155 
Q 207.062795 168.492247 220.93051 163.925144 
" style="fill:none;stroke:#008000;stroke-linecap:round;stroke-width:1.403915;"/>
    <path clip-path="url(#pf7022e4eea)" d="M 194.671923 170.98754 
L 192.566952 170.233155 
L 194.433443 169.001809 
L 194.671923 170.98754 
z
" style="fill:#008000;stroke:#008000;stroke-linecap:round;stroke-width:1.403915;"/>
    <path clip-path="url(#pf7022e4eea)" d="M 218.71807 163.60094 
L 220.93051 163.925144 
L 219.343683 165.500574 
L 218.71807 163.60094 
z
" style="fill:#008000;stroke:#008000;stroke-linecap:round;stroke-width:1.403915;"/>
   </g>
   <g id="patch_32">
    <path clip-path="url(#pf7022e4eea)" d="M 157.437179 167.056247 
Q 137.367956 162.610903 116.81354 162.82762 
" style="fill:none;stroke:#008000;stroke-linecap:round;stroke-width:1.247052;"/>
    <path clip-path="url(#pf7022e4eea)" d="M 155.700766 165.647393 
L 157.437179 167.056247 
L 155.268248 167.600065 
L 155.700766 165.647393 
z
" style="fill:#008000;stroke:#008000;stroke-linecap:round;stroke-width:1.247052;"/>
    <path clip-path="url(#pf7022e4eea)" d="M 118.823972 163.806479 
L 116.81354 162.82762 
L 118.802886 161.80659 
L 118.823972 163.806479 
z
" style="fill:#008000;stroke:#008000;stroke-linecap:round;stroke-width:1.247052;"/>
   </g>
   <g id="patch_33">
    <path clip-path="url(#pf7022e4eea)" d="M 190.039995 180.560207 
Q 196.930651 184.064542 204.253229 186.542608 
" style="fill:none;stroke:#008000;stroke-linecap:round;stroke-width:1.307245;"/>
    <path clip-path="url(#pf7022e4eea)" d="M 191.369392 182.358179 
L 190.039995 180.560207 
L 192.276011 180.575473 
L 191.369392 182.358179 
z
" style="fill:#008000;stroke:#008000;stroke-linecap:round;stroke-width:1.307245;"/>
    <path clip-path="url(#pf7022e4eea)" d="M 202.679326 184.954266 
L 204.253229 186.542608 
L 202.038214 186.848725 
L 202.679326 184.954266 
z
" style="fill:#008000;stroke:#008000;stroke-linecap:round;stroke-width:1.307245;"/>
   </g>
   <g id="patch_34">
    <path clip-path="url(#pf7022e4eea)" d="M 228.137394 173.047376 
Q 227.866019 173.574883 227.622536 174.115811 
" style="fill:none;stroke:#008000;stroke-linecap:round;stroke-width:1.654133;"/>
    <path clip-path="url(#pf7022e4eea)" d="M 226.333242 174.368374 
L 228.137394 173.047376 
L 228.111701 175.283296 
L 226.333242 174.368374 
z
" style="fill:#008000;stroke:#008000;stroke-linecap:round;stroke-width:1.654133;"/>
    <path clip-path="url(#pf7022e4eea)" d="M 229.35533 172.702509 
L 227.622536 174.115811 
L 227.531571 171.881594 
L 229.35533 172.702509 
z
" style="fill:#008000;stroke:#008000;stroke-linecap:round;stroke-width:1.654133;"/>
   </g>
   <g id="patch_35">
    <path clip-path="url(#pf7022e4eea)" d="M 184.291531 151.272702 
C 188.112772 151.272702 191.77802 149.754506 194.480046 147.05248 
C 197.182072 144.350454 198.700268 140.685206 198.700268 136.863965 
C 198.700268 133.042723 197.182072 129.377475 194.480046 126.675449 
C 191.77802 123.973423 188.112772 122.455228 184.291531 122.455228 
C 180.470289 122.455228 176.805041 123.973423 174.103015 126.675449 
C 171.400989 129.377475 169.882794 133.042723 169.882794 136.863965 
C 169.882794 140.685206 171.400989 144.350454 174.103015 147.05248 
C 176.805041 149.754506 180.470289 151.272702 184.291531 151.272702 
z
" style="fill:#1f77b4;"/>
   </g>
   <g id="patch_36">
    <path clip-path="url(#pf7022e4eea)" d="M 147.841741 146.032282 
C 151.662982 146.032282 155.32823 144.514086 158.030256 141.81206 
C 160.732282 139.110035 162.250478 135.444787 162.250478 131.623545 
C 162.250478 127.802303 160.732282 124.137055 158.030256 121.435029 
C 155.32823 118.733003 151.662982 117.214808 147.841741 117.214808 
C 144.020499 117.214808 140.355251 118.733003 137.653225 121.435029 
C 134.951199 124.137055 133.433004 127.802303 133.433004 131.623545 
C 133.433004 135.444787 134.951199 139.110035 137.653225 141.81206 
C 140.355251 144.514086 144.020499 146.032282 147.841741 146.032282 
z
" style="fill:#aec7e8;"/>
   </g>
   <g id="patch_37">
    <path clip-path="url(#pf7022e4eea)" d="M 178.229282 229.757874 
C 182.050523 229.757874 185.715771 228.239678 188.417797 225.537652 
C 191.119823 222.835627 192.638019 219.170379 192.638019 215.349137 
C 192.638019 211.527895 191.119823 207.862647 188.417797 205.160621 
C 185.715771 202.458595 182.050523 200.9404 178.229282 200.9404 
C 174.40804 200.9404 170.742792 202.458595 168.040766 205.160621 
C 165.33874 207.862647 163.820545 211.527895 163.820545 215.349137 
C 163.820545 219.170379 165.33874 222.835627 168.040766 225.537652 
C 170.742792 228.239678 174.40804 229.757874 178.229282 229.757874 
z
" style="fill:#ff7f0e;"/>
   </g>
   <g id="patch_38">
    <path clip-path="url(#pf7022e4eea)" d="M 190.803811 71.41052 
C 194.625052 71.41052 198.2903 69.892325 200.992326 67.190299 
C 203.694352 64.488273 205.212548 60.823025 205.212548 57.001783 
C 205.212548 53.180541 203.694352 49.515293 200.992326 46.813267 
C 198.2903 44.111242 194.625052 42.593046 190.803811 42.593046 
C 186.982569 42.593046 183.317321 44.111242 180.615295 46.813267 
C 177.913269 49.515293 176.395074 53.180541 176.395074 57.001783 
C 176.395074 60.823025 177.913269 64.488273 180.615295 67.190299 
C 183.317321 69.892325 186.982569 71.41052 190.803811 71.41052 
z
" style="fill:#ffbb78;"/>
   </g>
   <g id="patch_39">
    <path clip-path="url(#pf7022e4eea)" d="M 208.852489 115.040665 
C 212.67373 115.040665 216.338978 113.52247 219.041004 110.820444 
C 221.74303 108.118418 223.261226 104.45317 223.261226 100.631928 
C 223.261226 96.810686 221.74303 93.145438 219.041004 90.443413 
C 216.338978 87.741387 212.67373 86.223191 208.852489 86.223191 
C 205.031247 86.223191 201.365999 87.741387 198.663973 90.443413 
C 195.961947 93.145438 194.443752 96.810686 194.443752 100.631928 
C 194.443752 104.45317 195.961947 108.118418 198.663973 110.820444 
C 201.365999 113.52247 205.031247 115.040665 208.852489 115.040665 
z
" style="fill:#2ca02c;"/>
   </g>
   <g id="patch_40">
    <path clip-path="url(#pf7022e4eea)" d="M 27.090555 193.484301 
C 30.911797 193.484301 34.577045 191.966105 37.279071 189.264079 
C 39.981097 186.562053 41.499292 182.896805 41.499292 179.075564 
C 41.499292 175.254322 39.981097 171.589074 37.279071 168.887048 
C 34.577045 166.185022 30.911797 164.666827 27.090555 164.666827 
C 23.269313 164.666827 19.604065 166.185022 16.90204 168.887048 
C 14.200014 171.589074 12.681818 175.254322 12.681818 179.075564 
C 12.681818 182.896805 14.200014 186.562053 16.90204 189.264079 
C 19.604065 191.966105 23.269313 193.484301 27.090555 193.484301 
z
" style="fill:#98df8a;"/>
   </g>
   <g id="patch_41">
    <path clip-path="url(#pf7022e4eea)" d="M 251.909445 117.049732 
C 255.730687 117.049732 259.395935 115.531536 262.09796 112.82951 
C 264.799986 110.127484 266.318182 106.462236 266.318182 102.640995 
C 266.318182 98.819753 264.799986 95.154505 262.09796 92.452479 
C 259.395935 89.750453 255.730687 88.232258 251.909445 88.232258 
C 248.088203 88.232258 244.422955 89.750453 241.720929 92.452479 
C 239.018903 95.154505 237.500708 98.819753 237.500708 102.640995 
C 237.500708 106.462236 239.018903 110.127484 241.720929 112.82951 
C 244.422955 115.531536 248.088203 117.049732 251.909445 117.049732 
z
" style="fill:#d62728;"/>
   </g>
   <g id="patch_42">
    <path clip-path="url(#pf7022e4eea)" d="M 174.640653 185.977654 
C 178.461895 185.977654 182.127143 184.459458 184.829169 181.757433 
C 187.531195 179.055407 189.04939 175.390159 189.04939 171.568917 
C 189.04939 167.747675 187.531195 164.082427 184.829169 161.380401 
C 182.127143 158.678375 178.461895 157.16018 174.640653 157.16018 
C 170.819412 157.16018 167.154164 158.678375 164.452138 161.380401 
C 161.750112 164.082427 160.231916 167.747675 160.231916 171.568917 
C 160.231916 175.390159 161.750112 179.055407 164.452138 181.757433 
C 167.154164 184.459458 170.819412 185.977654 174.640653 185.977654 
z
" style="fill:#ff9896;"/>
   </g>
   <g id="patch_43">
    <path clip-path="url(#pf7022e4eea)" d="M 237.695905 171.9626 
C 241.517147 171.9626 245.182395 170.444405 247.884421 167.742379 
C 250.586447 165.040353 252.104642 161.375105 252.104642 157.553863 
C 252.104642 153.732621 250.586447 150.067373 247.884421 147.365347 
C 245.182395 144.663322 241.517147 143.145126 237.695905 143.145126 
C 233.874663 143.145126 230.209415 144.663322 227.507389 147.365347 
C 224.805363 150.067373 223.287168 153.732621 223.287168 157.553863 
C 223.287168 161.375105 224.805363 165.040353 227.507389 167.742379 
C 230.209415 170.444405 233.874663 171.9626 237.695905 171.9626 
z
" style="fill:#9467bd;"/>
   </g>
   <g id="patch_44">
    <path clip-path="url(#pf7022e4eea)" d="M 99.042243 178.109859 
C 102.863485 178.109859 106.528733 176.591664 109.230759 173.889638 
C 111.932785 171.187612 113.45098 167.522364 113.45098 163.701122 
C 113.45098 159.879881 111.932785 156.214633 109.230759 153.512607 
C 106.528733 150.810581 102.863485 149.292385 99.042243 149.292385 
C 95.221002 149.292385 91.555754 150.810581 88.853728 153.512607 
C 86.151702 156.214633 84.633506 159.879881 84.633506 163.701122 
C 84.633506 167.522364 86.151702 171.187612 88.853728 173.889638 
C 91.555754 176.591664 95.221002 178.109859 99.042243 178.109859 
z
" style="fill:#c5b0d5;"/>
   </g>
   <g id="patch_45">
    <path clip-path="url(#pf7022e4eea)" d="M 221.453934 205.68006 
C 225.275176 205.68006 228.940424 204.161865 231.64245 201.459839 
C 234.344476 198.757813 235.862671 195.092565 235.862671 191.271323 
C 235.862671 187.450081 234.344476 183.784833 231.64245 181.082807 
C 228.940424 178.380781 225.275176 176.862586 221.453934 176.862586 
C 217.632693 176.862586 213.967445 178.380781 211.265419 181.082807 
C 208.563393 183.784833 207.045197 187.450081 207.045197 191.271323 
C 207.045197 195.092565 208.563393 198.757813 211.265419 201.459839 
C 213.967445 204.161865 217.632693 205.68006 221.453934 205.68006 
z
" style="fill:#8c564b;"/>
   </g>
   <g id="patch_46">
    <path clip-path="url(#pf7022e4eea)" d="M 135.698265 70.8596 
C 139.519507 70.8596 143.184755 69.341405 145.886781 66.639379 
C 148.588807 63.937353 150.107002 60.272105 150.107002 56.450863 
C 150.107002 52.629621 148.588807 48.964373 145.886781 46.262348 
C 143.184755 43.560322 139.519507 42.042126 135.698265 42.042126 
C 131.877024 42.042126 128.211776 43.560322 125.50975 46.262348 
C 122.807724 48.964373 121.289528 52.629621 121.289528 56.450863 
C 121.289528 60.272105 122.807724 63.937353 125.50975 66.639379 
C 128.211776 69.341405 131.877024 70.8596 135.698265 70.8596 
z
" style="fill:#c49c94;"/>
   </g>
   <g id="text_1">
    <!-- depr -->
    <defs>
     <path d="M 45.40625 46.390625 
L 45.40625 75.984375 
L 54.390625 75.984375 
L 54.390625 0 
L 45.40625 0 
L 45.40625 8.203125 
Q 42.578125 3.328125 38.25 0.953125 
Q 33.9375 -1.421875 27.875 -1.421875 
Q 17.96875 -1.421875 11.734375 6.484375 
Q 5.515625 14.40625 5.515625 27.296875 
Q 5.515625 40.1875 11.734375 48.09375 
Q 17.96875 56 27.875 56 
Q 33.9375 56 38.25 53.625 
Q 42.578125 51.265625 45.40625 46.390625 
z
M 14.796875 27.296875 
Q 14.796875 17.390625 18.875 11.75 
Q 22.953125 6.109375 30.078125 6.109375 
Q 37.203125 6.109375 41.296875 11.75 
Q 45.40625 17.390625 45.40625 27.296875 
Q 45.40625 37.203125 41.296875 42.84375 
Q 37.203125 48.484375 30.078125 48.484375 
Q 22.953125 48.484375 18.875 42.84375 
Q 14.796875 37.203125 14.796875 27.296875 
z
" id="DejaVuSans-100"/>
     <path d="M 56.203125 29.59375 
L 56.203125 25.203125 
L 14.890625 25.203125 
Q 15.484375 15.921875 20.484375 11.0625 
Q 25.484375 6.203125 34.421875 6.203125 
Q 39.59375 6.203125 44.453125 7.46875 
Q 49.3125 8.734375 54.109375 11.28125 
L 54.109375 2.78125 
Q 49.265625 0.734375 44.1875 -0.34375 
Q 39.109375 -1.421875 33.890625 -1.421875 
Q 20.796875 -1.421875 13.15625 6.1875 
Q 5.515625 13.8125 5.515625 26.8125 
Q 5.515625 40.234375 12.765625 48.109375 
Q 20.015625 56 32.328125 56 
Q 43.359375 56 49.78125 48.890625 
Q 56.203125 41.796875 56.203125 29.59375 
z
M 47.21875 32.234375 
Q 47.125 39.59375 43.09375 43.984375 
Q 39.0625 48.390625 32.421875 48.390625 
Q 24.90625 48.390625 20.390625 44.140625 
Q 15.875 39.890625 15.1875 32.171875 
z
" id="DejaVuSans-101"/>
     <path d="M 18.109375 8.203125 
L 18.109375 -20.796875 
L 9.078125 -20.796875 
L 9.078125 54.6875 
L 18.109375 54.6875 
L 18.109375 46.390625 
Q 20.953125 51.265625 25.265625 53.625 
Q 29.59375 56 35.59375 56 
Q 45.5625 56 51.78125 48.09375 
Q 58.015625 40.1875 58.015625 27.296875 
Q 58.015625 14.40625 51.78125 6.484375 
Q 45.5625 -1.421875 35.59375 -1.421875 
Q 29.59375 -1.421875 25.265625 0.953125 
Q 20.953125 3.328125 18.109375 8.203125 
z
M 48.6875 27.296875 
Q 48.6875 37.203125 44.609375 42.84375 
Q 40.53125 48.484375 33.40625 48.484375 
Q 26.265625 48.484375 22.1875 42.84375 
Q 18.109375 37.203125 18.109375 27.296875 
Q 18.109375 17.390625 22.1875 11.75 
Q 26.265625 6.109375 33.40625 6.109375 
Q 40.53125 6.109375 44.609375 11.75 
Q 48.6875 17.390625 48.6875 27.296875 
z
" id="DejaVuSans-112"/>
     <path d="M 41.109375 46.296875 
Q 39.59375 47.171875 37.8125 47.578125 
Q 36.03125 48 33.890625 48 
Q 26.265625 48 22.1875 43.046875 
Q 18.109375 38.09375 18.109375 28.8125 
L 18.109375 0 
L 9.078125 0 
L 9.078125 54.6875 
L 18.109375 54.6875 
L 18.109375 46.1875 
Q 20.953125 51.171875 25.484375 53.578125 
Q 30.03125 56 36.53125 56 
Q 37.453125 56 38.578125 55.875 
Q 39.703125 55.765625 41.0625 55.515625 
z
" id="DejaVuSans-114"/>
    </defs>
    <g transform="translate(170.623708 140.149079)scale(0.119053 -0.119053)">
     <use xlink:href="#DejaVuSans-100"/>
     <use x="63.476562" xlink:href="#DejaVuSans-101"/>
     <use x="125" xlink:href="#DejaVuSans-112"/>
     <use x="188.476562" xlink:href="#DejaVuSans-114"/>
    </g>
   </g>
   <g id="text_2">
    <!-- effort -->
    <defs>
     <path d="M 37.109375 75.984375 
L 37.109375 68.5 
L 28.515625 68.5 
Q 23.6875 68.5 21.796875 66.546875 
Q 19.921875 64.59375 19.921875 59.515625 
L 19.921875 54.6875 
L 34.71875 54.6875 
L 34.71875 47.703125 
L 19.921875 47.703125 
L 19.921875 0 
L 10.890625 0 
L 10.890625 47.703125 
L 2.296875 47.703125 
L 2.296875 54.6875 
L 10.890625 54.6875 
L 10.890625 58.5 
Q 10.890625 67.625 15.140625 71.796875 
Q 19.390625 75.984375 28.609375 75.984375 
z
" id="DejaVuSans-102"/>
     <path d="M 30.609375 48.390625 
Q 23.390625 48.390625 19.1875 42.75 
Q 14.984375 37.109375 14.984375 27.296875 
Q 14.984375 17.484375 19.15625 11.84375 
Q 23.34375 6.203125 30.609375 6.203125 
Q 37.796875 6.203125 41.984375 11.859375 
Q 46.1875 17.53125 46.1875 27.296875 
Q 46.1875 37.015625 41.984375 42.703125 
Q 37.796875 48.390625 30.609375 48.390625 
z
M 30.609375 56 
Q 42.328125 56 49.015625 48.375 
Q 55.71875 40.765625 55.71875 27.296875 
Q 55.71875 13.875 49.015625 6.21875 
Q 42.328125 -1.421875 30.609375 -1.421875 
Q 18.84375 -1.421875 12.171875 6.21875 
Q 5.515625 13.875 5.515625 27.296875 
Q 5.515625 40.765625 12.171875 48.375 
Q 18.84375 56 30.609375 56 
z
" id="DejaVuSans-111"/>
     <path d="M 18.3125 70.21875 
L 18.3125 54.6875 
L 36.8125 54.6875 
L 36.8125 47.703125 
L 18.3125 47.703125 
L 18.3125 18.015625 
Q 18.3125 11.328125 20.140625 9.421875 
Q 21.96875 7.515625 27.59375 7.515625 
L 36.8125 7.515625 
L 36.8125 0 
L 27.59375 0 
Q 17.1875 0 13.234375 3.875 
Q 9.28125 7.765625 9.28125 18.015625 
L 9.28125 47.703125 
L 2.6875 47.703125 
L 2.6875 54.6875 
L 9.28125 54.6875 
L 9.28125 70.21875 
z
" id="DejaVuSans-116"/>
    </defs>
    <g transform="translate(131.564987 134.908659)scale(0.119053 -0.119053)">
     <use xlink:href="#DejaVuSans-101"/>
     <use x="61.523438" xlink:href="#DejaVuSans-102"/>
     <use x="96.728516" xlink:href="#DejaVuSans-102"/>
     <use x="131.933594" xlink:href="#DejaVuSans-111"/>
     <use x="193.115234" xlink:href="#DejaVuSans-114"/>
     <use x="234.228516" xlink:href="#DejaVuSans-116"/>
    </g>
   </g>
   <g id="text_3">
    <!-- sleep -->
    <defs>
     <path d="M 44.28125 53.078125 
L 44.28125 44.578125 
Q 40.484375 46.53125 36.375 47.5 
Q 32.28125 48.484375 27.875 48.484375 
Q 21.1875 48.484375 17.84375 46.4375 
Q 14.5 44.390625 14.5 40.28125 
Q 14.5 37.15625 16.890625 35.375 
Q 19.28125 33.59375 26.515625 31.984375 
L 29.59375 31.296875 
Q 39.15625 29.25 43.1875 25.515625 
Q 47.21875 21.78125 47.21875 15.09375 
Q 47.21875 7.46875 41.1875 3.015625 
Q 35.15625 -1.421875 24.609375 -1.421875 
Q 20.21875 -1.421875 15.453125 -0.5625 
Q 10.6875 0.296875 5.421875 2 
L 5.421875 11.28125 
Q 10.40625 8.6875 15.234375 7.390625 
Q 20.0625 6.109375 24.8125 6.109375 
Q 31.15625 6.109375 34.5625 8.28125 
Q 37.984375 10.453125 37.984375 14.40625 
Q 37.984375 18.0625 35.515625 20.015625 
Q 33.0625 21.96875 24.703125 23.78125 
L 21.578125 24.515625 
Q 13.234375 26.265625 9.515625 29.90625 
Q 5.8125 33.546875 5.8125 39.890625 
Q 5.8125 47.609375 11.28125 51.796875 
Q 16.75 56 26.8125 56 
Q 31.78125 56 36.171875 55.265625 
Q 40.578125 54.546875 44.28125 53.078125 
z
" id="DejaVuSans-115"/>
     <path d="M 9.421875 75.984375 
L 18.40625 75.984375 
L 18.40625 0 
L 9.421875 0 
z
" id="DejaVuSans-108"/>
    </defs>
    <g transform="translate(162.370143 218.634251)scale(0.119053 -0.119053)">
     <use xlink:href="#DejaVuSans-115"/>
     <use x="52.099609" xlink:href="#DejaVuSans-108"/>
     <use x="79.882812" xlink:href="#DejaVuSans-101"/>
     <use x="141.40625" xlink:href="#DejaVuSans-101"/>
     <use x="202.929688" xlink:href="#DejaVuSans-112"/>
    </g>
   </g>
   <g id="text_4">
    <!-- happy -->
    <defs>
     <path d="M 54.890625 33.015625 
L 54.890625 0 
L 45.90625 0 
L 45.90625 32.71875 
Q 45.90625 40.484375 42.875 44.328125 
Q 39.84375 48.1875 33.796875 48.1875 
Q 26.515625 48.1875 22.3125 43.546875 
Q 18.109375 38.921875 18.109375 30.90625 
L 18.109375 0 
L 9.078125 0 
L 9.078125 75.984375 
L 18.109375 75.984375 
L 18.109375 46.1875 
Q 21.34375 51.125 25.703125 53.5625 
Q 30.078125 56 35.796875 56 
Q 45.21875 56 50.046875 50.171875 
Q 54.890625 44.34375 54.890625 33.015625 
z
" id="DejaVuSans-104"/>
     <path d="M 34.28125 27.484375 
Q 23.390625 27.484375 19.1875 25 
Q 14.984375 22.515625 14.984375 16.5 
Q 14.984375 11.71875 18.140625 8.90625 
Q 21.296875 6.109375 26.703125 6.109375 
Q 34.1875 6.109375 38.703125 11.40625 
Q 43.21875 16.703125 43.21875 25.484375 
L 43.21875 27.484375 
z
M 52.203125 31.203125 
L 52.203125 0 
L 43.21875 0 
L 43.21875 8.296875 
Q 40.140625 3.328125 35.546875 0.953125 
Q 30.953125 -1.421875 24.3125 -1.421875 
Q 15.921875 -1.421875 10.953125 3.296875 
Q 6 8.015625 6 15.921875 
Q 6 25.140625 12.171875 29.828125 
Q 18.359375 34.515625 30.609375 34.515625 
L 43.21875 34.515625 
L 43.21875 35.40625 
Q 43.21875 41.609375 39.140625 45 
Q 35.0625 48.390625 27.6875 48.390625 
Q 23 48.390625 18.546875 47.265625 
Q 14.109375 46.140625 10.015625 43.890625 
L 10.015625 52.203125 
Q 14.9375 54.109375 19.578125 55.046875 
Q 24.21875 56 28.609375 56 
Q 40.484375 56 46.34375 49.84375 
Q 52.203125 43.703125 52.203125 31.203125 
z
" id="DejaVuSans-97"/>
     <path d="M 32.171875 -5.078125 
Q 28.375 -14.84375 24.75 -17.8125 
Q 21.140625 -20.796875 15.09375 -20.796875 
L 7.90625 -20.796875 
L 7.90625 -13.28125 
L 13.1875 -13.28125 
Q 16.890625 -13.28125 18.9375 -11.515625 
Q 21 -9.765625 23.484375 -3.21875 
L 25.09375 0.875 
L 2.984375 54.6875 
L 12.5 54.6875 
L 29.59375 11.921875 
L 46.6875 54.6875 
L 56.203125 54.6875 
z
" id="DejaVuSans-121"/>
    </defs>
    <g transform="translate(172.302257 60.286897)scale(0.119053 -0.119053)">
     <use xlink:href="#DejaVuSans-104"/>
     <use x="63.378906" xlink:href="#DejaVuSans-97"/>
     <use x="124.658203" xlink:href="#DejaVuSans-112"/>
     <use x="188.134766" xlink:href="#DejaVuSans-112"/>
     <use x="251.611328" xlink:href="#DejaVuSans-121"/>
    </g>
   </g>
   <g id="text_5">
    <!-- lonely -->
    <defs>
     <path d="M 54.890625 33.015625 
L 54.890625 0 
L 45.90625 0 
L 45.90625 32.71875 
Q 45.90625 40.484375 42.875 44.328125 
Q 39.84375 48.1875 33.796875 48.1875 
Q 26.515625 48.1875 22.3125 43.546875 
Q 18.109375 38.921875 18.109375 30.90625 
L 18.109375 0 
L 9.078125 0 
L 9.078125 54.6875 
L 18.109375 54.6875 
L 18.109375 46.1875 
Q 21.34375 51.125 25.703125 53.5625 
Q 30.078125 56 35.796875 56 
Q 45.21875 56 50.046875 50.171875 
Q 54.890625 44.34375 54.890625 33.015625 
z
" id="DejaVuSans-110"/>
    </defs>
    <g transform="translate(190.944339 103.917042)scale(0.119053 -0.119053)">
     <use xlink:href="#DejaVuSans-108"/>
     <use x="27.783203" xlink:href="#DejaVuSans-111"/>
     <use x="88.964844" xlink:href="#DejaVuSans-110"/>
     <use x="152.34375" xlink:href="#DejaVuSans-101"/>
     <use x="213.867188" xlink:href="#DejaVuSans-108"/>
     <use x="241.650391" xlink:href="#DejaVuSans-121"/>
    </g>
   </g>
   <g id="text_6">
    <!-- unfr -->
    <defs>
     <path d="M 8.5 21.578125 
L 8.5 54.6875 
L 17.484375 54.6875 
L 17.484375 21.921875 
Q 17.484375 14.15625 20.5 10.265625 
Q 23.53125 6.390625 29.59375 6.390625 
Q 36.859375 6.390625 41.078125 11.03125 
Q 45.3125 15.671875 45.3125 23.6875 
L 45.3125 54.6875 
L 54.296875 54.6875 
L 54.296875 0 
L 45.3125 0 
L 45.3125 8.40625 
Q 42.046875 3.421875 37.71875 1 
Q 33.40625 -1.421875 27.6875 -1.421875 
Q 18.265625 -1.421875 13.375 4.4375 
Q 8.5 10.296875 8.5 21.578125 
z
M 31.109375 56 
z
" id="DejaVuSans-117"/>
    </defs>
    <g transform="translate(15.002973 182.360677)scale(0.119053 -0.119053)">
     <use xlink:href="#DejaVuSans-117"/>
     <use x="63.378906" xlink:href="#DejaVuSans-110"/>
     <use x="126.757812" xlink:href="#DejaVuSans-102"/>
     <use x="161.962891" xlink:href="#DejaVuSans-114"/>
    </g>
   </g>
   <g id="text_7">
    <!-- enjoy -->
    <defs>
     <path d="M 9.421875 54.6875 
L 18.40625 54.6875 
L 18.40625 -0.984375 
Q 18.40625 -11.421875 14.421875 -16.109375 
Q 10.453125 -20.796875 1.609375 -20.796875 
L -1.8125 -20.796875 
L -1.8125 -13.1875 
L 0.59375 -13.1875 
Q 5.71875 -13.1875 7.5625 -10.8125 
Q 9.421875 -8.453125 9.421875 -0.984375 
z
M 9.421875 75.984375 
L 18.40625 75.984375 
L 18.40625 64.59375 
L 9.421875 64.59375 
z
" id="DejaVuSans-106"/>
    </defs>
    <g transform="translate(235.655014 105.926109)scale(0.119053 -0.119053)">
     <use xlink:href="#DejaVuSans-101"/>
     <use x="61.523438" xlink:href="#DejaVuSans-110"/>
     <use x="124.902344" xlink:href="#DejaVuSans-106"/>
     <use x="152.685547" xlink:href="#DejaVuSans-111"/>
     <use x="213.867188" xlink:href="#DejaVuSans-121"/>
    </g>
   </g>
   <g id="text_8">
    <!-- appet -->
    <g transform="translate(157.43845 174.854031)scale(0.119053 -0.119053)">
     <use xlink:href="#DejaVuSans-97"/>
     <use x="61.279297" xlink:href="#DejaVuSans-112"/>
     <use x="124.755859" xlink:href="#DejaVuSans-112"/>
     <use x="188.232422" xlink:href="#DejaVuSans-101"/>
     <use x="249.755859" xlink:href="#DejaVuSans-116"/>
    </g>
   </g>
   <g id="text_9">
    <!-- sad -->
    <g transform="translate(227.168101 160.838977)scale(0.119053 -0.119053)">
     <use xlink:href="#DejaVuSans-115"/>
     <use x="52.099609" xlink:href="#DejaVuSans-97"/>
     <use x="113.378906" xlink:href="#DejaVuSans-100"/>
    </g>
   </g>
   <g id="text_10">
    <!-- dislike -->
    <defs>
     <path d="M 9.421875 54.6875 
L 18.40625 54.6875 
L 18.40625 0 
L 9.421875 0 
z
M 9.421875 75.984375 
L 18.40625 75.984375 
L 18.40625 64.59375 
L 9.421875 64.59375 
z
" id="DejaVuSans-105"/>
     <path d="M 9.078125 75.984375 
L 18.109375 75.984375 
L 18.109375 31.109375 
L 44.921875 54.6875 
L 56.390625 54.6875 
L 27.390625 29.109375 
L 57.625 0 
L 45.90625 0 
L 18.109375 26.703125 
L 18.109375 0 
L 9.078125 0 
z
" id="DejaVuSans-107"/>
    </defs>
    <g transform="translate(80.094242 166.986236)scale(0.119053 -0.119053)">
     <use xlink:href="#DejaVuSans-100"/>
     <use x="63.476562" xlink:href="#DejaVuSans-105"/>
     <use x="91.259766" xlink:href="#DejaVuSans-115"/>
     <use x="143.359375" xlink:href="#DejaVuSans-108"/>
     <use x="171.142578" xlink:href="#DejaVuSans-105"/>
     <use x="198.925781" xlink:href="#DejaVuSans-107"/>
     <use x="256.789062" xlink:href="#DejaVuSans-101"/>
    </g>
   </g>
   <g id="text_11">
    <!-- getgo -->
    <defs>
     <path d="M 45.40625 27.984375 
Q 45.40625 37.75 41.375 43.109375 
Q 37.359375 48.484375 30.078125 48.484375 
Q 22.859375 48.484375 18.828125 43.109375 
Q 14.796875 37.75 14.796875 27.984375 
Q 14.796875 18.265625 18.828125 12.890625 
Q 22.859375 7.515625 30.078125 7.515625 
Q 37.359375 7.515625 41.375 12.890625 
Q 45.40625 18.265625 45.40625 27.984375 
z
M 54.390625 6.78125 
Q 54.390625 -7.171875 48.1875 -13.984375 
Q 42 -20.796875 29.203125 -20.796875 
Q 24.46875 -20.796875 20.265625 -20.09375 
Q 16.0625 -19.390625 12.109375 -17.921875 
L 12.109375 -9.1875 
Q 16.0625 -11.328125 19.921875 -12.34375 
Q 23.78125 -13.375 27.78125 -13.375 
Q 36.625 -13.375 41.015625 -8.765625 
Q 45.40625 -4.15625 45.40625 5.171875 
L 45.40625 9.625 
Q 42.625 4.78125 38.28125 2.390625 
Q 33.9375 0 27.875 0 
Q 17.828125 0 11.671875 7.65625 
Q 5.515625 15.328125 5.515625 27.984375 
Q 5.515625 40.671875 11.671875 48.328125 
Q 17.828125 56 27.875 56 
Q 33.9375 56 38.28125 53.609375 
Q 42.625 51.21875 45.40625 46.390625 
L 45.40625 54.6875 
L 54.390625 54.6875 
z
" id="DejaVuSans-103"/>
    </defs>
    <g transform="translate(204.257312 194.556437)scale(0.119053 -0.119053)">
     <use xlink:href="#DejaVuSans-103"/>
     <use x="63.476562" xlink:href="#DejaVuSans-101"/>
     <use x="125" xlink:href="#DejaVuSans-116"/>
     <use x="164.208984" xlink:href="#DejaVuSans-103"/>
     <use x="227.685547" xlink:href="#DejaVuSans-111"/>
    </g>
   </g>
   <g id="text_12">
    <!-- loss -->
    <g transform="translate(124.200367 59.735977)scale(0.119053 -0.119053)">
     <use xlink:href="#DejaVuSans-108"/>
     <use x="27.783203" xlink:href="#DejaVuSans-111"/>
     <use x="88.964844" xlink:href="#DejaVuSans-115"/>
     <use x="141.064453" xlink:href="#DejaVuSans-115"/>
    </g>
   </g>
  </g>
 </g>
 <defs>
  <clipPath id="pf7022e4eea">
   <rect height="271.8" width="279" x="0" y="0"/>
  </clipPath>
 </defs>
</svg>
