<?xml version="1.0" encoding="utf-8" standalone="no"?>
<!DOCTYPE svg PUBLIC "-//W3C//DTD SVG 1.1//EN"
  "http://www.w3.org/Graphics/SVG/1.1/DTD/svg11.dtd">
<!-- Created with matplotlib (https://matplotlib.org/) -->
<svg height="396pt" version="1.1" viewBox="0 0 576 396" width="576pt" xmlns="http://www.w3.org/2000/svg" xmlns:xlink="http://www.w3.org/1999/xlink">
 <defs>
  <style type="text/css">
*{stroke-linecap:butt;stroke-linejoin:round;}
  </style>
 </defs>
 <g id="figure_1">
  <g id="patch_1">
   <path d="M 0 396 
L 576 396 
L 576 0 
L 0 0 
z
" style="fill:#ffffff;"/>
  </g>
  <g id="axes_1">
   <g id="patch_2">
    <path clip-path="url(#p874f7f4ace)" d="M 385.159252 174.736456 
Q 364.394618 136.878616 334.807065 105.43101 
" style="fill:none;stroke:#008000;stroke-linecap:round;stroke-width:2;"/>
    <path clip-path="url(#p874f7f4ace)" d="M 385.074223 172.502006 
L 385.159252 174.736456 
L 383.320674 173.463809 
L 385.074223 172.502006 
z
" style="fill:#008000;stroke:#008000;stroke-linecap:round;stroke-width:2;"/>
    <path clip-path="url(#p874f7f4ace)" d="M 335.449226 107.572885 
L 334.807065 105.43101 
L 336.905862 106.202406 
L 335.449226 107.572885 
z
" style="fill:#008000;stroke:#008000;stroke-linecap:round;stroke-width:2;"/>
   </g>
   <g id="patch_3">
    <path clip-path="url(#p874f7f4ace)" d="M 372.905247 186.682243 
Q 294.671037 147.136478 208.130641 133.154406 
" style="fill:none;stroke:#008000;stroke-linecap:round;stroke-width:2;"/>
    <path clip-path="url(#p874f7f4ace)" d="M 371.571443 184.887537 
L 372.905247 186.682243 
L 370.669201 186.672463 
L 371.571443 184.887537 
z
" style="fill:#008000;stroke:#008000;stroke-linecap:round;stroke-width:2;"/>
    <path clip-path="url(#p874f7f4ace)" d="M 209.945538 134.460601 
L 208.130641 133.154406 
L 210.264535 132.486205 
L 209.945538 134.460601 
z
" style="fill:#008000;stroke:#008000;stroke-linecap:round;stroke-width:2;"/>
   </g>
   <g id="patch_4">
    <path clip-path="url(#p874f7f4ace)" d="M 377.885315 219.949418 
Q 348.297755 251.397185 327.533169 289.255227 
" style="fill:none;stroke:#008000;stroke-linecap:round;stroke-width:2;"/>
    <path clip-path="url(#p874f7f4ace)" d="M 375.78652 220.720819 
L 377.885315 219.949418 
L 377.243159 222.091295 
L 375.78652 220.720819 
z
" style="fill:#008000;stroke:#008000;stroke-linecap:round;stroke-width:2;"/>
    <path clip-path="url(#p874f7f4ace)" d="M 329.371743 287.982574 
L 327.533169 289.255227 
L 327.61819 287.020776 
L 329.371743 287.982574 
z
" style="fill:#008000;stroke:#008000;stroke-linecap:round;stroke-width:2;"/>
   </g>
   <g id="patch_5">
    <path clip-path="url(#p874f7f4ace)" d="M 294.394393 105.134771 
Q 232.583027 167.334936 192.530983 245.344189 
" style="fill:none;stroke:#008000;stroke-linecap:round;stroke-width:2;"/>
    <path clip-path="url(#p874f7f4ace)" d="M 292.2753 105.848525 
L 294.394393 105.134771 
L 293.69394 107.258298 
L 292.2753 105.848525 
z
" style="fill:#008000;stroke:#008000;stroke-linecap:round;stroke-width:2;"/>
    <path clip-path="url(#p874f7f4ace)" d="M 194.334068 244.021736 
L 192.530983 245.344189 
L 192.554872 243.108249 
L 194.334068 244.021736 
z
" style="fill:#008000;stroke:#008000;stroke-linecap:round;stroke-width:2;"/>
   </g>
   <g id="patch_6">
    <path clip-path="url(#p874f7f4ace)" d="M 397.947499 224.062227 
C 404.334179 224.062227 410.460138 221.524772 414.976202 217.008707 
C 419.492267 212.492642 422.029722 206.366684 422.029722 199.980004 
C 422.029722 193.593323 419.492267 187.467365 414.976202 182.9513 
C 410.460138 178.435236 404.334179 175.897781 397.947499 175.897781 
C 391.560819 175.897781 385.434861 178.435236 380.918796 182.9513 
C 376.402731 187.467365 373.865276 193.593323 373.865276 199.980004 
C 373.865276 206.366684 376.402731 212.492642 380.918796 217.008707 
C 385.434861 221.524772 391.560819 224.062227 397.947499 224.062227 
z
" style="fill:#1f77b4;"/>
   </g>
   <g id="patch_7">
    <path clip-path="url(#p874f7f4ace)" d="M 314.745461 109.544446 
C 321.132141 109.544446 327.258099 107.006991 331.774164 102.490926 
C 336.290229 97.974861 338.827684 91.848903 338.827684 85.462223 
C 338.827684 79.075543 336.290229 72.949585 331.774164 68.43352 
C 327.258099 63.917455 321.132141 61.38 314.745461 61.38 
C 308.358781 61.38 302.232823 63.917455 297.716758 68.43352 
C 293.200693 72.949585 290.663238 79.075543 290.663238 85.462223 
C 290.663238 91.848903 293.200693 97.974861 297.716758 102.490926 
C 302.232823 107.006991 308.358781 109.544446 314.745461 109.544446 
z
" style="fill:#aec7e8;"/>
   </g>
   <g id="patch_8">
    <path clip-path="url(#p874f7f4ace)" d="M 180.121734 153.286356 
C 186.508414 153.286356 192.634372 150.748901 197.150437 146.232836 
C 201.666502 141.716771 204.203957 135.590813 204.203957 129.204133 
C 204.203957 122.817453 201.666502 116.691494 197.150437 112.17543 
C 192.634372 107.659365 186.508414 105.12191 180.121734 105.12191 
C 173.735053 105.12191 167.609095 107.659365 163.09303 112.17543 
C 158.576966 116.691494 156.039511 122.817453 156.039511 129.204133 
C 156.039511 135.590813 158.576966 141.716771 163.09303 146.232836 
C 167.609095 150.748901 173.735053 153.286356 180.121734 153.286356 
z
" style="fill:#ff7f0e;"/>
   </g>
   <g id="patch_9">
    <path clip-path="url(#p874f7f4ace)" d="M 180.121748 294.838119 
C 186.508428 294.838119 192.634386 292.300664 197.150451 287.784599 
C 201.666516 283.268534 204.203971 277.142576 204.203971 270.755896 
C 204.203971 264.369216 201.666516 258.243258 197.150451 253.727193 
C 192.634386 249.211128 186.508428 246.673673 180.121748 246.673673 
C 173.735068 246.673673 167.60911 249.211128 163.093045 253.727193 
C 158.57698 258.243258 156.039525 264.369216 156.039525 270.755896 
C 156.039525 277.142576 158.57698 283.268534 163.093045 287.784599 
C 167.60911 292.300664 173.735068 294.838119 180.121748 294.838119 
z
" style="fill:#ffbb78;"/>
   </g>
   <g id="patch_10">
    <path clip-path="url(#p874f7f4ace)" d="M 314.745479 338.58 
C 321.132159 338.58 327.258117 336.042545 331.774182 331.52648 
C 336.290247 327.010415 338.827702 320.884457 338.827702 314.497777 
C 338.827702 308.111097 336.290247 301.985139 331.774182 297.469074 
C 327.258117 292.953009 321.132159 290.415554 314.745479 290.415554 
C 308.358799 290.415554 302.232841 292.953009 297.716776 297.469074 
C 293.200711 301.985139 290.663256 308.111097 290.663256 314.497777 
C 290.663256 320.884457 293.200711 327.010415 297.716776 331.52648 
C 302.232841 336.042545 308.358799 338.58 314.745479 338.58 
z
" style="fill:#2ca02c;"/>
   </g>
   <g id="text_1">
    <!-- 0 -->
    <defs>
     <path d="M 31.78125 66.40625 
Q 24.171875 66.40625 20.328125 58.90625 
Q 16.5 51.421875 16.5 36.375 
Q 16.5 21.390625 20.328125 13.890625 
Q 24.171875 6.390625 31.78125 6.390625 
Q 39.453125 6.390625 43.28125 13.890625 
Q 47.125 21.390625 47.125 36.375 
Q 47.125 51.421875 43.28125 58.90625 
Q 39.453125 66.40625 31.78125 66.40625 
z
M 31.78125 74.21875 
Q 44.046875 74.21875 50.515625 64.515625 
Q 56.984375 54.828125 56.984375 36.375 
Q 56.984375 17.96875 50.515625 8.265625 
Q 44.046875 -1.421875 31.78125 -1.421875 
Q 19.53125 -1.421875 13.0625 8.265625 
Q 6.59375 17.96875 6.59375 36.375 
Q 6.59375 54.828125 13.0625 64.515625 
Q 19.53125 74.21875 31.78125 74.21875 
z
" id="DejaVuSans-48"/>
    </defs>
    <g transform="translate(397.629374 200.255941)scale(0.01 -0.01)">
     <use xlink:href="#DejaVuSans-48"/>
    </g>
   </g>
   <g id="text_2">
    <!-- 1 -->
    <defs>
     <path d="M 12.40625 8.296875 
L 28.515625 8.296875 
L 28.515625 63.921875 
L 10.984375 60.40625 
L 10.984375 69.390625 
L 28.421875 72.90625 
L 38.28125 72.90625 
L 38.28125 8.296875 
L 54.390625 8.296875 
L 54.390625 0 
L 12.40625 0 
z
" id="DejaVuSans-49"/>
    </defs>
    <g transform="translate(314.427336 85.738161)scale(0.01 -0.01)">
     <use xlink:href="#DejaVuSans-49"/>
    </g>
   </g>
   <g id="text_3">
    <!-- 2 -->
    <defs>
     <path d="M 19.1875 8.296875 
L 53.609375 8.296875 
L 53.609375 0 
L 7.328125 0 
L 7.328125 8.296875 
Q 12.9375 14.109375 22.625 23.890625 
Q 32.328125 33.6875 34.8125 36.53125 
Q 39.546875 41.84375 41.421875 45.53125 
Q 43.3125 49.21875 43.3125 52.78125 
Q 43.3125 58.59375 39.234375 62.25 
Q 35.15625 65.921875 28.609375 65.921875 
Q 23.96875 65.921875 18.8125 64.3125 
Q 13.671875 62.703125 7.8125 59.421875 
L 7.8125 69.390625 
Q 13.765625 71.78125 18.9375 73 
Q 24.125 74.21875 28.421875 74.21875 
Q 39.75 74.21875 46.484375 68.546875 
Q 53.21875 62.890625 53.21875 53.421875 
Q 53.21875 48.921875 51.53125 44.890625 
Q 49.859375 40.875 45.40625 35.40625 
Q 44.1875 33.984375 37.640625 27.21875 
Q 31.109375 20.453125 19.1875 8.296875 
z
" id="DejaVuSans-50"/>
    </defs>
    <g transform="translate(179.803609 129.48007)scale(0.01 -0.01)">
     <use xlink:href="#DejaVuSans-50"/>
    </g>
   </g>
   <g id="text_4">
    <!-- 3 -->
    <defs>
     <path d="M 40.578125 39.3125 
Q 47.65625 37.796875 51.625 33 
Q 55.609375 28.21875 55.609375 21.1875 
Q 55.609375 10.40625 48.1875 4.484375 
Q 40.765625 -1.421875 27.09375 -1.421875 
Q 22.515625 -1.421875 17.65625 -0.515625 
Q 12.796875 0.390625 7.625 2.203125 
L 7.625 11.71875 
Q 11.71875 9.328125 16.59375 8.109375 
Q 21.484375 6.890625 26.8125 6.890625 
Q 36.078125 6.890625 40.9375 10.546875 
Q 45.796875 14.203125 45.796875 21.1875 
Q 45.796875 27.640625 41.28125 31.265625 
Q 36.765625 34.90625 28.71875 34.90625 
L 20.21875 34.90625 
L 20.21875 43.015625 
L 29.109375 43.015625 
Q 36.375 43.015625 40.234375 45.921875 
Q 44.09375 48.828125 44.09375 54.296875 
Q 44.09375 59.90625 40.109375 62.90625 
Q 36.140625 65.921875 28.71875 65.921875 
Q 24.65625 65.921875 20.015625 65.03125 
Q 15.375 64.15625 9.8125 62.3125 
L 9.8125 71.09375 
Q 15.4375 72.65625 20.34375 73.4375 
Q 25.25 74.21875 29.59375 74.21875 
Q 40.828125 74.21875 47.359375 69.109375 
Q 53.90625 64.015625 53.90625 55.328125 
Q 53.90625 49.265625 50.4375 45.09375 
Q 46.96875 40.921875 40.578125 39.3125 
z
" id="DejaVuSans-51"/>
    </defs>
    <g transform="translate(179.803623 271.031833)scale(0.01 -0.01)">
     <use xlink:href="#DejaVuSans-51"/>
    </g>
   </g>
   <g id="text_5">
    <!-- 4 -->
    <defs>
     <path d="M 37.796875 64.3125 
L 12.890625 25.390625 
L 37.796875 25.390625 
z
M 35.203125 72.90625 
L 47.609375 72.90625 
L 47.609375 25.390625 
L 58.015625 25.390625 
L 58.015625 17.1875 
L 47.609375 17.1875 
L 47.609375 0 
L 37.796875 0 
L 37.796875 17.1875 
L 4.890625 17.1875 
L 4.890625 26.703125 
z
" id="DejaVuSans-52"/>
    </defs>
    <g transform="translate(314.427354 314.773714)scale(0.01 -0.01)">
     <use xlink:href="#DejaVuSans-52"/>
    </g>
   </g>
  </g>
 </g>
 <defs>
  <clipPath id="p874f7f4ace">
   <rect height="304.92" width="304.92" x="142.74" y="47.52"/>
  </clipPath>
 </defs>
</svg>
