<?xml version="1.0" encoding="utf-8" standalone="no"?>
<!DOCTYPE svg PUBLIC "-//W3C//DTD SVG 1.1//EN"
  "http://www.w3.org/Graphics/SVG/1.1/DTD/svg11.dtd">
<!-- Created with matplotlib (https://matplotlib.org/) -->
<svg height="341.059pt" version="1.1" viewBox="0 0 900.7325 341.059" width="900.7325pt" xmlns="http://www.w3.org/2000/svg" xmlns:xlink="http://www.w3.org/1999/xlink">
 <defs>
  <style type="text/css">
*{stroke-linecap:butt;stroke-linejoin:round;}
  </style>
 </defs>
 <g id="figure_1">
  <g id="patch_1">
   <path d="M 0 341.059 
L 900.7325 341.059 
L 900.7325 0 
L 0 0 
z
" style="fill:none;"/>
  </g>
  <g id="axes_1">
   <g id="patch_2">
    <path d="M 63.7325 292.389 
L 342.7325 292.389 
L 342.7325 20.589 
L 63.7325 20.589 
z
" style="fill:none;"/>
   </g>
   <g id="PolyCollection_1">
    <path clip-path="url(#p0f6670dcf0)" d="M 76.414318 233.201007 
L 76.414318 233.201007 
L 81.590571 233.182515 
L 86.766823 233.146458 
L 91.943075 233.078373 
L 97.119327 232.953896 
L 102.29558 232.733599 
L 107.471832 232.356274 
L 112.648084 231.730972 
L 117.824337 230.728682 
L 123.000589 229.175349 
L 128.176841 226.848821 
L 133.353094 223.483007 
L 138.529346 218.782736 
L 143.705598 212.452047 
L 148.881851 204.236713 
L 154.058103 193.978587 
L 159.234355 181.675368 
L 164.410608 167.535442 
L 169.58686 152.014827 
L 174.763112 135.823269 
L 179.939365 119.889933 
L 185.115617 105.286034 
L 190.291869 93.110862 
L 195.468122 84.35696 
L 200.644374 79.776993 
L 205.820626 79.776993 
L 210.996878 84.35696 
L 216.173131 93.110862 
L 221.349383 105.286034 
L 226.525635 119.889933 
L 231.701888 135.823269 
L 236.87814 152.014827 
L 242.054392 167.535442 
L 247.230645 181.675368 
L 252.406897 193.978587 
L 257.583149 204.236713 
L 262.759402 212.452047 
L 267.935654 218.782736 
L 273.111906 223.483007 
L 278.288159 226.848821 
L 283.464411 229.175349 
L 288.640663 230.728682 
L 293.816916 231.730972 
L 298.993168 232.356274 
L 304.16942 232.733599 
L 309.345673 232.953896 
L 314.521925 233.078373 
L 319.698177 233.146458 
L 324.874429 233.182515 
L 330.050682 233.201007 
L 330.050682 233.201007 
L 330.050682 233.201007 
L 324.874429 233.201007 
L 319.698177 233.201007 
L 314.521925 233.201007 
L 309.345673 233.201007 
L 304.16942 233.201007 
L 298.993168 233.201007 
L 293.816916 233.201007 
L 288.640663 233.201007 
L 283.464411 233.201007 
L 278.288159 233.201007 
L 273.111906 233.201007 
L 267.935654 233.201007 
L 262.759402 233.201007 
L 257.583149 233.201007 
L 252.406897 233.201007 
L 247.230645 233.201007 
L 242.054392 233.201007 
L 236.87814 233.201007 
L 231.701888 233.201007 
L 226.525635 233.201007 
L 221.349383 233.201007 
L 216.173131 233.201007 
L 210.996878 233.201007 
L 205.820626 233.201007 
L 200.644374 233.201007 
L 195.468122 233.201007 
L 190.291869 233.201007 
L 185.115617 233.201007 
L 179.939365 233.201007 
L 174.763112 233.201007 
L 169.58686 233.201007 
L 164.410608 233.201007 
L 159.234355 233.201007 
L 154.058103 233.201007 
L 148.881851 233.201007 
L 143.705598 233.201007 
L 138.529346 233.201007 
L 133.353094 233.201007 
L 128.176841 233.201007 
L 123.000589 233.201007 
L 117.824337 233.201007 
L 112.648084 233.201007 
L 107.471832 233.201007 
L 102.29558 233.201007 
L 97.119327 233.201007 
L 91.943075 233.201007 
L 86.766823 233.201007 
L 81.590571 233.201007 
L 76.414318 233.201007 
z
" style="fill:#1f77b4;stroke:#1f77b4;stroke-dasharray:1.776,0.768;stroke-dashoffset:0;stroke-width:0.48;"/>
   </g>
   <g id="PolyCollection_2">
    <path clip-path="url(#p0f6670dcf0)" d="M 76.414318 233.201007 
L 76.414318 233.201007 
L 81.590571 233.182515 
L 86.766823 233.146458 
L 91.943075 233.078373 
L 97.119327 232.953896 
L 102.29558 232.733599 
L 107.471832 232.356274 
L 112.648084 231.730972 
L 117.824337 230.728682 
L 123.000589 229.175349 
L 128.176841 226.848821 
L 133.353094 223.483007 
L 138.529346 218.782736 
L 143.705598 212.452047 
L 148.881851 204.236713 
L 154.058103 193.978587 
L 159.234355 181.675368 
L 164.410608 167.535442 
L 169.58686 152.014827 
L 174.763112 135.823269 
L 179.939365 119.889933 
L 185.115617 105.286034 
L 190.291869 93.110862 
L 195.468122 84.35696 
L 200.644374 79.776993 
L 205.820626 79.776993 
L 210.996878 84.35696 
L 216.173131 93.110862 
L 221.349383 105.286034 
L 226.525635 119.889933 
L 231.701888 135.823269 
L 236.87814 152.014827 
L 242.054392 167.535442 
L 247.230645 181.675368 
L 252.406897 193.978587 
L 257.583149 204.236713 
L 262.759402 212.452047 
L 267.935654 218.782736 
L 273.111906 223.483007 
L 278.288159 226.848821 
L 283.464411 229.175349 
L 288.640663 230.728682 
L 293.816916 231.730972 
L 298.993168 232.356274 
L 304.16942 232.733599 
L 309.345673 232.953896 
L 314.521925 233.078373 
L 319.698177 233.146458 
L 324.874429 233.182515 
L 330.050682 233.201007 
L 330.050682 233.201007 
L 330.050682 233.201007 
L 324.874429 233.201007 
L 319.698177 233.201007 
L 314.521925 233.201007 
L 309.345673 233.201007 
L 304.16942 233.201007 
L 298.993168 233.201007 
L 293.816916 233.201007 
L 288.640663 233.201007 
L 283.464411 233.201007 
L 278.288159 233.201007 
L 273.111906 233.201007 
L 267.935654 233.201007 
L 262.759402 233.201007 
L 257.583149 233.201007 
L 252.406897 233.201007 
L 247.230645 233.201007 
L 242.054392 233.201007 
L 236.87814 233.201007 
L 231.701888 233.201007 
L 226.525635 233.201007 
L 221.349383 233.201007 
L 216.173131 233.201007 
L 210.996878 233.201007 
L 205.820626 233.201007 
L 200.644374 233.201007 
L 195.468122 233.201007 
L 190.291869 233.201007 
L 185.115617 233.201007 
L 179.939365 233.201007 
L 174.763112 233.201007 
L 169.58686 233.201007 
L 164.410608 233.201007 
L 159.234355 233.201007 
L 154.058103 233.201007 
L 148.881851 233.201007 
L 143.705598 233.201007 
L 138.529346 233.201007 
L 133.353094 233.201007 
L 128.176841 233.201007 
L 123.000589 233.201007 
L 117.824337 233.201007 
L 112.648084 233.201007 
L 107.471832 233.201007 
L 102.29558 233.201007 
L 97.119327 233.201007 
L 91.943075 233.201007 
L 86.766823 233.201007 
L 81.590571 233.201007 
L 76.414318 233.201007 
z
" style="fill:#ff7f0e;stroke:#ff7f0e;stroke-dasharray:1.776,0.768;stroke-dashoffset:0;stroke-width:0.48;"/>
   </g>
   <g id="PolyCollection_3">
    <path clip-path="url(#p0f6670dcf0)" d="M 76.414318 233.201007 
L 76.414318 233.201007 
L 81.590571 233.182515 
L 86.766823 233.146458 
L 91.943075 233.078373 
L 97.119327 232.953896 
L 102.29558 232.733599 
L 107.471832 232.356274 
L 112.648084 231.730972 
L 117.824337 230.728682 
L 123.000589 229.175349 
L 128.176841 226.848821 
L 133.353094 223.483007 
L 138.529346 218.782736 
L 143.705598 212.452047 
L 148.881851 204.236713 
L 154.058103 193.978587 
L 159.234355 181.675368 
L 164.410608 167.535442 
L 169.58686 152.014827 
L 174.763112 135.823269 
L 179.939365 119.889933 
L 185.115617 105.286034 
L 190.291869 93.110862 
L 195.468122 84.35696 
L 200.644374 79.776993 
L 205.820626 79.776993 
L 210.996878 84.35696 
L 216.173131 93.110862 
L 221.349383 105.286034 
L 226.525635 119.889933 
L 231.701888 135.823269 
L 236.87814 152.014827 
L 242.054392 167.535442 
L 247.230645 181.675368 
L 252.406897 193.978587 
L 257.583149 204.236713 
L 262.759402 212.452047 
L 267.935654 218.782736 
L 273.111906 223.483007 
L 278.288159 226.848821 
L 283.464411 229.175349 
L 288.640663 230.728682 
L 293.816916 231.730972 
L 298.993168 232.356274 
L 304.16942 232.733599 
L 309.345673 232.953896 
L 314.521925 233.078373 
L 319.698177 233.146458 
L 324.874429 233.182515 
L 330.050682 233.201007 
L 330.050682 233.201007 
L 330.050682 233.201007 
L 324.874429 233.201007 
L 319.698177 233.201007 
L 314.521925 233.201007 
L 309.345673 233.201007 
L 304.16942 233.201007 
L 298.993168 233.201007 
L 293.816916 233.201007 
L 288.640663 233.201007 
L 283.464411 233.201007 
L 278.288159 233.201007 
L 273.111906 233.201007 
L 267.935654 233.201007 
L 262.759402 233.201007 
L 257.583149 233.201007 
L 252.406897 233.201007 
L 247.230645 233.201007 
L 242.054392 233.201007 
L 236.87814 233.201007 
L 231.701888 233.201007 
L 226.525635 233.201007 
L 221.349383 233.201007 
L 216.173131 233.201007 
L 210.996878 233.201007 
L 205.820626 233.201007 
L 200.644374 233.201007 
L 195.468122 233.201007 
L 190.291869 233.201007 
L 185.115617 233.201007 
L 179.939365 233.201007 
L 174.763112 233.201007 
L 169.58686 233.201007 
L 164.410608 233.201007 
L 159.234355 233.201007 
L 154.058103 233.201007 
L 148.881851 233.201007 
L 143.705598 233.201007 
L 138.529346 233.201007 
L 133.353094 233.201007 
L 128.176841 233.201007 
L 123.000589 233.201007 
L 117.824337 233.201007 
L 112.648084 233.201007 
L 107.471832 233.201007 
L 102.29558 233.201007 
L 97.119327 233.201007 
L 91.943075 233.201007 
L 86.766823 233.201007 
L 81.590571 233.201007 
L 76.414318 233.201007 
z
" style="fill:#2ca02c;stroke:#2ca02c;stroke-dasharray:1.776,0.768;stroke-dashoffset:0;stroke-width:0.48;"/>
   </g>
   <g id="PolyCollection_4">
    <path clip-path="url(#p0f6670dcf0)" d="M 76.414318 233.201007 
L 76.414318 233.201007 
L 81.590571 233.182515 
L 86.766823 233.146458 
L 91.943075 233.078373 
L 97.119327 232.953896 
L 102.29558 232.733599 
L 107.471832 232.356274 
L 112.648084 231.730972 
L 117.824337 230.728682 
L 123.000589 229.175349 
L 128.176841 226.848821 
L 133.353094 223.483007 
L 138.529346 218.782736 
L 143.705598 212.452047 
L 148.881851 204.236713 
L 154.058103 193.978587 
L 159.234355 181.675368 
L 164.410608 167.535442 
L 169.58686 152.014827 
L 174.763112 135.823269 
L 179.939365 119.889933 
L 185.115617 105.286034 
L 190.291869 93.110862 
L 195.468122 84.35696 
L 200.644374 79.776993 
L 205.820626 79.776993 
L 210.996878 84.35696 
L 216.173131 93.110862 
L 221.349383 105.286034 
L 226.525635 119.889933 
L 231.701888 135.823269 
L 236.87814 152.014827 
L 242.054392 167.535442 
L 247.230645 181.675368 
L 252.406897 193.978587 
L 257.583149 204.236713 
L 262.759402 212.452047 
L 267.935654 218.782736 
L 273.111906 223.483007 
L 278.288159 226.848821 
L 283.464411 229.175349 
L 288.640663 230.728682 
L 293.816916 231.730972 
L 298.993168 232.356274 
L 304.16942 232.733599 
L 309.345673 232.953896 
L 314.521925 233.078373 
L 319.698177 233.146458 
L 324.874429 233.182515 
L 330.050682 233.201007 
L 330.050682 233.201007 
L 330.050682 233.201007 
L 324.874429 233.201007 
L 319.698177 233.201007 
L 314.521925 233.201007 
L 309.345673 233.201007 
L 304.16942 233.201007 
L 298.993168 233.201007 
L 293.816916 233.201007 
L 288.640663 233.201007 
L 283.464411 233.201007 
L 278.288159 233.201007 
L 273.111906 233.201007 
L 267.935654 233.201007 
L 262.759402 233.201007 
L 257.583149 233.201007 
L 252.406897 233.201007 
L 247.230645 233.201007 
L 242.054392 233.201007 
L 236.87814 233.201007 
L 231.701888 233.201007 
L 226.525635 233.201007 
L 221.349383 233.201007 
L 216.173131 233.201007 
L 210.996878 233.201007 
L 205.820626 233.201007 
L 200.644374 233.201007 
L 195.468122 233.201007 
L 190.291869 233.201007 
L 185.115617 233.201007 
L 179.939365 233.201007 
L 174.763112 233.201007 
L 169.58686 233.201007 
L 164.410608 233.201007 
L 159.234355 233.201007 
L 154.058103 233.201007 
L 148.881851 233.201007 
L 143.705598 233.201007 
L 138.529346 233.201007 
L 133.353094 233.201007 
L 128.176841 233.201007 
L 123.000589 233.201007 
L 117.824337 233.201007 
L 112.648084 233.201007 
L 107.471832 233.201007 
L 102.29558 233.201007 
L 97.119327 233.201007 
L 91.943075 233.201007 
L 86.766823 233.201007 
L 81.590571 233.201007 
L 76.414318 233.201007 
z
" style="fill:#d62728;stroke:#d62728;stroke-dasharray:1.776,0.768;stroke-dashoffset:0;stroke-width:0.48;"/>
   </g>
   <g id="matplotlib.axis_1">
    <g id="xtick_1">
     <g id="line2d_1">
      <defs>
       <path d="M 0 0 
L 0 3.5 
" id="m929228ae6e" style="stroke:#000000;stroke-width:1.6;"/>
      </defs>
      <g>
       <use style="stroke:#000000;stroke-width:1.6;" x="130.520016" xlink:href="#m929228ae6e" y="292.389"/>
      </g>
     </g>
     <g id="text_1">
      <!-- 0.0 -->
      <defs>
       <path d="M 31.78125 66.40625 
Q 24.171875 66.40625 20.328125 58.90625 
Q 16.5 51.421875 16.5 36.375 
Q 16.5 21.390625 20.328125 13.890625 
Q 24.171875 6.390625 31.78125 6.390625 
Q 39.453125 6.390625 43.28125 13.890625 
Q 47.125 21.390625 47.125 36.375 
Q 47.125 51.421875 43.28125 58.90625 
Q 39.453125 66.40625 31.78125 66.40625 
z
M 31.78125 74.21875 
Q 44.046875 74.21875 50.515625 64.515625 
Q 56.984375 54.828125 56.984375 36.375 
Q 56.984375 17.96875 50.515625 8.265625 
Q 44.046875 -1.421875 31.78125 -1.421875 
Q 19.53125 -1.421875 13.0625 8.265625 
Q 6.59375 17.96875 6.59375 36.375 
Q 6.59375 54.828125 13.0625 64.515625 
Q 19.53125 74.21875 31.78125 74.21875 
z
" id="DejaVuSans-48"/>
       <path d="M 10.6875 12.40625 
L 21 12.40625 
L 21 0 
L 10.6875 0 
z
" id="DejaVuSans-46"/>
      </defs>
      <g transform="translate(117.797516 319.2465)scale(0.16 -0.16)">
       <use xlink:href="#DejaVuSans-48"/>
       <use x="63.623047" xlink:href="#DejaVuSans-46"/>
       <use x="95.410156" xlink:href="#DejaVuSans-48"/>
      </g>
     </g>
    </g>
    <g id="xtick_2">
     <g id="line2d_2">
      <g>
       <use style="stroke:#000000;stroke-width:1.6;" x="203.255775" xlink:href="#m929228ae6e" y="292.389"/>
      </g>
     </g>
     <g id="text_2">
      <!-- 0.5 -->
      <defs>
       <path d="M 10.796875 72.90625 
L 49.515625 72.90625 
L 49.515625 64.59375 
L 19.828125 64.59375 
L 19.828125 46.734375 
Q 21.96875 47.46875 24.109375 47.828125 
Q 26.265625 48.1875 28.421875 48.1875 
Q 40.625 48.1875 47.75 41.5 
Q 54.890625 34.8125 54.890625 23.390625 
Q 54.890625 11.625 47.5625 5.09375 
Q 40.234375 -1.421875 26.90625 -1.421875 
Q 22.3125 -1.421875 17.546875 -0.640625 
Q 12.796875 0.140625 7.71875 1.703125 
L 7.71875 11.625 
Q 12.109375 9.234375 16.796875 8.0625 
Q 21.484375 6.890625 26.703125 6.890625 
Q 35.15625 6.890625 40.078125 11.328125 
Q 45.015625 15.765625 45.015625 23.390625 
Q 45.015625 31 40.078125 35.4375 
Q 35.15625 39.890625 26.703125 39.890625 
Q 22.75 39.890625 18.8125 39.015625 
Q 14.890625 38.140625 10.796875 36.28125 
z
" id="DejaVuSans-53"/>
      </defs>
      <g transform="translate(190.533275 319.2465)scale(0.16 -0.16)">
       <use xlink:href="#DejaVuSans-48"/>
       <use x="63.623047" xlink:href="#DejaVuSans-46"/>
       <use x="95.410156" xlink:href="#DejaVuSans-53"/>
      </g>
     </g>
    </g>
    <g id="xtick_3">
     <g id="line2d_3">
      <g>
       <use style="stroke:#000000;stroke-width:1.6;" x="275.991535" xlink:href="#m929228ae6e" y="292.389"/>
      </g>
     </g>
     <g id="text_3">
      <!-- 1.0 -->
      <defs>
       <path d="M 12.40625 8.296875 
L 28.515625 8.296875 
L 28.515625 63.921875 
L 10.984375 60.40625 
L 10.984375 69.390625 
L 28.421875 72.90625 
L 38.28125 72.90625 
L 38.28125 8.296875 
L 54.390625 8.296875 
L 54.390625 0 
L 12.40625 0 
z
" id="DejaVuSans-49"/>
      </defs>
      <g transform="translate(263.269035 319.2465)scale(0.16 -0.16)">
       <use xlink:href="#DejaVuSans-49"/>
       <use x="63.623047" xlink:href="#DejaVuSans-46"/>
       <use x="95.410156" xlink:href="#DejaVuSans-48"/>
      </g>
     </g>
    </g>
    <g id="text_4">
     <!-- 1e16 -->
     <defs>
      <path d="M 56.203125 29.59375 
L 56.203125 25.203125 
L 14.890625 25.203125 
Q 15.484375 15.921875 20.484375 11.0625 
Q 25.484375 6.203125 34.421875 6.203125 
Q 39.59375 6.203125 44.453125 7.46875 
Q 49.3125 8.734375 54.109375 11.28125 
L 54.109375 2.78125 
Q 49.265625 0.734375 44.1875 -0.34375 
Q 39.109375 -1.421875 33.890625 -1.421875 
Q 20.796875 -1.421875 13.15625 6.1875 
Q 5.515625 13.8125 5.515625 26.8125 
Q 5.515625 40.234375 12.765625 48.109375 
Q 20.015625 56 32.328125 56 
Q 43.359375 56 49.78125 48.890625 
Q 56.203125 41.796875 56.203125 29.59375 
z
M 47.21875 32.234375 
Q 47.125 39.59375 43.09375 43.984375 
Q 39.0625 48.390625 32.421875 48.390625 
Q 24.90625 48.390625 20.390625 44.140625 
Q 15.875 39.890625 15.1875 32.171875 
z
" id="DejaVuSans-101"/>
      <path d="M 33.015625 40.375 
Q 26.375 40.375 22.484375 35.828125 
Q 18.609375 31.296875 18.609375 23.390625 
Q 18.609375 15.53125 22.484375 10.953125 
Q 26.375 6.390625 33.015625 6.390625 
Q 39.65625 6.390625 43.53125 10.953125 
Q 47.40625 15.53125 47.40625 23.390625 
Q 47.40625 31.296875 43.53125 35.828125 
Q 39.65625 40.375 33.015625 40.375 
z
M 52.59375 71.296875 
L 52.59375 62.3125 
Q 48.875 64.0625 45.09375 64.984375 
Q 41.3125 65.921875 37.59375 65.921875 
Q 27.828125 65.921875 22.671875 59.328125 
Q 17.53125 52.734375 16.796875 39.40625 
Q 19.671875 43.65625 24.015625 45.921875 
Q 28.375 48.1875 33.59375 48.1875 
Q 44.578125 48.1875 50.953125 41.515625 
Q 57.328125 34.859375 57.328125 23.390625 
Q 57.328125 12.15625 50.6875 5.359375 
Q 44.046875 -1.421875 33.015625 -1.421875 
Q 20.359375 -1.421875 13.671875 8.265625 
Q 6.984375 17.96875 6.984375 36.375 
Q 6.984375 53.65625 15.1875 63.9375 
Q 23.390625 74.21875 37.203125 74.21875 
Q 40.921875 74.21875 44.703125 73.484375 
Q 48.484375 72.75 52.59375 71.296875 
z
" id="DejaVuSans-54"/>
     </defs>
     <g transform="translate(302.3475 337.7315)scale(0.16 -0.16)">
      <use xlink:href="#DejaVuSans-49"/>
      <use x="63.623047" xlink:href="#DejaVuSans-101"/>
      <use x="125.146484" xlink:href="#DejaVuSans-49"/>
      <use x="188.769531" xlink:href="#DejaVuSans-54"/>
     </g>
    </g>
   </g>
   <g id="matplotlib.axis_2">
    <g id="ytick_1">
     <g id="line2d_4">
      <defs>
       <path d="M 0 0 
L -3.5 0 
" id="m7b3e76c849" style="stroke:#000000;stroke-width:1.6;"/>
      </defs>
      <g>
       <use style="stroke:#000000;stroke-width:1.6;" x="63.7325" xlink:href="#m7b3e76c849" y="271.557011"/>
      </g>
     </g>
     <g id="text_5">
      <!-- −0.25 -->
      <defs>
       <path d="M 10.59375 35.5 
L 73.1875 35.5 
L 73.1875 27.203125 
L 10.59375 27.203125 
z
" id="DejaVuSans-8722"/>
       <path d="M 19.1875 8.296875 
L 53.609375 8.296875 
L 53.609375 0 
L 7.328125 0 
L 7.328125 8.296875 
Q 12.9375 14.109375 22.625 23.890625 
Q 32.328125 33.6875 34.8125 36.53125 
Q 39.546875 41.84375 41.421875 45.53125 
Q 43.3125 49.21875 43.3125 52.78125 
Q 43.3125 58.59375 39.234375 62.25 
Q 35.15625 65.921875 28.609375 65.921875 
Q 23.96875 65.921875 18.8125 64.3125 
Q 13.671875 62.703125 7.8125 59.421875 
L 7.8125 69.390625 
Q 13.765625 71.78125 18.9375 73 
Q 24.125 74.21875 28.421875 74.21875 
Q 39.75 74.21875 46.484375 68.546875 
Q 53.21875 62.890625 53.21875 53.421875 
Q 53.21875 48.921875 51.53125 44.890625 
Q 49.859375 40.875 45.40625 35.40625 
Q 44.1875 33.984375 37.640625 27.21875 
Q 31.109375 20.453125 19.1875 8.296875 
z
" id="DejaVuSans-50"/>
      </defs>
      <g transform="translate(0 277.635761)scale(0.16 -0.16)">
       <use xlink:href="#DejaVuSans-8722"/>
       <use x="83.789062" xlink:href="#DejaVuSans-48"/>
       <use x="147.412109" xlink:href="#DejaVuSans-46"/>
       <use x="179.199219" xlink:href="#DejaVuSans-50"/>
       <use x="242.822266" xlink:href="#DejaVuSans-53"/>
      </g>
     </g>
    </g>
    <g id="ytick_2">
     <g id="line2d_5">
      <g>
       <use style="stroke:#000000;stroke-width:1.6;" x="63.7325" xlink:href="#m7b3e76c849" y="233.201007"/>
      </g>
     </g>
     <g id="text_6">
      <!-- 0.00 -->
      <g transform="translate(13.4075 239.279757)scale(0.16 -0.16)">
       <use xlink:href="#DejaVuSans-48"/>
       <use x="63.623047" xlink:href="#DejaVuSans-46"/>
       <use x="95.410156" xlink:href="#DejaVuSans-48"/>
       <use x="159.033203" xlink:href="#DejaVuSans-48"/>
      </g>
     </g>
    </g>
    <g id="ytick_3">
     <g id="line2d_6">
      <g>
       <use style="stroke:#000000;stroke-width:1.6;" x="63.7325" xlink:href="#m7b3e76c849" y="194.845004"/>
      </g>
     </g>
     <g id="text_7">
      <!-- 0.25 -->
      <g transform="translate(13.4075 200.923754)scale(0.16 -0.16)">
       <use xlink:href="#DejaVuSans-48"/>
       <use x="63.623047" xlink:href="#DejaVuSans-46"/>
       <use x="95.410156" xlink:href="#DejaVuSans-50"/>
       <use x="159.033203" xlink:href="#DejaVuSans-53"/>
      </g>
     </g>
    </g>
    <g id="ytick_4">
     <g id="line2d_7">
      <g>
       <use style="stroke:#000000;stroke-width:1.6;" x="63.7325" xlink:href="#m7b3e76c849" y="156.489"/>
      </g>
     </g>
     <g id="text_8">
      <!-- 0.50 -->
      <g transform="translate(13.4075 162.56775)scale(0.16 -0.16)">
       <use xlink:href="#DejaVuSans-48"/>
       <use x="63.623047" xlink:href="#DejaVuSans-46"/>
       <use x="95.410156" xlink:href="#DejaVuSans-53"/>
       <use x="159.033203" xlink:href="#DejaVuSans-48"/>
      </g>
     </g>
    </g>
    <g id="ytick_5">
     <g id="line2d_8">
      <g>
       <use style="stroke:#000000;stroke-width:1.6;" x="63.7325" xlink:href="#m7b3e76c849" y="118.132996"/>
      </g>
     </g>
     <g id="text_9">
      <!-- 0.75 -->
      <defs>
       <path d="M 8.203125 72.90625 
L 55.078125 72.90625 
L 55.078125 68.703125 
L 28.609375 0 
L 18.3125 0 
L 43.21875 64.59375 
L 8.203125 64.59375 
z
" id="DejaVuSans-55"/>
      </defs>
      <g transform="translate(13.4075 124.211746)scale(0.16 -0.16)">
       <use xlink:href="#DejaVuSans-48"/>
       <use x="63.623047" xlink:href="#DejaVuSans-46"/>
       <use x="95.410156" xlink:href="#DejaVuSans-55"/>
       <use x="159.033203" xlink:href="#DejaVuSans-53"/>
      </g>
     </g>
    </g>
    <g id="ytick_6">
     <g id="line2d_9">
      <g>
       <use style="stroke:#000000;stroke-width:1.6;" x="63.7325" xlink:href="#m7b3e76c849" y="79.776993"/>
      </g>
     </g>
     <g id="text_10">
      <!-- 1.00 -->
      <g transform="translate(13.4075 85.855743)scale(0.16 -0.16)">
       <use xlink:href="#DejaVuSans-49"/>
       <use x="63.623047" xlink:href="#DejaVuSans-46"/>
       <use x="95.410156" xlink:href="#DejaVuSans-48"/>
       <use x="159.033203" xlink:href="#DejaVuSans-48"/>
      </g>
     </g>
    </g>
    <g id="ytick_7">
     <g id="line2d_10">
      <g>
       <use style="stroke:#000000;stroke-width:1.6;" x="63.7325" xlink:href="#m7b3e76c849" y="41.420989"/>
      </g>
     </g>
     <g id="text_11">
      <!-- 1.25 -->
      <g transform="translate(13.4075 47.499739)scale(0.16 -0.16)">
       <use xlink:href="#DejaVuSans-49"/>
       <use x="63.623047" xlink:href="#DejaVuSans-46"/>
       <use x="95.410156" xlink:href="#DejaVuSans-50"/>
       <use x="159.033203" xlink:href="#DejaVuSans-53"/>
      </g>
     </g>
    </g>
   </g>
   <g id="line2d_11">
    <path clip-path="url(#p0f6670dcf0)" d="M 76.414318 233.201007 
L 81.590571 233.182515 
L 86.766823 233.146458 
L 91.943075 233.078373 
L 97.119327 232.953896 
L 102.29558 232.733599 
L 107.471832 232.356274 
L 112.648084 231.730972 
L 117.824337 230.728682 
L 123.000589 229.175349 
L 128.176841 226.848821 
L 133.353094 223.483007 
L 138.529346 218.782736 
L 143.705598 212.452047 
L 148.881851 204.236713 
L 154.058103 193.978587 
L 159.234355 181.675368 
L 164.410608 167.535442 
L 169.58686 152.014827 
L 174.763112 135.823269 
L 179.939365 119.889933 
L 185.115617 105.286034 
L 190.291869 93.110862 
L 195.468122 84.35696 
L 200.644374 79.776993 
L 205.820626 79.776993 
L 210.996878 84.35696 
L 216.173131 93.110862 
L 221.349383 105.286034 
L 226.525635 119.889933 
L 231.701888 135.823269 
L 236.87814 152.014827 
L 242.054392 167.535442 
L 247.230645 181.675368 
L 252.406897 193.978587 
L 257.583149 204.236713 
L 262.759402 212.452047 
L 267.935654 218.782736 
L 273.111906 223.483007 
L 278.288159 226.848821 
L 283.464411 229.175349 
L 288.640663 230.728682 
L 293.816916 231.730972 
L 298.993168 232.356274 
L 304.16942 232.733599 
L 309.345673 232.953896 
L 314.521925 233.078373 
L 319.698177 233.146458 
L 324.874429 233.182515 
L 330.050682 233.201007 
" style="fill:none;stroke:#000000;stroke-dasharray:10.36,4.48;stroke-dashoffset:0;stroke-width:2.8;"/>
   </g>
   <g id="line2d_12">
    <path clip-path="url(#p0f6670dcf0)" d="M 130.520016 292.389 
L 130.520016 20.589 
" style="fill:none;stroke:#808080;stroke-dasharray:10.36,4.48;stroke-dashoffset:0;stroke-width:2.8;"/>
   </g>
   <g id="patch_3">
    <path d="M 63.7325 292.389 
L 63.7325 20.589 
" style="fill:none;stroke:#000000;stroke-linecap:square;stroke-linejoin:miter;stroke-width:0.8;"/>
   </g>
   <g id="patch_4">
    <path d="M 342.7325 292.389 
L 342.7325 20.589 
" style="fill:none;stroke:#000000;stroke-linecap:square;stroke-linejoin:miter;stroke-width:0.8;"/>
   </g>
   <g id="patch_5">
    <path d="M 63.7325 292.389 
L 342.7325 292.389 
" style="fill:none;stroke:#000000;stroke-linecap:square;stroke-linejoin:miter;stroke-width:0.8;"/>
   </g>
   <g id="patch_6">
    <path d="M 63.7325 20.589 
L 342.7325 20.589 
" style="fill:none;stroke:#000000;stroke-linecap:square;stroke-linejoin:miter;stroke-width:0.8;"/>
   </g>
   <g id="text_12">
    <g id="patch_7">
     <path d="M 130.520016 159.911993 
C 132.445018 159.911993 134.291435 159.147182 135.652617 157.786001 
C 137.013799 156.424819 137.77861 154.578401 137.77861 152.6534 
C 137.77861 150.728398 137.013799 148.88198 135.652617 147.520799 
C 134.291435 146.159617 132.445018 145.394806 130.520016 145.394806 
C 128.595014 145.394806 126.748597 146.159617 125.387415 147.520799 
C 124.026234 148.88198 123.261422 150.728398 123.261422 152.6534 
C 123.261422 154.578401 124.026234 156.424819 125.387415 157.786001 
C 126.748597 159.147182 128.595014 159.911993 130.520016 159.911993 
z
" style="fill:#808080;stroke:#808080;stroke-linejoin:miter;stroke-width:2;"/>
    </g>
    <!--   -->
    <defs>
     <path id="DejaVuSans-32"/>
    </defs>
    <g transform="translate(128.136422 156.792462)scale(0.15 -0.15)">
     <use xlink:href="#DejaVuSans-32"/>
    </g>
   </g>
   <g id="text_13">
    <!--   -->
    <g transform="translate(200.1815 14.589)scale(0.192 -0.192)">
     <use xlink:href="#DejaVuSans-32"/>
    </g>
   </g>
  </g>
  <g id="axes_2">
   <g id="patch_8">
    <path d="M 342.7325 292.389 
L 621.7325 292.389 
L 621.7325 20.589 
L 342.7325 20.589 
z
" style="fill:none;"/>
   </g>
   <g id="PolyCollection_5"/>
   <g id="PolyCollection_6"/>
   <g id="PolyCollection_7"/>
   <g id="PolyCollection_8"/>
   <g id="matplotlib.axis_3">
    <g id="xtick_4">
     <g id="line2d_13">
      <g>
       <use style="stroke:#000000;stroke-width:1.6;" x="395.613975" xlink:href="#m929228ae6e" y="292.389"/>
      </g>
     </g>
     <g id="text_14">
      <!-- 0.0 -->
      <g transform="translate(382.891475 319.2465)scale(0.16 -0.16)">
       <use xlink:href="#DejaVuSans-48"/>
       <use x="63.623047" xlink:href="#DejaVuSans-46"/>
       <use x="95.410156" xlink:href="#DejaVuSans-48"/>
      </g>
     </g>
    </g>
    <g id="xtick_5">
     <g id="line2d_14">
      <g>
       <use style="stroke:#000000;stroke-width:1.6;" x="482.2325" xlink:href="#m929228ae6e" y="292.389"/>
      </g>
     </g>
     <g id="text_15">
      <!-- 0.5 -->
      <g transform="translate(469.51 319.2465)scale(0.16 -0.16)">
       <use xlink:href="#DejaVuSans-48"/>
       <use x="63.623047" xlink:href="#DejaVuSans-46"/>
       <use x="95.410156" xlink:href="#DejaVuSans-53"/>
      </g>
     </g>
    </g>
    <g id="xtick_6">
     <g id="line2d_15">
      <g>
       <use style="stroke:#000000;stroke-width:1.6;" x="568.851025" xlink:href="#m929228ae6e" y="292.389"/>
      </g>
     </g>
     <g id="text_16">
      <!-- 1.0 -->
      <g transform="translate(556.128525 319.2465)scale(0.16 -0.16)">
       <use xlink:href="#DejaVuSans-49"/>
       <use x="63.623047" xlink:href="#DejaVuSans-46"/>
       <use x="95.410156" xlink:href="#DejaVuSans-48"/>
      </g>
     </g>
    </g>
   </g>
   <g id="matplotlib.axis_4">
    <g id="ytick_8">
     <g id="line2d_16">
      <g>
       <use style="stroke:#000000;stroke-width:1.6;" x="342.7325" xlink:href="#m7b3e76c849" y="271.557011"/>
      </g>
     </g>
    </g>
    <g id="ytick_9">
     <g id="line2d_17">
      <g>
       <use style="stroke:#000000;stroke-width:1.6;" x="342.7325" xlink:href="#m7b3e76c849" y="233.201007"/>
      </g>
     </g>
    </g>
    <g id="ytick_10">
     <g id="line2d_18">
      <g>
       <use style="stroke:#000000;stroke-width:1.6;" x="342.7325" xlink:href="#m7b3e76c849" y="194.845004"/>
      </g>
     </g>
    </g>
    <g id="ytick_11">
     <g id="line2d_19">
      <g>
       <use style="stroke:#000000;stroke-width:1.6;" x="342.7325" xlink:href="#m7b3e76c849" y="156.489"/>
      </g>
     </g>
    </g>
    <g id="ytick_12">
     <g id="line2d_20">
      <g>
       <use style="stroke:#000000;stroke-width:1.6;" x="342.7325" xlink:href="#m7b3e76c849" y="118.132996"/>
      </g>
     </g>
    </g>
    <g id="ytick_13">
     <g id="line2d_21">
      <g>
       <use style="stroke:#000000;stroke-width:1.6;" x="342.7325" xlink:href="#m7b3e76c849" y="79.776993"/>
      </g>
     </g>
    </g>
    <g id="ytick_14">
     <g id="line2d_22">
      <g>
       <use style="stroke:#000000;stroke-width:1.6;" x="342.7325" xlink:href="#m7b3e76c849" y="41.420989"/>
      </g>
     </g>
    </g>
   </g>
   <g id="line2d_23">
    <path clip-path="url(#pffbf95f1e8)" d="M 0 0 
" style="fill:none;stroke:#000000;stroke-dasharray:10.36,4.48;stroke-dashoffset:0;stroke-width:2.8;"/>
   </g>
   <g id="line2d_24">
    <path clip-path="url(#pffbf95f1e8)" d="M 568.851025 292.389 
L 568.851025 20.589 
" style="fill:none;stroke:#808080;stroke-dasharray:10.36,4.48;stroke-dashoffset:0;stroke-width:2.8;"/>
   </g>
   <g id="patch_9">
    <path d="M 342.7325 292.389 
L 342.7325 20.589 
" style="fill:none;stroke:#000000;stroke-linecap:square;stroke-linejoin:miter;stroke-width:0.8;"/>
   </g>
   <g id="patch_10">
    <path d="M 621.7325 292.389 
L 621.7325 20.589 
" style="fill:none;stroke:#000000;stroke-linecap:square;stroke-linejoin:miter;stroke-width:0.8;"/>
   </g>
   <g id="patch_11">
    <path d="M 342.7325 292.389 
L 621.7325 292.389 
" style="fill:none;stroke:#000000;stroke-linecap:square;stroke-linejoin:miter;stroke-width:0.8;"/>
   </g>
   <g id="patch_12">
    <path d="M 342.7325 20.589 
L 621.7325 20.589 
" style="fill:none;stroke:#000000;stroke-linecap:square;stroke-linejoin:miter;stroke-width:0.8;"/>
   </g>
   <g id="text_17">
    <!-- 0.1 -->
    <g transform="translate(466.9655 14.589)scale(0.192 -0.192)">
     <use xlink:href="#DejaVuSans-48"/>
     <use x="63.623047" xlink:href="#DejaVuSans-46"/>
     <use x="95.410156" xlink:href="#DejaVuSans-49"/>
    </g>
   </g>
   <g id="legend_1">
    <g id="patch_13">
     <path d="M 473.4675 166.499 
L 618.5325 166.499 
Q 621.7325 166.499 621.7325 163.299 
L 621.7325 64.559 
Q 621.7325 61.359 618.5325 61.359 
L 473.4675 61.359 
Q 470.2675 61.359 470.2675 64.559 
L 470.2675 163.299 
Q 470.2675 166.499 473.4675 166.499 
z
" style="fill:#ffffff;stroke:#ffffff;stroke-linejoin:miter;stroke-width:0.48;"/>
    </g>
    <g id="line2d_25"/>
    <g id="line2d_26">
     <defs>
      <path d="M 0 5.6 
C 1.485137 5.6 2.909647 5.009949 3.959798 3.959798 
C 5.009949 2.909647 5.6 1.485137 5.6 0 
C 5.6 -1.485137 5.009949 -2.909647 3.959798 -3.959798 
C 2.909647 -5.009949 1.485137 -5.6 0 -5.6 
C -1.485137 -5.6 -2.909647 -5.009949 -3.959798 -3.959798 
C -5.009949 -2.909647 -5.6 -1.485137 -5.6 0 
C -5.6 1.485137 -5.009949 2.909647 -3.959798 3.959798 
C -2.909647 5.009949 -1.485137 5.6 0 5.6 
z
" id="md7318dae76"/>
     </defs>
     <g>
      <use style="fill:#1f77b4;" x="492.6675" xlink:href="#md7318dae76" y="74.3165"/>
     </g>
    </g>
    <g id="text_18">
     <!-- Degree -->
     <defs>
      <path d="M 19.671875 64.796875 
L 19.671875 8.109375 
L 31.59375 8.109375 
Q 46.6875 8.109375 53.6875 14.9375 
Q 60.6875 21.78125 60.6875 36.53125 
Q 60.6875 51.171875 53.6875 57.984375 
Q 46.6875 64.796875 31.59375 64.796875 
z
M 9.8125 72.90625 
L 30.078125 72.90625 
Q 51.265625 72.90625 61.171875 64.09375 
Q 71.09375 55.28125 71.09375 36.53125 
Q 71.09375 17.671875 61.125 8.828125 
Q 51.171875 0 30.078125 0 
L 9.8125 0 
z
" id="DejaVuSans-68"/>
      <path d="M 45.40625 27.984375 
Q 45.40625 37.75 41.375 43.109375 
Q 37.359375 48.484375 30.078125 48.484375 
Q 22.859375 48.484375 18.828125 43.109375 
Q 14.796875 37.75 14.796875 27.984375 
Q 14.796875 18.265625 18.828125 12.890625 
Q 22.859375 7.515625 30.078125 7.515625 
Q 37.359375 7.515625 41.375 12.890625 
Q 45.40625 18.265625 45.40625 27.984375 
z
M 54.390625 6.78125 
Q 54.390625 -7.171875 48.1875 -13.984375 
Q 42 -20.796875 29.203125 -20.796875 
Q 24.46875 -20.796875 20.265625 -20.09375 
Q 16.0625 -19.390625 12.109375 -17.921875 
L 12.109375 -9.1875 
Q 16.0625 -11.328125 19.921875 -12.34375 
Q 23.78125 -13.375 27.78125 -13.375 
Q 36.625 -13.375 41.015625 -8.765625 
Q 45.40625 -4.15625 45.40625 5.171875 
L 45.40625 9.625 
Q 42.625 4.78125 38.28125 2.390625 
Q 33.9375 0 27.875 0 
Q 17.828125 0 11.671875 7.65625 
Q 5.515625 15.328125 5.515625 27.984375 
Q 5.515625 40.671875 11.671875 48.328125 
Q 17.828125 56 27.875 56 
Q 33.9375 56 38.28125 53.609375 
Q 42.625 51.21875 45.40625 46.390625 
L 45.40625 54.6875 
L 54.390625 54.6875 
z
" id="DejaVuSans-103"/>
      <path d="M 41.109375 46.296875 
Q 39.59375 47.171875 37.8125 47.578125 
Q 36.03125 48 33.890625 48 
Q 26.265625 48 22.1875 43.046875 
Q 18.109375 38.09375 18.109375 28.8125 
L 18.109375 0 
L 9.078125 0 
L 9.078125 54.6875 
L 18.109375 54.6875 
L 18.109375 46.1875 
Q 20.953125 51.171875 25.484375 53.578125 
Q 30.03125 56 36.53125 56 
Q 37.453125 56 38.578125 55.875 
Q 39.703125 55.765625 41.0625 55.515625 
z
" id="DejaVuSans-114"/>
     </defs>
     <g transform="translate(508.6675 79.9165)scale(0.16 -0.16)">
      <use xlink:href="#DejaVuSans-68"/>
      <use x="77.001953" xlink:href="#DejaVuSans-101"/>
      <use x="138.525391" xlink:href="#DejaVuSans-103"/>
      <use x="202.001953" xlink:href="#DejaVuSans-114"/>
      <use x="243.083984" xlink:href="#DejaVuSans-101"/>
      <use x="304.607422" xlink:href="#DejaVuSans-101"/>
     </g>
    </g>
    <g id="line2d_27"/>
    <g id="line2d_28">
     <defs>
      <path d="M 0 5.6 
C 1.485137 5.6 2.909647 5.009949 3.959798 3.959798 
C 5.009949 2.909647 5.6 1.485137 5.6 0 
C 5.6 -1.485137 5.009949 -2.909647 3.959798 -3.959798 
C 2.909647 -5.009949 1.485137 -5.6 0 -5.6 
C -1.485137 -5.6 -2.909647 -5.009949 -3.959798 -3.959798 
C -5.009949 -2.909647 -5.6 -1.485137 -5.6 0 
C -5.6 1.485137 -5.009949 2.909647 -3.959798 3.959798 
C -2.909647 5.009949 -1.485137 5.6 0 5.6 
z
" id="m835ab60774"/>
     </defs>
     <g>
      <use style="fill:#ff7f0e;" x="492.6675" xlink:href="#m835ab60774" y="89.8015"/>
     </g>
    </g>
    <g id="text_19">
     <!-- Betweenness -->
     <defs>
      <path d="M 19.671875 34.8125 
L 19.671875 8.109375 
L 35.5 8.109375 
Q 43.453125 8.109375 47.28125 11.40625 
Q 51.125 14.703125 51.125 21.484375 
Q 51.125 28.328125 47.28125 31.5625 
Q 43.453125 34.8125 35.5 34.8125 
z
M 19.671875 64.796875 
L 19.671875 42.828125 
L 34.28125 42.828125 
Q 41.5 42.828125 45.03125 45.53125 
Q 48.578125 48.25 48.578125 53.8125 
Q 48.578125 59.328125 45.03125 62.0625 
Q 41.5 64.796875 34.28125 64.796875 
z
M 9.8125 72.90625 
L 35.015625 72.90625 
Q 46.296875 72.90625 52.390625 68.21875 
Q 58.5 63.53125 58.5 54.890625 
Q 58.5 48.1875 55.375 44.234375 
Q 52.25 40.28125 46.1875 39.3125 
Q 53.46875 37.75 57.5 32.78125 
Q 61.53125 27.828125 61.53125 20.40625 
Q 61.53125 10.640625 54.890625 5.3125 
Q 48.25 0 35.984375 0 
L 9.8125 0 
z
" id="DejaVuSans-66"/>
      <path d="M 18.3125 70.21875 
L 18.3125 54.6875 
L 36.8125 54.6875 
L 36.8125 47.703125 
L 18.3125 47.703125 
L 18.3125 18.015625 
Q 18.3125 11.328125 20.140625 9.421875 
Q 21.96875 7.515625 27.59375 7.515625 
L 36.8125 7.515625 
L 36.8125 0 
L 27.59375 0 
Q 17.1875 0 13.234375 3.875 
Q 9.28125 7.765625 9.28125 18.015625 
L 9.28125 47.703125 
L 2.6875 47.703125 
L 2.6875 54.6875 
L 9.28125 54.6875 
L 9.28125 70.21875 
z
" id="DejaVuSans-116"/>
      <path d="M 4.203125 54.6875 
L 13.1875 54.6875 
L 24.421875 12.015625 
L 35.59375 54.6875 
L 46.1875 54.6875 
L 57.421875 12.015625 
L 68.609375 54.6875 
L 77.59375 54.6875 
L 63.28125 0 
L 52.6875 0 
L 40.921875 44.828125 
L 29.109375 0 
L 18.5 0 
z
" id="DejaVuSans-119"/>
      <path d="M 54.890625 33.015625 
L 54.890625 0 
L 45.90625 0 
L 45.90625 32.71875 
Q 45.90625 40.484375 42.875 44.328125 
Q 39.84375 48.1875 33.796875 48.1875 
Q 26.515625 48.1875 22.3125 43.546875 
Q 18.109375 38.921875 18.109375 30.90625 
L 18.109375 0 
L 9.078125 0 
L 9.078125 54.6875 
L 18.109375 54.6875 
L 18.109375 46.1875 
Q 21.34375 51.125 25.703125 53.5625 
Q 30.078125 56 35.796875 56 
Q 45.21875 56 50.046875 50.171875 
Q 54.890625 44.34375 54.890625 33.015625 
z
" id="DejaVuSans-110"/>
      <path d="M 44.28125 53.078125 
L 44.28125 44.578125 
Q 40.484375 46.53125 36.375 47.5 
Q 32.28125 48.484375 27.875 48.484375 
Q 21.1875 48.484375 17.84375 46.4375 
Q 14.5 44.390625 14.5 40.28125 
Q 14.5 37.15625 16.890625 35.375 
Q 19.28125 33.59375 26.515625 31.984375 
L 29.59375 31.296875 
Q 39.15625 29.25 43.1875 25.515625 
Q 47.21875 21.78125 47.21875 15.09375 
Q 47.21875 7.46875 41.1875 3.015625 
Q 35.15625 -1.421875 24.609375 -1.421875 
Q 20.21875 -1.421875 15.453125 -0.5625 
Q 10.6875 0.296875 5.421875 2 
L 5.421875 11.28125 
Q 10.40625 8.6875 15.234375 7.390625 
Q 20.0625 6.109375 24.8125 6.109375 
Q 31.15625 6.109375 34.5625 8.28125 
Q 37.984375 10.453125 37.984375 14.40625 
Q 37.984375 18.0625 35.515625 20.015625 
Q 33.0625 21.96875 24.703125 23.78125 
L 21.578125 24.515625 
Q 13.234375 26.265625 9.515625 29.90625 
Q 5.8125 33.546875 5.8125 39.890625 
Q 5.8125 47.609375 11.28125 51.796875 
Q 16.75 56 26.8125 56 
Q 31.78125 56 36.171875 55.265625 
Q 40.578125 54.546875 44.28125 53.078125 
z
" id="DejaVuSans-115"/>
     </defs>
     <g transform="translate(508.6675 95.4015)scale(0.16 -0.16)">
      <use xlink:href="#DejaVuSans-66"/>
      <use x="68.603516" xlink:href="#DejaVuSans-101"/>
      <use x="130.126953" xlink:href="#DejaVuSans-116"/>
      <use x="169.335938" xlink:href="#DejaVuSans-119"/>
      <use x="251.123047" xlink:href="#DejaVuSans-101"/>
      <use x="312.646484" xlink:href="#DejaVuSans-101"/>
      <use x="374.169922" xlink:href="#DejaVuSans-110"/>
      <use x="437.548828" xlink:href="#DejaVuSans-110"/>
      <use x="500.927734" xlink:href="#DejaVuSans-101"/>
      <use x="562.451172" xlink:href="#DejaVuSans-115"/>
      <use x="614.550781" xlink:href="#DejaVuSans-115"/>
     </g>
    </g>
    <g id="line2d_29"/>
    <g id="line2d_30">
     <defs>
      <path d="M 0 5.6 
C 1.485137 5.6 2.909647 5.009949 3.959798 3.959798 
C 5.009949 2.909647 5.6 1.485137 5.6 0 
C 5.6 -1.485137 5.009949 -2.909647 3.959798 -3.959798 
C 2.909647 -5.009949 1.485137 -5.6 0 -5.6 
C -1.485137 -5.6 -2.909647 -5.009949 -3.959798 -3.959798 
C -5.009949 -2.909647 -5.6 -1.485137 -5.6 0 
C -5.6 1.485137 -5.009949 2.909647 -3.959798 3.959798 
C -2.909647 5.009949 -1.485137 5.6 0 5.6 
z
" id="m3afd703850"/>
     </defs>
     <g>
      <use style="fill:#2ca02c;" x="492.6675" xlink:href="#m3afd703850" y="105.2865"/>
     </g>
    </g>
    <g id="text_20">
     <!-- Closeness -->
     <defs>
      <path d="M 64.40625 67.28125 
L 64.40625 56.890625 
Q 59.421875 61.53125 53.78125 63.8125 
Q 48.140625 66.109375 41.796875 66.109375 
Q 29.296875 66.109375 22.65625 58.46875 
Q 16.015625 50.828125 16.015625 36.375 
Q 16.015625 21.96875 22.65625 14.328125 
Q 29.296875 6.6875 41.796875 6.6875 
Q 48.140625 6.6875 53.78125 8.984375 
Q 59.421875 11.28125 64.40625 15.921875 
L 64.40625 5.609375 
Q 59.234375 2.09375 53.4375 0.328125 
Q 47.65625 -1.421875 41.21875 -1.421875 
Q 24.65625 -1.421875 15.125 8.703125 
Q 5.609375 18.84375 5.609375 36.375 
Q 5.609375 53.953125 15.125 64.078125 
Q 24.65625 74.21875 41.21875 74.21875 
Q 47.75 74.21875 53.53125 72.484375 
Q 59.328125 70.75 64.40625 67.28125 
z
" id="DejaVuSans-67"/>
      <path d="M 9.421875 75.984375 
L 18.40625 75.984375 
L 18.40625 0 
L 9.421875 0 
z
" id="DejaVuSans-108"/>
      <path d="M 30.609375 48.390625 
Q 23.390625 48.390625 19.1875 42.75 
Q 14.984375 37.109375 14.984375 27.296875 
Q 14.984375 17.484375 19.15625 11.84375 
Q 23.34375 6.203125 30.609375 6.203125 
Q 37.796875 6.203125 41.984375 11.859375 
Q 46.1875 17.53125 46.1875 27.296875 
Q 46.1875 37.015625 41.984375 42.703125 
Q 37.796875 48.390625 30.609375 48.390625 
z
M 30.609375 56 
Q 42.328125 56 49.015625 48.375 
Q 55.71875 40.765625 55.71875 27.296875 
Q 55.71875 13.875 49.015625 6.21875 
Q 42.328125 -1.421875 30.609375 -1.421875 
Q 18.84375 -1.421875 12.171875 6.21875 
Q 5.515625 13.875 5.515625 27.296875 
Q 5.515625 40.765625 12.171875 48.375 
Q 18.84375 56 30.609375 56 
z
" id="DejaVuSans-111"/>
     </defs>
     <g transform="translate(508.6675 110.8865)scale(0.16 -0.16)">
      <use xlink:href="#DejaVuSans-67"/>
      <use x="69.824219" xlink:href="#DejaVuSans-108"/>
      <use x="97.607422" xlink:href="#DejaVuSans-111"/>
      <use x="158.789062" xlink:href="#DejaVuSans-115"/>
      <use x="210.888672" xlink:href="#DejaVuSans-101"/>
      <use x="272.412109" xlink:href="#DejaVuSans-110"/>
      <use x="335.791016" xlink:href="#DejaVuSans-101"/>
      <use x="397.314453" xlink:href="#DejaVuSans-115"/>
      <use x="449.414062" xlink:href="#DejaVuSans-115"/>
     </g>
    </g>
    <g id="line2d_31"/>
    <g id="line2d_32">
     <defs>
      <path d="M 0 5.6 
C 1.485137 5.6 2.909647 5.009949 3.959798 3.959798 
C 5.009949 2.909647 5.6 1.485137 5.6 0 
C 5.6 -1.485137 5.009949 -2.909647 3.959798 -3.959798 
C 2.909647 -5.009949 1.485137 -5.6 0 -5.6 
C -1.485137 -5.6 -2.909647 -5.009949 -3.959798 -3.959798 
C -5.009949 -2.909647 -5.6 -1.485137 -5.6 0 
C -5.6 1.485137 -5.009949 2.909647 -3.959798 3.959798 
C -2.909647 5.009949 -1.485137 5.6 0 5.6 
z
" id="mba562f8dcc"/>
     </defs>
     <g>
      <use style="fill:#d62728;" x="492.6675" xlink:href="#mba562f8dcc" y="120.7715"/>
     </g>
    </g>
    <g id="text_21">
     <!-- Eigenvector -->
     <defs>
      <path d="M 9.8125 72.90625 
L 55.90625 72.90625 
L 55.90625 64.59375 
L 19.671875 64.59375 
L 19.671875 43.015625 
L 54.390625 43.015625 
L 54.390625 34.71875 
L 19.671875 34.71875 
L 19.671875 8.296875 
L 56.78125 8.296875 
L 56.78125 0 
L 9.8125 0 
z
" id="DejaVuSans-69"/>
      <path d="M 9.421875 54.6875 
L 18.40625 54.6875 
L 18.40625 0 
L 9.421875 0 
z
M 9.421875 75.984375 
L 18.40625 75.984375 
L 18.40625 64.59375 
L 9.421875 64.59375 
z
" id="DejaVuSans-105"/>
      <path d="M 2.984375 54.6875 
L 12.5 54.6875 
L 29.59375 8.796875 
L 46.6875 54.6875 
L 56.203125 54.6875 
L 35.6875 0 
L 23.484375 0 
z
" id="DejaVuSans-118"/>
      <path d="M 48.78125 52.59375 
L 48.78125 44.1875 
Q 44.96875 46.296875 41.140625 47.34375 
Q 37.3125 48.390625 33.40625 48.390625 
Q 24.65625 48.390625 19.8125 42.84375 
Q 14.984375 37.3125 14.984375 27.296875 
Q 14.984375 17.28125 19.8125 11.734375 
Q 24.65625 6.203125 33.40625 6.203125 
Q 37.3125 6.203125 41.140625 7.25 
Q 44.96875 8.296875 48.78125 10.40625 
L 48.78125 2.09375 
Q 45.015625 0.34375 40.984375 -0.53125 
Q 36.96875 -1.421875 32.421875 -1.421875 
Q 20.0625 -1.421875 12.78125 6.34375 
Q 5.515625 14.109375 5.515625 27.296875 
Q 5.515625 40.671875 12.859375 48.328125 
Q 20.21875 56 33.015625 56 
Q 37.15625 56 41.109375 55.140625 
Q 45.0625 54.296875 48.78125 52.59375 
z
" id="DejaVuSans-99"/>
     </defs>
     <g transform="translate(508.6675 126.3715)scale(0.16 -0.16)">
      <use xlink:href="#DejaVuSans-69"/>
      <use x="63.183594" xlink:href="#DejaVuSans-105"/>
      <use x="90.966797" xlink:href="#DejaVuSans-103"/>
      <use x="154.443359" xlink:href="#DejaVuSans-101"/>
      <use x="215.966797" xlink:href="#DejaVuSans-110"/>
      <use x="279.345703" xlink:href="#DejaVuSans-118"/>
      <use x="338.525391" xlink:href="#DejaVuSans-101"/>
      <use x="400.048828" xlink:href="#DejaVuSans-99"/>
      <use x="455.029297" xlink:href="#DejaVuSans-116"/>
      <use x="494.238281" xlink:href="#DejaVuSans-111"/>
      <use x="555.419922" xlink:href="#DejaVuSans-114"/>
     </g>
    </g>
    <g id="line2d_33"/>
    <g id="line2d_34">
     <defs>
      <path d="M 0 5.6 
C 1.485137 5.6 2.909647 5.009949 3.959798 3.959798 
C 5.009949 2.909647 5.6 1.485137 5.6 0 
C 5.6 -1.485137 5.009949 -2.909647 3.959798 -3.959798 
C 2.909647 -5.009949 1.485137 -5.6 0 -5.6 
C -1.485137 -5.6 -2.909647 -5.009949 -3.959798 -3.959798 
C -5.009949 -2.909647 -5.6 -1.485137 -5.6 0 
C -5.6 1.485137 -5.009949 2.909647 -3.959798 3.959798 
C -2.909647 5.009949 -1.485137 5.6 0 5.6 
z
" id="m02c80a8ad1"/>
     </defs>
     <g>
      <use style="fill:#808080;" x="492.6675" xlink:href="#m02c80a8ad1" y="146.019"/>
     </g>
    </g>
    <g id="text_22">
     <!-- $\int_0^1 P(x) dx &lt; \alpha$ -->
     <defs>
      <path d="M 33.34375 86.328125 
Q 33.9375 97.859375 39.5 102.4375 
Q 45.0625 107.03125 50.28125 107.03125 
Q 55.515625 107.03125 59.890625 102.734375 
Q 64.265625 98.4375 65.625 88.71875 
L 55.375 87.703125 
Q 54.203125 96.6875 50.296875 96.6875 
Q 45.40625 96.6875 44.828125 84.578125 
L 40.328125 -9.328125 
Q 39.796875 -20.84375 34.171875 -25.4375 
Q 28.5625 -30.03125 23.390625 -30.03125 
Q 18.171875 -30.03125 13.796875 -25.734375 
Q 9.421875 -21.4375 8.0625 -11.71875 
L 18.3125 -10.6875 
Q 19.484375 -19.671875 23.390625 -19.671875 
Q 28.265625 -19.671875 28.859375 -7.625 
z
" id="DejaVuSansDisplay-8747"/>
      <path d="M 16.890625 72.90625 
L 39.703125 72.90625 
Q 49.65625 72.90625 54.875 68.265625 
Q 60.109375 63.625 60.109375 54.6875 
Q 60.109375 42.671875 52.390625 35.984375 
Q 44.671875 29.296875 30.71875 29.296875 
L 18.3125 29.296875 
L 12.59375 0 
L 2.6875 0 
z
M 25.203125 64.796875 
L 19.921875 37.40625 
L 32.328125 37.40625 
Q 40.71875 37.40625 45.203125 41.703125 
Q 49.703125 46 49.703125 54 
Q 49.703125 59.125 46.65625 61.953125 
Q 43.609375 64.796875 38.09375 64.796875 
z
" id="DejaVuSans-Oblique-80"/>
      <path d="M 31 75.875 
Q 24.46875 64.65625 21.28125 53.65625 
Q 18.109375 42.671875 18.109375 31.390625 
Q 18.109375 20.125 21.3125 9.0625 
Q 24.515625 -2 31 -13.1875 
L 23.1875 -13.1875 
Q 15.875 -1.703125 12.234375 9.375 
Q 8.59375 20.453125 8.59375 31.390625 
Q 8.59375 42.28125 12.203125 53.3125 
Q 15.828125 64.359375 23.1875 75.875 
z
" id="DejaVuSans-40"/>
      <path d="M 60.015625 54.6875 
L 34.90625 27.875 
L 50.296875 0 
L 39.984375 0 
L 28.421875 21.6875 
L 8.296875 0 
L -2.59375 0 
L 24.3125 28.8125 
L 10.015625 54.6875 
L 20.3125 54.6875 
L 30.8125 34.90625 
L 49.125 54.6875 
z
" id="DejaVuSans-Oblique-120"/>
      <path d="M 8.015625 75.875 
L 15.828125 75.875 
Q 23.140625 64.359375 26.78125 53.3125 
Q 30.421875 42.28125 30.421875 31.390625 
Q 30.421875 20.453125 26.78125 9.375 
Q 23.140625 -1.703125 15.828125 -13.1875 
L 8.015625 -13.1875 
Q 14.5 -2 17.703125 9.0625 
Q 20.90625 20.125 20.90625 31.390625 
Q 20.90625 42.671875 17.703125 53.65625 
Q 14.5 64.65625 8.015625 75.875 
z
" id="DejaVuSans-41"/>
      <path d="M 41.796875 8.203125 
Q 38.1875 3.46875 33.25 1.015625 
Q 28.328125 -1.421875 22.3125 -1.421875 
Q 14.109375 -1.421875 9.34375 4.171875 
Q 4.59375 9.765625 4.59375 19.484375 
Q 4.59375 27.59375 7.46875 34.9375 
Q 10.359375 42.28125 15.828125 48.09375 
Q 19.4375 51.953125 23.96875 53.96875 
Q 28.515625 56 33.5 56 
Q 38.765625 56 42.796875 53.453125 
Q 46.828125 50.921875 49.03125 46.1875 
L 54.890625 75.984375 
L 63.921875 75.984375 
L 49.125 0 
L 40.09375 0 
z
M 13.921875 21.09375 
Q 13.921875 14.015625 17.109375 10.0625 
Q 20.3125 6.109375 25.984375 6.109375 
Q 30.171875 6.109375 33.765625 8.125 
Q 37.359375 10.15625 40.09375 14.109375 
Q 42.96875 18.21875 44.625 23.578125 
Q 46.296875 28.953125 46.296875 34.1875 
Q 46.296875 40.96875 43.09375 44.765625 
Q 39.890625 48.578125 34.28125 48.578125 
Q 30.03125 48.578125 26.359375 46.578125 
Q 22.703125 44.578125 20.125 40.828125 
Q 17.28125 36.765625 15.59375 31.390625 
Q 13.921875 26.03125 13.921875 21.09375 
z
" id="DejaVuSans-Oblique-100"/>
      <path d="M 73.1875 49.21875 
L 22.796875 31.296875 
L 73.1875 13.484375 
L 73.1875 4.59375 
L 10.59375 27.296875 
L 10.59375 35.40625 
L 73.1875 58.109375 
z
" id="DejaVuSans-60"/>
      <path d="M 40.921875 25.4375 
L 40.96875 36.71875 
Q 41.015625 48.25 32.328125 48.296875 
Q 25.828125 48.34375 21.78125 42.921875 
Q 16.703125 36.234375 14.984375 27.296875 
Q 12.890625 16.546875 15.53125 11.421875 
Q 18.265625 6.203125 24.171875 6.203125 
Q 30.71875 6.203125 36.234375 16.609375 
z
M 33.84375 55.90625 
Q 49.078125 56.15625 48.875 40.375 
Q 48.875 40.375 56.5 54.6875 
L 64.5 54.6875 
L 48.734375 25.046875 
L 48.578125 14.359375 
Q 48.578125 11.96875 49.90625 9.96875 
Q 51.421875 7.625 52.984375 7.625 
L 57.328125 7.625 
L 55.859375 0 
L 50.4375 0 
Q 45.84375 0 42.53125 4.109375 
Q 40.96875 6.15625 40.921875 10.453125 
Q 37.75 5.21875 32.28125 0.78125 
Q 29.6875 -1.265625 22.703125 -1.21875 
Q 11.28125 -1.125 7.125 6.203125 
Q 2.875 13.8125 5.515625 27.296875 
Q 8.34375 41.796875 15.765625 48.390625 
Q 24.125 55.765625 33.84375 55.90625 
z
" id="DejaVuSans-Oblique-945"/>
     </defs>
     <g transform="translate(508.6675 151.619)scale(0.16 -0.16)">
      <use transform="translate(0 0.809375)" xlink:href="#DejaVuSansDisplay-8747"/>
      <use transform="translate(86.744141 85.965625)scale(0.7)" xlink:href="#DejaVuSans-49"/>
      <use transform="translate(71.759766 -51.096875)scale(0.7)" xlink:href="#DejaVuSans-48"/>
      <use transform="translate(131.280273 0.809375)" xlink:href="#DejaVuSans-Oblique-80"/>
      <use transform="translate(191.583008 0.809375)" xlink:href="#DejaVuSans-40"/>
      <use transform="translate(230.59668 0.809375)" xlink:href="#DejaVuSans-Oblique-120"/>
      <use transform="translate(289.776367 0.809375)" xlink:href="#DejaVuSans-41"/>
      <use transform="translate(328.790039 0.809375)" xlink:href="#DejaVuSans-Oblique-100"/>
      <use transform="translate(392.266602 0.809375)" xlink:href="#DejaVuSans-Oblique-120"/>
      <use transform="translate(470.928711 0.809375)" xlink:href="#DejaVuSans-60"/>
      <use transform="translate(574.200195 0.809375)" xlink:href="#DejaVuSans-Oblique-945"/>
     </g>
    </g>
   </g>
  </g>
  <g id="axes_3">
   <g id="patch_14">
    <path d="M 621.7325 292.389 
L 900.7325 292.389 
L 900.7325 20.589 
L 621.7325 20.589 
z
" style="fill:none;"/>
   </g>
   <g id="PolyCollection_9"/>
   <g id="PolyCollection_10">
    <path clip-path="url(#pf168f4b62e)" d="M 634.414318 233.201007 
L 634.414318 233.201007 
L 639.590571 233.182515 
L 644.766823 233.146458 
L 649.943075 233.078373 
L 655.119327 232.953896 
L 660.29558 232.733599 
L 665.471832 232.356274 
L 670.648084 231.730972 
L 675.824337 230.728682 
L 681.000589 229.175349 
L 686.176841 226.848821 
L 691.353094 223.483007 
L 696.529346 218.782736 
L 701.705598 212.452047 
L 706.881851 204.236713 
L 712.058103 193.978587 
L 717.234355 181.675368 
L 722.410608 167.535442 
L 727.58686 152.014827 
L 732.763112 135.823269 
L 737.939365 119.889933 
L 743.115617 105.286034 
L 748.291869 93.110862 
L 753.468122 84.35696 
L 758.644374 79.776993 
L 763.820626 79.776993 
L 768.996878 84.35696 
L 774.173131 93.110862 
L 779.349383 105.286034 
L 784.525635 119.889933 
L 789.701888 135.823269 
L 794.87814 152.014827 
L 800.054392 167.535442 
L 805.230645 181.675368 
L 810.406897 193.978587 
L 815.583149 204.236713 
L 820.759402 212.452047 
L 825.935654 218.782736 
L 831.111906 223.483007 
L 836.288159 226.848821 
L 841.464411 229.175349 
L 846.640663 230.728682 
L 851.816916 231.730972 
L 856.993168 232.356274 
L 862.16942 232.733599 
L 867.345673 232.953896 
L 872.521925 233.078373 
L 877.698177 233.146458 
L 882.874429 233.182515 
L 888.050682 233.201007 
L 888.050682 233.201007 
L 888.050682 233.201007 
L 882.874429 233.201007 
L 877.698177 233.201007 
L 872.521925 233.201007 
L 867.345673 233.201007 
L 862.16942 233.201007 
L 856.993168 233.201007 
L 851.816916 233.201007 
L 846.640663 233.201007 
L 841.464411 233.201007 
L 836.288159 233.201007 
L 831.111906 233.201007 
L 825.935654 233.201007 
L 820.759402 233.201007 
L 815.583149 233.201007 
L 810.406897 233.201007 
L 805.230645 233.201007 
L 800.054392 233.201007 
L 794.87814 233.201007 
L 789.701888 233.201007 
L 784.525635 233.201007 
L 779.349383 233.201007 
L 774.173131 233.201007 
L 768.996878 233.201007 
L 763.820626 233.201007 
L 758.644374 233.201007 
L 753.468122 233.201007 
L 748.291869 233.201007 
L 743.115617 233.201007 
L 737.939365 233.201007 
L 732.763112 233.201007 
L 727.58686 233.201007 
L 722.410608 233.201007 
L 717.234355 233.201007 
L 712.058103 233.201007 
L 706.881851 233.201007 
L 701.705598 233.201007 
L 696.529346 233.201007 
L 691.353094 233.201007 
L 686.176841 233.201007 
L 681.000589 233.201007 
L 675.824337 233.201007 
L 670.648084 233.201007 
L 665.471832 233.201007 
L 660.29558 233.201007 
L 655.119327 233.201007 
L 649.943075 233.201007 
L 644.766823 233.201007 
L 639.590571 233.201007 
L 634.414318 233.201007 
z
" style="fill:#ff7f0e;stroke:#ff7f0e;stroke-dasharray:1.776,0.768;stroke-dashoffset:0;stroke-width:0.48;"/>
   </g>
   <g id="PolyCollection_11"/>
   <g id="PolyCollection_12"/>
   <g id="matplotlib.axis_5">
    <g id="xtick_7">
     <g id="line2d_35">
      <g>
       <use style="stroke:#000000;stroke-width:1.6;" x="724.464716" xlink:href="#m929228ae6e" y="292.389"/>
      </g>
     </g>
     <g id="text_23">
      <!-- 0 -->
      <g transform="translate(719.374716 319.2465)scale(0.16 -0.16)">
       <use xlink:href="#DejaVuSans-48"/>
      </g>
     </g>
    </g>
    <g id="xtick_8">
     <g id="line2d_36">
      <g>
       <use style="stroke:#000000;stroke-width:1.6;" x="833.580885" xlink:href="#m929228ae6e" y="292.389"/>
      </g>
     </g>
     <g id="text_24">
      <!-- 1 -->
      <g transform="translate(828.490885 319.2465)scale(0.16 -0.16)">
       <use xlink:href="#DejaVuSans-49"/>
      </g>
     </g>
    </g>
   </g>
   <g id="matplotlib.axis_6">
    <g id="ytick_15">
     <g id="line2d_37">
      <g>
       <use style="stroke:#000000;stroke-width:1.6;" x="621.7325" xlink:href="#m7b3e76c849" y="271.557011"/>
      </g>
     </g>
    </g>
    <g id="ytick_16">
     <g id="line2d_38">
      <g>
       <use style="stroke:#000000;stroke-width:1.6;" x="621.7325" xlink:href="#m7b3e76c849" y="233.201007"/>
      </g>
     </g>
    </g>
    <g id="ytick_17">
     <g id="line2d_39">
      <g>
       <use style="stroke:#000000;stroke-width:1.6;" x="621.7325" xlink:href="#m7b3e76c849" y="194.845004"/>
      </g>
     </g>
    </g>
    <g id="ytick_18">
     <g id="line2d_40">
      <g>
       <use style="stroke:#000000;stroke-width:1.6;" x="621.7325" xlink:href="#m7b3e76c849" y="156.489"/>
      </g>
     </g>
    </g>
    <g id="ytick_19">
     <g id="line2d_41">
      <g>
       <use style="stroke:#000000;stroke-width:1.6;" x="621.7325" xlink:href="#m7b3e76c849" y="118.132996"/>
      </g>
     </g>
    </g>
    <g id="ytick_20">
     <g id="line2d_42">
      <g>
       <use style="stroke:#000000;stroke-width:1.6;" x="621.7325" xlink:href="#m7b3e76c849" y="79.776993"/>
      </g>
     </g>
    </g>
    <g id="ytick_21">
     <g id="line2d_43">
      <g>
       <use style="stroke:#000000;stroke-width:1.6;" x="621.7325" xlink:href="#m7b3e76c849" y="41.420989"/>
      </g>
     </g>
    </g>
   </g>
   <g id="line2d_44">
    <path clip-path="url(#pf168f4b62e)" d="M 634.414318 233.201007 
L 639.590571 233.182515 
L 644.766823 233.146458 
L 649.943075 233.078373 
L 655.119327 232.953896 
L 660.29558 232.733599 
L 665.471832 232.356274 
L 670.648084 231.730972 
L 675.824337 230.728682 
L 681.000589 229.175349 
L 686.176841 226.848821 
L 691.353094 223.483007 
L 696.529346 218.782736 
L 701.705598 212.452047 
L 706.881851 204.236713 
L 712.058103 193.978587 
L 717.234355 181.675368 
L 722.410608 167.535442 
L 727.58686 152.014827 
L 732.763112 135.823269 
L 737.939365 119.889933 
L 743.115617 105.286034 
L 748.291869 93.110862 
L 753.468122 84.35696 
L 758.644374 79.776993 
L 763.820626 79.776993 
L 768.996878 84.35696 
L 774.173131 93.110862 
L 779.349383 105.286034 
L 784.525635 119.889933 
L 789.701888 135.823269 
L 794.87814 152.014827 
L 800.054392 167.535442 
L 805.230645 181.675368 
L 810.406897 193.978587 
L 815.583149 204.236713 
L 820.759402 212.452047 
L 825.935654 218.782736 
L 831.111906 223.483007 
L 836.288159 226.848821 
L 841.464411 229.175349 
L 846.640663 230.728682 
L 851.816916 231.730972 
L 856.993168 232.356274 
L 862.16942 232.733599 
L 867.345673 232.953896 
L 872.521925 233.078373 
L 877.698177 233.146458 
L 882.874429 233.182515 
L 888.050682 233.201007 
" style="fill:none;stroke:#000000;stroke-dasharray:10.36,4.48;stroke-dashoffset:0;stroke-width:2.8;"/>
   </g>
   <g id="line2d_45">
    <path clip-path="url(#pf168f4b62e)" d="M 833.580885 292.389 
L 833.580885 20.589 
" style="fill:none;stroke:#808080;stroke-dasharray:10.36,4.48;stroke-dashoffset:0;stroke-width:2.8;"/>
   </g>
   <g id="patch_15">
    <path d="M 621.7325 292.389 
L 621.7325 20.589 
" style="fill:none;stroke:#000000;stroke-linecap:square;stroke-linejoin:miter;stroke-width:0.8;"/>
   </g>
   <g id="patch_16">
    <path d="M 900.7325 292.389 
L 900.7325 20.589 
" style="fill:none;stroke:#000000;stroke-linecap:square;stroke-linejoin:miter;stroke-width:0.8;"/>
   </g>
   <g id="patch_17">
    <path d="M 621.7325 292.389 
L 900.7325 292.389 
" style="fill:none;stroke:#000000;stroke-linecap:square;stroke-linejoin:miter;stroke-width:0.8;"/>
   </g>
   <g id="patch_18">
    <path d="M 621.7325 20.589 
L 900.7325 20.589 
" style="fill:none;stroke:#000000;stroke-linecap:square;stroke-linejoin:miter;stroke-width:0.8;"/>
   </g>
   <g id="text_25">
    <!-- inf -->
    <defs>
     <path d="M 37.109375 75.984375 
L 37.109375 68.5 
L 28.515625 68.5 
Q 23.6875 68.5 21.796875 66.546875 
Q 19.921875 64.59375 19.921875 59.515625 
L 19.921875 54.6875 
L 34.71875 54.6875 
L 34.71875 47.703125 
L 19.921875 47.703125 
L 19.921875 0 
L 10.890625 0 
L 10.890625 47.703125 
L 2.296875 47.703125 
L 2.296875 54.6875 
L 10.890625 54.6875 
L 10.890625 58.5 
Q 10.890625 67.625 15.140625 71.796875 
Q 19.390625 75.984375 28.609375 75.984375 
z
" id="DejaVuSans-102"/>
    </defs>
    <g transform="translate(749.102 14.589)scale(0.192 -0.192)">
     <use xlink:href="#DejaVuSans-105"/>
     <use x="27.783203" xlink:href="#DejaVuSans-110"/>
     <use x="91.162109" xlink:href="#DejaVuSans-102"/>
    </g>
   </g>
  </g>
 </g>
 <defs>
  <clipPath id="p0f6670dcf0">
   <rect height="271.8" width="279" x="63.7325" y="20.589"/>
  </clipPath>
  <clipPath id="pffbf95f1e8">
   <rect height="271.8" width="279" x="342.7325" y="20.589"/>
  </clipPath>
  <clipPath id="pf168f4b62e">
   <rect height="271.8" width="279" x="621.7325" y="20.589"/>
  </clipPath>
 </defs>
</svg>
