<?xml version="1.0" encoding="utf-8" standalone="no"?>
<!DOCTYPE svg PUBLIC "-//W3C//DTD SVG 1.1//EN"
  "http://www.w3.org/Graphics/SVG/1.1/DTD/svg11.dtd">
<!-- Created with matplotlib (https://matplotlib.org/) -->
<svg height="301.985pt" version="1.1" viewBox="0 0 494.1825 301.985" width="494.1825pt" xmlns="http://www.w3.org/2000/svg" xmlns:xlink="http://www.w3.org/1999/xlink">
 <defs>
  <style type="text/css">
*{stroke-linecap:butt;stroke-linejoin:round;}
  </style>
 </defs>
 <g id="figure_1">
  <g id="patch_1">
   <path d="M 0 301.985 
L 494.1825 301.985 
L 494.1825 0 
L 0 0 
z
" style="fill:#ffffff;"/>
  </g>
  <g id="axes_1">
   <g id="patch_2">
    <path d="M 35.06 271.8 
L 481.46 271.8 
L 481.46 0 
L 35.06 0 
z
" style="fill:#ffffff;"/>
   </g>
   <g id="PolyCollection_1">
    <defs>
     <path d="M 265.927912 -30.309794 
L 265.927912 -30.185 
L 266.668679 -30.185 
L 267.409446 -30.185 
L 268.150212 -30.185 
L 268.890979 -30.185 
L 269.631746 -30.185 
L 270.372513 -30.185 
L 271.11328 -30.185 
L 271.854046 -30.185 
L 272.594813 -30.185 
L 273.33558 -30.185 
L 274.076347 -30.185 
L 274.817114 -30.185 
L 275.55788 -30.185 
L 276.298647 -30.185 
L 277.039414 -30.185 
L 277.780181 -30.185 
L 278.520947 -30.185 
L 279.261714 -30.185 
L 280.002481 -30.185 
L 280.743248 -30.185 
L 281.484015 -30.185 
L 282.224781 -30.185 
L 282.965548 -30.185 
L 283.706315 -30.185 
L 284.447082 -30.185 
L 285.187848 -30.185 
L 285.928615 -30.185 
L 286.669382 -30.185 
L 287.410149 -30.185 
L 288.150916 -30.185 
L 288.891682 -30.185 
L 289.632449 -30.185 
L 290.373216 -30.185 
L 291.113983 -30.185 
L 291.85475 -30.185 
L 292.595516 -30.185 
L 293.336283 -30.185 
L 294.07705 -30.185 
L 294.817817 -30.185 
L 295.558583 -30.185 
L 296.29935 -30.185 
L 297.040117 -30.185 
L 297.780884 -30.185 
L 298.521651 -30.185 
L 299.262417 -30.185 
L 300.003184 -30.185 
L 300.743951 -30.185 
L 301.484718 -30.185 
L 302.225485 -30.185 
L 302.966251 -30.185 
L 303.707018 -30.185 
L 304.447785 -30.185 
L 305.188552 -30.185 
L 305.929318 -30.185 
L 306.670085 -30.185 
L 307.410852 -30.185 
L 308.151619 -30.185 
L 308.892386 -30.185 
L 309.633152 -30.185 
L 310.373919 -30.185 
L 311.114686 -30.185 
L 311.855453 -30.185 
L 312.596219 -30.185 
L 313.336986 -30.185 
L 314.077753 -30.185 
L 314.81852 -30.185 
L 315.559287 -30.185 
L 316.300053 -30.185 
L 317.04082 -30.185 
L 317.781587 -30.185 
L 318.522354 -30.185 
L 319.263121 -30.185 
L 320.003887 -30.185 
L 320.744654 -30.185 
L 321.485421 -30.185 
L 322.226188 -30.185 
L 322.966954 -30.185 
L 323.707721 -30.185 
L 324.448488 -30.185 
L 325.189255 -30.185 
L 325.930022 -30.185 
L 326.670788 -30.185 
L 327.411555 -30.185 
L 328.152322 -30.185 
L 328.893089 -30.185 
L 329.633855 -30.185 
L 330.374622 -30.185 
L 331.115389 -30.185 
L 331.856156 -30.185 
L 332.596923 -30.185 
L 333.337689 -30.185 
L 334.078456 -30.185 
L 334.819223 -30.185 
L 335.55999 -30.185 
L 336.300757 -30.185 
L 337.041523 -30.185 
L 337.78229 -30.185 
L 338.523057 -30.185 
L 339.263824 -30.185 
L 339.263824 -30.247397 
L 339.263824 -30.247397 
L 338.523057 -30.247397 
L 337.78229 -30.247397 
L 337.041523 -30.247397 
L 336.300757 -30.247397 
L 335.55999 -30.185 
L 334.819223 -30.309794 
L 334.078456 -30.309794 
L 333.337689 -30.185 
L 332.596923 -30.247397 
L 331.856156 -30.185 
L 331.115389 -30.247397 
L 330.374622 -30.559381 
L 329.633855 -30.496984 
L 328.893089 -30.621778 
L 328.152322 -30.496984 
L 327.411555 -30.933762 
L 326.670788 -31.058556 
L 325.930022 -31.18335 
L 325.189255 -31.432937 
L 324.448488 -31.807319 
L 323.707721 -32.930462 
L 322.966954 -33.928812 
L 322.226188 -33.429637 
L 321.485421 -35.114353 
L 320.744654 -35.987909 
L 320.003887 -38.296594 
L 319.263121 -40.979659 
L 318.522354 -41.666025 
L 317.781587 -42.601978 
L 317.04082 -47.281743 
L 316.300053 -48.904062 
L 315.559287 -51.275143 
L 314.81852 -59.386737 
L 314.077753 -62.069802 
L 313.336986 -68.995855 
L 312.596219 -76.545877 
L 311.855453 -81.163246 
L 311.114686 -89.586824 
L 310.373919 -95.327336 
L 309.633152 -106.43398 
L 308.892386 -110.052998 
L 308.151619 -125.714614 
L 307.410852 -135.198938 
L 306.670085 -145.681613 
L 305.929318 -158.660163 
L 305.188552 -167.770107 
L 304.447785 -183.494119 
L 303.707018 -188.298678 
L 302.966251 -200.528465 
L 302.225485 -210.761553 
L 301.484718 -219.434718 
L 300.743951 -228.731852 
L 300.003184 -234.721952 
L 299.262417 -247.575708 
L 298.521651 -244.892642 
L 297.780884 -247.887692 
L 297.040117 -245.017436 
L 296.29935 -252.005886 
L 295.558583 -242.521561 
L 294.817817 -241.398417 
L 294.07705 -237.093033 
L 293.336283 -234.846746 
L 292.595516 -217.126034 
L 291.85475 -211.385521 
L 291.113983 -199.280528 
L 290.373216 -191.106537 
L 289.632449 -183.743706 
L 288.891682 -160.71926 
L 288.150916 -149.550219 
L 287.410149 -140.939451 
L 286.669382 -128.272885 
L 285.928615 -119.724514 
L 285.187848 -108.805061 
L 284.447082 -97.948005 
L 283.706315 -91.333936 
L 282.965548 -77.544227 
L 282.224781 -72.053302 
L 281.484015 -65.252043 
L 280.743248 -59.449134 
L 280.002481 -53.958209 
L 279.261714 -50.651175 
L 278.520947 -46.34579 
L 277.780181 -44.1619 
L 277.039414 -39.606928 
L 276.298647 -36.611878 
L 275.55788 -36.424687 
L 274.817114 -35.17675 
L 274.076347 -33.741622 
L 273.33558 -32.680875 
L 272.594813 -32.244097 
L 271.854046 -31.432937 
L 271.11328 -30.996159 
L 270.372513 -31.495334 
L 269.631746 -30.746572 
L 268.890979 -30.808969 
L 268.150212 -30.434587 
L 267.409446 -30.185 
L 266.668679 -30.247397 
L 265.927912 -30.309794 
z
" id="meae1e40d07" style="stroke:#1f77b4;stroke-width:0.48;"/>
    </defs>
    <g clip-path="url(#p552b17a01b)">
     <use style="fill:#1f77b4;stroke:#1f77b4;stroke-width:0.48;" x="0" xlink:href="#meae1e40d07" y="301.985"/>
    </g>
   </g>
   <g id="PolyCollection_2">
    <defs>
     <path d="M 253.551968 -30.257135 
L 253.551968 -30.185 
L 254.192732 -30.185 
L 254.833497 -30.185 
L 255.474261 -30.185 
L 256.115025 -30.185 
L 256.755789 -30.185 
L 257.396553 -30.185 
L 258.037317 -30.185 
L 258.678082 -30.185 
L 259.318846 -30.185 
L 259.95961 -30.185 
L 260.600374 -30.185 
L 261.241138 -30.185 
L 261.881902 -30.185 
L 262.522666 -30.185 
L 263.163431 -30.185 
L 263.804195 -30.185 
L 264.444959 -30.185 
L 265.085723 -30.185 
L 265.726487 -30.185 
L 266.367251 -30.185 
L 267.008016 -30.185 
L 267.64878 -30.185 
L 268.289544 -30.185 
L 268.930308 -30.185 
L 269.571072 -30.185 
L 270.211836 -30.185 
L 270.852601 -30.185 
L 271.493365 -30.185 
L 272.134129 -30.185 
L 272.774893 -30.185 
L 273.415657 -30.185 
L 274.056421 -30.185 
L 274.697185 -30.185 
L 275.33795 -30.185 
L 275.978714 -30.185 
L 276.619478 -30.185 
L 277.260242 -30.185 
L 277.901006 -30.185 
L 278.54177 -30.185 
L 279.182535 -30.185 
L 279.823299 -30.185 
L 280.464063 -30.185 
L 281.104827 -30.185 
L 281.745591 -30.185 
L 282.386355 -30.185 
L 283.027119 -30.185 
L 283.667884 -30.185 
L 284.308648 -30.185 
L 284.949412 -30.185 
L 285.590176 -30.185 
L 286.23094 -30.185 
L 286.871704 -30.185 
L 287.512469 -30.185 
L 288.153233 -30.185 
L 288.793997 -30.185 
L 289.434761 -30.185 
L 290.075525 -30.185 
L 290.716289 -30.185 
L 291.357054 -30.185 
L 291.997818 -30.185 
L 292.638582 -30.185 
L 293.279346 -30.185 
L 293.92011 -30.185 
L 294.560874 -30.185 
L 295.201638 -30.185 
L 295.842403 -30.185 
L 296.483167 -30.185 
L 297.123931 -30.185 
L 297.764695 -30.185 
L 298.405459 -30.185 
L 299.046223 -30.185 
L 299.686988 -30.185 
L 300.327752 -30.185 
L 300.968516 -30.185 
L 301.60928 -30.185 
L 302.250044 -30.185 
L 302.890808 -30.185 
L 303.531572 -30.185 
L 304.172337 -30.185 
L 304.813101 -30.185 
L 305.453865 -30.185 
L 306.094629 -30.185 
L 306.735393 -30.185 
L 307.376157 -30.185 
L 308.016922 -30.185 
L 308.657686 -30.185 
L 309.29845 -30.185 
L 309.939214 -30.185 
L 310.579978 -30.185 
L 311.220742 -30.185 
L 311.861507 -30.185 
L 312.502271 -30.185 
L 313.143035 -30.185 
L 313.783799 -30.185 
L 314.424563 -30.185 
L 315.065327 -30.185 
L 315.706091 -30.185 
L 316.346856 -30.185 
L 316.98762 -30.185 
L 316.98762 -30.257135 
L 316.98762 -30.257135 
L 316.346856 -30.185 
L 315.706091 -30.185 
L 315.065327 -30.185 
L 314.424563 -30.401405 
L 313.783799 -30.32927 
L 313.143035 -30.185 
L 312.502271 -30.257135 
L 311.861507 -30.257135 
L 311.220742 -30.401405 
L 310.579978 -30.401405 
L 309.939214 -30.257135 
L 309.29845 -30.257135 
L 308.657686 -30.257135 
L 308.016922 -30.61781 
L 307.376157 -30.689945 
L 306.735393 -30.689945 
L 306.094629 -31.05062 
L 305.453865 -30.90635 
L 304.813101 -31.48343 
L 304.172337 -31.699835 
L 303.531572 -31.988375 
L 302.890808 -33.503211 
L 302.250044 -33.575346 
L 301.60928 -34.513101 
L 300.968516 -36.388611 
L 300.327752 -39.057607 
L 299.686988 -39.706822 
L 299.046223 -38.985472 
L 298.405459 -43.674248 
L 297.764695 -46.920323 
L 297.123931 -54.133825 
L 296.483167 -58.822601 
L 295.842403 -62.645756 
L 295.201638 -64.593402 
L 294.560874 -75.052979 
L 293.92011 -81.25659 
L 293.279346 -88.037281 
L 292.638582 -95.827863 
L 291.997818 -108.235085 
L 291.357054 -116.747017 
L 290.716289 -127.711539 
L 290.075525 -147.548668 
L 289.434761 -153.752279 
L 288.793997 -165.943096 
L 288.153233 -182.10134 
L 287.512469 -202.154873 
L 286.871704 -209.29624 
L 286.23094 -218.096712 
L 285.590176 -235.409115 
L 284.949412 -250.990278 
L 284.308648 -263.54177 
L 283.667884 -261.594125 
L 283.027119 -283.018224 
L 282.386355 -285.038005 
L 281.745591 -286.913515 
L 281.104827 -290.736671 
L 280.464063 -290.880941 
L 279.823299 -285.038005 
L 279.182535 -290.303861 
L 278.54177 -283.667439 
L 277.901006 -276.309668 
L 277.260242 -268.591221 
L 276.619478 -244.281722 
L 275.978714 -242.478346 
L 275.33795 -229.061234 
L 274.697185 -211.243885 
L 274.056421 -193.642942 
L 273.415657 -177.268294 
L 272.774893 -165.293881 
L 272.134129 -144.807537 
L 271.493365 -132.400315 
L 270.852601 -125.980299 
L 270.211836 -110.038461 
L 269.571072 -96.765618 
L 268.930308 -91.211222 
L 268.289544 -81.472995 
L 267.64878 -72.600388 
L 267.008016 -66.541047 
L 266.367251 -56.37001 
L 265.726487 -53.34034 
L 265.085723 -49.949994 
L 264.444959 -44.467733 
L 263.804195 -41.870872 
L 263.163431 -38.119852 
L 262.522666 -36.965691 
L 261.881902 -35.018046 
L 261.241138 -33.647481 
L 260.600374 -33.647481 
L 259.95961 -32.421185 
L 259.318846 -32.421185 
L 258.678082 -31.411295 
L 258.037317 -30.978485 
L 257.396553 -30.76208 
L 256.755789 -30.47354 
L 256.115025 -30.545675 
L 255.474261 -30.32927 
L 254.833497 -30.401405 
L 254.192732 -30.257135 
L 253.551968 -30.257135 
z
" id="mf8e113093d" style="stroke:#ff7f0e;stroke-width:0.48;"/>
    </defs>
    <g clip-path="url(#p552b17a01b)">
     <use style="fill:#ff7f0e;stroke:#ff7f0e;stroke-width:0.48;" x="0" xlink:href="#mf8e113093d" y="301.985"/>
    </g>
   </g>
   <g id="PolyCollection_3">
    <defs>
     <path d="M 283.265372 -30.239153 
L 283.265372 -30.185 
L 284.118915 -30.185 
L 284.972458 -30.185 
L 285.826001 -30.185 
L 286.679544 -30.185 
L 287.533087 -30.185 
L 288.386629 -30.185 
L 289.240172 -30.185 
L 290.093715 -30.185 
L 290.947258 -30.185 
L 291.800801 -30.185 
L 292.654344 -30.185 
L 293.507887 -30.185 
L 294.36143 -30.185 
L 295.214973 -30.185 
L 296.068516 -30.185 
L 296.922059 -30.185 
L 297.775602 -30.185 
L 298.629145 -30.185 
L 299.482688 -30.185 
L 300.336231 -30.185 
L 301.189774 -30.185 
L 302.043317 -30.185 
L 302.89686 -30.185 
L 303.750403 -30.185 
L 304.603946 -30.185 
L 305.457489 -30.185 
L 306.311032 -30.185 
L 307.164575 -30.185 
L 308.018118 -30.185 
L 308.871661 -30.185 
L 309.725203 -30.185 
L 310.578746 -30.185 
L 311.432289 -30.185 
L 312.285832 -30.185 
L 313.139375 -30.185 
L 313.992918 -30.185 
L 314.846461 -30.185 
L 315.700004 -30.185 
L 316.553547 -30.185 
L 317.40709 -30.185 
L 318.260633 -30.185 
L 319.114176 -30.185 
L 319.967719 -30.185 
L 320.821262 -30.185 
L 321.674805 -30.185 
L 322.528348 -30.185 
L 323.381891 -30.185 
L 324.235434 -30.185 
L 325.088977 -30.185 
L 325.94252 -30.185 
L 326.796063 -30.185 
L 327.649606 -30.185 
L 328.503149 -30.185 
L 329.356692 -30.185 
L 330.210235 -30.185 
L 331.063777 -30.185 
L 331.91732 -30.185 
L 332.770863 -30.185 
L 333.624406 -30.185 
L 334.477949 -30.185 
L 335.331492 -30.185 
L 336.185035 -30.185 
L 337.038578 -30.185 
L 337.892121 -30.185 
L 338.745664 -30.185 
L 339.599207 -30.185 
L 340.45275 -30.185 
L 341.306293 -30.185 
L 342.159836 -30.185 
L 343.013379 -30.185 
L 343.866922 -30.185 
L 344.720465 -30.185 
L 345.574008 -30.185 
L 346.427551 -30.185 
L 347.281094 -30.185 
L 348.134637 -30.185 
L 348.98818 -30.185 
L 349.841723 -30.185 
L 350.695266 -30.185 
L 351.548809 -30.185 
L 352.402352 -30.185 
L 353.255894 -30.185 
L 354.109437 -30.185 
L 354.96298 -30.185 
L 355.816523 -30.185 
L 356.670066 -30.185 
L 357.523609 -30.185 
L 358.377152 -30.185 
L 359.230695 -30.185 
L 360.084238 -30.185 
L 360.937781 -30.185 
L 361.791324 -30.185 
L 362.644867 -30.185 
L 363.49841 -30.185 
L 364.351953 -30.185 
L 365.205496 -30.185 
L 366.059039 -30.185 
L 366.912582 -30.185 
L 367.766125 -30.185 
L 367.766125 -30.239153 
L 367.766125 -30.239153 
L 366.912582 -30.185 
L 366.059039 -30.185 
L 365.205496 -30.239153 
L 364.351953 -30.185 
L 363.49841 -30.239153 
L 362.644867 -30.185 
L 361.791324 -30.239153 
L 360.937781 -30.239153 
L 360.084238 -30.185 
L 359.230695 -30.347458 
L 358.377152 -30.239153 
L 357.523609 -30.239153 
L 356.670066 -30.293305 
L 355.816523 -30.347458 
L 354.96298 -30.509915 
L 354.109437 -30.40161 
L 353.255894 -30.834831 
L 352.402352 -31.051441 
L 351.548809 -30.780678 
L 350.695266 -31.268051 
L 349.841723 -31.159746 
L 348.98818 -31.538814 
L 348.134637 -32.567712 
L 347.281094 -33.16339 
L 346.427551 -34.246442 
L 345.574008 -35.004577 
L 344.720465 -36.141781 
L 343.866922 -37.549747 
L 343.013379 -39.553392 
L 342.159836 -41.881952 
L 341.306293 -42.206867 
L 340.45275 -43.939749 
L 339.599207 -47.838733 
L 338.745664 -52.820768 
L 337.892121 -57.74865 
L 337.038578 -62.243312 
L 336.185035 -67.008737 
L 335.331492 -71.124331 
L 334.477949 -76.702044 
L 333.624406 -86.016283 
L 332.770863 -95.926201 
L 331.91732 -99.93349 
L 331.063777 -106.215186 
L 330.210235 -122.569257 
L 329.356692 -125.926716 
L 328.503149 -140.114685 
L 327.649606 -151.215959 
L 326.796063 -159.880367 
L 325.94252 -169.302912 
L 325.088977 -179.754355 
L 324.235434 -183.274271 
L 323.381891 -200.115715 
L 322.528348 -201.469529 
L 321.674805 -215.115973 
L 320.821262 -217.769448 
L 319.967719 -218.960804 
L 319.114176 -225.350805 
L 318.260633 -223.401313 
L 317.40709 -226.054788 
L 316.553547 -222.751483 
L 315.700004 -221.993347 
L 314.846461 -211.487751 
L 313.992918 -207.047242 
L 313.139375 -196.487494 
L 312.285832 -195.241985 
L 311.432289 -182.678593 
L 310.578746 -168.761386 
L 309.725203 -160.476045 
L 308.871661 -145.584093 
L 308.018118 -135.13265 
L 307.164575 -126.522394 
L 306.311032 -117.154002 
L 305.457489 -103.724169 
L 304.603946 -98.579676 
L 303.750403 -86.341199 
L 302.89686 -78.705689 
L 302.043317 -73.290433 
L 301.189774 -64.95094 
L 300.336231 -60.889498 
L 299.482688 -53.524751 
L 298.629145 -50.438055 
L 297.775602 -46.539071 
L 296.922059 -41.773647 
L 296.068516 -39.824155 
L 295.214973 -36.791612 
L 294.36143 -36.304239 
L 293.507887 -35.383645 
L 292.654344 -33.542458 
L 291.800801 -32.51356 
L 290.947258 -32.242797 
L 290.093715 -30.834831 
L 289.240172 -31.105593 
L 288.386629 -30.888983 
L 287.533087 -30.726526 
L 286.679544 -30.997288 
L 285.826001 -30.455763 
L 284.972458 -30.293305 
L 284.118915 -30.293305 
L 283.265372 -30.239153 
z
" id="m37bf20c3d4" style="stroke:#2ca02c;stroke-width:0.48;"/>
    </defs>
    <g clip-path="url(#p552b17a01b)">
     <use style="fill:#2ca02c;stroke:#2ca02c;stroke-width:0.48;" x="0" xlink:href="#m37bf20c3d4" y="301.985"/>
    </g>
   </g>
   <g id="PolyCollection_4">
    <defs>
     <path d="M 311.823039 -30.268172 
L 311.823039 -30.185 
L 312.934507 -30.185 
L 314.045976 -30.185 
L 315.157444 -30.185 
L 316.268912 -30.185 
L 317.380381 -30.185 
L 318.491849 -30.185 
L 319.603318 -30.185 
L 320.714786 -30.185 
L 321.826255 -30.185 
L 322.937723 -30.185 
L 324.049192 -30.185 
L 325.16066 -30.185 
L 326.272129 -30.185 
L 327.383597 -30.185 
L 328.495066 -30.185 
L 329.606534 -30.185 
L 330.718003 -30.185 
L 331.829471 -30.185 
L 332.94094 -30.185 
L 334.052408 -30.185 
L 335.163877 -30.185 
L 336.275345 -30.185 
L 337.386814 -30.185 
L 338.498282 -30.185 
L 339.60975 -30.185 
L 340.721219 -30.185 
L 341.832687 -30.185 
L 342.944156 -30.185 
L 344.055624 -30.185 
L 345.167093 -30.185 
L 346.278561 -30.185 
L 347.39003 -30.185 
L 348.501498 -30.185 
L 349.612967 -30.185 
L 350.724435 -30.185 
L 351.835904 -30.185 
L 352.947372 -30.185 
L 354.058841 -30.185 
L 355.170309 -30.185 
L 356.281778 -30.185 
L 357.393246 -30.185 
L 358.504715 -30.185 
L 359.616183 -30.185 
L 360.727651 -30.185 
L 361.83912 -30.185 
L 362.950588 -30.185 
L 364.062057 -30.185 
L 365.173525 -30.185 
L 366.284994 -30.185 
L 367.396462 -30.185 
L 368.507931 -30.185 
L 369.619399 -30.185 
L 370.730868 -30.185 
L 371.842336 -30.185 
L 372.953805 -30.185 
L 374.065273 -30.185 
L 375.176742 -30.185 
L 376.28821 -30.185 
L 377.399679 -30.185 
L 378.511147 -30.185 
L 379.622616 -30.185 
L 380.734084 -30.185 
L 381.845552 -30.185 
L 382.957021 -30.185 
L 384.068489 -30.185 
L 385.179958 -30.185 
L 386.291426 -30.185 
L 387.402895 -30.185 
L 388.514363 -30.185 
L 389.625832 -30.185 
L 390.7373 -30.185 
L 391.848769 -30.185 
L 392.960237 -30.185 
L 394.071706 -30.185 
L 395.183174 -30.185 
L 396.294643 -30.185 
L 397.406111 -30.185 
L 398.51758 -30.185 
L 399.629048 -30.185 
L 400.740517 -30.185 
L 401.851985 -30.185 
L 402.963454 -30.185 
L 404.074922 -30.185 
L 405.18639 -30.185 
L 406.297859 -30.185 
L 407.409327 -30.185 
L 408.520796 -30.185 
L 409.632264 -30.185 
L 410.743733 -30.185 
L 411.855201 -30.185 
L 412.96667 -30.185 
L 414.078138 -30.185 
L 415.189607 -30.185 
L 416.301075 -30.185 
L 417.412544 -30.185 
L 418.524012 -30.185 
L 419.635481 -30.185 
L 420.746949 -30.185 
L 421.858418 -30.185 
L 421.858418 -30.226586 
L 421.858418 -30.226586 
L 420.746949 -30.185 
L 419.635481 -30.226586 
L 418.524012 -30.226586 
L 417.412544 -30.185 
L 416.301075 -30.268172 
L 415.189607 -30.226586 
L 414.078138 -30.185 
L 412.96667 -30.226586 
L 411.855201 -30.351344 
L 410.743733 -30.226586 
L 409.632264 -30.434516 
L 408.520796 -30.309758 
L 407.409327 -30.39293 
L 406.297859 -30.559274 
L 405.18639 -30.434516 
L 404.074922 -30.80879 
L 402.963454 -30.80879 
L 401.851985 -31.183064 
L 400.740517 -31.266236 
L 399.629048 -31.682096 
L 398.51758 -32.181128 
L 397.406111 -32.971262 
L 396.294643 -32.929676 
L 395.183174 -33.802982 
L 394.071706 -34.3436 
L 392.960237 -36.00704 
L 391.848769 -36.797174 
L 390.7373 -38.127927 
L 389.625832 -38.918061 
L 388.514363 -41.454807 
L 387.402895 -43.450935 
L 386.291426 -45.862923 
L 385.179958 -48.898701 
L 384.068489 -50.978002 
L 382.957021 -54.887086 
L 381.845552 -60.334852 
L 380.734084 -62.039878 
L 379.622616 -67.071785 
L 378.511147 -71.521487 
L 377.399679 -78.300006 
L 376.28821 -85.619142 
L 375.176742 -89.403468 
L 374.065273 -95.059165 
L 372.953805 -107.28545 
L 371.842336 -112.442114 
L 370.730868 -118.887945 
L 369.619399 -122.090067 
L 368.507931 -133.235116 
L 367.396462 -136.853098 
L 366.284994 -147.873389 
L 365.173525 -151.948817 
L 364.062057 -159.392712 
L 362.950588 -164.008758 
L 361.83912 -165.838542 
L 360.727651 -171.618997 
L 359.616183 -172.034857 
L 358.504715 -172.325959 
L 357.393246 -174.488431 
L 356.281778 -175.153807 
L 355.170309 -169.955556 
L 354.058841 -168.915906 
L 352.947372 -166.836606 
L 351.835904 -154.818251 
L 350.724435 -150.243791 
L 349.612967 -149.703173 
L 348.501498 -140.096806 
L 347.39003 -133.692562 
L 346.278561 -124.959501 
L 345.167093 -115.269962 
L 344.055624 -108.283514 
L 342.944156 -101.712925 
L 341.832687 -95.350267 
L 340.721219 -86.492448 
L 339.60975 -79.547586 
L 338.498282 -70.689767 
L 337.386814 -65.408345 
L 336.275345 -62.497324 
L 335.163877 -56.342596 
L 334.052408 -52.017652 
L 332.94094 -48.191739 
L 331.829471 -43.866795 
L 330.718003 -41.912253 
L 329.606534 -39.791367 
L 328.495066 -38.003169 
L 327.383597 -35.59118 
L 326.272129 -34.801046 
L 325.16066 -33.886154 
L 324.049192 -32.638574 
L 322.937723 -31.890026 
L 321.826255 -31.557338 
L 320.714786 -31.099892 
L 319.603318 -31.22465 
L 318.491849 -30.684032 
L 317.380381 -30.684032 
L 316.268912 -30.434516 
L 315.157444 -30.268172 
L 314.045976 -30.351344 
L 312.934507 -30.268172 
L 311.823039 -30.268172 
z
" id="m5daa3a8f08" style="stroke:#d62728;stroke-width:0.48;"/>
    </defs>
    <g clip-path="url(#p552b17a01b)">
     <use style="fill:#d62728;stroke:#d62728;stroke-width:0.48;" x="0" xlink:href="#m5daa3a8f08" y="301.985"/>
    </g>
   </g>
   <g id="PathCollection_1">
    <defs>
     <path d="M 0 -10 
L -2.24514 -3.09017 
L -9.510565 -3.09017 
L -3.632713 1.18034 
L -5.877853 8.09017 
L -0 3.81966 
L 5.877853 8.09017 
L 3.632713 1.18034 
L 9.510565 -3.09017 
L 2.24514 -3.09017 
z
" id="m7da7840411" style="stroke:#000000;stroke-width:0.48;"/>
    </defs>
    <g clip-path="url(#p552b17a01b)">
     <use style="stroke:#000000;stroke-width:0.48;" x="124.34" xlink:href="#m7da7840411" y="142.371429"/>
    </g>
   </g>
   <g id="matplotlib.axis_1">
    <g id="xtick_1">
     <g id="line2d_1">
      <defs>
       <path d="M 0 0 
L 0 3.5 
" id="m7c66b19fc6" style="stroke:#000000;stroke-width:1.6;"/>
      </defs>
      <g>
       <use style="stroke:#000000;stroke-width:1.6;" x="35.06" xlink:href="#m7c66b19fc6" y="271.8"/>
      </g>
     </g>
     <g id="text_1">
      <!-- 0.0 -->
      <defs>
       <path d="M 31.78125 66.40625 
Q 24.171875 66.40625 20.328125 58.90625 
Q 16.5 51.421875 16.5 36.375 
Q 16.5 21.390625 20.328125 13.890625 
Q 24.171875 6.390625 31.78125 6.390625 
Q 39.453125 6.390625 43.28125 13.890625 
Q 47.125 21.390625 47.125 36.375 
Q 47.125 51.421875 43.28125 58.90625 
Q 39.453125 66.40625 31.78125 66.40625 
z
M 31.78125 74.21875 
Q 44.046875 74.21875 50.515625 64.515625 
Q 56.984375 54.828125 56.984375 36.375 
Q 56.984375 17.96875 50.515625 8.265625 
Q 44.046875 -1.421875 31.78125 -1.421875 
Q 19.53125 -1.421875 13.0625 8.265625 
Q 6.59375 17.96875 6.59375 36.375 
Q 6.59375 54.828125 13.0625 64.515625 
Q 19.53125 74.21875 31.78125 74.21875 
z
" id="DejaVuSans-48"/>
       <path d="M 10.6875 12.40625 
L 21 12.40625 
L 21 0 
L 10.6875 0 
z
" id="DejaVuSans-46"/>
      </defs>
      <g transform="translate(22.3375 298.6575)scale(0.16 -0.16)">
       <use xlink:href="#DejaVuSans-48"/>
       <use x="63.623047" xlink:href="#DejaVuSans-46"/>
       <use x="95.410156" xlink:href="#DejaVuSans-48"/>
      </g>
     </g>
    </g>
    <g id="xtick_2">
     <g id="line2d_2">
      <g>
       <use style="stroke:#000000;stroke-width:1.6;" x="124.34" xlink:href="#m7c66b19fc6" y="271.8"/>
      </g>
     </g>
     <g id="text_2">
      <!-- 0.5 -->
      <defs>
       <path d="M 10.796875 72.90625 
L 49.515625 72.90625 
L 49.515625 64.59375 
L 19.828125 64.59375 
L 19.828125 46.734375 
Q 21.96875 47.46875 24.109375 47.828125 
Q 26.265625 48.1875 28.421875 48.1875 
Q 40.625 48.1875 47.75 41.5 
Q 54.890625 34.8125 54.890625 23.390625 
Q 54.890625 11.625 47.5625 5.09375 
Q 40.234375 -1.421875 26.90625 -1.421875 
Q 22.3125 -1.421875 17.546875 -0.640625 
Q 12.796875 0.140625 7.71875 1.703125 
L 7.71875 11.625 
Q 12.109375 9.234375 16.796875 8.0625 
Q 21.484375 6.890625 26.703125 6.890625 
Q 35.15625 6.890625 40.078125 11.328125 
Q 45.015625 15.765625 45.015625 23.390625 
Q 45.015625 31 40.078125 35.4375 
Q 35.15625 39.890625 26.703125 39.890625 
Q 22.75 39.890625 18.8125 39.015625 
Q 14.890625 38.140625 10.796875 36.28125 
z
" id="DejaVuSans-53"/>
      </defs>
      <g transform="translate(111.6175 298.6575)scale(0.16 -0.16)">
       <use xlink:href="#DejaVuSans-48"/>
       <use x="63.623047" xlink:href="#DejaVuSans-46"/>
       <use x="95.410156" xlink:href="#DejaVuSans-53"/>
      </g>
     </g>
    </g>
    <g id="xtick_3">
     <g id="line2d_3">
      <g>
       <use style="stroke:#000000;stroke-width:1.6;" x="213.62" xlink:href="#m7c66b19fc6" y="271.8"/>
      </g>
     </g>
     <g id="text_3">
      <!-- 1.0 -->
      <defs>
       <path d="M 12.40625 8.296875 
L 28.515625 8.296875 
L 28.515625 63.921875 
L 10.984375 60.40625 
L 10.984375 69.390625 
L 28.421875 72.90625 
L 38.28125 72.90625 
L 38.28125 8.296875 
L 54.390625 8.296875 
L 54.390625 0 
L 12.40625 0 
z
" id="DejaVuSans-49"/>
      </defs>
      <g transform="translate(200.8975 298.6575)scale(0.16 -0.16)">
       <use xlink:href="#DejaVuSans-49"/>
       <use x="63.623047" xlink:href="#DejaVuSans-46"/>
       <use x="95.410156" xlink:href="#DejaVuSans-48"/>
      </g>
     </g>
    </g>
    <g id="xtick_4">
     <g id="line2d_4">
      <g>
       <use style="stroke:#000000;stroke-width:1.6;" x="302.9" xlink:href="#m7c66b19fc6" y="271.8"/>
      </g>
     </g>
     <g id="text_4">
      <!-- 1.5 -->
      <g transform="translate(290.1775 298.6575)scale(0.16 -0.16)">
       <use xlink:href="#DejaVuSans-49"/>
       <use x="63.623047" xlink:href="#DejaVuSans-46"/>
       <use x="95.410156" xlink:href="#DejaVuSans-53"/>
      </g>
     </g>
    </g>
    <g id="xtick_5">
     <g id="line2d_5">
      <g>
       <use style="stroke:#000000;stroke-width:1.6;" x="392.18" xlink:href="#m7c66b19fc6" y="271.8"/>
      </g>
     </g>
     <g id="text_5">
      <!-- 2.0 -->
      <defs>
       <path d="M 19.1875 8.296875 
L 53.609375 8.296875 
L 53.609375 0 
L 7.328125 0 
L 7.328125 8.296875 
Q 12.9375 14.109375 22.625 23.890625 
Q 32.328125 33.6875 34.8125 36.53125 
Q 39.546875 41.84375 41.421875 45.53125 
Q 43.3125 49.21875 43.3125 52.78125 
Q 43.3125 58.59375 39.234375 62.25 
Q 35.15625 65.921875 28.609375 65.921875 
Q 23.96875 65.921875 18.8125 64.3125 
Q 13.671875 62.703125 7.8125 59.421875 
L 7.8125 69.390625 
Q 13.765625 71.78125 18.9375 73 
Q 24.125 74.21875 28.421875 74.21875 
Q 39.75 74.21875 46.484375 68.546875 
Q 53.21875 62.890625 53.21875 53.421875 
Q 53.21875 48.921875 51.53125 44.890625 
Q 49.859375 40.875 45.40625 35.40625 
Q 44.1875 33.984375 37.640625 27.21875 
Q 31.109375 20.453125 19.1875 8.296875 
z
" id="DejaVuSans-50"/>
      </defs>
      <g transform="translate(379.4575 298.6575)scale(0.16 -0.16)">
       <use xlink:href="#DejaVuSans-50"/>
       <use x="63.623047" xlink:href="#DejaVuSans-46"/>
       <use x="95.410156" xlink:href="#DejaVuSans-48"/>
      </g>
     </g>
    </g>
    <g id="xtick_6">
     <g id="line2d_6">
      <g>
       <use style="stroke:#000000;stroke-width:1.6;" x="481.46" xlink:href="#m7c66b19fc6" y="271.8"/>
      </g>
     </g>
     <g id="text_6">
      <!-- 2.5 -->
      <g transform="translate(468.7375 298.6575)scale(0.16 -0.16)">
       <use xlink:href="#DejaVuSans-50"/>
       <use x="63.623047" xlink:href="#DejaVuSans-46"/>
       <use x="95.410156" xlink:href="#DejaVuSans-53"/>
      </g>
     </g>
    </g>
   </g>
   <g id="matplotlib.axis_2">
    <g id="ytick_1">
     <g id="line2d_7">
      <defs>
       <path d="M 0 0 
L -3.5 0 
" id="m9590815f4e" style="stroke:#000000;stroke-width:1.6;"/>
      </defs>
      <g>
       <use style="stroke:#000000;stroke-width:1.6;" x="35.06" xlink:href="#m9590815f4e" y="271.8"/>
      </g>
     </g>
     <g id="text_7">
      <!-- 0 -->
      <g transform="translate(10.18 277.87875)scale(0.16 -0.16)">
       <use xlink:href="#DejaVuSans-48"/>
      </g>
     </g>
    </g>
    <g id="ytick_2">
     <g id="line2d_8">
      <g>
       <use style="stroke:#000000;stroke-width:1.6;" x="35.06" xlink:href="#m9590815f4e" y="220.028571"/>
      </g>
     </g>
     <g id="text_8">
      <!-- 2 -->
      <g transform="translate(10.18 226.107321)scale(0.16 -0.16)">
       <use xlink:href="#DejaVuSans-50"/>
      </g>
     </g>
    </g>
    <g id="ytick_3">
     <g id="line2d_9">
      <g>
       <use style="stroke:#000000;stroke-width:1.6;" x="35.06" xlink:href="#m9590815f4e" y="168.257143"/>
      </g>
     </g>
     <g id="text_9">
      <!-- 4 -->
      <defs>
       <path d="M 37.796875 64.3125 
L 12.890625 25.390625 
L 37.796875 25.390625 
z
M 35.203125 72.90625 
L 47.609375 72.90625 
L 47.609375 25.390625 
L 58.015625 25.390625 
L 58.015625 17.1875 
L 47.609375 17.1875 
L 47.609375 0 
L 37.796875 0 
L 37.796875 17.1875 
L 4.890625 17.1875 
L 4.890625 26.703125 
z
" id="DejaVuSans-52"/>
      </defs>
      <g transform="translate(10.18 174.335893)scale(0.16 -0.16)">
       <use xlink:href="#DejaVuSans-52"/>
      </g>
     </g>
    </g>
    <g id="ytick_4">
     <g id="line2d_10">
      <g>
       <use style="stroke:#000000;stroke-width:1.6;" x="35.06" xlink:href="#m9590815f4e" y="116.485714"/>
      </g>
     </g>
     <g id="text_10">
      <!-- 6 -->
      <defs>
       <path d="M 33.015625 40.375 
Q 26.375 40.375 22.484375 35.828125 
Q 18.609375 31.296875 18.609375 23.390625 
Q 18.609375 15.53125 22.484375 10.953125 
Q 26.375 6.390625 33.015625 6.390625 
Q 39.65625 6.390625 43.53125 10.953125 
Q 47.40625 15.53125 47.40625 23.390625 
Q 47.40625 31.296875 43.53125 35.828125 
Q 39.65625 40.375 33.015625 40.375 
z
M 52.59375 71.296875 
L 52.59375 62.3125 
Q 48.875 64.0625 45.09375 64.984375 
Q 41.3125 65.921875 37.59375 65.921875 
Q 27.828125 65.921875 22.671875 59.328125 
Q 17.53125 52.734375 16.796875 39.40625 
Q 19.671875 43.65625 24.015625 45.921875 
Q 28.375 48.1875 33.59375 48.1875 
Q 44.578125 48.1875 50.953125 41.515625 
Q 57.328125 34.859375 57.328125 23.390625 
Q 57.328125 12.15625 50.6875 5.359375 
Q 44.046875 -1.421875 33.015625 -1.421875 
Q 20.359375 -1.421875 13.671875 8.265625 
Q 6.984375 17.96875 6.984375 36.375 
Q 6.984375 53.65625 15.1875 63.9375 
Q 23.390625 74.21875 37.203125 74.21875 
Q 40.921875 74.21875 44.703125 73.484375 
Q 48.484375 72.75 52.59375 71.296875 
z
" id="DejaVuSans-54"/>
      </defs>
      <g transform="translate(10.18 122.564464)scale(0.16 -0.16)">
       <use xlink:href="#DejaVuSans-54"/>
      </g>
     </g>
    </g>
    <g id="ytick_5">
     <g id="line2d_11">
      <g>
       <use style="stroke:#000000;stroke-width:1.6;" x="35.06" xlink:href="#m9590815f4e" y="64.714286"/>
      </g>
     </g>
     <g id="text_11">
      <!-- 8 -->
      <defs>
       <path d="M 31.78125 34.625 
Q 24.75 34.625 20.71875 30.859375 
Q 16.703125 27.09375 16.703125 20.515625 
Q 16.703125 13.921875 20.71875 10.15625 
Q 24.75 6.390625 31.78125 6.390625 
Q 38.8125 6.390625 42.859375 10.171875 
Q 46.921875 13.96875 46.921875 20.515625 
Q 46.921875 27.09375 42.890625 30.859375 
Q 38.875 34.625 31.78125 34.625 
z
M 21.921875 38.8125 
Q 15.578125 40.375 12.03125 44.71875 
Q 8.5 49.078125 8.5 55.328125 
Q 8.5 64.0625 14.71875 69.140625 
Q 20.953125 74.21875 31.78125 74.21875 
Q 42.671875 74.21875 48.875 69.140625 
Q 55.078125 64.0625 55.078125 55.328125 
Q 55.078125 49.078125 51.53125 44.71875 
Q 48 40.375 41.703125 38.8125 
Q 48.828125 37.15625 52.796875 32.3125 
Q 56.78125 27.484375 56.78125 20.515625 
Q 56.78125 9.90625 50.3125 4.234375 
Q 43.84375 -1.421875 31.78125 -1.421875 
Q 19.734375 -1.421875 13.25 4.234375 
Q 6.78125 9.90625 6.78125 20.515625 
Q 6.78125 27.484375 10.78125 32.3125 
Q 14.796875 37.15625 21.921875 38.8125 
z
M 18.3125 54.390625 
Q 18.3125 48.734375 21.84375 45.5625 
Q 25.390625 42.390625 31.78125 42.390625 
Q 38.140625 42.390625 41.71875 45.5625 
Q 45.3125 48.734375 45.3125 54.390625 
Q 45.3125 60.0625 41.71875 63.234375 
Q 38.140625 66.40625 31.78125 66.40625 
Q 25.390625 66.40625 21.84375 63.234375 
Q 18.3125 60.0625 18.3125 54.390625 
z
" id="DejaVuSans-56"/>
      </defs>
      <g transform="translate(10.18 70.793036)scale(0.16 -0.16)">
       <use xlink:href="#DejaVuSans-56"/>
      </g>
     </g>
    </g>
    <g id="ytick_6">
     <g id="line2d_12">
      <g>
       <use style="stroke:#000000;stroke-width:1.6;" x="35.06" xlink:href="#m9590815f4e" y="12.942857"/>
      </g>
     </g>
     <g id="text_12">
      <!-- 10 -->
      <g transform="translate(0 19.021607)scale(0.16 -0.16)">
       <use xlink:href="#DejaVuSans-49"/>
       <use x="63.623047" xlink:href="#DejaVuSans-48"/>
      </g>
     </g>
    </g>
   </g>
   <g id="line2d_13">
    <path clip-path="url(#p552b17a01b)" d="M 253.551968 271.744807 
L 254.192732 271.709151 
L 254.833497 271.647149 
L 255.474261 271.580935 
L 256.115025 271.510906 
L 256.755789 271.396523 
L 257.396553 271.183829 
L 258.037317 270.843937 
L 258.678082 270.386612 
L 259.318846 269.864161 
L 259.95961 269.284732 
L 260.600374 268.633682 
L 261.241138 267.883422 
L 261.881902 266.731703 
L 262.522666 265.05146 
L 263.163431 262.925235 
L 263.804195 260.198387 
L 264.444959 256.721426 
L 265.085723 252.667529 
L 265.726487 248.406828 
L 266.367251 243.235618 
L 267.008016 236.338585 
L 267.64878 228.507464 
L 268.289544 220.247899 
L 268.930308 211.428324 
L 269.571072 202.056151 
L 270.211836 191.131145 
L 270.852601 179.149807 
L 271.493365 167.450022 
L 272.134129 154.456069 
L 272.774893 139.234464 
L 273.415657 123.192155 
L 274.056421 107.161243 
L 274.697185 90.878827 
L 275.33795 75.599553 
L 275.978714 62.850274 
L 276.619478 51.004505 
L 277.260242 38.773765 
L 277.901006 27.911852 
L 278.54177 19.496868 
L 279.182535 14.957863 
L 279.823299 13.703308 
L 280.464063 12.64372 
L 281.104827 12.954115 
L 281.745591 15.339258 
L 282.386355 18.587801 
L 283.027119 24.810554 
L 283.667884 33.90212 
L 284.308648 42.877313 
L 284.949412 53.228575 
L 285.590176 66.406249 
L 286.23094 80.050924 
L 286.871704 92.238719 
L 287.512469 104.6972 
L 288.153233 119.486208 
L 288.793997 134.199536 
L 289.434761 146.337072 
L 290.075525 157.944151 
L 290.716289 171.127265 
L 291.357054 183.87234 
L 291.997818 195.014084 
L 292.638582 204.881477 
L 293.279346 213.323421 
L 293.92011 220.863177 
L 294.560874 228.014662 
L 295.201638 234.332865 
L 295.842403 239.316008 
L 296.483167 243.769312 
L 297.123931 248.648287 
L 297.764695 253.714403 
L 298.405459 258.083404 
L 299.046223 260.999201 
L 299.686988 262.500074 
L 300.327752 263.801562 
L 300.968516 265.433532 
L 301.60928 266.935928 
L 302.250044 268.049088 
L 302.890808 268.909292 
L 303.531572 269.637237 
L 304.172337 270.174615 
L 304.813101 270.575024 
L 305.453865 270.874486 
L 306.094629 271.072713 
L 306.735393 271.216144 
L 307.376157 271.327263 
L 308.016922 271.446615 
L 308.657686 271.587826 
L 309.29845 271.669829 
L 309.939214 271.653747 
L 310.579978 271.625642 
L 311.220742 271.659298 
L 311.861507 271.709841 
L 312.502271 271.730339 
L 313.143035 271.727896 
L 313.783799 271.705178 
L 314.424563 271.693605 
L 315.065327 271.727284 
L 315.706091 271.772791 
L 316.346856 271.785547 
L 316.98762 271.776124 
" style="fill:none;stroke:#000000;stroke-dasharray:10.36,4.48;stroke-dashoffset:0;stroke-width:2.8;"/>
   </g>
   <g id="line2d_14">
    <path clip-path="url(#p552b17a01b)" d="M 213.62 271.8 
L 213.62 0 
" style="fill:none;stroke:#808080;stroke-dasharray:10.36,4.48;stroke-dashoffset:0;stroke-width:2.8;"/>
   </g>
   <g id="patch_3">
    <path d="M 35.06 271.8 
L 35.06 0 
" style="fill:none;stroke:#000000;stroke-linecap:square;stroke-linejoin:miter;stroke-width:0.8;"/>
   </g>
   <g id="patch_4">
    <path d="M 481.46 271.8 
L 481.46 0 
" style="fill:none;stroke:#000000;stroke-linecap:square;stroke-linejoin:miter;stroke-width:0.8;"/>
   </g>
   <g id="patch_5">
    <path d="M 35.06 271.8 
L 481.46 271.8 
" style="fill:none;stroke:#000000;stroke-linecap:square;stroke-linejoin:miter;stroke-width:0.8;"/>
   </g>
   <g id="patch_6">
    <path d="M 35.06 0 
L 481.46 0 
" style="fill:none;stroke:#000000;stroke-linecap:square;stroke-linejoin:miter;stroke-width:0.8;"/>
   </g>
   <g id="legend_1">
    <g id="line2d_15"/>
    <g id="line2d_16">
     <defs>
      <path d="M 0 5.6 
C 1.485137 5.6 2.909647 5.009949 3.959798 3.959798 
C 5.009949 2.909647 5.6 1.485137 5.6 0 
C 5.6 -1.485137 5.009949 -2.909647 3.959798 -3.959798 
C 2.909647 -5.009949 1.485137 -5.6 0 -5.6 
C -1.485137 -5.6 -2.909647 -5.009949 -3.959798 -3.959798 
C -5.009949 -2.909647 -5.6 -1.485137 -5.6 0 
C -5.6 1.485137 -5.009949 2.909647 -3.959798 3.959798 
C -2.909647 5.009949 -1.485137 5.6 0 5.6 
z
" id="m7b520c0a37"/>
     </defs>
     <g>
      <use style="fill:#1f77b4;" x="57.46" xlink:href="#m7b520c0a37" y="12.9575"/>
     </g>
    </g>
    <g id="text_13">
     <!-- Degree -->
     <defs>
      <path d="M 19.671875 64.796875 
L 19.671875 8.109375 
L 31.59375 8.109375 
Q 46.6875 8.109375 53.6875 14.9375 
Q 60.6875 21.78125 60.6875 36.53125 
Q 60.6875 51.171875 53.6875 57.984375 
Q 46.6875 64.796875 31.59375 64.796875 
z
M 9.8125 72.90625 
L 30.078125 72.90625 
Q 51.265625 72.90625 61.171875 64.09375 
Q 71.09375 55.28125 71.09375 36.53125 
Q 71.09375 17.671875 61.125 8.828125 
Q 51.171875 0 30.078125 0 
L 9.8125 0 
z
" id="DejaVuSans-68"/>
      <path d="M 56.203125 29.59375 
L 56.203125 25.203125 
L 14.890625 25.203125 
Q 15.484375 15.921875 20.484375 11.0625 
Q 25.484375 6.203125 34.421875 6.203125 
Q 39.59375 6.203125 44.453125 7.46875 
Q 49.3125 8.734375 54.109375 11.28125 
L 54.109375 2.78125 
Q 49.265625 0.734375 44.1875 -0.34375 
Q 39.109375 -1.421875 33.890625 -1.421875 
Q 20.796875 -1.421875 13.15625 6.1875 
Q 5.515625 13.8125 5.515625 26.8125 
Q 5.515625 40.234375 12.765625 48.109375 
Q 20.015625 56 32.328125 56 
Q 43.359375 56 49.78125 48.890625 
Q 56.203125 41.796875 56.203125 29.59375 
z
M 47.21875 32.234375 
Q 47.125 39.59375 43.09375 43.984375 
Q 39.0625 48.390625 32.421875 48.390625 
Q 24.90625 48.390625 20.390625 44.140625 
Q 15.875 39.890625 15.1875 32.171875 
z
" id="DejaVuSans-101"/>
      <path d="M 45.40625 27.984375 
Q 45.40625 37.75 41.375 43.109375 
Q 37.359375 48.484375 30.078125 48.484375 
Q 22.859375 48.484375 18.828125 43.109375 
Q 14.796875 37.75 14.796875 27.984375 
Q 14.796875 18.265625 18.828125 12.890625 
Q 22.859375 7.515625 30.078125 7.515625 
Q 37.359375 7.515625 41.375 12.890625 
Q 45.40625 18.265625 45.40625 27.984375 
z
M 54.390625 6.78125 
Q 54.390625 -7.171875 48.1875 -13.984375 
Q 42 -20.796875 29.203125 -20.796875 
Q 24.46875 -20.796875 20.265625 -20.09375 
Q 16.0625 -19.390625 12.109375 -17.921875 
L 12.109375 -9.1875 
Q 16.0625 -11.328125 19.921875 -12.34375 
Q 23.78125 -13.375 27.78125 -13.375 
Q 36.625 -13.375 41.015625 -8.765625 
Q 45.40625 -4.15625 45.40625 5.171875 
L 45.40625 9.625 
Q 42.625 4.78125 38.28125 2.390625 
Q 33.9375 0 27.875 0 
Q 17.828125 0 11.671875 7.65625 
Q 5.515625 15.328125 5.515625 27.984375 
Q 5.515625 40.671875 11.671875 48.328125 
Q 17.828125 56 27.875 56 
Q 33.9375 56 38.28125 53.609375 
Q 42.625 51.21875 45.40625 46.390625 
L 45.40625 54.6875 
L 54.390625 54.6875 
z
" id="DejaVuSans-103"/>
      <path d="M 41.109375 46.296875 
Q 39.59375 47.171875 37.8125 47.578125 
Q 36.03125 48 33.890625 48 
Q 26.265625 48 22.1875 43.046875 
Q 18.109375 38.09375 18.109375 28.8125 
L 18.109375 0 
L 9.078125 0 
L 9.078125 54.6875 
L 18.109375 54.6875 
L 18.109375 46.1875 
Q 20.953125 51.171875 25.484375 53.578125 
Q 30.03125 56 36.53125 56 
Q 37.453125 56 38.578125 55.875 
Q 39.703125 55.765625 41.0625 55.515625 
z
" id="DejaVuSans-114"/>
     </defs>
     <g transform="translate(73.46 18.5575)scale(0.16 -0.16)">
      <use xlink:href="#DejaVuSans-68"/>
      <use x="77.001953" xlink:href="#DejaVuSans-101"/>
      <use x="138.525391" xlink:href="#DejaVuSans-103"/>
      <use x="202.001953" xlink:href="#DejaVuSans-114"/>
      <use x="243.083984" xlink:href="#DejaVuSans-101"/>
      <use x="304.607422" xlink:href="#DejaVuSans-101"/>
     </g>
    </g>
    <g id="line2d_17"/>
    <g id="line2d_18">
     <defs>
      <path d="M 0 5.6 
C 1.485137 5.6 2.909647 5.009949 3.959798 3.959798 
C 5.009949 2.909647 5.6 1.485137 5.6 0 
C 5.6 -1.485137 5.009949 -2.909647 3.959798 -3.959798 
C 2.909647 -5.009949 1.485137 -5.6 0 -5.6 
C -1.485137 -5.6 -2.909647 -5.009949 -3.959798 -3.959798 
C -5.009949 -2.909647 -5.6 -1.485137 -5.6 0 
C -5.6 1.485137 -5.009949 2.909647 -3.959798 3.959798 
C -2.909647 5.009949 -1.485137 5.6 0 5.6 
z
" id="mb8f52a78a0"/>
     </defs>
     <g>
      <use style="fill:#ff7f0e;" x="57.46" xlink:href="#mb8f52a78a0" y="36.4425"/>
     </g>
    </g>
    <g id="text_14">
     <!-- Betweenness -->
     <defs>
      <path d="M 19.671875 34.8125 
L 19.671875 8.109375 
L 35.5 8.109375 
Q 43.453125 8.109375 47.28125 11.40625 
Q 51.125 14.703125 51.125 21.484375 
Q 51.125 28.328125 47.28125 31.5625 
Q 43.453125 34.8125 35.5 34.8125 
z
M 19.671875 64.796875 
L 19.671875 42.828125 
L 34.28125 42.828125 
Q 41.5 42.828125 45.03125 45.53125 
Q 48.578125 48.25 48.578125 53.8125 
Q 48.578125 59.328125 45.03125 62.0625 
Q 41.5 64.796875 34.28125 64.796875 
z
M 9.8125 72.90625 
L 35.015625 72.90625 
Q 46.296875 72.90625 52.390625 68.21875 
Q 58.5 63.53125 58.5 54.890625 
Q 58.5 48.1875 55.375 44.234375 
Q 52.25 40.28125 46.1875 39.3125 
Q 53.46875 37.75 57.5 32.78125 
Q 61.53125 27.828125 61.53125 20.40625 
Q 61.53125 10.640625 54.890625 5.3125 
Q 48.25 0 35.984375 0 
L 9.8125 0 
z
" id="DejaVuSans-66"/>
      <path d="M 18.3125 70.21875 
L 18.3125 54.6875 
L 36.8125 54.6875 
L 36.8125 47.703125 
L 18.3125 47.703125 
L 18.3125 18.015625 
Q 18.3125 11.328125 20.140625 9.421875 
Q 21.96875 7.515625 27.59375 7.515625 
L 36.8125 7.515625 
L 36.8125 0 
L 27.59375 0 
Q 17.1875 0 13.234375 3.875 
Q 9.28125 7.765625 9.28125 18.015625 
L 9.28125 47.703125 
L 2.6875 47.703125 
L 2.6875 54.6875 
L 9.28125 54.6875 
L 9.28125 70.21875 
z
" id="DejaVuSans-116"/>
      <path d="M 4.203125 54.6875 
L 13.1875 54.6875 
L 24.421875 12.015625 
L 35.59375 54.6875 
L 46.1875 54.6875 
L 57.421875 12.015625 
L 68.609375 54.6875 
L 77.59375 54.6875 
L 63.28125 0 
L 52.6875 0 
L 40.921875 44.828125 
L 29.109375 0 
L 18.5 0 
z
" id="DejaVuSans-119"/>
      <path d="M 54.890625 33.015625 
L 54.890625 0 
L 45.90625 0 
L 45.90625 32.71875 
Q 45.90625 40.484375 42.875 44.328125 
Q 39.84375 48.1875 33.796875 48.1875 
Q 26.515625 48.1875 22.3125 43.546875 
Q 18.109375 38.921875 18.109375 30.90625 
L 18.109375 0 
L 9.078125 0 
L 9.078125 54.6875 
L 18.109375 54.6875 
L 18.109375 46.1875 
Q 21.34375 51.125 25.703125 53.5625 
Q 30.078125 56 35.796875 56 
Q 45.21875 56 50.046875 50.171875 
Q 54.890625 44.34375 54.890625 33.015625 
z
" id="DejaVuSans-110"/>
      <path d="M 44.28125 53.078125 
L 44.28125 44.578125 
Q 40.484375 46.53125 36.375 47.5 
Q 32.28125 48.484375 27.875 48.484375 
Q 21.1875 48.484375 17.84375 46.4375 
Q 14.5 44.390625 14.5 40.28125 
Q 14.5 37.15625 16.890625 35.375 
Q 19.28125 33.59375 26.515625 31.984375 
L 29.59375 31.296875 
Q 39.15625 29.25 43.1875 25.515625 
Q 47.21875 21.78125 47.21875 15.09375 
Q 47.21875 7.46875 41.1875 3.015625 
Q 35.15625 -1.421875 24.609375 -1.421875 
Q 20.21875 -1.421875 15.453125 -0.5625 
Q 10.6875 0.296875 5.421875 2 
L 5.421875 11.28125 
Q 10.40625 8.6875 15.234375 7.390625 
Q 20.0625 6.109375 24.8125 6.109375 
Q 31.15625 6.109375 34.5625 8.28125 
Q 37.984375 10.453125 37.984375 14.40625 
Q 37.984375 18.0625 35.515625 20.015625 
Q 33.0625 21.96875 24.703125 23.78125 
L 21.578125 24.515625 
Q 13.234375 26.265625 9.515625 29.90625 
Q 5.8125 33.546875 5.8125 39.890625 
Q 5.8125 47.609375 11.28125 51.796875 
Q 16.75 56 26.8125 56 
Q 31.78125 56 36.171875 55.265625 
Q 40.578125 54.546875 44.28125 53.078125 
z
" id="DejaVuSans-115"/>
     </defs>
     <g transform="translate(73.46 42.0425)scale(0.16 -0.16)">
      <use xlink:href="#DejaVuSans-66"/>
      <use x="68.603516" xlink:href="#DejaVuSans-101"/>
      <use x="130.126953" xlink:href="#DejaVuSans-116"/>
      <use x="169.335938" xlink:href="#DejaVuSans-119"/>
      <use x="251.123047" xlink:href="#DejaVuSans-101"/>
      <use x="312.646484" xlink:href="#DejaVuSans-101"/>
      <use x="374.169922" xlink:href="#DejaVuSans-110"/>
      <use x="437.548828" xlink:href="#DejaVuSans-110"/>
      <use x="500.927734" xlink:href="#DejaVuSans-101"/>
      <use x="562.451172" xlink:href="#DejaVuSans-115"/>
      <use x="614.550781" xlink:href="#DejaVuSans-115"/>
     </g>
    </g>
    <g id="line2d_19"/>
    <g id="line2d_20">
     <defs>
      <path d="M 0 5.6 
C 1.485137 5.6 2.909647 5.009949 3.959798 3.959798 
C 5.009949 2.909647 5.6 1.485137 5.6 0 
C 5.6 -1.485137 5.009949 -2.909647 3.959798 -3.959798 
C 2.909647 -5.009949 1.485137 -5.6 0 -5.6 
C -1.485137 -5.6 -2.909647 -5.009949 -3.959798 -3.959798 
C -5.009949 -2.909647 -5.6 -1.485137 -5.6 0 
C -5.6 1.485137 -5.009949 2.909647 -3.959798 3.959798 
C -2.909647 5.009949 -1.485137 5.6 0 5.6 
z
" id="m367a6548ff"/>
     </defs>
     <g>
      <use style="fill:#2ca02c;" x="57.46" xlink:href="#m367a6548ff" y="59.9275"/>
     </g>
    </g>
    <g id="text_15">
     <!-- Closeness -->
     <defs>
      <path d="M 64.40625 67.28125 
L 64.40625 56.890625 
Q 59.421875 61.53125 53.78125 63.8125 
Q 48.140625 66.109375 41.796875 66.109375 
Q 29.296875 66.109375 22.65625 58.46875 
Q 16.015625 50.828125 16.015625 36.375 
Q 16.015625 21.96875 22.65625 14.328125 
Q 29.296875 6.6875 41.796875 6.6875 
Q 48.140625 6.6875 53.78125 8.984375 
Q 59.421875 11.28125 64.40625 15.921875 
L 64.40625 5.609375 
Q 59.234375 2.09375 53.4375 0.328125 
Q 47.65625 -1.421875 41.21875 -1.421875 
Q 24.65625 -1.421875 15.125 8.703125 
Q 5.609375 18.84375 5.609375 36.375 
Q 5.609375 53.953125 15.125 64.078125 
Q 24.65625 74.21875 41.21875 74.21875 
Q 47.75 74.21875 53.53125 72.484375 
Q 59.328125 70.75 64.40625 67.28125 
z
" id="DejaVuSans-67"/>
      <path d="M 9.421875 75.984375 
L 18.40625 75.984375 
L 18.40625 0 
L 9.421875 0 
z
" id="DejaVuSans-108"/>
      <path d="M 30.609375 48.390625 
Q 23.390625 48.390625 19.1875 42.75 
Q 14.984375 37.109375 14.984375 27.296875 
Q 14.984375 17.484375 19.15625 11.84375 
Q 23.34375 6.203125 30.609375 6.203125 
Q 37.796875 6.203125 41.984375 11.859375 
Q 46.1875 17.53125 46.1875 27.296875 
Q 46.1875 37.015625 41.984375 42.703125 
Q 37.796875 48.390625 30.609375 48.390625 
z
M 30.609375 56 
Q 42.328125 56 49.015625 48.375 
Q 55.71875 40.765625 55.71875 27.296875 
Q 55.71875 13.875 49.015625 6.21875 
Q 42.328125 -1.421875 30.609375 -1.421875 
Q 18.84375 -1.421875 12.171875 6.21875 
Q 5.515625 13.875 5.515625 27.296875 
Q 5.515625 40.765625 12.171875 48.375 
Q 18.84375 56 30.609375 56 
z
" id="DejaVuSans-111"/>
     </defs>
     <g transform="translate(73.46 65.5275)scale(0.16 -0.16)">
      <use xlink:href="#DejaVuSans-67"/>
      <use x="69.824219" xlink:href="#DejaVuSans-108"/>
      <use x="97.607422" xlink:href="#DejaVuSans-111"/>
      <use x="158.789062" xlink:href="#DejaVuSans-115"/>
      <use x="210.888672" xlink:href="#DejaVuSans-101"/>
      <use x="272.412109" xlink:href="#DejaVuSans-110"/>
      <use x="335.791016" xlink:href="#DejaVuSans-101"/>
      <use x="397.314453" xlink:href="#DejaVuSans-115"/>
      <use x="449.414062" xlink:href="#DejaVuSans-115"/>
     </g>
    </g>
    <g id="line2d_21"/>
    <g id="line2d_22">
     <defs>
      <path d="M 0 5.6 
C 1.485137 5.6 2.909647 5.009949 3.959798 3.959798 
C 5.009949 2.909647 5.6 1.485137 5.6 0 
C 5.6 -1.485137 5.009949 -2.909647 3.959798 -3.959798 
C 2.909647 -5.009949 1.485137 -5.6 0 -5.6 
C -1.485137 -5.6 -2.909647 -5.009949 -3.959798 -3.959798 
C -5.009949 -2.909647 -5.6 -1.485137 -5.6 0 
C -5.6 1.485137 -5.009949 2.909647 -3.959798 3.959798 
C -2.909647 5.009949 -1.485137 5.6 0 5.6 
z
" id="mdc620d048f"/>
     </defs>
     <g>
      <use style="fill:#d62728;" x="57.46" xlink:href="#mdc620d048f" y="83.4125"/>
     </g>
    </g>
    <g id="text_16">
     <!-- Eigenvector -->
     <defs>
      <path d="M 9.8125 72.90625 
L 55.90625 72.90625 
L 55.90625 64.59375 
L 19.671875 64.59375 
L 19.671875 43.015625 
L 54.390625 43.015625 
L 54.390625 34.71875 
L 19.671875 34.71875 
L 19.671875 8.296875 
L 56.78125 8.296875 
L 56.78125 0 
L 9.8125 0 
z
" id="DejaVuSans-69"/>
      <path d="M 9.421875 54.6875 
L 18.40625 54.6875 
L 18.40625 0 
L 9.421875 0 
z
M 9.421875 75.984375 
L 18.40625 75.984375 
L 18.40625 64.59375 
L 9.421875 64.59375 
z
" id="DejaVuSans-105"/>
      <path d="M 2.984375 54.6875 
L 12.5 54.6875 
L 29.59375 8.796875 
L 46.6875 54.6875 
L 56.203125 54.6875 
L 35.6875 0 
L 23.484375 0 
z
" id="DejaVuSans-118"/>
      <path d="M 48.78125 52.59375 
L 48.78125 44.1875 
Q 44.96875 46.296875 41.140625 47.34375 
Q 37.3125 48.390625 33.40625 48.390625 
Q 24.65625 48.390625 19.8125 42.84375 
Q 14.984375 37.3125 14.984375 27.296875 
Q 14.984375 17.28125 19.8125 11.734375 
Q 24.65625 6.203125 33.40625 6.203125 
Q 37.3125 6.203125 41.140625 7.25 
Q 44.96875 8.296875 48.78125 10.40625 
L 48.78125 2.09375 
Q 45.015625 0.34375 40.984375 -0.53125 
Q 36.96875 -1.421875 32.421875 -1.421875 
Q 20.0625 -1.421875 12.78125 6.34375 
Q 5.515625 14.109375 5.515625 27.296875 
Q 5.515625 40.671875 12.859375 48.328125 
Q 20.21875 56 33.015625 56 
Q 37.15625 56 41.109375 55.140625 
Q 45.0625 54.296875 48.78125 52.59375 
z
" id="DejaVuSans-99"/>
     </defs>
     <g transform="translate(73.46 89.0125)scale(0.16 -0.16)">
      <use xlink:href="#DejaVuSans-69"/>
      <use x="63.183594" xlink:href="#DejaVuSans-105"/>
      <use x="90.966797" xlink:href="#DejaVuSans-103"/>
      <use x="154.443359" xlink:href="#DejaVuSans-101"/>
      <use x="215.966797" xlink:href="#DejaVuSans-110"/>
      <use x="279.345703" xlink:href="#DejaVuSans-118"/>
      <use x="338.525391" xlink:href="#DejaVuSans-101"/>
      <use x="400.048828" xlink:href="#DejaVuSans-99"/>
      <use x="455.029297" xlink:href="#DejaVuSans-116"/>
      <use x="494.238281" xlink:href="#DejaVuSans-111"/>
      <use x="555.419922" xlink:href="#DejaVuSans-114"/>
     </g>
    </g>
   </g>
  </g>
 </g>
 <defs>
  <clipPath id="p552b17a01b">
   <rect height="271.8" width="446.4" x="35.06" y="0"/>
  </clipPath>
 </defs>
</svg>
